<?xml version="1.0" encoding="utf-8"?>
<svg xmlns="http://www.w3.org/2000/svg" xmlns:xlink="http://www.w3.org/1999/xlink" width="600" height="400" viewBox="0 0 2400 1600">
<defs>
  <clipPath id="clip690">
    <rect x="0" y="0" width="2400" height="1600"/>
  </clipPath>
</defs>
<path clip-path="url(#clip690)" d="M0 1600 L2400 1600 L2400 0 L0 0  Z" fill="#ffffff" fill-rule="evenodd" fill-opacity="1"/>
<defs>
  <clipPath id="clip691">
    <rect x="480" y="0" width="1681" height="1600"/>
  </clipPath>
</defs>
<path clip-path="url(#clip690)" d="M272.297 1423.18 L2352.76 1423.18 L2352.76 47.2441 L272.297 47.2441  Z" fill="#ffffff" fill-rule="evenodd" fill-opacity="1"/>
<defs>
  <clipPath id="clip692">
    <rect x="272" y="47" width="2081" height="1377"/>
  </clipPath>
</defs>
<polyline clip-path="url(#clip692)" style="stroke:#000000; stroke-linecap:round; stroke-linejoin:round; stroke-width:2; stroke-opacity:0.1; fill:none" points="2157.82,1423.18 2157.82,47.2441 "/>
<polyline clip-path="url(#clip692)" style="stroke:#000000; stroke-linecap:round; stroke-linejoin:round; stroke-width:2; stroke-opacity:0.1; fill:none" points="1774.47,1423.18 1774.47,47.2441 "/>
<polyline clip-path="url(#clip692)" style="stroke:#000000; stroke-linecap:round; stroke-linejoin:round; stroke-width:2; stroke-opacity:0.1; fill:none" points="1391.12,1423.18 1391.12,47.2441 "/>
<polyline clip-path="url(#clip692)" style="stroke:#000000; stroke-linecap:round; stroke-linejoin:round; stroke-width:2; stroke-opacity:0.1; fill:none" points="1007.78,1423.18 1007.78,47.2441 "/>
<polyline clip-path="url(#clip692)" style="stroke:#000000; stroke-linecap:round; stroke-linejoin:round; stroke-width:2; stroke-opacity:0.1; fill:none" points="624.426,1423.18 624.426,47.2441 "/>
<polyline clip-path="url(#clip690)" style="stroke:#000000; stroke-linecap:round; stroke-linejoin:round; stroke-width:4; stroke-opacity:1; fill:none" points="2352.76,1423.18 272.297,1423.18 "/>
<polyline clip-path="url(#clip690)" style="stroke:#000000; stroke-linecap:round; stroke-linejoin:round; stroke-width:4; stroke-opacity:1; fill:none" points="2157.82,1423.18 2157.82,1404.28 "/>
<polyline clip-path="url(#clip690)" style="stroke:#000000; stroke-linecap:round; stroke-linejoin:round; stroke-width:4; stroke-opacity:1; fill:none" points="1774.47,1423.18 1774.47,1404.28 "/>
<polyline clip-path="url(#clip690)" style="stroke:#000000; stroke-linecap:round; stroke-linejoin:round; stroke-width:4; stroke-opacity:1; fill:none" points="1391.12,1423.18 1391.12,1404.28 "/>
<polyline clip-path="url(#clip690)" style="stroke:#000000; stroke-linecap:round; stroke-linejoin:round; stroke-width:4; stroke-opacity:1; fill:none" points="1007.78,1423.18 1007.78,1404.28 "/>
<polyline clip-path="url(#clip690)" style="stroke:#000000; stroke-linecap:round; stroke-linejoin:round; stroke-width:4; stroke-opacity:1; fill:none" points="624.426,1423.18 624.426,1404.28 "/>
<path clip-path="url(#clip690)" d="M2096.81 1468.75 L2126.48 1468.75 L2126.48 1472.69 L2096.81 1472.69 L2096.81 1468.75 Z" fill="#000000" fill-rule="nonzero" fill-opacity="1" /><path clip-path="url(#clip690)" d="M2137.38 1481.64 L2145.02 1481.64 L2145.02 1455.28 L2136.71 1456.95 L2136.71 1452.69 L2144.98 1451.02 L2149.65 1451.02 L2149.65 1481.64 L2157.29 1481.64 L2157.29 1485.58 L2137.38 1485.58 L2137.38 1481.64 Z" fill="#000000" fill-rule="nonzero" fill-opacity="1" /><path clip-path="url(#clip690)" d="M2166.78 1451.02 L2185.14 1451.02 L2185.14 1454.96 L2171.06 1454.96 L2171.06 1463.43 Q2172.08 1463.08 2173.1 1462.92 Q2174.12 1462.73 2175.14 1462.73 Q2180.93 1462.73 2184.31 1465.9 Q2187.68 1469.08 2187.68 1474.49 Q2187.68 1480.07 2184.21 1483.17 Q2180.74 1486.25 2174.42 1486.25 Q2172.25 1486.25 2169.98 1485.88 Q2167.73 1485.51 2165.32 1484.77 L2165.32 1480.07 Q2167.41 1481.2 2169.63 1481.76 Q2171.85 1482.32 2174.33 1482.32 Q2178.33 1482.32 2180.67 1480.21 Q2183.01 1478.1 2183.01 1474.49 Q2183.01 1470.88 2180.67 1468.77 Q2178.33 1466.67 2174.33 1466.67 Q2172.45 1466.67 2170.58 1467.08 Q2168.73 1467.5 2166.78 1468.38 L2166.78 1451.02 Z" fill="#000000" fill-rule="nonzero" fill-opacity="1" /><path clip-path="url(#clip690)" d="M2206.9 1454.1 Q2203.29 1454.1 2201.46 1457.66 Q2199.65 1461.2 2199.65 1468.33 Q2199.65 1475.44 2201.46 1479.01 Q2203.29 1482.55 2206.9 1482.55 Q2210.53 1482.55 2212.34 1479.01 Q2214.17 1475.44 2214.17 1468.33 Q2214.17 1461.2 2212.34 1457.66 Q2210.53 1454.1 2206.9 1454.1 M2206.9 1450.39 Q2212.71 1450.39 2215.76 1455 Q2218.84 1459.58 2218.84 1468.33 Q2218.84 1477.06 2215.76 1481.67 Q2212.71 1486.25 2206.9 1486.25 Q2201.09 1486.25 2198.01 1481.67 Q2194.95 1477.06 2194.95 1468.33 Q2194.95 1459.58 2198.01 1455 Q2201.09 1450.39 2206.9 1450.39 Z" fill="#000000" fill-rule="nonzero" fill-opacity="1" /><path clip-path="url(#clip690)" d="M1713.46 1468.75 L1743.13 1468.75 L1743.13 1472.69 L1713.46 1472.69 L1713.46 1468.75 Z" fill="#000000" fill-rule="nonzero" fill-opacity="1" /><path clip-path="url(#clip690)" d="M1754.03 1481.64 L1761.67 1481.64 L1761.67 1455.28 L1753.36 1456.95 L1753.36 1452.69 L1761.63 1451.02 L1766.3 1451.02 L1766.3 1481.64 L1773.94 1481.64 L1773.94 1485.58 L1754.03 1485.58 L1754.03 1481.64 Z" fill="#000000" fill-rule="nonzero" fill-opacity="1" /><path clip-path="url(#clip690)" d="M1793.39 1454.1 Q1789.78 1454.1 1787.95 1457.66 Q1786.14 1461.2 1786.14 1468.33 Q1786.14 1475.44 1787.95 1479.01 Q1789.78 1482.55 1793.39 1482.55 Q1797.02 1482.55 1798.83 1479.01 Q1800.65 1475.44 1800.65 1468.33 Q1800.65 1461.2 1798.83 1457.66 Q1797.02 1454.1 1793.39 1454.1 M1793.39 1450.39 Q1799.2 1450.39 1802.25 1455 Q1805.33 1459.58 1805.33 1468.33 Q1805.33 1477.06 1802.25 1481.67 Q1799.2 1486.25 1793.39 1486.25 Q1787.58 1486.25 1784.5 1481.67 Q1781.44 1477.06 1781.44 1468.33 Q1781.44 1459.58 1784.5 1455 Q1787.58 1450.39 1793.39 1450.39 Z" fill="#000000" fill-rule="nonzero" fill-opacity="1" /><path clip-path="url(#clip690)" d="M1823.55 1454.1 Q1819.94 1454.1 1818.11 1457.66 Q1816.3 1461.2 1816.3 1468.33 Q1816.3 1475.44 1818.11 1479.01 Q1819.94 1482.55 1823.55 1482.55 Q1827.18 1482.55 1828.99 1479.01 Q1830.82 1475.44 1830.82 1468.33 Q1830.82 1461.2 1828.99 1457.66 Q1827.18 1454.1 1823.55 1454.1 M1823.55 1450.39 Q1829.36 1450.39 1832.41 1455 Q1835.49 1459.58 1835.49 1468.33 Q1835.49 1477.06 1832.41 1481.67 Q1829.36 1486.25 1823.55 1486.25 Q1817.74 1486.25 1814.66 1481.67 Q1811.6 1477.06 1811.6 1468.33 Q1811.6 1459.58 1814.66 1455 Q1817.74 1450.39 1823.55 1450.39 Z" fill="#000000" fill-rule="nonzero" fill-opacity="1" /><path clip-path="url(#clip690)" d="M1345.19 1468.75 L1374.86 1468.75 L1374.86 1472.69 L1345.19 1472.69 L1345.19 1468.75 Z" fill="#000000" fill-rule="nonzero" fill-opacity="1" /><path clip-path="url(#clip690)" d="M1385 1451.02 L1403.36 1451.02 L1403.36 1454.96 L1389.28 1454.96 L1389.28 1463.43 Q1390.3 1463.08 1391.32 1462.92 Q1392.34 1462.73 1393.36 1462.73 Q1399.15 1462.73 1402.53 1465.9 Q1405.9 1469.08 1405.9 1474.49 Q1405.9 1480.07 1402.43 1483.17 Q1398.96 1486.25 1392.64 1486.25 Q1390.47 1486.25 1388.2 1485.88 Q1385.95 1485.51 1383.54 1484.77 L1383.54 1480.07 Q1385.63 1481.2 1387.85 1481.76 Q1390.07 1482.32 1392.55 1482.32 Q1396.55 1482.32 1398.89 1480.21 Q1401.23 1478.1 1401.23 1474.49 Q1401.23 1470.88 1398.89 1468.77 Q1396.55 1466.67 1392.55 1466.67 Q1390.67 1466.67 1388.8 1467.08 Q1386.95 1467.5 1385 1468.38 L1385 1451.02 Z" fill="#000000" fill-rule="nonzero" fill-opacity="1" /><path clip-path="url(#clip690)" d="M1425.12 1454.1 Q1421.51 1454.1 1419.68 1457.66 Q1417.87 1461.2 1417.87 1468.33 Q1417.87 1475.44 1419.68 1479.01 Q1421.51 1482.55 1425.12 1482.55 Q1428.75 1482.55 1430.56 1479.01 Q1432.39 1475.44 1432.39 1468.33 Q1432.39 1461.2 1430.56 1457.66 Q1428.75 1454.1 1425.12 1454.1 M1425.12 1450.39 Q1430.93 1450.39 1433.98 1455 Q1437.06 1459.58 1437.06 1468.33 Q1437.06 1477.06 1433.98 1481.67 Q1430.93 1486.25 1425.12 1486.25 Q1419.31 1486.25 1416.23 1481.67 Q1413.17 1477.06 1413.17 1468.33 Q1413.17 1459.58 1416.23 1455 Q1419.31 1450.39 1425.12 1450.39 Z" fill="#000000" fill-rule="nonzero" fill-opacity="1" /><path clip-path="url(#clip690)" d="M1007.78 1454.1 Q1004.16 1454.1 1002.34 1457.66 Q1000.53 1461.2 1000.53 1468.33 Q1000.53 1475.44 1002.34 1479.01 Q1004.16 1482.55 1007.78 1482.55 Q1011.41 1482.55 1013.22 1479.01 Q1015.04 1475.44 1015.04 1468.33 Q1015.04 1461.2 1013.22 1457.66 Q1011.41 1454.1 1007.78 1454.1 M1007.78 1450.39 Q1013.59 1450.39 1016.64 1455 Q1019.72 1459.58 1019.72 1468.33 Q1019.72 1477.06 1016.64 1481.67 Q1013.59 1486.25 1007.78 1486.25 Q1001.97 1486.25 998.887 1481.67 Q995.831 1477.06 995.831 1468.33 Q995.831 1459.58 998.887 1455 Q1001.97 1450.39 1007.78 1450.39 Z" fill="#000000" fill-rule="nonzero" fill-opacity="1" /><path clip-path="url(#clip690)" d="M599.125 1451.02 L617.481 1451.02 L617.481 1454.96 L603.407 1454.96 L603.407 1463.43 Q604.426 1463.08 605.444 1462.92 Q606.463 1462.73 607.481 1462.73 Q613.268 1462.73 616.648 1465.9 Q620.028 1469.08 620.028 1474.49 Q620.028 1480.07 616.555 1483.17 Q613.083 1486.25 606.764 1486.25 Q604.588 1486.25 602.319 1485.88 Q600.074 1485.51 597.667 1484.77 L597.667 1480.07 Q599.75 1481.2 601.972 1481.76 Q604.194 1482.32 606.671 1482.32 Q610.676 1482.32 613.014 1480.21 Q615.352 1478.1 615.352 1474.49 Q615.352 1470.88 613.014 1468.77 Q610.676 1466.67 606.671 1466.67 Q604.796 1466.67 602.921 1467.08 Q601.069 1467.5 599.125 1468.38 L599.125 1451.02 Z" fill="#000000" fill-rule="nonzero" fill-opacity="1" /><path clip-path="url(#clip690)" d="M639.241 1454.1 Q635.629 1454.1 633.801 1457.66 Q631.995 1461.2 631.995 1468.33 Q631.995 1475.44 633.801 1479.01 Q635.629 1482.55 639.241 1482.55 Q642.875 1482.55 644.68 1479.01 Q646.509 1475.44 646.509 1468.33 Q646.509 1461.2 644.68 1457.66 Q642.875 1454.1 639.241 1454.1 M639.241 1450.39 Q645.051 1450.39 648.106 1455 Q651.185 1459.58 651.185 1468.33 Q651.185 1477.06 648.106 1481.67 Q645.051 1486.25 639.241 1486.25 Q633.43 1486.25 630.352 1481.67 Q627.296 1477.06 627.296 1468.33 Q627.296 1459.58 630.352 1455 Q633.43 1450.39 639.241 1450.39 Z" fill="#000000" fill-rule="nonzero" fill-opacity="1" /><path clip-path="url(#clip690)" d="M1177.19 1526.86 L1164.14 1562.7 L1190.27 1562.7 L1177.19 1526.86 M1155.42 1568.04 L1173.56 1520.52 L1180.85 1520.52 L1198.96 1568.04 L1155.42 1568.04 Z" fill="#000000" fill-rule="nonzero" fill-opacity="1" /><path clip-path="url(#clip690)" d="M1226.3 1537.87 Q1225.32 1537.3 1224.14 1537.04 Q1222.99 1536.76 1221.59 1536.76 Q1216.63 1536.76 1213.95 1540 Q1211.31 1543.22 1211.31 1549.27 L1211.31 1568.04 L1205.42 1568.04 L1205.42 1532.4 L1211.31 1532.4 L1211.31 1537.93 Q1213.16 1534.69 1216.12 1533.13 Q1219.08 1531.54 1223.31 1531.54 Q1223.92 1531.54 1224.65 1531.63 Q1225.38 1531.7 1226.27 1531.85 L1226.3 1537.87 Z" fill="#000000" fill-rule="nonzero" fill-opacity="1" /><path clip-path="url(#clip690)" d="M1248.65 1550.12 Q1241.55 1550.12 1238.81 1551.75 Q1236.07 1553.37 1236.07 1557.29 Q1236.07 1560.4 1238.11 1562.25 Q1240.18 1564.07 1243.71 1564.07 Q1248.58 1564.07 1251.51 1560.63 Q1254.47 1557.16 1254.47 1551.43 L1254.47 1550.12 L1248.65 1550.12 M1260.33 1547.71 L1260.33 1568.04 L1254.47 1568.04 L1254.47 1562.63 Q1252.47 1565.88 1249.47 1567.44 Q1246.48 1568.97 1242.15 1568.97 Q1236.68 1568.97 1233.43 1565.91 Q1230.22 1562.82 1230.22 1557.67 Q1230.22 1551.65 1234.23 1548.6 Q1238.27 1545.54 1246.26 1545.54 L1254.47 1545.54 L1254.47 1544.97 Q1254.47 1540.93 1251.8 1538.73 Q1249.16 1536.5 1244.35 1536.5 Q1241.29 1536.5 1238.4 1537.23 Q1235.5 1537.97 1232.83 1539.43 L1232.83 1534.02 Q1236.04 1532.78 1239.07 1532.17 Q1242.09 1531.54 1244.95 1531.54 Q1252.69 1531.54 1256.51 1535.55 Q1260.33 1539.56 1260.33 1547.71 Z" fill="#000000" fill-rule="nonzero" fill-opacity="1" /><path clip-path="url(#clip690)" d="M1292.57 1518.52 L1306.07 1518.52 L1306.07 1523.07 L1298.43 1523.07 L1298.43 1572.09 L1306.07 1572.09 L1306.07 1576.64 L1292.57 1576.64 L1292.57 1518.52 Z" fill="#000000" fill-rule="nonzero" fill-opacity="1" /><path clip-path="url(#clip690)" d="M1346.3 1539.24 Q1348.49 1535.29 1351.55 1533.41 Q1354.6 1531.54 1358.74 1531.54 Q1364.31 1531.54 1367.33 1535.45 Q1370.36 1539.33 1370.36 1546.53 L1370.36 1568.04 L1364.47 1568.04 L1364.47 1546.72 Q1364.47 1541.59 1362.66 1539.11 Q1360.84 1536.63 1357.12 1536.63 Q1352.57 1536.63 1349.92 1539.65 Q1347.28 1542.68 1347.28 1547.9 L1347.28 1568.04 L1341.39 1568.04 L1341.39 1546.72 Q1341.39 1541.56 1339.58 1539.11 Q1337.77 1536.63 1333.98 1536.63 Q1329.49 1536.63 1326.85 1539.68 Q1324.21 1542.71 1324.21 1547.9 L1324.21 1568.04 L1318.32 1568.04 L1318.32 1532.4 L1324.21 1532.4 L1324.21 1537.93 Q1326.21 1534.66 1329.01 1533.1 Q1331.81 1531.54 1335.67 1531.54 Q1339.55 1531.54 1342.25 1533.51 Q1344.99 1535.48 1346.3 1539.24 Z" fill="#000000" fill-rule="nonzero" fill-opacity="1" /><path clip-path="url(#clip690)" d="M1398.24 1550.12 Q1391.14 1550.12 1388.41 1551.75 Q1385.67 1553.37 1385.67 1557.29 Q1385.67 1560.4 1387.71 1562.25 Q1389.77 1564.07 1393.31 1564.07 Q1398.18 1564.07 1401.11 1560.63 Q1404.07 1557.16 1404.07 1551.43 L1404.07 1550.12 L1398.24 1550.12 M1409.92 1547.71 L1409.92 1568.04 L1404.07 1568.04 L1404.07 1562.63 Q1402.06 1565.88 1399.07 1567.44 Q1396.08 1568.97 1391.75 1568.97 Q1386.27 1568.97 1383.03 1565.91 Q1379.81 1562.82 1379.81 1557.67 Q1379.81 1551.65 1383.82 1548.6 Q1387.86 1545.54 1395.85 1545.54 L1404.07 1545.54 L1404.07 1544.97 Q1404.07 1540.93 1401.39 1538.73 Q1398.75 1536.5 1393.94 1536.5 Q1390.89 1536.5 1387.99 1537.23 Q1385.1 1537.97 1382.42 1539.43 L1382.42 1534.02 Q1385.64 1532.78 1388.66 1532.17 Q1391.68 1531.54 1394.55 1531.54 Q1402.28 1531.54 1406.1 1535.55 Q1409.92 1539.56 1409.92 1547.71 Z" fill="#000000" fill-rule="nonzero" fill-opacity="1" /><path clip-path="url(#clip690)" d="M1444.71 1533.45 L1444.71 1538.98 Q1442.23 1537.71 1439.55 1537.07 Q1436.88 1536.44 1434.02 1536.44 Q1429.66 1536.44 1427.46 1537.77 Q1425.29 1539.11 1425.29 1541.79 Q1425.29 1543.82 1426.85 1545 Q1428.41 1546.15 1433.12 1547.2 L1435.13 1547.64 Q1441.37 1548.98 1443.98 1551.43 Q1446.62 1553.85 1446.62 1558.21 Q1446.62 1563.17 1442.67 1566.07 Q1438.76 1568.97 1431.88 1568.97 Q1429.02 1568.97 1425.9 1568.39 Q1422.81 1567.85 1419.37 1566.74 L1419.37 1560.69 Q1422.62 1562.38 1425.77 1563.24 Q1428.92 1564.07 1432.01 1564.07 Q1436.15 1564.07 1438.38 1562.66 Q1440.6 1561.23 1440.6 1558.65 Q1440.6 1556.27 1438.98 1554.99 Q1437.39 1553.72 1431.95 1552.54 L1429.91 1552.07 Q1424.47 1550.92 1422.05 1548.56 Q1419.63 1546.18 1419.63 1542.04 Q1419.63 1537.01 1423.19 1534.27 Q1426.76 1531.54 1433.32 1531.54 Q1436.56 1531.54 1439.43 1532.01 Q1442.29 1532.49 1444.71 1533.45 Z" fill="#000000" fill-rule="nonzero" fill-opacity="1" /><path clip-path="url(#clip690)" d="M1469.63 1518.52 L1469.63 1576.64 L1456.14 1576.64 L1456.14 1572.09 L1463.74 1572.09 L1463.74 1523.07 L1456.14 1523.07 L1456.14 1518.52 L1469.63 1518.52 Z" fill="#000000" fill-rule="nonzero" fill-opacity="1" /><polyline clip-path="url(#clip692)" style="stroke:#000000; stroke-linecap:round; stroke-linejoin:round; stroke-width:2; stroke-opacity:0.1; fill:none" points="2352.76,1342.78 272.297,1342.78 "/>
<polyline clip-path="url(#clip692)" style="stroke:#000000; stroke-linecap:round; stroke-linejoin:round; stroke-width:2; stroke-opacity:0.1; fill:none" points="2352.76,1151.1 272.297,1151.1 "/>
<polyline clip-path="url(#clip692)" style="stroke:#000000; stroke-linecap:round; stroke-linejoin:round; stroke-width:2; stroke-opacity:0.1; fill:none" points="2352.76,959.43 272.297,959.43 "/>
<polyline clip-path="url(#clip692)" style="stroke:#000000; stroke-linecap:round; stroke-linejoin:round; stroke-width:2; stroke-opacity:0.1; fill:none" points="2352.76,767.755 272.297,767.755 "/>
<polyline clip-path="url(#clip692)" style="stroke:#000000; stroke-linecap:round; stroke-linejoin:round; stroke-width:2; stroke-opacity:0.1; fill:none" points="2352.76,576.08 272.297,576.08 "/>
<polyline clip-path="url(#clip692)" style="stroke:#000000; stroke-linecap:round; stroke-linejoin:round; stroke-width:2; stroke-opacity:0.1; fill:none" points="2352.76,384.406 272.297,384.406 "/>
<polyline clip-path="url(#clip692)" style="stroke:#000000; stroke-linecap:round; stroke-linejoin:round; stroke-width:2; stroke-opacity:0.1; fill:none" points="2352.76,192.731 272.297,192.731 "/>
<polyline clip-path="url(#clip690)" style="stroke:#000000; stroke-linecap:round; stroke-linejoin:round; stroke-width:4; stroke-opacity:1; fill:none" points="272.297,1423.18 272.297,47.2441 "/>
<polyline clip-path="url(#clip690)" style="stroke:#000000; stroke-linecap:round; stroke-linejoin:round; stroke-width:4; stroke-opacity:1; fill:none" points="272.297,1342.78 291.194,1342.78 "/>
<polyline clip-path="url(#clip690)" style="stroke:#000000; stroke-linecap:round; stroke-linejoin:round; stroke-width:4; stroke-opacity:1; fill:none" points="272.297,1151.1 291.194,1151.1 "/>
<polyline clip-path="url(#clip690)" style="stroke:#000000; stroke-linecap:round; stroke-linejoin:round; stroke-width:4; stroke-opacity:1; fill:none" points="272.297,959.43 291.194,959.43 "/>
<polyline clip-path="url(#clip690)" style="stroke:#000000; stroke-linecap:round; stroke-linejoin:round; stroke-width:4; stroke-opacity:1; fill:none" points="272.297,767.755 291.194,767.755 "/>
<polyline clip-path="url(#clip690)" style="stroke:#000000; stroke-linecap:round; stroke-linejoin:round; stroke-width:4; stroke-opacity:1; fill:none" points="272.297,576.08 291.194,576.08 "/>
<polyline clip-path="url(#clip690)" style="stroke:#000000; stroke-linecap:round; stroke-linejoin:round; stroke-width:4; stroke-opacity:1; fill:none" points="272.297,384.406 291.194,384.406 "/>
<polyline clip-path="url(#clip690)" style="stroke:#000000; stroke-linecap:round; stroke-linejoin:round; stroke-width:4; stroke-opacity:1; fill:none" points="272.297,192.731 291.194,192.731 "/>
<path clip-path="url(#clip690)" d="M115.256 1343.23 L144.931 1343.23 L144.931 1347.17 L115.256 1347.17 L115.256 1343.23 Z" fill="#000000" fill-rule="nonzero" fill-opacity="1" /><path clip-path="url(#clip690)" d="M155.834 1356.12 L163.473 1356.12 L163.473 1329.76 L155.163 1331.43 L155.163 1327.17 L163.427 1325.5 L168.102 1325.5 L168.102 1356.12 L175.741 1356.12 L175.741 1360.06 L155.834 1360.06 L155.834 1356.12 Z" fill="#000000" fill-rule="nonzero" fill-opacity="1" /><path clip-path="url(#clip690)" d="M189.213 1356.12 L205.533 1356.12 L205.533 1360.06 L183.588 1360.06 L183.588 1356.12 Q186.251 1353.37 190.834 1348.74 Q195.44 1344.09 196.621 1342.74 Q198.866 1340.22 199.746 1338.49 Q200.649 1336.73 200.649 1335.04 Q200.649 1332.28 198.704 1330.55 Q196.783 1328.81 193.681 1328.81 Q191.482 1328.81 189.028 1329.57 Q186.598 1330.34 183.82 1331.89 L183.82 1327.17 Q186.644 1326.03 189.098 1325.45 Q191.551 1324.87 193.588 1324.87 Q198.959 1324.87 202.153 1327.56 Q205.348 1330.24 205.348 1334.74 Q205.348 1336.87 204.537 1338.79 Q203.75 1340.68 201.644 1343.28 Q201.065 1343.95 197.963 1347.17 Q194.862 1350.36 189.213 1356.12 Z" fill="#000000" fill-rule="nonzero" fill-opacity="1" /><path clip-path="url(#clip690)" d="M215.394 1325.5 L233.75 1325.5 L233.75 1329.43 L219.676 1329.43 L219.676 1337.91 Q220.695 1337.56 221.713 1337.4 Q222.732 1337.21 223.75 1337.21 Q229.537 1337.21 232.917 1340.38 Q236.297 1343.55 236.297 1348.97 Q236.297 1354.55 232.824 1357.65 Q229.352 1360.73 223.033 1360.73 Q220.857 1360.73 218.588 1360.36 Q216.343 1359.99 213.936 1359.25 L213.936 1354.55 Q216.019 1355.68 218.241 1356.24 Q220.463 1356.8 222.94 1356.8 Q226.945 1356.8 229.283 1354.69 Q231.621 1352.58 231.621 1348.97 Q231.621 1345.36 229.283 1343.25 Q226.945 1341.15 222.94 1341.15 Q221.065 1341.15 219.19 1341.56 Q217.338 1341.98 215.394 1342.86 L215.394 1325.5 Z" fill="#000000" fill-rule="nonzero" fill-opacity="1" /><path clip-path="url(#clip690)" d="M114.26 1151.56 L143.936 1151.56 L143.936 1155.49 L114.26 1155.49 L114.26 1151.56 Z" fill="#000000" fill-rule="nonzero" fill-opacity="1" /><path clip-path="url(#clip690)" d="M154.839 1164.45 L162.477 1164.45 L162.477 1138.08 L154.167 1139.75 L154.167 1135.49 L162.431 1133.82 L167.107 1133.82 L167.107 1164.45 L174.746 1164.45 L174.746 1168.38 L154.839 1168.38 L154.839 1164.45 Z" fill="#000000" fill-rule="nonzero" fill-opacity="1" /><path clip-path="url(#clip690)" d="M194.19 1136.9 Q190.579 1136.9 188.75 1140.47 Q186.945 1144.01 186.945 1151.14 Q186.945 1158.25 188.75 1161.81 Q190.579 1165.35 194.19 1165.35 Q197.825 1165.35 199.63 1161.81 Q201.459 1158.25 201.459 1151.14 Q201.459 1144.01 199.63 1140.47 Q197.825 1136.9 194.19 1136.9 M194.19 1133.2 Q200 1133.2 203.056 1137.81 Q206.135 1142.39 206.135 1151.14 Q206.135 1159.87 203.056 1164.47 Q200 1169.06 194.19 1169.06 Q188.38 1169.06 185.301 1164.47 Q182.246 1159.87 182.246 1151.14 Q182.246 1142.39 185.301 1137.81 Q188.38 1133.2 194.19 1133.2 Z" fill="#000000" fill-rule="nonzero" fill-opacity="1" /><path clip-path="url(#clip690)" d="M224.352 1136.9 Q220.741 1136.9 218.912 1140.47 Q217.107 1144.01 217.107 1151.14 Q217.107 1158.25 218.912 1161.81 Q220.741 1165.35 224.352 1165.35 Q227.986 1165.35 229.792 1161.81 Q231.621 1158.25 231.621 1151.14 Q231.621 1144.01 229.792 1140.47 Q227.986 1136.9 224.352 1136.9 M224.352 1133.2 Q230.162 1133.2 233.218 1137.81 Q236.297 1142.39 236.297 1151.14 Q236.297 1159.87 233.218 1164.47 Q230.162 1169.06 224.352 1169.06 Q218.542 1169.06 215.463 1164.47 Q212.408 1159.87 212.408 1151.14 Q212.408 1142.39 215.463 1137.81 Q218.542 1133.2 224.352 1133.2 Z" fill="#000000" fill-rule="nonzero" fill-opacity="1" /><path clip-path="url(#clip690)" d="M145.417 959.881 L175.093 959.881 L175.093 963.817 L145.417 963.817 L145.417 959.881 Z" fill="#000000" fill-rule="nonzero" fill-opacity="1" /><path clip-path="url(#clip690)" d="M184.005 942.15 L206.227 942.15 L206.227 944.141 L193.681 976.71 L188.797 976.71 L200.602 946.085 L184.005 946.085 L184.005 942.15 Z" fill="#000000" fill-rule="nonzero" fill-opacity="1" /><path clip-path="url(#clip690)" d="M215.394 942.15 L233.75 942.15 L233.75 946.085 L219.676 946.085 L219.676 954.557 Q220.695 954.21 221.713 954.048 Q222.732 953.863 223.75 953.863 Q229.537 953.863 232.917 957.034 Q236.297 960.205 236.297 965.622 Q236.297 971.201 232.824 974.303 Q229.352 977.381 223.033 977.381 Q220.857 977.381 218.588 977.011 Q216.343 976.641 213.936 975.9 L213.936 971.201 Q216.019 972.335 218.241 972.891 Q220.463 973.446 222.94 973.446 Q226.945 973.446 229.283 971.34 Q231.621 969.233 231.621 965.622 Q231.621 962.011 229.283 959.905 Q226.945 957.798 222.94 957.798 Q221.065 957.798 219.19 958.215 Q217.338 958.631 215.394 959.511 L215.394 942.15 Z" fill="#000000" fill-rule="nonzero" fill-opacity="1" /><path clip-path="url(#clip690)" d="M144.422 768.207 L174.098 768.207 L174.098 772.142 L144.422 772.142 L144.422 768.207 Z" fill="#000000" fill-rule="nonzero" fill-opacity="1" /><path clip-path="url(#clip690)" d="M184.237 750.475 L202.593 750.475 L202.593 754.41 L188.519 754.41 L188.519 762.883 Q189.538 762.535 190.556 762.373 Q191.575 762.188 192.593 762.188 Q198.38 762.188 201.76 765.359 Q205.139 768.531 205.139 773.947 Q205.139 779.526 201.667 782.628 Q198.195 785.706 191.875 785.706 Q189.7 785.706 187.431 785.336 Q185.186 784.966 182.778 784.225 L182.778 779.526 Q184.862 780.66 187.084 781.216 Q189.306 781.771 191.783 781.771 Q195.787 781.771 198.125 779.665 Q200.463 777.558 200.463 773.947 Q200.463 770.336 198.125 768.23 Q195.787 766.123 191.783 766.123 Q189.908 766.123 188.033 766.54 Q186.181 766.957 184.237 767.836 L184.237 750.475 Z" fill="#000000" fill-rule="nonzero" fill-opacity="1" /><path clip-path="url(#clip690)" d="M224.352 753.554 Q220.741 753.554 218.912 757.119 Q217.107 760.66 217.107 767.79 Q217.107 774.896 218.912 778.461 Q220.741 782.003 224.352 782.003 Q227.986 782.003 229.792 778.461 Q231.621 774.896 231.621 767.79 Q231.621 760.66 229.792 757.119 Q227.986 753.554 224.352 753.554 M224.352 749.85 Q230.162 749.85 233.218 754.457 Q236.297 759.04 236.297 767.79 Q236.297 776.517 233.218 781.123 Q230.162 785.706 224.352 785.706 Q218.542 785.706 215.463 781.123 Q212.408 776.517 212.408 767.79 Q212.408 759.04 215.463 754.457 Q218.542 749.85 224.352 749.85 Z" fill="#000000" fill-rule="nonzero" fill-opacity="1" /><path clip-path="url(#clip690)" d="M145.417 576.532 L175.093 576.532 L175.093 580.467 L145.417 580.467 L145.417 576.532 Z" fill="#000000" fill-rule="nonzero" fill-opacity="1" /><path clip-path="url(#clip690)" d="M189.213 589.425 L205.533 589.425 L205.533 593.36 L183.588 593.36 L183.588 589.425 Q186.251 586.671 190.834 582.041 Q195.44 577.388 196.621 576.046 Q198.866 573.523 199.746 571.786 Q200.649 570.027 200.649 568.337 Q200.649 565.583 198.704 563.847 Q196.783 562.111 193.681 562.111 Q191.482 562.111 189.028 562.874 Q186.598 563.638 183.82 565.189 L183.82 560.467 Q186.644 559.333 189.098 558.754 Q191.551 558.175 193.588 558.175 Q198.959 558.175 202.153 560.861 Q205.348 563.546 205.348 568.036 Q205.348 570.166 204.537 572.087 Q203.75 573.986 201.644 576.578 Q201.065 577.249 197.963 580.467 Q194.862 583.661 189.213 589.425 Z" fill="#000000" fill-rule="nonzero" fill-opacity="1" /><path clip-path="url(#clip690)" d="M215.394 558.8 L233.75 558.8 L233.75 562.736 L219.676 562.736 L219.676 571.208 Q220.695 570.861 221.713 570.698 Q222.732 570.513 223.75 570.513 Q229.537 570.513 232.917 573.685 Q236.297 576.856 236.297 582.273 Q236.297 587.851 232.824 590.953 Q229.352 594.032 223.033 594.032 Q220.857 594.032 218.588 593.661 Q216.343 593.291 213.936 592.55 L213.936 587.851 Q216.019 588.985 218.241 589.541 Q220.463 590.097 222.94 590.097 Q226.945 590.097 229.283 587.99 Q231.621 585.884 231.621 582.273 Q231.621 578.661 229.283 576.555 Q226.945 574.448 222.94 574.448 Q221.065 574.448 219.19 574.865 Q217.338 575.282 215.394 576.161 L215.394 558.8 Z" fill="#000000" fill-rule="nonzero" fill-opacity="1" /><path clip-path="url(#clip690)" d="M224.352 370.204 Q220.741 370.204 218.912 373.769 Q217.107 377.311 217.107 384.44 Q217.107 391.547 218.912 395.112 Q220.741 398.653 224.352 398.653 Q227.986 398.653 229.792 395.112 Q231.621 391.547 231.621 384.44 Q231.621 377.311 229.792 373.769 Q227.986 370.204 224.352 370.204 M224.352 366.501 Q230.162 366.501 233.218 371.107 Q236.297 375.69 236.297 384.44 Q236.297 393.167 233.218 397.774 Q230.162 402.357 224.352 402.357 Q218.542 402.357 215.463 397.774 Q212.408 393.167 212.408 384.44 Q212.408 375.69 215.463 371.107 Q218.542 366.501 224.352 366.501 Z" fill="#000000" fill-rule="nonzero" fill-opacity="1" /><path clip-path="url(#clip690)" d="M189.213 206.076 L205.533 206.076 L205.533 210.011 L183.588 210.011 L183.588 206.076 Q186.251 203.321 190.834 198.691 Q195.44 194.039 196.621 192.696 Q198.866 190.173 199.746 188.437 Q200.649 186.678 200.649 184.988 Q200.649 182.233 198.704 180.497 Q196.783 178.761 193.681 178.761 Q191.482 178.761 189.028 179.525 Q186.598 180.289 183.82 181.84 L183.82 177.118 Q186.644 175.983 189.098 175.405 Q191.551 174.826 193.588 174.826 Q198.959 174.826 202.153 177.511 Q205.348 180.196 205.348 184.687 Q205.348 186.817 204.537 188.738 Q203.75 190.636 201.644 193.229 Q201.065 193.9 197.963 197.117 Q194.862 200.312 189.213 206.076 Z" fill="#000000" fill-rule="nonzero" fill-opacity="1" /><path clip-path="url(#clip690)" d="M215.394 175.451 L233.75 175.451 L233.75 179.386 L219.676 179.386 L219.676 187.858 Q220.695 187.511 221.713 187.349 Q222.732 187.164 223.75 187.164 Q229.537 187.164 232.917 190.335 Q236.297 193.506 236.297 198.923 Q236.297 204.502 232.824 207.603 Q229.352 210.682 223.033 210.682 Q220.857 210.682 218.588 210.312 Q216.343 209.941 213.936 209.201 L213.936 204.502 Q216.019 205.636 218.241 206.191 Q220.463 206.747 222.94 206.747 Q226.945 206.747 229.283 204.641 Q231.621 202.534 231.621 198.923 Q231.621 195.312 229.283 193.205 Q226.945 191.099 222.94 191.099 Q221.065 191.099 219.19 191.516 Q217.338 191.932 215.394 192.812 L215.394 175.451 Z" fill="#000000" fill-rule="nonzero" fill-opacity="1" /><path clip-path="url(#clip690)" d="M22.818 895.835 L58.657 908.884 L58.657 882.753 L22.818 895.835 M64.0042 917.605 L16.4842 899.463 L16.4842 892.174 L64.0042 874.064 L64.0042 917.605 Z" fill="#000000" fill-rule="nonzero" fill-opacity="1" /><path clip-path="url(#clip690)" d="M33.7671 843.922 L14.479 843.922 L14.479 838.066 L64.0042 838.066 L64.0042 843.922 L58.657 843.922 Q61.8398 845.768 63.3994 848.601 Q64.9272 851.402 64.9272 855.349 Q64.9272 861.81 59.771 865.884 Q54.6147 869.926 46.212 869.926 Q37.8093 869.926 32.6531 865.884 Q27.4968 861.81 27.4968 855.349 Q27.4968 851.402 29.0564 848.601 Q30.5842 845.768 33.7671 843.922 M46.212 863.879 Q52.6732 863.879 56.3653 861.237 Q60.0256 858.563 60.0256 853.916 Q60.0256 849.27 56.3653 846.596 Q52.6732 843.922 46.212 843.922 Q39.7508 843.922 36.0905 846.596 Q32.3984 849.27 32.3984 853.916 Q32.3984 858.563 36.0905 861.237 Q39.7508 863.879 46.212 863.879 Z" fill="#000000" fill-rule="nonzero" fill-opacity="1" /><path clip-path="url(#clip690)" d="M44.7161 795.511 L47.5806 795.511 L47.5806 822.438 Q53.6281 822.056 56.8109 818.81 Q59.9619 815.531 59.9619 809.707 Q59.9619 806.333 59.1344 803.182 Q58.3069 799.999 56.6518 796.88 L62.1899 796.88 Q63.5267 800.031 64.227 803.341 Q64.9272 806.651 64.9272 810.057 Q64.9272 818.587 59.9619 823.584 Q54.9967 828.549 46.5303 828.549 Q37.7774 828.549 32.6531 823.839 Q27.4968 819.096 27.4968 811.075 Q27.4968 803.882 32.1438 799.712 Q36.7589 795.511 44.7161 795.511 M42.9973 801.368 Q38.1912 801.431 35.3266 804.073 Q32.4621 806.683 32.4621 811.012 Q32.4621 815.913 35.2312 818.873 Q38.0002 821.801 43.0292 822.247 L42.9973 801.368 Z" fill="#000000" fill-rule="nonzero" fill-opacity="1" /><path clip-path="url(#clip690)" d="M29.7248 760.245 L35.1993 760.245 Q33.8307 762.728 33.1623 765.242 Q32.4621 767.725 32.4621 770.271 Q32.4621 775.968 36.0905 779.119 Q39.6872 782.27 46.212 782.27 Q52.7369 782.27 56.3653 779.119 Q59.9619 775.968 59.9619 770.271 Q59.9619 767.725 59.2935 765.242 Q58.5933 762.728 57.2247 760.245 L62.6355 760.245 Q63.7814 762.696 64.3543 765.338 Q64.9272 767.948 64.9272 770.908 Q64.9272 778.96 59.8664 783.703 Q54.8057 788.445 46.212 788.445 Q37.491 788.445 32.4939 783.671 Q27.4968 778.865 27.4968 770.526 Q27.4968 767.82 28.0697 765.242 Q28.6108 762.664 29.7248 760.245 Z" fill="#000000" fill-rule="nonzero" fill-opacity="1" /><path clip-path="url(#clip690)" d="M14.479 729.881 L14.479 716.385 L19.0304 716.385 L19.0304 724.024 L68.0464 724.024 L68.0464 716.385 L72.5979 716.385 L72.5979 729.881 L14.479 729.881 Z" fill="#000000" fill-rule="nonzero" fill-opacity="1" /><path clip-path="url(#clip690)" d="M35.1993 676.154 Q31.2526 673.958 29.3747 670.902 Q27.4968 667.847 27.4968 663.709 Q27.4968 658.139 31.4117 655.115 Q35.2948 652.092 42.4881 652.092 L64.0042 652.092 L64.0042 657.98 L42.679 657.98 Q37.5546 657.98 35.072 659.794 Q32.5894 661.608 32.5894 665.332 Q32.5894 669.884 35.6131 672.526 Q38.6368 675.167 43.8567 675.167 L64.0042 675.167 L64.0042 681.056 L42.679 681.056 Q37.5228 681.056 35.072 682.87 Q32.5894 684.684 32.5894 688.472 Q32.5894 692.96 35.6449 695.601 Q38.6686 698.243 43.8567 698.243 L64.0042 698.243 L64.0042 704.131 L28.3562 704.131 L28.3562 698.243 L33.8944 698.243 Q30.616 696.238 29.0564 693.437 Q27.4968 690.636 27.4968 686.785 Q27.4968 682.902 29.4702 680.196 Q31.4436 677.459 35.1993 676.154 Z" fill="#000000" fill-rule="nonzero" fill-opacity="1" /><path clip-path="url(#clip690)" d="M46.0847 624.21 Q46.0847 631.308 47.7079 634.045 Q49.3312 636.782 53.2461 636.782 Q56.3653 636.782 58.2114 634.745 Q60.0256 632.676 60.0256 629.143 Q60.0256 624.274 56.5881 621.345 Q53.1188 618.385 47.3897 618.385 L46.0847 618.385 L46.0847 624.21 M43.6657 612.529 L64.0042 612.529 L64.0042 618.385 L58.5933 618.385 Q61.8398 620.391 63.3994 623.382 Q64.9272 626.374 64.9272 630.703 Q64.9272 636.177 61.8716 639.424 Q58.7843 642.639 53.6281 642.639 Q47.6125 642.639 44.5569 638.628 Q41.5014 634.586 41.5014 626.597 L41.5014 618.385 L40.9285 618.385 Q36.8862 618.385 34.6901 621.059 Q32.4621 623.701 32.4621 628.507 Q32.4621 631.562 33.1941 634.459 Q33.9262 637.355 35.3903 640.029 L29.9795 640.029 Q28.7381 636.814 28.1334 633.79 Q27.4968 630.767 27.4968 627.902 Q27.4968 620.168 31.5072 616.348 Q35.5176 612.529 43.6657 612.529 Z" fill="#000000" fill-rule="nonzero" fill-opacity="1" /><path clip-path="url(#clip690)" d="M29.4065 577.74 L34.9447 577.74 Q33.6716 580.223 33.035 582.897 Q32.3984 585.57 32.3984 588.435 Q32.3984 592.795 33.7352 594.991 Q35.072 597.156 37.7456 597.156 Q39.7826 597.156 40.9603 595.596 Q42.1061 594.037 43.1565 589.326 L43.6021 587.321 Q44.9389 581.082 47.3897 578.472 Q49.8086 575.831 54.1691 575.831 Q59.1344 575.831 62.0308 579.777 Q64.9272 583.692 64.9272 590.567 Q64.9272 593.432 64.3543 596.551 Q63.8132 599.638 62.6992 603.076 L56.6518 603.076 Q58.3387 599.829 59.198 596.678 Q60.0256 593.527 60.0256 590.44 Q60.0256 586.302 58.6251 584.074 Q57.1929 581.846 54.6147 581.846 Q52.2276 581.846 50.9545 583.469 Q49.6813 585.061 48.5037 590.504 L48.0262 592.541 Q46.8804 597.983 44.5251 600.402 Q42.138 602.821 38.0002 602.821 Q32.9713 602.821 30.2341 599.256 Q27.4968 595.692 27.4968 589.135 Q27.4968 585.888 27.9743 583.024 Q28.4517 580.159 29.4065 577.74 Z" fill="#000000" fill-rule="nonzero" fill-opacity="1" /><path clip-path="url(#clip690)" d="M14.479 552.819 L72.5979 552.819 L72.5979 566.314 L68.0464 566.314 L68.0464 558.707 L19.0304 558.707 L19.0304 566.314 L14.479 566.314 L14.479 552.819 Z" fill="#000000" fill-rule="nonzero" fill-opacity="1" /><polyline clip-path="url(#clip692)" style="stroke:#009af9; stroke-linecap:round; stroke-linejoin:round; stroke-width:4; stroke-opacity:1; fill:none" points="877.108,234.058 861.705,264.408 848.548,297.104 837.704,331.982 829.225,368.869 823.156,407.581 819.525,447.926 818.351,489.701 819.639,532.7 823.384,576.708 829.566,621.506 838.155,666.87 849.108,712.574 862.371,758.391 877.877,804.093 895.548,849.452 915.298,894.242 937.028,938.239 960.629,981.225 985.984,1022.99 1012.97,1063.31 1041.44,1102 1071.27,1138.87 1102.3,1173.72 1134.38,1206.39 1167.34,1236.71 1201.03,1264.54 1235.28,1289.72 1269.91,1312.15 1304.75,1331.7 1339.64,1348.27 1374.39,1361.8 1408.83,1372.2 1442.79,1379.43 1476.1,1383.45 1508.6,1384.24 1540.13,1381.79 1570.52,1376.13 1599.63,1367.27 1627.3,1355.27 1653.41,1340.17 1677.82,1322.06 1700.42,1301.03 1721.08,1277.17 1739.7,1250.62 1756.2,1221.5 1770.49,1189.96 1782.5,1156.15 1792.17,1120.25 1799.44,1082.42 1804.3,1042.87 1806.7,1001.79 1806.64,959.372 1804.13,915.842 1799.16,871.411 1791.77,826.303 1781.99,780.74 1769.88,734.95 1755.48,689.162 1738.88,643.604 1720.16,598.501 1699.41,554.08 1676.73,510.562 1652.24,468.162 1626.05,427.093 1598.31,387.559 1569.14,349.757 1538.69,313.875 1507.12,280.093 1474.57,248.578 1441.23,219.487 1407.24,192.966 1372.78,169.146 1338.02,148.146 1303.13,130.071 1268.29,115.011 1233.68,103.04 1199.45,94.2192 1165.79,88.5917 1132.87,86.1857 1100.83,87.0131 1069.86,91.0698 1040.09,98.3356 1011.68,108.774 984.77,122.334 959.494,138.947 935.977,158.53 914.337,180.987 894.681,206.205 877.108,234.058 "/>
<path clip-path="url(#clip690)" d="M1833.67 196.789 L2283.41 196.789 L2283.41 93.1086 L1833.67 93.1086  Z" fill="#ffffff" fill-rule="evenodd" fill-opacity="1"/>
<polyline clip-path="url(#clip690)" style="stroke:#000000; stroke-linecap:round; stroke-linejoin:round; stroke-width:4; stroke-opacity:1; fill:none" points="1833.67,196.789 2283.41,196.789 2283.41,93.1086 1833.67,93.1086 1833.67,196.789 "/>
<polyline clip-path="url(#clip690)" style="stroke:#009af9; stroke-linecap:round; stroke-linejoin:round; stroke-width:4; stroke-opacity:1; fill:none" points="1856.79,144.949 1995.49,144.949 "/>
<path clip-path="url(#clip690)" d="M2037.03 137.067 L2037.03 141.094 Q2035.22 140.169 2033.28 139.706 Q2031.33 139.243 2029.25 139.243 Q2026.08 139.243 2024.48 140.215 Q2022.91 141.187 2022.91 143.131 Q2022.91 144.613 2024.04 145.469 Q2025.18 146.303 2028.6 147.067 L2030.06 147.391 Q2034.6 148.363 2036.5 150.145 Q2038.42 151.905 2038.42 155.076 Q2038.42 158.687 2035.55 160.793 Q2032.7 162.9 2027.7 162.9 Q2025.62 162.9 2023.35 162.483 Q2021.1 162.09 2018.6 161.28 L2018.6 156.881 Q2020.96 158.108 2023.26 158.733 Q2025.55 159.335 2027.79 159.335 Q2030.8 159.335 2032.42 158.317 Q2034.04 157.275 2034.04 155.4 Q2034.04 153.664 2032.86 152.738 Q2031.7 151.812 2027.75 150.956 L2026.26 150.608 Q2022.31 149.775 2020.55 148.062 Q2018.79 146.326 2018.79 143.317 Q2018.79 139.659 2021.38 137.669 Q2023.97 135.678 2028.74 135.678 Q2031.1 135.678 2033.19 136.025 Q2035.27 136.372 2037.03 137.067 Z" fill="#000000" fill-rule="nonzero" fill-opacity="1" /><path clip-path="url(#clip690)" d="M2067.38 148.201 L2067.38 150.284 L2047.79 150.284 Q2048.07 154.682 2050.43 156.997 Q2052.82 159.289 2057.05 159.289 Q2059.51 159.289 2061.8 158.687 Q2064.11 158.085 2066.38 156.881 L2066.38 160.909 Q2064.09 161.881 2061.68 162.391 Q2059.27 162.9 2056.8 162.9 Q2050.59 162.9 2046.96 159.289 Q2043.35 155.678 2043.35 149.52 Q2043.35 143.155 2046.77 139.428 Q2050.22 135.678 2056.06 135.678 Q2061.29 135.678 2064.32 139.057 Q2067.38 142.414 2067.38 148.201 M2063.12 146.951 Q2063.07 143.456 2061.15 141.372 Q2059.25 139.289 2056.1 139.289 Q2052.54 139.289 2050.38 141.303 Q2048.26 143.317 2047.93 146.974 L2063.12 146.951 Z" fill="#000000" fill-rule="nonzero" fill-opacity="1" /><path clip-path="url(#clip690)" d="M2093.02 137.298 L2093.02 141.28 Q2091.22 140.284 2089.39 139.798 Q2087.58 139.289 2085.73 139.289 Q2081.59 139.289 2079.3 141.928 Q2077 144.544 2077 149.289 Q2077 154.034 2079.3 156.673 Q2081.59 159.289 2085.73 159.289 Q2087.58 159.289 2089.39 158.803 Q2091.22 158.293 2093.02 157.298 L2093.02 161.233 Q2091.24 162.067 2089.32 162.483 Q2087.42 162.9 2085.27 162.9 Q2079.41 162.9 2075.96 159.219 Q2072.51 155.539 2072.51 149.289 Q2072.51 142.946 2075.99 139.312 Q2079.48 135.678 2085.55 135.678 Q2087.51 135.678 2089.39 136.095 Q2091.26 136.488 2093.02 137.298 Z" fill="#000000" fill-rule="nonzero" fill-opacity="1" /><path clip-path="url(#clip690)" d="M2110.48 139.289 Q2107.05 139.289 2105.06 141.974 Q2103.07 144.636 2103.07 149.289 Q2103.07 153.942 2105.04 156.627 Q2107.03 159.289 2110.48 159.289 Q2113.88 159.289 2115.87 156.604 Q2117.86 153.918 2117.86 149.289 Q2117.86 144.682 2115.87 141.997 Q2113.88 139.289 2110.48 139.289 M2110.48 135.678 Q2116.03 135.678 2119.2 139.289 Q2122.38 142.9 2122.38 149.289 Q2122.38 155.655 2119.2 159.289 Q2116.03 162.9 2110.48 162.9 Q2104.9 162.9 2101.73 159.289 Q2098.58 155.655 2098.58 149.289 Q2098.58 142.9 2101.73 139.289 Q2104.9 135.678 2110.48 135.678 Z" fill="#000000" fill-rule="nonzero" fill-opacity="1" /><path clip-path="url(#clip690)" d="M2150.99 146.581 L2150.99 162.229 L2146.73 162.229 L2146.73 146.719 Q2146.73 143.039 2145.29 141.21 Q2143.86 139.382 2140.99 139.382 Q2137.54 139.382 2135.55 141.581 Q2133.56 143.78 2133.56 147.576 L2133.56 162.229 L2129.27 162.229 L2129.27 136.303 L2133.56 136.303 L2133.56 140.331 Q2135.08 137.993 2137.14 136.835 Q2139.23 135.678 2141.94 135.678 Q2146.4 135.678 2148.69 138.456 Q2150.99 141.21 2150.99 146.581 Z" fill="#000000" fill-rule="nonzero" fill-opacity="1" /><path clip-path="url(#clip690)" d="M2176.54 140.238 L2176.54 126.21 L2180.8 126.21 L2180.8 162.229 L2176.54 162.229 L2176.54 158.34 Q2175.2 160.655 2173.14 161.789 Q2171.1 162.9 2168.23 162.9 Q2163.53 162.9 2160.57 159.15 Q2157.63 155.4 2157.63 149.289 Q2157.63 143.178 2160.57 139.428 Q2163.53 135.678 2168.23 135.678 Q2171.1 135.678 2173.14 136.812 Q2175.2 137.923 2176.54 140.238 M2162.03 149.289 Q2162.03 153.988 2163.95 156.673 Q2165.89 159.335 2169.27 159.335 Q2172.65 159.335 2174.6 156.673 Q2176.54 153.988 2176.54 149.289 Q2176.54 144.59 2174.6 141.928 Q2172.65 139.243 2169.27 139.243 Q2165.89 139.243 2163.95 141.928 Q2162.03 144.59 2162.03 149.289 Z" fill="#000000" fill-rule="nonzero" fill-opacity="1" /><path clip-path="url(#clip690)" d="M2201.36 149.196 Q2196.19 149.196 2194.2 150.377 Q2192.21 151.557 2192.21 154.405 Q2192.21 156.673 2193.69 158.016 Q2195.2 159.335 2197.77 159.335 Q2201.31 159.335 2203.44 156.835 Q2205.59 154.312 2205.59 150.145 L2205.59 149.196 L2201.36 149.196 M2209.85 147.437 L2209.85 162.229 L2205.59 162.229 L2205.59 158.293 Q2204.13 160.655 2201.96 161.789 Q2199.78 162.9 2196.63 162.9 Q2192.65 162.9 2190.29 160.678 Q2187.95 158.432 2187.95 154.682 Q2187.95 150.307 2190.87 148.085 Q2193.81 145.863 2199.62 145.863 L2205.59 145.863 L2205.59 145.446 Q2205.59 142.507 2203.65 140.909 Q2201.73 139.289 2198.23 139.289 Q2196.01 139.289 2193.9 139.821 Q2191.8 140.354 2189.85 141.419 L2189.85 137.483 Q2192.19 136.581 2194.39 136.141 Q2196.59 135.678 2198.67 135.678 Q2204.3 135.678 2207.07 138.594 Q2209.85 141.511 2209.85 147.437 Z" fill="#000000" fill-rule="nonzero" fill-opacity="1" /><path clip-path="url(#clip690)" d="M2233.65 140.284 Q2232.93 139.868 2232.07 139.682 Q2231.24 139.474 2230.22 139.474 Q2226.61 139.474 2224.67 141.835 Q2222.74 144.173 2222.74 148.571 L2222.74 162.229 L2218.46 162.229 L2218.46 136.303 L2222.74 136.303 L2222.74 140.331 Q2224.09 137.969 2226.24 136.835 Q2228.39 135.678 2231.47 135.678 Q2231.91 135.678 2232.44 135.747 Q2232.98 135.794 2233.62 135.909 L2233.65 140.284 Z" fill="#000000" fill-rule="nonzero" fill-opacity="1" /><path clip-path="url(#clip690)" d="M2248.9 164.636 Q2247.1 169.266 2245.38 170.678 Q2243.67 172.09 2240.8 172.09 L2237.4 172.09 L2237.4 168.525 L2239.9 168.525 Q2241.66 168.525 2242.63 167.692 Q2243.6 166.858 2244.78 163.756 L2245.55 161.812 L2235.06 136.303 L2239.57 136.303 L2247.68 156.581 L2255.78 136.303 L2260.29 136.303 L2248.9 164.636 Z" fill="#000000" fill-rule="nonzero" fill-opacity="1" /></svg>
