<?xml version="1.0" encoding="utf-8"?>
<svg xmlns="http://www.w3.org/2000/svg" xmlns:xlink="http://www.w3.org/1999/xlink" width="600" height="400" viewBox="0 0 2400 1600">
<defs>
  <clipPath id="clip540">
    <rect x="0" y="0" width="2400" height="1600"/>
  </clipPath>
</defs>
<path clip-path="url(#clip540)" d="M0 1600 L2400 1600 L2400 0 L0 0  Z" fill="#ffffff" fill-rule="evenodd" fill-opacity="1"/>
<defs>
  <clipPath id="clip541">
    <rect x="480" y="0" width="1681" height="1600"/>
  </clipPath>
</defs>
<path clip-path="url(#clip540)" d="M272.297 1423.18 L2352.76 1423.18 L2352.76 47.2441 L272.297 47.2441  Z" fill="#ffffff" fill-rule="evenodd" fill-opacity="1"/>
<defs>
  <clipPath id="clip542">
    <rect x="272" y="47" width="2081" height="1377"/>
  </clipPath>
</defs>
<polyline clip-path="url(#clip542)" style="stroke:#000000; stroke-linecap:round; stroke-linejoin:round; stroke-width:2; stroke-opacity:0.1; fill:none" points="2146.27,1423.18 2146.27,47.2441 "/>
<polyline clip-path="url(#clip542)" style="stroke:#000000; stroke-linecap:round; stroke-linejoin:round; stroke-width:2; stroke-opacity:0.1; fill:none" points="1868.35,1423.18 1868.35,47.2441 "/>
<polyline clip-path="url(#clip542)" style="stroke:#000000; stroke-linecap:round; stroke-linejoin:round; stroke-width:2; stroke-opacity:0.1; fill:none" points="1590.44,1423.18 1590.44,47.2441 "/>
<polyline clip-path="url(#clip542)" style="stroke:#000000; stroke-linecap:round; stroke-linejoin:round; stroke-width:2; stroke-opacity:0.1; fill:none" points="1312.53,1423.18 1312.53,47.2441 "/>
<polyline clip-path="url(#clip542)" style="stroke:#000000; stroke-linecap:round; stroke-linejoin:round; stroke-width:2; stroke-opacity:0.1; fill:none" points="1034.61,1423.18 1034.61,47.2441 "/>
<polyline clip-path="url(#clip542)" style="stroke:#000000; stroke-linecap:round; stroke-linejoin:round; stroke-width:2; stroke-opacity:0.1; fill:none" points="756.699,1423.18 756.699,47.2441 "/>
<polyline clip-path="url(#clip542)" style="stroke:#000000; stroke-linecap:round; stroke-linejoin:round; stroke-width:2; stroke-opacity:0.1; fill:none" points="478.786,1423.18 478.786,47.2441 "/>
<polyline clip-path="url(#clip540)" style="stroke:#000000; stroke-linecap:round; stroke-linejoin:round; stroke-width:4; stroke-opacity:1; fill:none" points="2352.76,1423.18 272.297,1423.18 "/>
<polyline clip-path="url(#clip540)" style="stroke:#000000; stroke-linecap:round; stroke-linejoin:round; stroke-width:4; stroke-opacity:1; fill:none" points="2146.27,1423.18 2146.27,1404.28 "/>
<polyline clip-path="url(#clip540)" style="stroke:#000000; stroke-linecap:round; stroke-linejoin:round; stroke-width:4; stroke-opacity:1; fill:none" points="1868.35,1423.18 1868.35,1404.28 "/>
<polyline clip-path="url(#clip540)" style="stroke:#000000; stroke-linecap:round; stroke-linejoin:round; stroke-width:4; stroke-opacity:1; fill:none" points="1590.44,1423.18 1590.44,1404.28 "/>
<polyline clip-path="url(#clip540)" style="stroke:#000000; stroke-linecap:round; stroke-linejoin:round; stroke-width:4; stroke-opacity:1; fill:none" points="1312.53,1423.18 1312.53,1404.28 "/>
<polyline clip-path="url(#clip540)" style="stroke:#000000; stroke-linecap:round; stroke-linejoin:round; stroke-width:4; stroke-opacity:1; fill:none" points="1034.61,1423.18 1034.61,1404.28 "/>
<polyline clip-path="url(#clip540)" style="stroke:#000000; stroke-linecap:round; stroke-linejoin:round; stroke-width:4; stroke-opacity:1; fill:none" points="756.699,1423.18 756.699,1404.28 "/>
<polyline clip-path="url(#clip540)" style="stroke:#000000; stroke-linecap:round; stroke-linejoin:round; stroke-width:4; stroke-opacity:1; fill:none" points="478.786,1423.18 478.786,1404.28 "/>
<path clip-path="url(#clip540)" d="M2085.25 1468.75 L2114.92 1468.75 L2114.92 1472.69 L2085.25 1472.69 L2085.25 1468.75 Z" fill="#000000" fill-rule="nonzero" fill-opacity="1" /><path clip-path="url(#clip540)" d="M2125.83 1481.64 L2133.47 1481.64 L2133.47 1455.28 L2125.16 1456.95 L2125.16 1452.69 L2133.42 1451.02 L2138.1 1451.02 L2138.1 1481.64 L2145.73 1481.64 L2145.73 1485.58 L2125.83 1485.58 L2125.83 1481.64 Z" fill="#000000" fill-rule="nonzero" fill-opacity="1" /><path clip-path="url(#clip540)" d="M2155.22 1451.02 L2173.58 1451.02 L2173.58 1454.96 L2159.51 1454.96 L2159.51 1463.43 Q2160.53 1463.08 2161.54 1462.92 Q2162.56 1462.73 2163.58 1462.73 Q2169.37 1462.73 2172.75 1465.9 Q2176.13 1469.08 2176.13 1474.49 Q2176.13 1480.07 2172.66 1483.17 Q2169.18 1486.25 2162.86 1486.25 Q2160.69 1486.25 2158.42 1485.88 Q2156.17 1485.51 2153.77 1484.77 L2153.77 1480.07 Q2155.85 1481.2 2158.07 1481.76 Q2160.29 1482.32 2162.77 1482.32 Q2166.78 1482.32 2169.11 1480.21 Q2171.45 1478.1 2171.45 1474.49 Q2171.45 1470.88 2169.11 1468.77 Q2166.78 1466.67 2162.77 1466.67 Q2160.9 1466.67 2159.02 1467.08 Q2157.17 1467.5 2155.22 1468.38 L2155.22 1451.02 Z" fill="#000000" fill-rule="nonzero" fill-opacity="1" /><path clip-path="url(#clip540)" d="M2195.34 1454.1 Q2191.73 1454.1 2189.9 1457.66 Q2188.09 1461.2 2188.09 1468.33 Q2188.09 1475.44 2189.9 1479.01 Q2191.73 1482.55 2195.34 1482.55 Q2198.97 1482.55 2200.78 1479.01 Q2202.61 1475.44 2202.61 1468.33 Q2202.61 1461.2 2200.78 1457.66 Q2198.97 1454.1 2195.34 1454.1 M2195.34 1450.39 Q2201.15 1450.39 2204.21 1455 Q2207.28 1459.58 2207.28 1468.33 Q2207.28 1477.06 2204.21 1481.67 Q2201.15 1486.25 2195.34 1486.25 Q2189.53 1486.25 2186.45 1481.67 Q2183.4 1477.06 2183.4 1468.33 Q2183.4 1459.58 2186.45 1455 Q2189.53 1450.39 2195.34 1450.39 Z" fill="#000000" fill-rule="nonzero" fill-opacity="1" /><path clip-path="url(#clip540)" d="M1807.33 1468.75 L1837.01 1468.75 L1837.01 1472.69 L1807.33 1472.69 L1807.33 1468.75 Z" fill="#000000" fill-rule="nonzero" fill-opacity="1" /><path clip-path="url(#clip540)" d="M1847.91 1481.64 L1855.55 1481.64 L1855.55 1455.28 L1847.24 1456.95 L1847.24 1452.69 L1855.51 1451.02 L1860.18 1451.02 L1860.18 1481.64 L1867.82 1481.64 L1867.82 1485.58 L1847.91 1485.58 L1847.91 1481.64 Z" fill="#000000" fill-rule="nonzero" fill-opacity="1" /><path clip-path="url(#clip540)" d="M1887.26 1454.1 Q1883.65 1454.1 1881.83 1457.66 Q1880.02 1461.2 1880.02 1468.33 Q1880.02 1475.44 1881.83 1479.01 Q1883.65 1482.55 1887.26 1482.55 Q1890.9 1482.55 1892.7 1479.01 Q1894.53 1475.44 1894.53 1468.33 Q1894.53 1461.2 1892.7 1457.66 Q1890.9 1454.1 1887.26 1454.1 M1887.26 1450.39 Q1893.08 1450.39 1896.13 1455 Q1899.21 1459.58 1899.21 1468.33 Q1899.21 1477.06 1896.13 1481.67 Q1893.08 1486.25 1887.26 1486.25 Q1881.45 1486.25 1878.38 1481.67 Q1875.32 1477.06 1875.32 1468.33 Q1875.32 1459.58 1878.38 1455 Q1881.45 1450.39 1887.26 1450.39 Z" fill="#000000" fill-rule="nonzero" fill-opacity="1" /><path clip-path="url(#clip540)" d="M1917.43 1454.1 Q1913.82 1454.1 1911.99 1457.66 Q1910.18 1461.2 1910.18 1468.33 Q1910.18 1475.44 1911.99 1479.01 Q1913.82 1482.55 1917.43 1482.55 Q1921.06 1482.55 1922.87 1479.01 Q1924.7 1475.44 1924.7 1468.33 Q1924.7 1461.2 1922.87 1457.66 Q1921.06 1454.1 1917.43 1454.1 M1917.43 1450.39 Q1923.24 1450.39 1926.29 1455 Q1929.37 1459.58 1929.37 1468.33 Q1929.37 1477.06 1926.29 1481.67 Q1923.24 1486.25 1917.43 1486.25 Q1911.62 1486.25 1908.54 1481.67 Q1905.48 1477.06 1905.48 1468.33 Q1905.48 1459.58 1908.54 1455 Q1911.62 1450.39 1917.43 1450.39 Z" fill="#000000" fill-rule="nonzero" fill-opacity="1" /><path clip-path="url(#clip540)" d="M1544.5 1468.75 L1574.18 1468.75 L1574.18 1472.69 L1544.5 1472.69 L1544.5 1468.75 Z" fill="#000000" fill-rule="nonzero" fill-opacity="1" /><path clip-path="url(#clip540)" d="M1584.32 1451.02 L1602.67 1451.02 L1602.67 1454.96 L1588.6 1454.96 L1588.6 1463.43 Q1589.62 1463.08 1590.64 1462.92 Q1591.65 1462.73 1592.67 1462.73 Q1598.46 1462.73 1601.84 1465.9 Q1605.22 1469.08 1605.22 1474.49 Q1605.22 1480.07 1601.75 1483.17 Q1598.28 1486.25 1591.96 1486.25 Q1589.78 1486.25 1587.51 1485.88 Q1585.27 1485.51 1582.86 1484.77 L1582.86 1480.07 Q1584.94 1481.2 1587.16 1481.76 Q1589.39 1482.32 1591.86 1482.32 Q1595.87 1482.32 1598.21 1480.21 Q1600.54 1478.1 1600.54 1474.49 Q1600.54 1470.88 1598.21 1468.77 Q1595.87 1466.67 1591.86 1466.67 Q1589.99 1466.67 1588.11 1467.08 Q1586.26 1467.5 1584.32 1468.38 L1584.32 1451.02 Z" fill="#000000" fill-rule="nonzero" fill-opacity="1" /><path clip-path="url(#clip540)" d="M1624.43 1454.1 Q1620.82 1454.1 1618.99 1457.66 Q1617.19 1461.2 1617.19 1468.33 Q1617.19 1475.44 1618.99 1479.01 Q1620.82 1482.55 1624.43 1482.55 Q1628.07 1482.55 1629.87 1479.01 Q1631.7 1475.44 1631.7 1468.33 Q1631.7 1461.2 1629.87 1457.66 Q1628.07 1454.1 1624.43 1454.1 M1624.43 1450.39 Q1630.24 1450.39 1633.3 1455 Q1636.38 1459.58 1636.38 1468.33 Q1636.38 1477.06 1633.3 1481.67 Q1630.24 1486.25 1624.43 1486.25 Q1618.62 1486.25 1615.54 1481.67 Q1612.49 1477.06 1612.49 1468.33 Q1612.49 1459.58 1615.54 1455 Q1618.62 1450.39 1624.43 1450.39 Z" fill="#000000" fill-rule="nonzero" fill-opacity="1" /><path clip-path="url(#clip540)" d="M1312.53 1454.1 Q1308.92 1454.1 1307.09 1457.66 Q1305.28 1461.2 1305.28 1468.33 Q1305.28 1475.44 1307.09 1479.01 Q1308.92 1482.55 1312.53 1482.55 Q1316.16 1482.55 1317.97 1479.01 Q1319.79 1475.44 1319.79 1468.33 Q1319.79 1461.2 1317.97 1457.66 Q1316.16 1454.1 1312.53 1454.1 M1312.53 1450.39 Q1318.34 1450.39 1321.39 1455 Q1324.47 1459.58 1324.47 1468.33 Q1324.47 1477.06 1321.39 1481.67 Q1318.34 1486.25 1312.53 1486.25 Q1306.72 1486.25 1303.64 1481.67 Q1300.58 1477.06 1300.58 1468.33 Q1300.58 1459.58 1303.64 1455 Q1306.72 1450.39 1312.53 1450.39 Z" fill="#000000" fill-rule="nonzero" fill-opacity="1" /><path clip-path="url(#clip540)" d="M1009.31 1451.02 L1027.67 1451.02 L1027.67 1454.96 L1013.59 1454.96 L1013.59 1463.43 Q1014.61 1463.08 1015.63 1462.92 Q1016.65 1462.73 1017.67 1462.73 Q1023.46 1462.73 1026.84 1465.9 Q1030.21 1469.08 1030.21 1474.49 Q1030.21 1480.07 1026.74 1483.17 Q1023.27 1486.25 1016.95 1486.25 Q1014.77 1486.25 1012.51 1485.88 Q1010.26 1485.51 1007.85 1484.77 L1007.85 1480.07 Q1009.94 1481.2 1012.16 1481.76 Q1014.38 1482.32 1016.86 1482.32 Q1020.86 1482.32 1023.2 1480.21 Q1025.54 1478.1 1025.54 1474.49 Q1025.54 1470.88 1023.2 1468.77 Q1020.86 1466.67 1016.86 1466.67 Q1014.98 1466.67 1013.11 1467.08 Q1011.26 1467.5 1009.31 1468.38 L1009.31 1451.02 Z" fill="#000000" fill-rule="nonzero" fill-opacity="1" /><path clip-path="url(#clip540)" d="M1049.43 1454.1 Q1045.82 1454.1 1043.99 1457.66 Q1042.18 1461.2 1042.18 1468.33 Q1042.18 1475.44 1043.99 1479.01 Q1045.82 1482.55 1049.43 1482.55 Q1053.06 1482.55 1054.87 1479.01 Q1056.7 1475.44 1056.7 1468.33 Q1056.7 1461.2 1054.87 1457.66 Q1053.06 1454.1 1049.43 1454.1 M1049.43 1450.39 Q1055.24 1450.39 1058.29 1455 Q1061.37 1459.58 1061.37 1468.33 Q1061.37 1477.06 1058.29 1481.67 Q1055.24 1486.25 1049.43 1486.25 Q1043.62 1486.25 1040.54 1481.67 Q1037.48 1477.06 1037.48 1468.33 Q1037.48 1459.58 1040.54 1455 Q1043.62 1450.39 1049.43 1450.39 Z" fill="#000000" fill-rule="nonzero" fill-opacity="1" /><path clip-path="url(#clip540)" d="M716.306 1481.64 L723.945 1481.64 L723.945 1455.28 L715.635 1456.95 L715.635 1452.69 L723.899 1451.02 L728.575 1451.02 L728.575 1481.64 L736.213 1481.64 L736.213 1485.58 L716.306 1485.58 L716.306 1481.64 Z" fill="#000000" fill-rule="nonzero" fill-opacity="1" /><path clip-path="url(#clip540)" d="M755.658 1454.1 Q752.047 1454.1 750.218 1457.66 Q748.412 1461.2 748.412 1468.33 Q748.412 1475.44 750.218 1479.01 Q752.047 1482.55 755.658 1482.55 Q759.292 1482.55 761.098 1479.01 Q762.926 1475.44 762.926 1468.33 Q762.926 1461.2 761.098 1457.66 Q759.292 1454.1 755.658 1454.1 M755.658 1450.39 Q761.468 1450.39 764.524 1455 Q767.602 1459.58 767.602 1468.33 Q767.602 1477.06 764.524 1481.67 Q761.468 1486.25 755.658 1486.25 Q749.848 1486.25 746.769 1481.67 Q743.713 1477.06 743.713 1468.33 Q743.713 1459.58 746.769 1455 Q749.848 1450.39 755.658 1450.39 Z" fill="#000000" fill-rule="nonzero" fill-opacity="1" /><path clip-path="url(#clip540)" d="M785.82 1454.1 Q782.209 1454.1 780.38 1457.66 Q778.574 1461.2 778.574 1468.33 Q778.574 1475.44 780.38 1479.01 Q782.209 1482.55 785.82 1482.55 Q789.454 1482.55 791.259 1479.01 Q793.088 1475.44 793.088 1468.33 Q793.088 1461.2 791.259 1457.66 Q789.454 1454.1 785.82 1454.1 M785.82 1450.39 Q791.63 1450.39 794.685 1455 Q797.764 1459.58 797.764 1468.33 Q797.764 1477.06 794.685 1481.67 Q791.63 1486.25 785.82 1486.25 Q780.01 1486.25 776.931 1481.67 Q773.875 1477.06 773.875 1468.33 Q773.875 1459.58 776.931 1455 Q780.01 1450.39 785.82 1450.39 Z" fill="#000000" fill-rule="nonzero" fill-opacity="1" /><path clip-path="url(#clip540)" d="M438.393 1481.64 L446.032 1481.64 L446.032 1455.28 L437.722 1456.95 L437.722 1452.69 L445.985 1451.02 L450.661 1451.02 L450.661 1481.64 L458.3 1481.64 L458.3 1485.58 L438.393 1485.58 L438.393 1481.64 Z" fill="#000000" fill-rule="nonzero" fill-opacity="1" /><path clip-path="url(#clip540)" d="M467.791 1451.02 L486.147 1451.02 L486.147 1454.96 L472.073 1454.96 L472.073 1463.43 Q473.092 1463.08 474.11 1462.92 Q475.129 1462.73 476.147 1462.73 Q481.934 1462.73 485.314 1465.9 Q488.693 1469.08 488.693 1474.49 Q488.693 1480.07 485.221 1483.17 Q481.749 1486.25 475.43 1486.25 Q473.254 1486.25 470.985 1485.88 Q468.74 1485.51 466.332 1484.77 L466.332 1480.07 Q468.416 1481.2 470.638 1481.76 Q472.86 1482.32 475.337 1482.32 Q479.342 1482.32 481.68 1480.21 Q484.018 1478.1 484.018 1474.49 Q484.018 1470.88 481.68 1468.77 Q479.342 1466.67 475.337 1466.67 Q473.462 1466.67 471.587 1467.08 Q469.735 1467.5 467.791 1468.38 L467.791 1451.02 Z" fill="#000000" fill-rule="nonzero" fill-opacity="1" /><path clip-path="url(#clip540)" d="M507.906 1454.1 Q504.295 1454.1 502.467 1457.66 Q500.661 1461.2 500.661 1468.33 Q500.661 1475.44 502.467 1479.01 Q504.295 1482.55 507.906 1482.55 Q511.541 1482.55 513.346 1479.01 Q515.175 1475.44 515.175 1468.33 Q515.175 1461.2 513.346 1457.66 Q511.541 1454.1 507.906 1454.1 M507.906 1450.39 Q513.716 1450.39 516.772 1455 Q519.851 1459.58 519.851 1468.33 Q519.851 1477.06 516.772 1481.67 Q513.716 1486.25 507.906 1486.25 Q502.096 1486.25 499.017 1481.67 Q495.962 1477.06 495.962 1468.33 Q495.962 1459.58 499.017 1455 Q502.096 1450.39 507.906 1450.39 Z" fill="#000000" fill-rule="nonzero" fill-opacity="1" /><path clip-path="url(#clip540)" d="M951.05 1526.86 L938 1562.7 L964.131 1562.7 L951.05 1526.86 M929.279 1568.04 L947.421 1520.52 L954.71 1520.52 L972.82 1568.04 L929.279 1568.04 Z" fill="#000000" fill-rule="nonzero" fill-opacity="1" /><path clip-path="url(#clip540)" d="M1020.88 1537.87 Q1019.89 1537.3 1018.72 1537.04 Q1017.57 1536.76 1016.17 1536.76 Q1011.21 1536.76 1008.53 1540 Q1005.89 1543.22 1005.89 1549.27 L1005.89 1568.04 L1000 1568.04 L1000 1532.4 L1005.89 1532.4 L1005.89 1537.93 Q1007.74 1534.69 1010.7 1533.13 Q1013.66 1531.54 1017.89 1531.54 Q1018.49 1531.54 1019.23 1531.63 Q1019.96 1531.7 1020.85 1531.85 L1020.88 1537.87 Z" fill="#000000" fill-rule="nonzero" fill-opacity="1" /><path clip-path="url(#clip540)" d="M1027.02 1532.4 L1032.88 1532.4 L1032.88 1568.04 L1027.02 1568.04 L1027.02 1532.4 M1027.02 1518.52 L1032.88 1518.52 L1032.88 1525.93 L1027.02 1525.93 L1027.02 1518.52 Z" fill="#000000" fill-rule="nonzero" fill-opacity="1" /><path clip-path="url(#clip540)" d="M1068.59 1549.81 Q1068.59 1543.44 1065.95 1539.94 Q1063.34 1536.44 1058.6 1536.44 Q1053.89 1536.44 1051.25 1539.94 Q1048.64 1543.44 1048.64 1549.81 Q1048.64 1556.14 1051.25 1559.64 Q1053.89 1563.14 1058.6 1563.14 Q1063.34 1563.14 1065.95 1559.64 Q1068.59 1556.14 1068.59 1549.81 M1074.45 1563.62 Q1074.45 1572.72 1070.41 1577.15 Q1066.36 1581.6 1058.03 1581.6 Q1054.94 1581.6 1052.2 1581.13 Q1049.46 1580.68 1046.89 1579.72 L1046.89 1574.03 Q1049.46 1575.43 1051.98 1576.1 Q1054.49 1576.76 1057.1 1576.76 Q1062.86 1576.76 1065.73 1573.74 Q1068.59 1570.75 1068.59 1564.67 L1068.59 1561.77 Q1066.78 1564.92 1063.95 1566.48 Q1061.11 1568.04 1057.17 1568.04 Q1050.61 1568.04 1046.6 1563.05 Q1042.59 1558.05 1042.59 1549.81 Q1042.59 1541.53 1046.6 1536.53 Q1050.61 1531.54 1057.17 1531.54 Q1061.11 1531.54 1063.95 1533.1 Q1066.78 1534.66 1068.59 1537.81 L1068.59 1532.4 L1074.45 1532.4 L1074.45 1563.62 Z" fill="#000000" fill-rule="nonzero" fill-opacity="1" /><path clip-path="url(#clip540)" d="M1116.14 1546.53 L1116.14 1568.04 L1110.29 1568.04 L1110.29 1546.72 Q1110.29 1541.66 1108.31 1539.14 Q1106.34 1536.63 1102.39 1536.63 Q1097.65 1536.63 1094.91 1539.65 Q1092.18 1542.68 1092.18 1547.9 L1092.18 1568.04 L1086.29 1568.04 L1086.29 1518.52 L1092.18 1518.52 L1092.18 1537.93 Q1094.28 1534.72 1097.11 1533.13 Q1099.98 1531.54 1103.7 1531.54 Q1109.84 1531.54 1112.99 1535.36 Q1116.14 1539.14 1116.14 1546.53 Z" fill="#000000" fill-rule="nonzero" fill-opacity="1" /><path clip-path="url(#clip540)" d="M1133.62 1522.27 L1133.62 1532.4 L1145.68 1532.4 L1145.68 1536.95 L1133.62 1536.95 L1133.62 1556.3 Q1133.62 1560.66 1134.8 1561.9 Q1136.01 1563.14 1139.67 1563.14 L1145.68 1563.14 L1145.68 1568.04 L1139.67 1568.04 Q1132.89 1568.04 1130.31 1565.53 Q1127.73 1562.98 1127.73 1556.3 L1127.73 1536.95 L1123.43 1536.95 L1123.43 1532.4 L1127.73 1532.4 L1127.73 1522.27 L1133.62 1522.27 Z" fill="#000000" fill-rule="nonzero" fill-opacity="1" /><path clip-path="url(#clip540)" d="M1190.3 1550.12 Q1183.21 1550.12 1180.47 1551.75 Q1177.73 1553.37 1177.73 1557.29 Q1177.73 1560.4 1179.77 1562.25 Q1181.84 1564.07 1185.37 1564.07 Q1190.24 1564.07 1193.17 1560.63 Q1196.13 1557.16 1196.13 1551.43 L1196.13 1550.12 L1190.3 1550.12 M1201.99 1547.71 L1201.99 1568.04 L1196.13 1568.04 L1196.13 1562.63 Q1194.12 1565.88 1191.13 1567.44 Q1188.14 1568.97 1183.81 1568.97 Q1178.34 1568.97 1175.09 1565.91 Q1171.88 1562.82 1171.88 1557.67 Q1171.88 1551.65 1175.89 1548.6 Q1179.93 1545.54 1187.92 1545.54 L1196.13 1545.54 L1196.13 1544.97 Q1196.13 1540.93 1193.46 1538.73 Q1190.81 1536.5 1186.01 1536.5 Q1182.95 1536.5 1180.06 1537.23 Q1177.16 1537.97 1174.49 1539.43 L1174.49 1534.02 Q1177.7 1532.78 1180.72 1532.17 Q1183.75 1531.54 1186.61 1531.54 Q1194.35 1531.54 1198.17 1535.55 Q1201.99 1539.56 1201.99 1547.71 Z" fill="#000000" fill-rule="nonzero" fill-opacity="1" /><path clip-path="url(#clip540)" d="M1236.77 1533.45 L1236.77 1538.98 Q1234.29 1537.71 1231.62 1537.07 Q1228.94 1536.44 1226.08 1536.44 Q1221.72 1536.44 1219.52 1537.77 Q1217.36 1539.11 1217.36 1541.79 Q1217.36 1543.82 1218.92 1545 Q1220.48 1546.15 1225.19 1547.2 L1227.19 1547.64 Q1233.43 1548.98 1236.04 1551.43 Q1238.68 1553.85 1238.68 1558.21 Q1238.68 1563.17 1234.74 1566.07 Q1230.82 1568.97 1223.95 1568.97 Q1221.08 1568.97 1217.96 1568.39 Q1214.88 1567.85 1211.44 1566.74 L1211.44 1560.69 Q1214.69 1562.38 1217.84 1563.24 Q1220.99 1564.07 1224.07 1564.07 Q1228.21 1564.07 1230.44 1562.66 Q1232.67 1561.23 1232.67 1558.65 Q1232.67 1556.27 1231.05 1554.99 Q1229.45 1553.72 1224.01 1552.54 L1221.97 1552.07 Q1216.53 1550.92 1214.11 1548.56 Q1211.69 1546.18 1211.69 1542.04 Q1211.69 1537.01 1215.26 1534.27 Q1218.82 1531.54 1225.38 1531.54 Q1228.63 1531.54 1231.49 1532.01 Q1234.36 1532.49 1236.77 1533.45 Z" fill="#000000" fill-rule="nonzero" fill-opacity="1" /><path clip-path="url(#clip540)" d="M1273.66 1533.76 L1273.66 1539.24 Q1271.18 1537.87 1268.67 1537.2 Q1266.18 1536.5 1263.64 1536.5 Q1257.94 1536.5 1254.79 1540.13 Q1251.64 1543.73 1251.64 1550.25 Q1251.64 1556.78 1254.79 1560.4 Q1257.94 1564 1263.64 1564 Q1266.18 1564 1268.67 1563.33 Q1271.18 1562.63 1273.66 1561.26 L1273.66 1566.68 Q1271.21 1567.82 1268.57 1568.39 Q1265.96 1568.97 1263 1568.97 Q1254.95 1568.97 1250.21 1563.91 Q1245.46 1558.85 1245.46 1550.25 Q1245.46 1541.53 1250.24 1536.53 Q1255.04 1531.54 1263.38 1531.54 Q1266.09 1531.54 1268.67 1532.11 Q1271.24 1532.65 1273.66 1533.76 Z" fill="#000000" fill-rule="nonzero" fill-opacity="1" /><path clip-path="url(#clip540)" d="M1314.34 1548.76 L1314.34 1551.62 L1287.41 1551.62 Q1287.8 1557.67 1291.04 1560.85 Q1294.32 1564 1300.14 1564 Q1303.52 1564 1306.67 1563.17 Q1309.85 1562.35 1312.97 1560.69 L1312.97 1566.23 Q1309.82 1567.57 1306.51 1568.27 Q1303.2 1568.97 1299.79 1568.97 Q1291.26 1568.97 1286.27 1564 Q1281.3 1559.04 1281.3 1550.57 Q1281.3 1541.82 1286.01 1536.69 Q1290.76 1531.54 1298.78 1531.54 Q1305.97 1531.54 1310.14 1536.18 Q1314.34 1540.8 1314.34 1548.76 M1308.48 1547.04 Q1308.42 1542.23 1305.78 1539.37 Q1303.17 1536.5 1298.84 1536.5 Q1293.94 1536.5 1290.98 1539.27 Q1288.05 1542.04 1287.6 1547.07 L1308.48 1547.04 Z" fill="#000000" fill-rule="nonzero" fill-opacity="1" /><path clip-path="url(#clip540)" d="M1353.59 1546.53 L1353.59 1568.04 L1347.73 1568.04 L1347.73 1546.72 Q1347.73 1541.66 1345.76 1539.14 Q1343.78 1536.63 1339.84 1536.63 Q1335.09 1536.63 1332.36 1539.65 Q1329.62 1542.68 1329.62 1547.9 L1329.62 1568.04 L1323.73 1568.04 L1323.73 1532.4 L1329.62 1532.4 L1329.62 1537.93 Q1331.72 1534.72 1334.55 1533.13 Q1337.42 1531.54 1341.14 1531.54 Q1347.28 1531.54 1350.43 1535.36 Q1353.59 1539.14 1353.59 1546.53 Z" fill="#000000" fill-rule="nonzero" fill-opacity="1" /><path clip-path="url(#clip540)" d="M1387.99 1533.45 L1387.99 1538.98 Q1385.51 1537.71 1382.84 1537.07 Q1380.16 1536.44 1377.3 1536.44 Q1372.94 1536.44 1370.74 1537.77 Q1368.58 1539.11 1368.58 1541.79 Q1368.58 1543.82 1370.14 1545 Q1371.7 1546.15 1376.41 1547.2 L1378.41 1547.64 Q1384.65 1548.98 1387.26 1551.43 Q1389.9 1553.85 1389.9 1558.21 Q1389.9 1563.17 1385.95 1566.07 Q1382.04 1568.97 1375.16 1568.97 Q1372.3 1568.97 1369.18 1568.39 Q1366.09 1567.85 1362.66 1566.74 L1362.66 1560.69 Q1365.9 1562.38 1369.05 1563.24 Q1372.2 1564.07 1375.29 1564.07 Q1379.43 1564.07 1381.66 1562.66 Q1383.89 1561.23 1383.89 1558.65 Q1383.89 1556.27 1382.26 1554.99 Q1380.67 1553.72 1375.23 1552.54 L1373.19 1552.07 Q1367.75 1550.92 1365.33 1548.56 Q1362.91 1546.18 1362.91 1542.04 Q1362.91 1537.01 1366.48 1534.27 Q1370.04 1531.54 1376.6 1531.54 Q1379.84 1531.54 1382.71 1532.01 Q1385.57 1532.49 1387.99 1533.45 Z" fill="#000000" fill-rule="nonzero" fill-opacity="1" /><path clip-path="url(#clip540)" d="M1399.23 1532.4 L1405.08 1532.4 L1405.08 1568.04 L1399.23 1568.04 L1399.23 1532.4 M1399.23 1518.52 L1405.08 1518.52 L1405.08 1525.93 L1399.23 1525.93 L1399.23 1518.52 Z" fill="#000000" fill-rule="nonzero" fill-opacity="1" /><path clip-path="url(#clip540)" d="M1431.15 1536.5 Q1426.44 1536.5 1423.7 1540.19 Q1420.97 1543.85 1420.97 1550.25 Q1420.97 1556.65 1423.67 1560.34 Q1426.41 1564 1431.15 1564 Q1435.83 1564 1438.57 1560.31 Q1441.3 1556.62 1441.3 1550.25 Q1441.3 1543.92 1438.57 1540.23 Q1435.83 1536.5 1431.15 1536.5 M1431.15 1531.54 Q1438.79 1531.54 1443.15 1536.5 Q1447.51 1541.47 1447.51 1550.25 Q1447.51 1559 1443.15 1564 Q1438.79 1568.97 1431.15 1568.97 Q1423.48 1568.97 1419.12 1564 Q1414.79 1559 1414.79 1550.25 Q1414.79 1541.47 1419.12 1536.5 Q1423.48 1531.54 1431.15 1531.54 Z" fill="#000000" fill-rule="nonzero" fill-opacity="1" /><path clip-path="url(#clip540)" d="M1486.85 1546.53 L1486.85 1568.04 L1480.99 1568.04 L1480.99 1546.72 Q1480.99 1541.66 1479.02 1539.14 Q1477.05 1536.63 1473.1 1536.63 Q1468.36 1536.63 1465.62 1539.65 Q1462.88 1542.68 1462.88 1547.9 L1462.88 1568.04 L1457 1568.04 L1457 1532.4 L1462.88 1532.4 L1462.88 1537.93 Q1464.98 1534.72 1467.82 1533.13 Q1470.68 1531.54 1474.41 1531.54 Q1480.55 1531.54 1483.7 1535.36 Q1486.85 1539.14 1486.85 1546.53 Z" fill="#000000" fill-rule="nonzero" fill-opacity="1" /><path clip-path="url(#clip540)" d="M1533.32 1518.58 Q1529.06 1525.9 1526.99 1533.06 Q1524.92 1540.23 1524.92 1547.58 Q1524.92 1554.93 1526.99 1562.16 Q1529.09 1569.35 1533.32 1576.64 L1528.23 1576.64 Q1523.45 1569.16 1521.07 1561.93 Q1518.71 1554.71 1518.71 1547.58 Q1518.71 1540.48 1521.07 1533.29 Q1523.42 1526.09 1528.23 1518.58 L1533.32 1518.58 Z" fill="#000000" fill-rule="nonzero" fill-opacity="1" /><path clip-path="url(#clip540)" d="M1572.44 1539.24 Q1574.63 1535.29 1577.69 1533.41 Q1580.75 1531.54 1584.88 1531.54 Q1590.45 1531.54 1593.48 1535.45 Q1596.5 1539.33 1596.5 1546.53 L1596.5 1568.04 L1590.61 1568.04 L1590.61 1546.72 Q1590.61 1541.59 1588.8 1539.11 Q1586.98 1536.63 1583.26 1536.63 Q1578.71 1536.63 1576.07 1539.65 Q1573.42 1542.68 1573.42 1547.9 L1573.42 1568.04 L1567.54 1568.04 L1567.54 1546.72 Q1567.54 1541.56 1565.72 1539.11 Q1563.91 1536.63 1560.12 1536.63 Q1555.63 1536.63 1552.99 1539.68 Q1550.35 1542.71 1550.35 1547.9 L1550.35 1568.04 L1544.46 1568.04 L1544.46 1532.4 L1550.35 1532.4 L1550.35 1537.93 Q1552.35 1534.66 1555.16 1533.1 Q1557.96 1531.54 1561.81 1531.54 Q1565.69 1531.54 1568.4 1533.51 Q1571.13 1535.48 1572.44 1539.24 Z" fill="#000000" fill-rule="nonzero" fill-opacity="1" /><path clip-path="url(#clip540)" d="M1624.38 1550.12 Q1617.28 1550.12 1614.55 1551.75 Q1611.81 1553.37 1611.81 1557.29 Q1611.81 1560.4 1613.85 1562.25 Q1615.92 1564.07 1619.45 1564.07 Q1624.32 1564.07 1627.25 1560.63 Q1630.21 1557.16 1630.21 1551.43 L1630.21 1550.12 L1624.38 1550.12 M1636.06 1547.71 L1636.06 1568.04 L1630.21 1568.04 L1630.21 1562.63 Q1628.2 1565.88 1625.21 1567.44 Q1622.22 1568.97 1617.89 1568.97 Q1612.41 1568.97 1609.17 1565.91 Q1605.95 1562.82 1605.95 1557.67 Q1605.95 1551.65 1609.96 1548.6 Q1614.01 1545.54 1622 1545.54 L1630.21 1545.54 L1630.21 1544.97 Q1630.21 1540.93 1627.53 1538.73 Q1624.89 1536.5 1620.09 1536.5 Q1617.03 1536.5 1614.13 1537.23 Q1611.24 1537.97 1608.56 1539.43 L1608.56 1534.02 Q1611.78 1532.78 1614.8 1532.17 Q1617.83 1531.54 1620.69 1531.54 Q1628.42 1531.54 1632.24 1535.55 Q1636.06 1539.56 1636.06 1547.71 Z" fill="#000000" fill-rule="nonzero" fill-opacity="1" /><path clip-path="url(#clip540)" d="M1670.85 1533.45 L1670.85 1538.98 Q1668.37 1537.71 1665.7 1537.07 Q1663.02 1536.44 1660.16 1536.44 Q1655.8 1536.44 1653.6 1537.77 Q1651.44 1539.11 1651.44 1541.79 Q1651.44 1543.82 1653 1545 Q1654.56 1546.15 1659.27 1547.2 L1661.27 1547.64 Q1667.51 1548.98 1670.12 1551.43 Q1672.76 1553.85 1672.76 1558.21 Q1672.76 1563.17 1668.81 1566.07 Q1664.9 1568.97 1658.02 1568.97 Q1655.16 1568.97 1652.04 1568.39 Q1648.95 1567.85 1645.52 1566.74 L1645.52 1560.69 Q1648.76 1562.38 1651.91 1563.24 Q1655.06 1564.07 1658.15 1564.07 Q1662.29 1564.07 1664.52 1562.66 Q1666.75 1561.23 1666.75 1558.65 Q1666.75 1556.27 1665.12 1554.99 Q1663.53 1553.72 1658.09 1552.54 L1656.05 1552.07 Q1650.61 1550.92 1648.19 1548.56 Q1645.77 1546.18 1645.77 1542.04 Q1645.77 1537.01 1649.34 1534.27 Q1652.9 1531.54 1659.46 1531.54 Q1662.7 1531.54 1665.57 1532.01 Q1668.43 1532.49 1670.85 1533.45 Z" fill="#000000" fill-rule="nonzero" fill-opacity="1" /><path clip-path="url(#clip540)" d="M1681.16 1518.58 L1686.26 1518.58 Q1691.03 1526.09 1693.39 1533.29 Q1695.77 1540.48 1695.77 1547.58 Q1695.77 1554.71 1693.39 1561.93 Q1691.03 1569.16 1686.26 1576.64 L1681.16 1576.64 Q1685.4 1569.35 1687.47 1562.16 Q1689.57 1554.93 1689.57 1547.58 Q1689.57 1540.23 1687.47 1533.06 Q1685.4 1525.9 1681.16 1518.58 Z" fill="#000000" fill-rule="nonzero" fill-opacity="1" /><polyline clip-path="url(#clip542)" style="stroke:#000000; stroke-linecap:round; stroke-linejoin:round; stroke-width:2; stroke-opacity:0.1; fill:none" points="2352.76,1328.09 272.297,1328.09 "/>
<polyline clip-path="url(#clip542)" style="stroke:#000000; stroke-linecap:round; stroke-linejoin:round; stroke-width:2; stroke-opacity:0.1; fill:none" points="2352.76,1031.65 272.297,1031.65 "/>
<polyline clip-path="url(#clip542)" style="stroke:#000000; stroke-linecap:round; stroke-linejoin:round; stroke-width:2; stroke-opacity:0.1; fill:none" points="2352.76,735.212 272.297,735.212 "/>
<polyline clip-path="url(#clip542)" style="stroke:#000000; stroke-linecap:round; stroke-linejoin:round; stroke-width:2; stroke-opacity:0.1; fill:none" points="2352.76,438.772 272.297,438.772 "/>
<polyline clip-path="url(#clip542)" style="stroke:#000000; stroke-linecap:round; stroke-linejoin:round; stroke-width:2; stroke-opacity:0.1; fill:none" points="2352.76,142.332 272.297,142.332 "/>
<polyline clip-path="url(#clip540)" style="stroke:#000000; stroke-linecap:round; stroke-linejoin:round; stroke-width:4; stroke-opacity:1; fill:none" points="272.297,1423.18 272.297,47.2441 "/>
<polyline clip-path="url(#clip540)" style="stroke:#000000; stroke-linecap:round; stroke-linejoin:round; stroke-width:4; stroke-opacity:1; fill:none" points="272.297,1328.09 291.194,1328.09 "/>
<polyline clip-path="url(#clip540)" style="stroke:#000000; stroke-linecap:round; stroke-linejoin:round; stroke-width:4; stroke-opacity:1; fill:none" points="272.297,1031.65 291.194,1031.65 "/>
<polyline clip-path="url(#clip540)" style="stroke:#000000; stroke-linecap:round; stroke-linejoin:round; stroke-width:4; stroke-opacity:1; fill:none" points="272.297,735.212 291.194,735.212 "/>
<polyline clip-path="url(#clip540)" style="stroke:#000000; stroke-linecap:round; stroke-linejoin:round; stroke-width:4; stroke-opacity:1; fill:none" points="272.297,438.772 291.194,438.772 "/>
<polyline clip-path="url(#clip540)" style="stroke:#000000; stroke-linecap:round; stroke-linejoin:round; stroke-width:4; stroke-opacity:1; fill:none" points="272.297,142.332 291.194,142.332 "/>
<path clip-path="url(#clip540)" d="M114.26 1328.54 L143.936 1328.54 L143.936 1332.48 L114.26 1332.48 L114.26 1328.54 Z" fill="#000000" fill-rule="nonzero" fill-opacity="1" /><path clip-path="url(#clip540)" d="M154.839 1341.44 L162.477 1341.44 L162.477 1315.07 L154.167 1316.74 L154.167 1312.48 L162.431 1310.81 L167.107 1310.81 L167.107 1341.44 L174.746 1341.44 L174.746 1345.37 L154.839 1345.37 L154.839 1341.44 Z" fill="#000000" fill-rule="nonzero" fill-opacity="1" /><path clip-path="url(#clip540)" d="M194.19 1313.89 Q190.579 1313.89 188.75 1317.46 Q186.945 1321 186.945 1328.13 Q186.945 1335.23 188.75 1338.8 Q190.579 1342.34 194.19 1342.34 Q197.825 1342.34 199.63 1338.8 Q201.459 1335.23 201.459 1328.13 Q201.459 1321 199.63 1317.46 Q197.825 1313.89 194.19 1313.89 M194.19 1310.19 Q200 1310.19 203.056 1314.79 Q206.135 1319.38 206.135 1328.13 Q206.135 1336.85 203.056 1341.46 Q200 1346.04 194.19 1346.04 Q188.38 1346.04 185.301 1341.46 Q182.246 1336.85 182.246 1328.13 Q182.246 1319.38 185.301 1314.79 Q188.38 1310.19 194.19 1310.19 Z" fill="#000000" fill-rule="nonzero" fill-opacity="1" /><path clip-path="url(#clip540)" d="M224.352 1313.89 Q220.741 1313.89 218.912 1317.46 Q217.107 1321 217.107 1328.13 Q217.107 1335.23 218.912 1338.8 Q220.741 1342.34 224.352 1342.34 Q227.986 1342.34 229.792 1338.8 Q231.621 1335.23 231.621 1328.13 Q231.621 1321 229.792 1317.46 Q227.986 1313.89 224.352 1313.89 M224.352 1310.19 Q230.162 1310.19 233.218 1314.79 Q236.297 1319.38 236.297 1328.13 Q236.297 1336.85 233.218 1341.46 Q230.162 1346.04 224.352 1346.04 Q218.542 1346.04 215.463 1341.46 Q212.408 1336.85 212.408 1328.13 Q212.408 1319.38 215.463 1314.79 Q218.542 1310.19 224.352 1310.19 Z" fill="#000000" fill-rule="nonzero" fill-opacity="1" /><path clip-path="url(#clip540)" d="M144.422 1032.1 L174.098 1032.1 L174.098 1036.04 L144.422 1036.04 L144.422 1032.1 Z" fill="#000000" fill-rule="nonzero" fill-opacity="1" /><path clip-path="url(#clip540)" d="M184.237 1014.37 L202.593 1014.37 L202.593 1018.31 L188.519 1018.31 L188.519 1026.78 Q189.538 1026.43 190.556 1026.27 Q191.575 1026.08 192.593 1026.08 Q198.38 1026.08 201.76 1029.26 Q205.139 1032.43 205.139 1037.84 Q205.139 1043.42 201.667 1046.52 Q198.195 1049.6 191.875 1049.6 Q189.7 1049.6 187.431 1049.23 Q185.186 1048.86 182.778 1048.12 L182.778 1043.42 Q184.862 1044.56 187.084 1045.11 Q189.306 1045.67 191.783 1045.67 Q195.787 1045.67 198.125 1043.56 Q200.463 1041.46 200.463 1037.84 Q200.463 1034.23 198.125 1032.13 Q195.787 1030.02 191.783 1030.02 Q189.908 1030.02 188.033 1030.44 Q186.181 1030.85 184.237 1031.73 L184.237 1014.37 Z" fill="#000000" fill-rule="nonzero" fill-opacity="1" /><path clip-path="url(#clip540)" d="M224.352 1017.45 Q220.741 1017.45 218.912 1021.02 Q217.107 1024.56 217.107 1031.69 Q217.107 1038.79 218.912 1042.36 Q220.741 1045.9 224.352 1045.9 Q227.986 1045.9 229.792 1042.36 Q231.621 1038.79 231.621 1031.69 Q231.621 1024.56 229.792 1021.02 Q227.986 1017.45 224.352 1017.45 M224.352 1013.75 Q230.162 1013.75 233.218 1018.35 Q236.297 1022.94 236.297 1031.69 Q236.297 1040.41 233.218 1045.02 Q230.162 1049.6 224.352 1049.6 Q218.542 1049.6 215.463 1045.02 Q212.408 1040.41 212.408 1031.69 Q212.408 1022.94 215.463 1018.35 Q218.542 1013.75 224.352 1013.75 Z" fill="#000000" fill-rule="nonzero" fill-opacity="1" /><path clip-path="url(#clip540)" d="M224.352 721.011 Q220.741 721.011 218.912 724.575 Q217.107 728.117 217.107 735.247 Q217.107 742.353 218.912 745.918 Q220.741 749.46 224.352 749.46 Q227.986 749.46 229.792 745.918 Q231.621 742.353 231.621 735.247 Q231.621 728.117 229.792 724.575 Q227.986 721.011 224.352 721.011 M224.352 717.307 Q230.162 717.307 233.218 721.913 Q236.297 726.497 236.297 735.247 Q236.297 743.973 233.218 748.58 Q230.162 753.163 224.352 753.163 Q218.542 753.163 215.463 748.58 Q212.408 743.973 212.408 735.247 Q212.408 726.497 215.463 721.913 Q218.542 717.307 224.352 717.307 Z" fill="#000000" fill-rule="nonzero" fill-opacity="1" /><path clip-path="url(#clip540)" d="M184.237 421.492 L202.593 421.492 L202.593 425.427 L188.519 425.427 L188.519 433.899 Q189.538 433.552 190.556 433.39 Q191.575 433.205 192.593 433.205 Q198.38 433.205 201.76 436.376 Q205.139 439.547 205.139 444.964 Q205.139 450.543 201.667 453.645 Q198.195 456.723 191.875 456.723 Q189.7 456.723 187.431 456.353 Q185.186 455.983 182.778 455.242 L182.778 450.543 Q184.862 451.677 187.084 452.233 Q189.306 452.788 191.783 452.788 Q195.787 452.788 198.125 450.682 Q200.463 448.575 200.463 444.964 Q200.463 441.353 198.125 439.247 Q195.787 437.14 191.783 437.14 Q189.908 437.14 188.033 437.557 Q186.181 437.973 184.237 438.853 L184.237 421.492 Z" fill="#000000" fill-rule="nonzero" fill-opacity="1" /><path clip-path="url(#clip540)" d="M224.352 424.571 Q220.741 424.571 218.912 428.135 Q217.107 431.677 217.107 438.807 Q217.107 445.913 218.912 449.478 Q220.741 453.02 224.352 453.02 Q227.986 453.02 229.792 449.478 Q231.621 445.913 231.621 438.807 Q231.621 431.677 229.792 428.135 Q227.986 424.571 224.352 424.571 M224.352 420.867 Q230.162 420.867 233.218 425.473 Q236.297 430.057 236.297 438.807 Q236.297 447.534 233.218 452.14 Q230.162 456.723 224.352 456.723 Q218.542 456.723 215.463 452.14 Q212.408 447.534 212.408 438.807 Q212.408 430.057 215.463 425.473 Q218.542 420.867 224.352 420.867 Z" fill="#000000" fill-rule="nonzero" fill-opacity="1" /><path clip-path="url(#clip540)" d="M154.839 155.677 L162.477 155.677 L162.477 129.311 L154.167 130.978 L154.167 126.719 L162.431 125.052 L167.107 125.052 L167.107 155.677 L174.746 155.677 L174.746 159.612 L154.839 159.612 L154.839 155.677 Z" fill="#000000" fill-rule="nonzero" fill-opacity="1" /><path clip-path="url(#clip540)" d="M194.19 128.131 Q190.579 128.131 188.75 131.695 Q186.945 135.237 186.945 142.367 Q186.945 149.473 188.75 153.038 Q190.579 156.58 194.19 156.58 Q197.825 156.58 199.63 153.038 Q201.459 149.473 201.459 142.367 Q201.459 135.237 199.63 131.695 Q197.825 128.131 194.19 128.131 M194.19 124.427 Q200 124.427 203.056 129.033 Q206.135 133.617 206.135 142.367 Q206.135 151.094 203.056 155.7 Q200 160.283 194.19 160.283 Q188.38 160.283 185.301 155.7 Q182.246 151.094 182.246 142.367 Q182.246 133.617 185.301 129.033 Q188.38 124.427 194.19 124.427 Z" fill="#000000" fill-rule="nonzero" fill-opacity="1" /><path clip-path="url(#clip540)" d="M224.352 128.131 Q220.741 128.131 218.912 131.695 Q217.107 135.237 217.107 142.367 Q217.107 149.473 218.912 153.038 Q220.741 156.58 224.352 156.58 Q227.986 156.58 229.792 153.038 Q231.621 149.473 231.621 142.367 Q231.621 135.237 229.792 131.695 Q227.986 128.131 224.352 128.131 M224.352 124.427 Q230.162 124.427 233.218 129.033 Q236.297 133.617 236.297 142.367 Q236.297 151.094 233.218 155.7 Q230.162 160.283 224.352 160.283 Q218.542 160.283 215.463 155.7 Q212.408 151.094 212.408 142.367 Q212.408 133.617 215.463 129.033 Q218.542 124.427 224.352 124.427 Z" fill="#000000" fill-rule="nonzero" fill-opacity="1" /><path clip-path="url(#clip540)" d="M22.818 1027.37 L58.657 1040.42 L58.657 1014.28 L22.818 1027.37 M64.0042 1049.14 L16.4842 1030.99 L16.4842 1023.71 L64.0042 1005.6 L64.0042 1049.14 Z" fill="#000000" fill-rule="nonzero" fill-opacity="1" /><path clip-path="url(#clip540)" d="M33.7671 954.733 L14.479 954.733 L14.479 948.877 L64.0042 948.877 L64.0042 954.733 L58.657 954.733 Q61.8398 956.579 63.3994 959.412 Q64.9272 962.213 64.9272 966.16 Q64.9272 972.621 59.771 976.695 Q54.6147 980.737 46.212 980.737 Q37.8093 980.737 32.6531 976.695 Q27.4968 972.621 27.4968 966.16 Q27.4968 962.213 29.0564 959.412 Q30.5842 956.579 33.7671 954.733 M46.212 974.69 Q52.6732 974.69 56.3653 972.048 Q60.0256 969.374 60.0256 964.728 Q60.0256 960.081 56.3653 957.407 Q52.6732 954.733 46.212 954.733 Q39.7508 954.733 36.0905 957.407 Q32.3984 960.081 32.3984 964.728 Q32.3984 969.374 36.0905 972.048 Q39.7508 974.69 46.212 974.69 Z" fill="#000000" fill-rule="nonzero" fill-opacity="1" /><path clip-path="url(#clip540)" d="M44.7161 906.322 L47.5806 906.322 L47.5806 933.249 Q53.6281 932.867 56.8109 929.621 Q59.9619 926.342 59.9619 920.518 Q59.9619 917.144 59.1344 913.993 Q58.3069 910.81 56.6518 907.691 L62.1899 907.691 Q63.5267 910.842 64.227 914.152 Q64.9272 917.462 64.9272 920.868 Q64.9272 929.398 59.9619 934.395 Q54.9967 939.36 46.5303 939.36 Q37.7774 939.36 32.6531 934.65 Q27.4968 929.907 27.4968 921.886 Q27.4968 914.693 32.1438 910.524 Q36.7589 906.322 44.7161 906.322 M42.9973 912.179 Q38.1912 912.242 35.3266 914.884 Q32.4621 917.494 32.4621 921.823 Q32.4621 926.724 35.2312 929.684 Q38.0002 932.613 43.0292 933.058 L42.9973 912.179 Z" fill="#000000" fill-rule="nonzero" fill-opacity="1" /><path clip-path="url(#clip540)" d="M29.7248 871.056 L35.1993 871.056 Q33.8307 873.539 33.1623 876.053 Q32.4621 878.536 32.4621 881.082 Q32.4621 886.779 36.0905 889.93 Q39.6872 893.081 46.212 893.081 Q52.7369 893.081 56.3653 889.93 Q59.9619 886.779 59.9619 881.082 Q59.9619 878.536 59.2935 876.053 Q58.5933 873.539 57.2247 871.056 L62.6355 871.056 Q63.7814 873.507 64.3543 876.149 Q64.9272 878.759 64.9272 881.719 Q64.9272 889.771 59.8664 894.514 Q54.8057 899.256 46.212 899.256 Q37.491 899.256 32.4939 894.482 Q27.4968 889.676 27.4968 881.337 Q27.4968 878.631 28.0697 876.053 Q28.6108 873.475 29.7248 871.056 Z" fill="#000000" fill-rule="nonzero" fill-opacity="1" /><path clip-path="url(#clip540)" d="M14.479 860.871 L14.479 855.015 L64.0042 855.015 L64.0042 860.871 L14.479 860.871 Z" fill="#000000" fill-rule="nonzero" fill-opacity="1" /><path clip-path="url(#clip540)" d="M28.3562 842.761 L28.3562 836.904 L64.0042 836.904 L64.0042 842.761 L28.3562 842.761 M14.479 842.761 L14.479 836.904 L21.895 836.904 L21.895 842.761 L14.479 842.761 Z" fill="#000000" fill-rule="nonzero" fill-opacity="1" /><path clip-path="url(#clip540)" d="M42.4881 795.018 L64.0042 795.018 L64.0042 800.874 L42.679 800.874 Q37.6183 800.874 35.1038 802.848 Q32.5894 804.821 32.5894 808.768 Q32.5894 813.51 35.6131 816.247 Q38.6368 818.985 43.8567 818.985 L64.0042 818.985 L64.0042 824.873 L28.3562 824.873 L28.3562 818.985 L33.8944 818.985 Q30.6797 816.884 29.0883 814.051 Q27.4968 811.187 27.4968 807.463 Q27.4968 801.32 31.3163 798.169 Q35.1038 795.018 42.4881 795.018 Z" fill="#000000" fill-rule="nonzero" fill-opacity="1" /><path clip-path="url(#clip540)" d="M46.0847 767.136 Q46.0847 774.234 47.7079 776.971 Q49.3312 779.708 53.2461 779.708 Q56.3653 779.708 58.2114 777.671 Q60.0256 775.602 60.0256 772.069 Q60.0256 767.2 56.5881 764.271 Q53.1188 761.311 47.3897 761.311 L46.0847 761.311 L46.0847 767.136 M43.6657 755.455 L64.0042 755.455 L64.0042 761.311 L58.5933 761.311 Q61.8398 763.317 63.3994 766.308 Q64.9272 769.3 64.9272 773.629 Q64.9272 779.104 61.8716 782.35 Q58.7843 785.565 53.6281 785.565 Q47.6125 785.565 44.5569 781.554 Q41.5014 777.512 41.5014 769.523 L41.5014 761.311 L40.9285 761.311 Q36.8862 761.311 34.6901 763.985 Q32.4621 766.627 32.4621 771.433 Q32.4621 774.488 33.1941 777.385 Q33.9262 780.281 35.3903 782.955 L29.9795 782.955 Q28.7381 779.74 28.1334 776.716 Q27.4968 773.693 27.4968 770.828 Q27.4968 763.094 31.5072 759.274 Q35.5176 755.455 43.6657 755.455 Z" fill="#000000" fill-rule="nonzero" fill-opacity="1" /><path clip-path="url(#clip540)" d="M18.2347 737.599 L28.3562 737.599 L28.3562 725.536 L32.9077 725.536 L32.9077 737.599 L52.2594 737.599 Q56.6199 737.599 57.8613 736.421 Q59.1026 735.212 59.1026 731.552 L59.1026 725.536 L64.0042 725.536 L64.0042 731.552 Q64.0042 738.331 61.4897 740.909 Q58.9434 743.487 52.2594 743.487 L32.9077 743.487 L32.9077 747.784 L28.3562 747.784 L28.3562 743.487 L18.2347 743.487 L18.2347 737.599 Z" fill="#000000" fill-rule="nonzero" fill-opacity="1" /><path clip-path="url(#clip540)" d="M28.3562 717.834 L28.3562 711.977 L64.0042 711.977 L64.0042 717.834 L28.3562 717.834 M14.479 717.834 L14.479 711.977 L21.895 711.977 L21.895 717.834 L14.479 717.834 Z" fill="#000000" fill-rule="nonzero" fill-opacity="1" /><path clip-path="url(#clip540)" d="M32.4621 685.91 Q32.4621 690.62 36.1542 693.357 Q39.8145 696.095 46.212 696.095 Q52.6095 696.095 56.3017 693.389 Q59.9619 690.652 59.9619 685.91 Q59.9619 681.231 56.2698 678.494 Q52.5777 675.756 46.212 675.756 Q39.8781 675.756 36.186 678.494 Q32.4621 681.231 32.4621 685.91 M27.4968 685.91 Q27.4968 678.271 32.4621 673.91 Q37.4273 669.55 46.212 669.55 Q54.9649 669.55 59.9619 673.91 Q64.9272 678.271 64.9272 685.91 Q64.9272 693.58 59.9619 697.941 Q54.9649 702.269 46.212 702.269 Q37.4273 702.269 32.4621 697.941 Q27.4968 693.58 27.4968 685.91 Z" fill="#000000" fill-rule="nonzero" fill-opacity="1" /><path clip-path="url(#clip540)" d="M42.4881 630.21 L64.0042 630.21 L64.0042 636.066 L42.679 636.066 Q37.6183 636.066 35.1038 638.039 Q32.5894 640.013 32.5894 643.96 Q32.5894 648.702 35.6131 651.439 Q38.6368 654.177 43.8567 654.177 L64.0042 654.177 L64.0042 660.065 L28.3562 660.065 L28.3562 654.177 L33.8944 654.177 Q30.6797 652.076 29.0883 649.243 Q27.4968 646.379 27.4968 642.655 Q27.4968 636.512 31.3163 633.361 Q35.1038 630.21 42.4881 630.21 Z" fill="#000000" fill-rule="nonzero" fill-opacity="1" /><path clip-path="url(#clip540)" d="M14.5426 583.74 Q21.8632 588.005 29.0246 590.074 Q36.186 592.143 43.5384 592.143 Q50.8908 592.143 58.1159 590.074 Q65.3091 587.973 72.5979 583.74 L72.5979 588.833 Q65.1182 593.607 57.8931 595.994 Q50.668 598.349 43.5384 598.349 Q36.4406 598.349 29.2474 595.994 Q22.0542 593.639 14.5426 588.833 L14.5426 583.74 Z" fill="#000000" fill-rule="nonzero" fill-opacity="1" /><path clip-path="url(#clip540)" d="M35.1993 544.623 Q31.2526 542.427 29.3747 539.371 Q27.4968 536.315 27.4968 532.178 Q27.4968 526.608 31.4117 523.584 Q35.2948 520.56 42.4881 520.56 L64.0042 520.56 L64.0042 526.449 L42.679 526.449 Q37.5546 526.449 35.072 528.263 Q32.5894 530.077 32.5894 533.801 Q32.5894 538.352 35.6131 540.994 Q38.6368 543.636 43.8567 543.636 L64.0042 543.636 L64.0042 549.524 L42.679 549.524 Q37.5228 549.524 35.072 551.339 Q32.5894 553.153 32.5894 556.94 Q32.5894 561.428 35.6449 564.07 Q38.6686 566.712 43.8567 566.712 L64.0042 566.712 L64.0042 572.6 L28.3562 572.6 L28.3562 566.712 L33.8944 566.712 Q30.616 564.707 29.0564 561.906 Q27.4968 559.105 27.4968 555.253 Q27.4968 551.37 29.4702 548.665 Q31.4436 545.928 35.1993 544.623 Z" fill="#000000" fill-rule="nonzero" fill-opacity="1" /><path clip-path="url(#clip540)" d="M46.0847 492.679 Q46.0847 499.776 47.7079 502.514 Q49.3312 505.251 53.2461 505.251 Q56.3653 505.251 58.2114 503.214 Q60.0256 501.145 60.0256 497.612 Q60.0256 492.742 56.5881 489.814 Q53.1188 486.854 47.3897 486.854 L46.0847 486.854 L46.0847 492.679 M43.6657 480.997 L64.0042 480.997 L64.0042 486.854 L58.5933 486.854 Q61.8398 488.859 63.3994 491.851 Q64.9272 494.843 64.9272 499.172 Q64.9272 504.646 61.8716 507.893 Q58.7843 511.107 53.6281 511.107 Q47.6125 511.107 44.5569 507.097 Q41.5014 503.055 41.5014 495.066 L41.5014 486.854 L40.9285 486.854 Q36.8862 486.854 34.6901 489.528 Q32.4621 492.169 32.4621 496.975 Q32.4621 500.031 33.1941 502.927 Q33.9262 505.824 35.3903 508.497 L29.9795 508.497 Q28.7381 505.283 28.1334 502.259 Q27.4968 499.235 27.4968 496.371 Q27.4968 488.636 31.5072 484.817 Q35.5176 480.997 43.6657 480.997 Z" fill="#000000" fill-rule="nonzero" fill-opacity="1" /><path clip-path="url(#clip540)" d="M29.4065 446.209 L34.9447 446.209 Q33.6716 448.692 33.035 451.365 Q32.3984 454.039 32.3984 456.903 Q32.3984 461.264 33.7352 463.46 Q35.072 465.624 37.7456 465.624 Q39.7826 465.624 40.9603 464.065 Q42.1061 462.505 43.1565 457.794 L43.6021 455.789 Q44.9389 449.551 47.3897 446.941 Q49.8086 444.299 54.1691 444.299 Q59.1344 444.299 62.0308 448.246 Q64.9272 452.161 64.9272 459.036 Q64.9272 461.9 64.3543 465.02 Q63.8132 468.107 62.6992 471.544 L56.6518 471.544 Q58.3387 468.298 59.198 465.147 Q60.0256 461.996 60.0256 458.908 Q60.0256 454.771 58.6251 452.543 Q57.1929 450.315 54.6147 450.315 Q52.2276 450.315 50.9545 451.938 Q49.6813 453.529 48.5037 458.972 L48.0262 461.009 Q46.8804 466.452 44.5251 468.871 Q42.138 471.29 38.0002 471.29 Q32.9713 471.29 30.2341 467.725 Q27.4968 464.16 27.4968 457.604 Q27.4968 454.357 27.9743 451.492 Q28.4517 448.628 29.4065 446.209 Z" fill="#000000" fill-rule="nonzero" fill-opacity="1" /><path clip-path="url(#clip540)" d="M14.5426 435.896 L14.5426 430.804 Q22.0542 426.03 29.2474 423.674 Q36.4406 421.287 43.5384 421.287 Q50.668 421.287 57.8931 423.674 Q65.1182 426.03 72.5979 430.804 L72.5979 435.896 Q65.3091 431.663 58.1159 429.594 Q50.8908 427.494 43.5384 427.494 Q36.186 427.494 29.0246 429.594 Q21.8632 431.663 14.5426 435.896 Z" fill="#000000" fill-rule="nonzero" fill-opacity="1" /><polyline clip-path="url(#clip542)" style="stroke:#000000; stroke-linecap:round; stroke-linejoin:round; stroke-width:4; stroke-opacity:1; fill:none" points="2238.29,1384.24 2238.29,1265.66 "/>
<polyline clip-path="url(#clip542)" style="stroke:#000000; stroke-linecap:round; stroke-linejoin:round; stroke-width:4; stroke-opacity:1; fill:none" points="2182.71,1324.95 2293.87,1324.95 "/>
<polyline clip-path="url(#clip542)" style="stroke:#000000; stroke-linecap:round; stroke-linejoin:round; stroke-width:4; stroke-opacity:1; fill:none" points="2004.02,1348.7 2004.02,1230.13 "/>
<polyline clip-path="url(#clip542)" style="stroke:#000000; stroke-linecap:round; stroke-linejoin:round; stroke-width:4; stroke-opacity:1; fill:none" points="1948.44,1289.41 2059.61,1289.41 "/>
<polyline clip-path="url(#clip542)" style="stroke:#000000; stroke-linecap:round; stroke-linejoin:round; stroke-width:4; stroke-opacity:1; fill:none" points="1757.12,1303.04 1757.12,1184.46 "/>
<polyline clip-path="url(#clip542)" style="stroke:#000000; stroke-linecap:round; stroke-linejoin:round; stroke-width:4; stroke-opacity:1; fill:none" points="1701.53,1243.75 1812.7,1243.75 "/>
<polyline clip-path="url(#clip542)" style="stroke:#000000; stroke-linecap:round; stroke-linejoin:round; stroke-width:4; stroke-opacity:1; fill:none" points="1502.13,1248.14 1502.13,1129.57 "/>
<polyline clip-path="url(#clip542)" style="stroke:#000000; stroke-linecap:round; stroke-linejoin:round; stroke-width:4; stroke-opacity:1; fill:none" points="1446.55,1188.86 1557.72,1188.86 "/>
<polyline clip-path="url(#clip542)" style="stroke:#000000; stroke-linecap:round; stroke-linejoin:round; stroke-width:4; stroke-opacity:1; fill:none" points="1243.75,1185.15 1243.75,1066.57 "/>
<polyline clip-path="url(#clip542)" style="stroke:#000000; stroke-linecap:round; stroke-linejoin:round; stroke-width:4; stroke-opacity:1; fill:none" points="1188.16,1125.86 1299.33,1125.86 "/>
<polyline clip-path="url(#clip542)" style="stroke:#000000; stroke-linecap:round; stroke-linejoin:round; stroke-width:4; stroke-opacity:1; fill:none" points="986.54,1115.33 986.54,996.754 "/>
<polyline clip-path="url(#clip542)" style="stroke:#000000; stroke-linecap:round; stroke-linejoin:round; stroke-width:4; stroke-opacity:1; fill:none" points="930.957,1056.04 1042.12,1056.04 "/>
<polyline clip-path="url(#clip542)" style="stroke:#000000; stroke-linecap:round; stroke-linejoin:round; stroke-width:4; stroke-opacity:1; fill:none" points="734.812,1040.09 734.812,921.514 "/>
<polyline clip-path="url(#clip542)" style="stroke:#000000; stroke-linecap:round; stroke-linejoin:round; stroke-width:4; stroke-opacity:1; fill:none" points="679.229,980.802 790.395,980.802 "/>
<polyline clip-path="url(#clip542)" style="stroke:#000000; stroke-linecap:round; stroke-linejoin:round; stroke-width:4; stroke-opacity:1; fill:none" points="492.446,960.849 492.446,842.273 "/>
<polyline clip-path="url(#clip542)" style="stroke:#000000; stroke-linecap:round; stroke-linejoin:round; stroke-width:4; stroke-opacity:1; fill:none" points="436.864,901.561 548.029,901.561 "/>
</svg>
