<?xml version="1.0" encoding="utf-8"?>
<svg xmlns="http://www.w3.org/2000/svg" xmlns:xlink="http://www.w3.org/1999/xlink" width="600" height="400" viewBox="0 0 2400 1600">
<defs>
  <clipPath id="clip840">
    <rect x="0" y="0" width="2400" height="1600"/>
  </clipPath>
</defs>
<path clip-path="url(#clip840)" d="M0 1600 L2400 1600 L2400 0 L0 0  Z" fill="#ffffff" fill-rule="evenodd" fill-opacity="1"/>
<defs>
  <clipPath id="clip841">
    <rect x="480" y="0" width="1681" height="1600"/>
  </clipPath>
</defs>
<path clip-path="url(#clip840)" d="M219.866 1423.18 L2352.76 1423.18 L2352.76 47.2441 L219.866 47.2441  Z" fill="#ffffff" fill-rule="evenodd" fill-opacity="1"/>
<defs>
  <clipPath id="clip842">
    <rect x="219" y="47" width="2134" height="1377"/>
  </clipPath>
</defs>
<polyline clip-path="url(#clip842)" style="stroke:#000000; stroke-linecap:round; stroke-linejoin:round; stroke-width:2; stroke-opacity:0.1; fill:none" points="276.199,1423.18 276.199,47.2441 "/>
<polyline clip-path="url(#clip842)" style="stroke:#000000; stroke-linecap:round; stroke-linejoin:round; stroke-width:2; stroke-opacity:0.1; fill:none" points="679.437,1423.18 679.437,47.2441 "/>
<polyline clip-path="url(#clip842)" style="stroke:#000000; stroke-linecap:round; stroke-linejoin:round; stroke-width:2; stroke-opacity:0.1; fill:none" points="1082.68,1423.18 1082.68,47.2441 "/>
<polyline clip-path="url(#clip842)" style="stroke:#000000; stroke-linecap:round; stroke-linejoin:round; stroke-width:2; stroke-opacity:0.1; fill:none" points="1485.91,1423.18 1485.91,47.2441 "/>
<polyline clip-path="url(#clip842)" style="stroke:#000000; stroke-linecap:round; stroke-linejoin:round; stroke-width:2; stroke-opacity:0.1; fill:none" points="1889.15,1423.18 1889.15,47.2441 "/>
<polyline clip-path="url(#clip842)" style="stroke:#000000; stroke-linecap:round; stroke-linejoin:round; stroke-width:2; stroke-opacity:0.1; fill:none" points="2292.39,1423.18 2292.39,47.2441 "/>
<polyline clip-path="url(#clip840)" style="stroke:#000000; stroke-linecap:round; stroke-linejoin:round; stroke-width:4; stroke-opacity:1; fill:none" points="219.866,1423.18 2352.76,1423.18 "/>
<polyline clip-path="url(#clip840)" style="stroke:#000000; stroke-linecap:round; stroke-linejoin:round; stroke-width:4; stroke-opacity:1; fill:none" points="276.199,1423.18 276.199,1404.28 "/>
<polyline clip-path="url(#clip840)" style="stroke:#000000; stroke-linecap:round; stroke-linejoin:round; stroke-width:4; stroke-opacity:1; fill:none" points="679.437,1423.18 679.437,1404.28 "/>
<polyline clip-path="url(#clip840)" style="stroke:#000000; stroke-linecap:round; stroke-linejoin:round; stroke-width:4; stroke-opacity:1; fill:none" points="1082.68,1423.18 1082.68,1404.28 "/>
<polyline clip-path="url(#clip840)" style="stroke:#000000; stroke-linecap:round; stroke-linejoin:round; stroke-width:4; stroke-opacity:1; fill:none" points="1485.91,1423.18 1485.91,1404.28 "/>
<polyline clip-path="url(#clip840)" style="stroke:#000000; stroke-linecap:round; stroke-linejoin:round; stroke-width:4; stroke-opacity:1; fill:none" points="1889.15,1423.18 1889.15,1404.28 "/>
<polyline clip-path="url(#clip840)" style="stroke:#000000; stroke-linecap:round; stroke-linejoin:round; stroke-width:4; stroke-opacity:1; fill:none" points="2292.39,1423.18 2292.39,1404.28 "/>
<path clip-path="url(#clip840)" d="M276.199 1454.1 Q272.588 1454.1 270.759 1457.66 Q268.953 1461.2 268.953 1468.33 Q268.953 1475.44 270.759 1479.01 Q272.588 1482.55 276.199 1482.55 Q279.833 1482.55 281.638 1479.01 Q283.467 1475.44 283.467 1468.33 Q283.467 1461.2 281.638 1457.66 Q279.833 1454.1 276.199 1454.1 M276.199 1450.39 Q282.009 1450.39 285.064 1455 Q288.143 1459.58 288.143 1468.33 Q288.143 1477.06 285.064 1481.67 Q282.009 1486.25 276.199 1486.25 Q270.389 1486.25 267.31 1481.67 Q264.254 1477.06 264.254 1468.33 Q264.254 1459.58 267.31 1455 Q270.389 1450.39 276.199 1450.39 Z" fill="#000000" fill-rule="nonzero" fill-opacity="1" /><path clip-path="url(#clip840)" d="M639.044 1481.64 L646.683 1481.64 L646.683 1455.28 L638.373 1456.95 L638.373 1452.69 L646.636 1451.02 L651.312 1451.02 L651.312 1481.64 L658.951 1481.64 L658.951 1485.58 L639.044 1485.58 L639.044 1481.64 Z" fill="#000000" fill-rule="nonzero" fill-opacity="1" /><path clip-path="url(#clip840)" d="M678.396 1454.1 Q674.784 1454.1 672.956 1457.66 Q671.15 1461.2 671.15 1468.33 Q671.15 1475.44 672.956 1479.01 Q674.784 1482.55 678.396 1482.55 Q682.03 1482.55 683.835 1479.01 Q685.664 1475.44 685.664 1468.33 Q685.664 1461.2 683.835 1457.66 Q682.03 1454.1 678.396 1454.1 M678.396 1450.39 Q684.206 1450.39 687.261 1455 Q690.34 1459.58 690.34 1468.33 Q690.34 1477.06 687.261 1481.67 Q684.206 1486.25 678.396 1486.25 Q672.585 1486.25 669.507 1481.67 Q666.451 1477.06 666.451 1468.33 Q666.451 1459.58 669.507 1455 Q672.585 1450.39 678.396 1450.39 Z" fill="#000000" fill-rule="nonzero" fill-opacity="1" /><path clip-path="url(#clip840)" d="M708.557 1454.1 Q704.946 1454.1 703.118 1457.66 Q701.312 1461.2 701.312 1468.33 Q701.312 1475.44 703.118 1479.01 Q704.946 1482.55 708.557 1482.55 Q712.192 1482.55 713.997 1479.01 Q715.826 1475.44 715.826 1468.33 Q715.826 1461.2 713.997 1457.66 Q712.192 1454.1 708.557 1454.1 M708.557 1450.39 Q714.368 1450.39 717.423 1455 Q720.502 1459.58 720.502 1468.33 Q720.502 1477.06 717.423 1481.67 Q714.368 1486.25 708.557 1486.25 Q702.747 1486.25 699.669 1481.67 Q696.613 1477.06 696.613 1468.33 Q696.613 1459.58 699.669 1455 Q702.747 1450.39 708.557 1450.39 Z" fill="#000000" fill-rule="nonzero" fill-opacity="1" /><path clip-path="url(#clip840)" d="M1046.37 1481.64 L1062.69 1481.64 L1062.69 1485.58 L1040.74 1485.58 L1040.74 1481.64 Q1043.41 1478.89 1047.99 1474.26 Q1052.59 1469.61 1053.78 1468.27 Q1056.02 1465.74 1056.9 1464.01 Q1057.8 1462.25 1057.8 1460.56 Q1057.8 1457.8 1055.86 1456.07 Q1053.94 1454.33 1050.84 1454.33 Q1048.64 1454.33 1046.18 1455.09 Q1043.75 1455.86 1040.97 1457.41 L1040.97 1452.69 Q1043.8 1451.55 1046.25 1450.97 Q1048.71 1450.39 1050.74 1450.39 Q1056.11 1450.39 1059.31 1453.08 Q1062.5 1455.77 1062.5 1460.26 Q1062.5 1462.39 1061.69 1464.31 Q1060.9 1466.2 1058.8 1468.8 Q1058.22 1469.47 1055.12 1472.69 Q1052.02 1475.88 1046.37 1481.64 Z" fill="#000000" fill-rule="nonzero" fill-opacity="1" /><path clip-path="url(#clip840)" d="M1082.5 1454.1 Q1078.89 1454.1 1077.06 1457.66 Q1075.26 1461.2 1075.26 1468.33 Q1075.26 1475.44 1077.06 1479.01 Q1078.89 1482.55 1082.5 1482.55 Q1086.14 1482.55 1087.94 1479.01 Q1089.77 1475.44 1089.77 1468.33 Q1089.77 1461.2 1087.94 1457.66 Q1086.14 1454.1 1082.5 1454.1 M1082.5 1450.39 Q1088.31 1450.39 1091.37 1455 Q1094.45 1459.58 1094.45 1468.33 Q1094.45 1477.06 1091.37 1481.67 Q1088.31 1486.25 1082.5 1486.25 Q1076.69 1486.25 1073.61 1481.67 Q1070.56 1477.06 1070.56 1468.33 Q1070.56 1459.58 1073.61 1455 Q1076.69 1450.39 1082.5 1450.39 Z" fill="#000000" fill-rule="nonzero" fill-opacity="1" /><path clip-path="url(#clip840)" d="M1112.66 1454.1 Q1109.05 1454.1 1107.22 1457.66 Q1105.42 1461.2 1105.42 1468.33 Q1105.42 1475.44 1107.22 1479.01 Q1109.05 1482.55 1112.66 1482.55 Q1116.3 1482.55 1118.1 1479.01 Q1119.93 1475.44 1119.93 1468.33 Q1119.93 1461.2 1118.1 1457.66 Q1116.3 1454.1 1112.66 1454.1 M1112.66 1450.39 Q1118.47 1450.39 1121.53 1455 Q1124.61 1459.58 1124.61 1468.33 Q1124.61 1477.06 1121.53 1481.67 Q1118.47 1486.25 1112.66 1486.25 Q1106.85 1486.25 1103.78 1481.67 Q1100.72 1477.06 1100.72 1468.33 Q1100.72 1459.58 1103.78 1455 Q1106.85 1450.39 1112.66 1450.39 Z" fill="#000000" fill-rule="nonzero" fill-opacity="1" /><path clip-path="url(#clip840)" d="M1459.68 1466.95 Q1463.03 1467.66 1464.91 1469.93 Q1466.81 1472.2 1466.81 1475.53 Q1466.81 1480.65 1463.29 1483.45 Q1459.77 1486.25 1453.29 1486.25 Q1451.11 1486.25 1448.8 1485.81 Q1446.5 1485.39 1444.05 1484.54 L1444.05 1480.02 Q1446 1481.16 1448.31 1481.74 Q1450.62 1482.32 1453.15 1482.32 Q1457.55 1482.32 1459.84 1480.58 Q1462.15 1478.84 1462.15 1475.53 Q1462.15 1472.48 1460 1470.77 Q1457.87 1469.03 1454.05 1469.03 L1450.02 1469.03 L1450.02 1465.19 L1454.24 1465.19 Q1457.69 1465.19 1459.51 1463.82 Q1461.34 1462.43 1461.34 1459.84 Q1461.34 1457.18 1459.44 1455.77 Q1457.57 1454.33 1454.05 1454.33 Q1452.13 1454.33 1449.93 1454.75 Q1447.73 1455.16 1445.09 1456.04 L1445.09 1451.88 Q1447.75 1451.14 1450.07 1450.77 Q1452.41 1450.39 1454.47 1450.39 Q1459.79 1450.39 1462.89 1452.83 Q1466 1455.23 1466 1459.35 Q1466 1462.22 1464.35 1464.21 Q1462.71 1466.18 1459.68 1466.95 Z" fill="#000000" fill-rule="nonzero" fill-opacity="1" /><path clip-path="url(#clip840)" d="M1485.67 1454.1 Q1482.06 1454.1 1480.23 1457.66 Q1478.43 1461.2 1478.43 1468.33 Q1478.43 1475.44 1480.23 1479.01 Q1482.06 1482.55 1485.67 1482.55 Q1489.31 1482.55 1491.11 1479.01 Q1492.94 1475.44 1492.94 1468.33 Q1492.94 1461.2 1491.11 1457.66 Q1489.31 1454.1 1485.67 1454.1 M1485.67 1450.39 Q1491.48 1450.39 1494.54 1455 Q1497.62 1459.58 1497.62 1468.33 Q1497.62 1477.06 1494.54 1481.67 Q1491.48 1486.25 1485.67 1486.25 Q1479.86 1486.25 1476.78 1481.67 Q1473.73 1477.06 1473.73 1468.33 Q1473.73 1459.58 1476.78 1455 Q1479.86 1450.39 1485.67 1450.39 Z" fill="#000000" fill-rule="nonzero" fill-opacity="1" /><path clip-path="url(#clip840)" d="M1515.83 1454.1 Q1512.22 1454.1 1510.39 1457.66 Q1508.59 1461.2 1508.59 1468.33 Q1508.59 1475.44 1510.39 1479.01 Q1512.22 1482.55 1515.83 1482.55 Q1519.47 1482.55 1521.27 1479.01 Q1523.1 1475.44 1523.1 1468.33 Q1523.1 1461.2 1521.27 1457.66 Q1519.47 1454.1 1515.83 1454.1 M1515.83 1450.39 Q1521.64 1450.39 1524.7 1455 Q1527.78 1459.58 1527.78 1468.33 Q1527.78 1477.06 1524.7 1481.67 Q1521.64 1486.25 1515.83 1486.25 Q1510.02 1486.25 1506.94 1481.67 Q1503.89 1477.06 1503.89 1468.33 Q1503.89 1459.58 1506.94 1455 Q1510.02 1450.39 1515.83 1450.39 Z" fill="#000000" fill-rule="nonzero" fill-opacity="1" /><path clip-path="url(#clip840)" d="M1862.24 1455.09 L1850.44 1473.54 L1862.24 1473.54 L1862.24 1455.09 M1861.02 1451.02 L1866.9 1451.02 L1866.9 1473.54 L1871.83 1473.54 L1871.83 1477.43 L1866.9 1477.43 L1866.9 1485.58 L1862.24 1485.58 L1862.24 1477.43 L1846.64 1477.43 L1846.64 1472.92 L1861.02 1451.02 Z" fill="#000000" fill-rule="nonzero" fill-opacity="1" /><path clip-path="url(#clip840)" d="M1889.56 1454.1 Q1885.95 1454.1 1884.12 1457.66 Q1882.31 1461.2 1882.31 1468.33 Q1882.31 1475.44 1884.12 1479.01 Q1885.95 1482.55 1889.56 1482.55 Q1893.19 1482.55 1895 1479.01 Q1896.83 1475.44 1896.83 1468.33 Q1896.83 1461.2 1895 1457.66 Q1893.19 1454.1 1889.56 1454.1 M1889.56 1450.39 Q1895.37 1450.39 1898.42 1455 Q1901.5 1459.58 1901.5 1468.33 Q1901.5 1477.06 1898.42 1481.67 Q1895.37 1486.25 1889.56 1486.25 Q1883.75 1486.25 1880.67 1481.67 Q1877.61 1477.06 1877.61 1468.33 Q1877.61 1459.58 1880.67 1455 Q1883.75 1450.39 1889.56 1450.39 Z" fill="#000000" fill-rule="nonzero" fill-opacity="1" /><path clip-path="url(#clip840)" d="M1919.72 1454.1 Q1916.11 1454.1 1914.28 1457.66 Q1912.47 1461.2 1912.47 1468.33 Q1912.47 1475.44 1914.28 1479.01 Q1916.11 1482.55 1919.72 1482.55 Q1923.35 1482.55 1925.16 1479.01 Q1926.99 1475.44 1926.99 1468.33 Q1926.99 1461.2 1925.16 1457.66 Q1923.35 1454.1 1919.72 1454.1 M1919.72 1450.39 Q1925.53 1450.39 1928.59 1455 Q1931.66 1459.58 1931.66 1468.33 Q1931.66 1477.06 1928.59 1481.67 Q1925.53 1486.25 1919.72 1486.25 Q1913.91 1486.25 1910.83 1481.67 Q1907.78 1477.06 1907.78 1468.33 Q1907.78 1459.58 1910.83 1455 Q1913.91 1450.39 1919.72 1450.39 Z" fill="#000000" fill-rule="nonzero" fill-opacity="1" /><path clip-path="url(#clip840)" d="M2252.01 1451.02 L2270.37 1451.02 L2270.37 1454.96 L2256.29 1454.96 L2256.29 1463.43 Q2257.31 1463.08 2258.33 1462.92 Q2259.35 1462.73 2260.37 1462.73 Q2266.15 1462.73 2269.53 1465.9 Q2272.91 1469.08 2272.91 1474.49 Q2272.91 1480.07 2269.44 1483.17 Q2265.97 1486.25 2259.65 1486.25 Q2257.47 1486.25 2255.2 1485.88 Q2252.96 1485.51 2250.55 1484.77 L2250.55 1480.07 Q2252.63 1481.2 2254.86 1481.76 Q2257.08 1482.32 2259.56 1482.32 Q2263.56 1482.32 2265.9 1480.21 Q2268.24 1478.1 2268.24 1474.49 Q2268.24 1470.88 2265.9 1468.77 Q2263.56 1466.67 2259.56 1466.67 Q2257.68 1466.67 2255.81 1467.08 Q2253.95 1467.5 2252.01 1468.38 L2252.01 1451.02 Z" fill="#000000" fill-rule="nonzero" fill-opacity="1" /><path clip-path="url(#clip840)" d="M2292.12 1454.1 Q2288.51 1454.1 2286.69 1457.66 Q2284.88 1461.2 2284.88 1468.33 Q2284.88 1475.44 2286.69 1479.01 Q2288.51 1482.55 2292.12 1482.55 Q2295.76 1482.55 2297.56 1479.01 Q2299.39 1475.44 2299.39 1468.33 Q2299.39 1461.2 2297.56 1457.66 Q2295.76 1454.1 2292.12 1454.1 M2292.12 1450.39 Q2297.94 1450.39 2300.99 1455 Q2304.07 1459.58 2304.07 1468.33 Q2304.07 1477.06 2300.99 1481.67 Q2297.94 1486.25 2292.12 1486.25 Q2286.31 1486.25 2283.24 1481.67 Q2280.18 1477.06 2280.18 1468.33 Q2280.18 1459.58 2283.24 1455 Q2286.31 1450.39 2292.12 1450.39 Z" fill="#000000" fill-rule="nonzero" fill-opacity="1" /><path clip-path="url(#clip840)" d="M2322.29 1454.1 Q2318.68 1454.1 2316.85 1457.66 Q2315.04 1461.2 2315.04 1468.33 Q2315.04 1475.44 2316.85 1479.01 Q2318.68 1482.55 2322.29 1482.55 Q2325.92 1482.55 2327.73 1479.01 Q2329.56 1475.44 2329.56 1468.33 Q2329.56 1461.2 2327.73 1457.66 Q2325.92 1454.1 2322.29 1454.1 M2322.29 1450.39 Q2328.1 1450.39 2331.15 1455 Q2334.23 1459.58 2334.23 1468.33 Q2334.23 1477.06 2331.15 1481.67 Q2328.1 1486.25 2322.29 1486.25 Q2316.48 1486.25 2313.4 1481.67 Q2310.34 1477.06 2310.34 1468.33 Q2310.34 1459.58 2313.4 1455 Q2316.48 1450.39 2322.29 1450.39 Z" fill="#000000" fill-rule="nonzero" fill-opacity="1" /><path clip-path="url(#clip840)" d="M1242.63 1518.52 L1248.48 1518.52 L1248.48 1568.04 L1242.63 1568.04 L1242.63 1518.52 Z" fill="#000000" fill-rule="nonzero" fill-opacity="1" /><path clip-path="url(#clip840)" d="M1276.94 1550.12 Q1269.84 1550.12 1267.1 1551.75 Q1264.37 1553.37 1264.37 1557.29 Q1264.37 1560.4 1266.4 1562.25 Q1268.47 1564.07 1272 1564.07 Q1276.87 1564.07 1279.8 1560.63 Q1282.76 1557.16 1282.76 1551.43 L1282.76 1550.12 L1276.94 1550.12 M1288.62 1547.71 L1288.62 1568.04 L1282.76 1568.04 L1282.76 1562.63 Q1280.76 1565.88 1277.77 1567.44 Q1274.77 1568.97 1270.44 1568.97 Q1264.97 1568.97 1261.72 1565.91 Q1258.51 1562.82 1258.51 1557.67 Q1258.51 1551.65 1262.52 1548.6 Q1266.56 1545.54 1274.55 1545.54 L1282.76 1545.54 L1282.76 1544.97 Q1282.76 1540.93 1280.09 1538.73 Q1277.45 1536.5 1272.64 1536.5 Q1269.59 1536.5 1266.69 1537.23 Q1263.79 1537.97 1261.12 1539.43 L1261.12 1534.02 Q1264.33 1532.78 1267.36 1532.17 Q1270.38 1531.54 1273.25 1531.54 Q1280.98 1531.54 1284.8 1535.55 Q1288.62 1539.56 1288.62 1547.71 Z" fill="#000000" fill-rule="nonzero" fill-opacity="1" /><path clip-path="url(#clip840)" d="M1324.14 1549.81 Q1324.14 1543.44 1321.5 1539.94 Q1318.89 1536.44 1314.15 1536.44 Q1309.43 1536.44 1306.79 1539.94 Q1304.18 1543.44 1304.18 1549.81 Q1304.18 1556.14 1306.79 1559.64 Q1309.43 1563.14 1314.15 1563.14 Q1318.89 1563.14 1321.5 1559.64 Q1324.14 1556.14 1324.14 1549.81 M1330 1563.62 Q1330 1572.72 1325.95 1577.15 Q1321.91 1581.6 1313.57 1581.6 Q1310.48 1581.6 1307.75 1581.13 Q1305.01 1580.68 1302.43 1579.72 L1302.43 1574.03 Q1305.01 1575.43 1307.52 1576.1 Q1310.04 1576.76 1312.65 1576.76 Q1318.41 1576.76 1321.27 1573.74 Q1324.14 1570.75 1324.14 1564.67 L1324.14 1561.77 Q1322.33 1564.92 1319.49 1566.48 Q1316.66 1568.04 1312.71 1568.04 Q1306.16 1568.04 1302.15 1563.05 Q1298.14 1558.05 1298.14 1549.81 Q1298.14 1541.53 1302.15 1536.53 Q1306.16 1531.54 1312.71 1531.54 Q1316.66 1531.54 1319.49 1533.1 Q1322.33 1534.66 1324.14 1537.81 L1324.14 1532.4 L1330 1532.4 L1330 1563.62 Z" fill="#000000" fill-rule="nonzero" fill-opacity="1" /><polyline clip-path="url(#clip842)" style="stroke:#000000; stroke-linecap:round; stroke-linejoin:round; stroke-width:2; stroke-opacity:0.1; fill:none" points="219.866,1167.99 2352.76,1167.99 "/>
<polyline clip-path="url(#clip842)" style="stroke:#000000; stroke-linecap:round; stroke-linejoin:round; stroke-width:2; stroke-opacity:0.1; fill:none" points="219.866,880.989 2352.76,880.989 "/>
<polyline clip-path="url(#clip842)" style="stroke:#000000; stroke-linecap:round; stroke-linejoin:round; stroke-width:2; stroke-opacity:0.1; fill:none" points="219.866,593.987 2352.76,593.987 "/>
<polyline clip-path="url(#clip842)" style="stroke:#000000; stroke-linecap:round; stroke-linejoin:round; stroke-width:2; stroke-opacity:0.1; fill:none" points="219.866,306.984 2352.76,306.984 "/>
<polyline clip-path="url(#clip840)" style="stroke:#000000; stroke-linecap:round; stroke-linejoin:round; stroke-width:4; stroke-opacity:1; fill:none" points="219.866,1423.18 219.866,47.2441 "/>
<polyline clip-path="url(#clip840)" style="stroke:#000000; stroke-linecap:round; stroke-linejoin:round; stroke-width:4; stroke-opacity:1; fill:none" points="219.866,1167.99 238.764,1167.99 "/>
<polyline clip-path="url(#clip840)" style="stroke:#000000; stroke-linecap:round; stroke-linejoin:round; stroke-width:4; stroke-opacity:1; fill:none" points="219.866,880.989 238.764,880.989 "/>
<polyline clip-path="url(#clip840)" style="stroke:#000000; stroke-linecap:round; stroke-linejoin:round; stroke-width:4; stroke-opacity:1; fill:none" points="219.866,593.987 238.764,593.987 "/>
<polyline clip-path="url(#clip840)" style="stroke:#000000; stroke-linecap:round; stroke-linejoin:round; stroke-width:4; stroke-opacity:1; fill:none" points="219.866,306.984 238.764,306.984 "/>
<path clip-path="url(#clip840)" d="M126.691 1153.79 Q123.08 1153.79 121.251 1157.36 Q119.445 1160.9 119.445 1168.03 Q119.445 1175.13 121.251 1178.7 Q123.08 1182.24 126.691 1182.24 Q130.325 1182.24 132.13 1178.7 Q133.959 1175.13 133.959 1168.03 Q133.959 1160.9 132.13 1157.36 Q130.325 1153.79 126.691 1153.79 M126.691 1150.09 Q132.501 1150.09 135.556 1154.69 Q138.635 1159.28 138.635 1168.03 Q138.635 1176.75 135.556 1181.36 Q132.501 1185.94 126.691 1185.94 Q120.88 1185.94 117.802 1181.36 Q114.746 1176.75 114.746 1168.03 Q114.746 1159.28 117.802 1154.69 Q120.88 1150.09 126.691 1150.09 Z" fill="#000000" fill-rule="nonzero" fill-opacity="1" /><path clip-path="url(#clip840)" d="M146.853 1179.39 L151.737 1179.39 L151.737 1185.27 L146.853 1185.27 L146.853 1179.39 Z" fill="#000000" fill-rule="nonzero" fill-opacity="1" /><path clip-path="url(#clip840)" d="M171.922 1153.79 Q168.311 1153.79 166.482 1157.36 Q164.677 1160.9 164.677 1168.03 Q164.677 1175.13 166.482 1178.7 Q168.311 1182.24 171.922 1182.24 Q175.556 1182.24 177.362 1178.7 Q179.19 1175.13 179.19 1168.03 Q179.19 1160.9 177.362 1157.36 Q175.556 1153.79 171.922 1153.79 M171.922 1150.09 Q177.732 1150.09 180.788 1154.69 Q183.866 1159.28 183.866 1168.03 Q183.866 1176.75 180.788 1181.36 Q177.732 1185.94 171.922 1185.94 Q166.112 1185.94 163.033 1181.36 Q159.978 1176.75 159.978 1168.03 Q159.978 1159.28 163.033 1154.69 Q166.112 1150.09 171.922 1150.09 Z" fill="#000000" fill-rule="nonzero" fill-opacity="1" /><path clip-path="url(#clip840)" d="M128.288 866.788 Q124.677 866.788 122.848 870.353 Q121.043 873.895 121.043 881.024 Q121.043 888.131 122.848 891.695 Q124.677 895.237 128.288 895.237 Q131.922 895.237 133.728 891.695 Q135.556 888.131 135.556 881.024 Q135.556 873.895 133.728 870.353 Q131.922 866.788 128.288 866.788 M128.288 863.084 Q134.098 863.084 137.154 867.691 Q140.232 872.274 140.232 881.024 Q140.232 889.751 137.154 894.357 Q134.098 898.941 128.288 898.941 Q122.478 898.941 119.399 894.357 Q116.343 889.751 116.343 881.024 Q116.343 872.274 119.399 867.691 Q122.478 863.084 128.288 863.084 Z" fill="#000000" fill-rule="nonzero" fill-opacity="1" /><path clip-path="url(#clip840)" d="M148.45 892.39 L153.334 892.39 L153.334 898.269 L148.45 898.269 L148.45 892.39 Z" fill="#000000" fill-rule="nonzero" fill-opacity="1" /><path clip-path="url(#clip840)" d="M167.547 894.334 L183.866 894.334 L183.866 898.269 L161.922 898.269 L161.922 894.334 Q164.584 891.58 169.167 886.95 Q173.774 882.297 174.954 880.955 Q177.2 878.432 178.079 876.695 Q178.982 874.936 178.982 873.246 Q178.982 870.492 177.038 868.756 Q175.116 867.02 172.014 867.02 Q169.815 867.02 167.362 867.783 Q164.931 868.547 162.153 870.098 L162.153 865.376 Q164.977 864.242 167.431 863.663 Q169.885 863.084 171.922 863.084 Q177.292 863.084 180.487 865.77 Q183.681 868.455 183.681 872.945 Q183.681 875.075 182.871 876.996 Q182.084 878.895 179.977 881.487 Q179.399 882.158 176.297 885.376 Q173.195 888.57 167.547 894.334 Z" fill="#000000" fill-rule="nonzero" fill-opacity="1" /><path clip-path="url(#clip840)" d="M126.205 579.785 Q122.593 579.785 120.765 583.35 Q118.959 586.892 118.959 594.021 Q118.959 601.128 120.765 604.693 Q122.593 608.234 126.205 608.234 Q129.839 608.234 131.644 604.693 Q133.473 601.128 133.473 594.021 Q133.473 586.892 131.644 583.35 Q129.839 579.785 126.205 579.785 M126.205 576.082 Q132.015 576.082 135.07 580.688 Q138.149 585.271 138.149 594.021 Q138.149 602.748 135.07 607.355 Q132.015 611.938 126.205 611.938 Q120.394 611.938 117.316 607.355 Q114.26 602.748 114.26 594.021 Q114.26 585.271 117.316 580.688 Q120.394 576.082 126.205 576.082 Z" fill="#000000" fill-rule="nonzero" fill-opacity="1" /><path clip-path="url(#clip840)" d="M146.366 605.387 L151.251 605.387 L151.251 611.267 L146.366 611.267 L146.366 605.387 Z" fill="#000000" fill-rule="nonzero" fill-opacity="1" /><path clip-path="url(#clip840)" d="M174.283 580.781 L162.477 599.23 L174.283 599.23 L174.283 580.781 M173.056 576.707 L178.936 576.707 L178.936 599.23 L183.866 599.23 L183.866 603.119 L178.936 603.119 L178.936 611.267 L174.283 611.267 L174.283 603.119 L158.681 603.119 L158.681 598.605 L173.056 576.707 Z" fill="#000000" fill-rule="nonzero" fill-opacity="1" /><path clip-path="url(#clip840)" d="M126.529 292.783 Q122.918 292.783 121.089 296.348 Q119.283 299.889 119.283 307.019 Q119.283 314.125 121.089 317.69 Q122.918 321.232 126.529 321.232 Q130.163 321.232 131.968 317.69 Q133.797 314.125 133.797 307.019 Q133.797 299.889 131.968 296.348 Q130.163 292.783 126.529 292.783 M126.529 289.079 Q132.339 289.079 135.394 293.686 Q138.473 298.269 138.473 307.019 Q138.473 315.746 135.394 320.352 Q132.339 324.935 126.529 324.935 Q120.718 324.935 117.64 320.352 Q114.584 315.746 114.584 307.019 Q114.584 298.269 117.64 293.686 Q120.718 289.079 126.529 289.079 Z" fill="#000000" fill-rule="nonzero" fill-opacity="1" /><path clip-path="url(#clip840)" d="M146.691 318.384 L151.575 318.384 L151.575 324.264 L146.691 324.264 L146.691 318.384 Z" fill="#000000" fill-rule="nonzero" fill-opacity="1" /><path clip-path="url(#clip840)" d="M172.339 305.121 Q169.19 305.121 167.339 307.273 Q165.51 309.426 165.51 313.176 Q165.51 316.903 167.339 319.079 Q169.19 321.232 172.339 321.232 Q175.487 321.232 177.315 319.079 Q179.167 316.903 179.167 313.176 Q179.167 309.426 177.315 307.273 Q175.487 305.121 172.339 305.121 M181.621 290.468 L181.621 294.727 Q179.862 293.894 178.056 293.454 Q176.274 293.014 174.514 293.014 Q169.885 293.014 167.431 296.139 Q165.001 299.264 164.653 305.584 Q166.019 303.57 168.079 302.505 Q170.139 301.417 172.616 301.417 Q177.825 301.417 180.834 304.588 Q183.866 307.736 183.866 313.176 Q183.866 318.5 180.718 321.718 Q177.57 324.935 172.339 324.935 Q166.343 324.935 163.172 320.352 Q160.001 315.746 160.001 307.019 Q160.001 298.824 163.89 293.963 Q167.778 289.079 174.329 289.079 Q176.089 289.079 177.871 289.426 Q179.676 289.774 181.621 290.468 Z" fill="#000000" fill-rule="nonzero" fill-opacity="1" /><path clip-path="url(#clip840)" d="M46.0847 960.287 Q46.0847 967.385 47.7079 970.122 Q49.3312 972.86 53.2461 972.86 Q56.3653 972.86 58.2114 970.823 Q60.0256 968.754 60.0256 965.221 Q60.0256 960.351 56.5881 957.423 Q53.1188 954.463 47.3897 954.463 L46.0847 954.463 L46.0847 960.287 M43.6657 948.606 L64.0042 948.606 L64.0042 954.463 L58.5933 954.463 Q61.8398 956.468 63.3994 959.46 Q64.9272 962.452 64.9272 966.78 Q64.9272 972.255 61.8716 975.501 Q58.7843 978.716 53.6281 978.716 Q47.6125 978.716 44.5569 974.706 Q41.5014 970.664 41.5014 962.675 L41.5014 954.463 L40.9285 954.463 Q36.8862 954.463 34.6901 957.136 Q32.4621 959.778 32.4621 964.584 Q32.4621 967.64 33.1941 970.536 Q33.9262 973.433 35.3903 976.106 L29.9795 976.106 Q28.7381 972.892 28.1334 969.868 Q27.4968 966.844 27.4968 963.98 Q27.4968 956.245 31.5072 952.426 Q35.5176 948.606 43.6657 948.606 Z" fill="#000000" fill-rule="nonzero" fill-opacity="1" /><path clip-path="url(#clip840)" d="M49.9359 937.148 L28.3562 937.148 L28.3562 931.292 L49.7131 931.292 Q54.7739 931.292 57.3202 929.318 Q59.8346 927.345 59.8346 923.398 Q59.8346 918.656 56.8109 915.918 Q53.7872 913.149 48.5673 913.149 L28.3562 913.149 L28.3562 907.293 L64.0042 907.293 L64.0042 913.149 L58.5296 913.149 Q61.7762 915.282 63.3676 918.115 Q64.9272 920.916 64.9272 924.639 Q64.9272 930.782 61.1078 933.965 Q57.2883 937.148 49.9359 937.148 M27.4968 922.411 L27.4968 922.411 Z" fill="#000000" fill-rule="nonzero" fill-opacity="1" /><path clip-path="url(#clip840)" d="M18.2347 889.437 L28.3562 889.437 L28.3562 877.374 L32.9077 877.374 L32.9077 889.437 L52.2594 889.437 Q56.6199 889.437 57.8613 888.259 Q59.1026 887.05 59.1026 883.39 L59.1026 877.374 L64.0042 877.374 L64.0042 883.39 Q64.0042 890.169 61.4897 892.747 Q58.9434 895.325 52.2594 895.325 L32.9077 895.325 L32.9077 899.622 L28.3562 899.622 L28.3562 895.325 L18.2347 895.325 L18.2347 889.437 Z" fill="#000000" fill-rule="nonzero" fill-opacity="1" /><path clip-path="url(#clip840)" d="M32.4621 855.858 Q32.4621 860.569 36.1542 863.306 Q39.8145 866.043 46.212 866.043 Q52.6095 866.043 56.3017 863.338 Q59.9619 860.6 59.9619 855.858 Q59.9619 851.179 56.2698 848.442 Q52.5777 845.705 46.212 845.705 Q39.8781 845.705 36.186 848.442 Q32.4621 851.179 32.4621 855.858 M27.4968 855.858 Q27.4968 848.219 32.4621 843.859 Q37.4273 839.498 46.212 839.498 Q54.9649 839.498 59.9619 843.859 Q64.9272 848.219 64.9272 855.858 Q64.9272 863.529 59.9619 867.889 Q54.9649 872.218 46.212 872.218 Q37.4273 872.218 32.4621 867.889 Q27.4968 863.529 27.4968 855.858 Z" fill="#000000" fill-rule="nonzero" fill-opacity="1" /><path clip-path="url(#clip840)" d="M29.7248 804.137 L35.1993 804.137 Q33.8307 806.619 33.1623 809.134 Q32.4621 811.616 32.4621 814.163 Q32.4621 819.86 36.0905 823.011 Q39.6872 826.162 46.212 826.162 Q52.7369 826.162 56.3653 823.011 Q59.9619 819.86 59.9619 814.163 Q59.9619 811.616 59.2935 809.134 Q58.5933 806.619 57.2247 804.137 L62.6355 804.137 Q63.7814 806.587 64.3543 809.229 Q64.9272 811.839 64.9272 814.799 Q64.9272 822.852 59.8664 827.594 Q54.8057 832.337 46.212 832.337 Q37.491 832.337 32.4939 827.562 Q27.4968 822.756 27.4968 814.417 Q27.4968 811.712 28.0697 809.134 Q28.6108 806.556 29.7248 804.137 Z" fill="#000000" fill-rule="nonzero" fill-opacity="1" /><path clip-path="url(#clip840)" d="M32.4621 780.138 Q32.4621 784.849 36.1542 787.586 Q39.8145 790.323 46.212 790.323 Q52.6095 790.323 56.3017 787.618 Q59.9619 784.88 59.9619 780.138 Q59.9619 775.459 56.2698 772.722 Q52.5777 769.985 46.212 769.985 Q39.8781 769.985 36.186 772.722 Q32.4621 775.459 32.4621 780.138 M27.4968 780.138 Q27.4968 772.499 32.4621 768.139 Q37.4273 763.778 46.212 763.778 Q54.9649 763.778 59.9619 768.139 Q64.9272 772.499 64.9272 780.138 Q64.9272 787.809 59.9619 792.169 Q54.9649 796.498 46.212 796.498 Q37.4273 796.498 32.4621 792.169 Q27.4968 787.809 27.4968 780.138 Z" fill="#000000" fill-rule="nonzero" fill-opacity="1" /><path clip-path="url(#clip840)" d="M33.8307 733.414 Q33.2578 734.4 33.0032 735.578 Q32.7167 736.724 32.7167 738.124 Q32.7167 743.09 35.9632 745.763 Q39.1779 748.405 45.2253 748.405 L64.0042 748.405 L64.0042 754.293 L28.3562 754.293 L28.3562 748.405 L33.8944 748.405 Q30.6479 746.559 29.0883 743.599 Q27.4968 740.639 27.4968 736.406 Q27.4968 735.801 27.5923 735.069 Q27.656 734.337 27.8151 733.445 L33.8307 733.414 Z" fill="#000000" fill-rule="nonzero" fill-opacity="1" /><path clip-path="url(#clip840)" d="M33.8307 707.76 Q33.2578 708.747 33.0032 709.924 Q32.7167 711.07 32.7167 712.47 Q32.7167 717.436 35.9632 720.109 Q39.1779 722.751 45.2253 722.751 L64.0042 722.751 L64.0042 728.639 L28.3562 728.639 L28.3562 722.751 L33.8944 722.751 Q30.6479 720.905 29.0883 717.945 Q27.4968 714.985 27.4968 710.752 Q27.4968 710.147 27.5923 709.415 Q27.656 708.683 27.8151 707.792 L33.8307 707.76 Z" fill="#000000" fill-rule="nonzero" fill-opacity="1" /><path clip-path="url(#clip840)" d="M44.7161 672.558 L47.5806 672.558 L47.5806 699.484 Q53.6281 699.102 56.8109 695.856 Q59.9619 692.578 59.9619 686.753 Q59.9619 683.379 59.1344 680.228 Q58.3069 677.045 56.6518 673.926 L62.1899 673.926 Q63.5267 677.077 64.227 680.387 Q64.9272 683.697 64.9272 687.103 Q64.9272 695.633 59.9619 700.63 Q54.9967 705.596 46.5303 705.596 Q37.7774 705.596 32.6531 700.885 Q27.4968 696.142 27.4968 688.122 Q27.4968 680.928 32.1438 676.759 Q36.7589 672.558 44.7161 672.558 M42.9973 678.414 Q38.1912 678.478 35.3266 681.119 Q32.4621 683.729 32.4621 688.058 Q32.4621 692.96 35.2312 695.92 Q38.0002 698.848 43.0292 699.293 L42.9973 678.414 Z" fill="#000000" fill-rule="nonzero" fill-opacity="1" /><path clip-path="url(#clip840)" d="M14.479 662.945 L14.479 657.089 L64.0042 657.089 L64.0042 662.945 L14.479 662.945 Z" fill="#000000" fill-rule="nonzero" fill-opacity="1" /><path clip-path="url(#clip840)" d="M46.0847 628.634 Q46.0847 635.732 47.7079 638.469 Q49.3312 641.206 53.2461 641.206 Q56.3653 641.206 58.2114 639.169 Q60.0256 637.101 60.0256 633.568 Q60.0256 628.698 56.5881 625.77 Q53.1188 622.81 47.3897 622.81 L46.0847 622.81 L46.0847 628.634 M43.6657 616.953 L64.0042 616.953 L64.0042 622.81 L58.5933 622.81 Q61.8398 624.815 63.3994 627.807 Q64.9272 630.798 64.9272 635.127 Q64.9272 640.602 61.8716 643.848 Q58.7843 647.063 53.6281 647.063 Q47.6125 647.063 44.5569 643.052 Q41.5014 639.01 41.5014 631.021 L41.5014 622.81 L40.9285 622.81 Q36.8862 622.81 34.6901 625.483 Q32.4621 628.125 32.4621 632.931 Q32.4621 635.987 33.1941 638.883 Q33.9262 641.779 35.3903 644.453 L29.9795 644.453 Q28.7381 641.238 28.1334 638.215 Q27.4968 635.191 27.4968 632.326 Q27.4968 624.592 31.5072 620.772 Q35.5176 616.953 43.6657 616.953 Z" fill="#000000" fill-rule="nonzero" fill-opacity="1" /><path clip-path="url(#clip840)" d="M18.2347 599.097 L28.3562 599.097 L28.3562 587.034 L32.9077 587.034 L32.9077 599.097 L52.2594 599.097 Q56.6199 599.097 57.8613 597.92 Q59.1026 596.71 59.1026 593.05 L59.1026 587.034 L64.0042 587.034 L64.0042 593.05 Q64.0042 599.829 61.4897 602.407 Q58.9434 604.986 52.2594 604.986 L32.9077 604.986 L32.9077 609.282 L28.3562 609.282 L28.3562 604.986 L18.2347 604.986 L18.2347 599.097 Z" fill="#000000" fill-rule="nonzero" fill-opacity="1" /><path clip-path="url(#clip840)" d="M28.3562 579.332 L28.3562 573.475 L64.0042 573.475 L64.0042 579.332 L28.3562 579.332 M14.479 579.332 L14.479 573.475 L21.895 573.475 L21.895 579.332 L14.479 579.332 Z" fill="#000000" fill-rule="nonzero" fill-opacity="1" /><path clip-path="url(#clip840)" d="M32.4621 547.408 Q32.4621 552.118 36.1542 554.856 Q39.8145 557.593 46.212 557.593 Q52.6095 557.593 56.3017 554.887 Q59.9619 552.15 59.9619 547.408 Q59.9619 542.729 56.2698 539.992 Q52.5777 537.254 46.212 537.254 Q39.8781 537.254 36.186 539.992 Q32.4621 542.729 32.4621 547.408 M27.4968 547.408 Q27.4968 539.769 32.4621 535.408 Q37.4273 531.048 46.212 531.048 Q54.9649 531.048 59.9619 535.408 Q64.9272 539.769 64.9272 547.408 Q64.9272 555.078 59.9619 559.439 Q54.9649 563.768 46.212 563.768 Q37.4273 563.768 32.4621 559.439 Q27.4968 555.078 27.4968 547.408 Z" fill="#000000" fill-rule="nonzero" fill-opacity="1" /><path clip-path="url(#clip840)" d="M42.4881 491.708 L64.0042 491.708 L64.0042 497.564 L42.679 497.564 Q37.6183 497.564 35.1038 499.538 Q32.5894 501.511 32.5894 505.458 Q32.5894 510.2 35.6131 512.937 Q38.6368 515.675 43.8567 515.675 L64.0042 515.675 L64.0042 521.563 L28.3562 521.563 L28.3562 515.675 L33.8944 515.675 Q30.6797 513.574 29.0883 510.741 Q27.4968 507.877 27.4968 504.153 Q27.4968 498.01 31.3163 494.859 Q35.1038 491.708 42.4881 491.708 Z" fill="#000000" fill-rule="nonzero" fill-opacity="1" /><polyline clip-path="url(#clip842)" style="stroke:#009af9; stroke-linecap:round; stroke-linejoin:round; stroke-width:4; stroke-opacity:1; fill:none" points="280.231,205.527 284.263,464.229 288.296,600.386 292.328,713.162 296.361,805.534 300.393,830.844 304.425,857.171 308.458,901.435 312.49,901.959 316.523,922.783 320.555,944.886 324.587,976.609 328.62,974.357 332.652,1023.69 336.684,1054.63 340.717,1052.33 344.749,1052.51 348.782,1052.74 352.814,1026.03 356.846,1070 360.879,1092.23 364.911,1096.7 368.944,1132.44 372.976,1139.87 377.008,1144.77 381.041,1201.32 385.073,1224.3 389.105,1229.07 393.138,1216.52 397.17,1213.68 401.203,1205.5 405.235,1230.31 409.267,1213.04 413.3,1154.07 417.332,1131.23 421.365,1071.71 425.397,1057.73 429.429,1060.03 433.462,1060.77 437.494,1097.19 441.526,1161.45 445.559,1178.83 449.591,1160.65 453.624,1163.87 457.656,1187.76 461.688,1189.89 465.721,1206.92 469.753,1208.63 473.786,1228.17 477.818,1221.45 481.85,1259.6 485.883,1222.52 489.915,1188.19 493.947,1271.19 497.98,1261.62 502.012,1279.4 506.045,1268.83 510.077,1266.19 514.109,1271.44 518.142,1289.45 522.174,1282.9 526.207,1322.47 530.239,1306.02 534.271,1320.43 538.304,1322.51 542.336,1337.52 546.368,1301.27 550.401,1283.56 554.433,1280.39 558.466,1258.95 562.498,1232.97 566.53,1195.06 570.563,1204.45 574.595,1158.58 578.628,1142.78 582.66,1161.05 586.692,1151.87 590.725,1144.23 594.757,1168.35 598.789,1164.68 602.822,1184 606.854,1177.32 610.887,1182.12 614.919,1188.14 618.951,1185.07 622.984,1157.78 627.016,1153.19 631.049,1187.97 635.081,1199.37 639.113,1175.53 643.146,1137.38 647.178,1138.64 651.21,1149.9 655.243,1159.28 659.275,1153.27 663.308,1156.01 667.34,1138.59 671.372,1143.42 675.405,1147.04 679.437,1147.51 683.47,1146.95 687.502,1136.2 691.534,1124.85 695.567,1099.02 699.599,1079.39 703.631,1063.8 707.664,1072.79 711.696,1077.75 715.729,1094.96 719.761,1107 723.793,1087.39 727.826,1110.73 731.858,1090.68 735.891,1052.54 739.923,1045.63 743.955,1039.97 747.988,1045.41 752.02,1027.54 756.052,1042.27 760.085,1035.06 764.117,1021.08 768.15,983.086 772.182,999.983 776.214,990.16 780.247,979.905 784.279,1013.14 788.312,1013.1 792.344,1054.45 796.376,1064.61 800.409,1053.87 804.441,1043.34 808.473,1038.1 812.506,1047.84 816.538,1108.61 820.571,1110.89 824.603,1120.17 828.635,1108.54 832.668,1123.84 836.7,1125.54 840.733,1121.44 844.765,1131.75 848.797,1138.15 852.83,1121.48 856.862,1109.66 860.894,1130.87 864.927,1115.47 868.959,1142.04 872.992,1181.55 877.024,1166.16 881.056,1192.81 885.089,1226.47 889.121,1261.82 893.154,1254.7 897.186,1219.96 901.218,1237.3 905.251,1202.18 909.283,1219.85 913.315,1243.12 917.348,1271.85 921.38,1276.19 925.413,1275.41 929.445,1277.81 933.477,1279.26 937.51,1316.71 941.542,1328.79 945.575,1327.85 949.607,1323.71 953.639,1328.01 957.672,1347.94 961.704,1370.62 965.736,1342.46 969.769,1335.43 973.801,1364.7 977.834,1384.24 981.866,1333.38 985.898,1296.83 989.931,1282.28 993.963,1263.99 997.996,1244.87 1002.03,1223 1006.06,1218 1010.09,1192.26 1014.13,1182.78 1018.16,1178.04 1022.19,1127.46 1026.22,1150.82 1030.25,1210.27 1034.29,1227.93 1038.32,1264.73 1042.35,1294.23 1046.38,1283.24 1050.42,1251.32 1054.45,1257.2 1058.48,1248.25 1062.51,1251.68 1066.55,1242.62 1070.58,1235.75 1074.61,1245.37 1078.64,1239.67 1082.68,1237.85 1086.71,1256.96 1090.74,1230.68 1094.77,1266.79 1098.81,1235.05 1102.84,1254.38 1106.87,1261.79 1110.9,1256.79 1114.93,1283.06 1118.97,1282.59 1123,1292.3 1127.03,1250.32 1131.06,1222.09 1135.1,1200.35 1139.13,1193.05 1143.16,1164.47 1147.19,1182.34 1151.23,1204.11 1155.26,1197.43 1159.29,1197.72 1163.32,1177.63 1167.36,1129.72 1171.39,1138.12 1175.42,1131.96 1179.45,1118 1183.49,1137.52 1187.52,1143.78 1191.55,1139.27 1195.58,1137.47 1199.61,1149.54 1203.65,1144.74 1207.68,1154.26 1211.71,1170.36 1215.74,1186.77 1219.78,1200.84 1223.81,1205.9 1227.84,1177.24 1231.87,1154.45 1235.91,1148.11 1239.94,1170.49 1243.97,1184.47 1248,1206.56 1252.04,1249.44 1256.07,1237.29 1260.1,1247.69 1264.13,1278.37 1268.17,1259.41 1272.2,1240.39 1276.23,1250.64 1280.26,1261.89 1284.29,1258.02 1288.33,1247.99 1292.36,1228.86 1296.39,1257.74 1300.42,1236.01 1304.46,1218.97 1308.49,1233.19 1312.52,1201.39 1316.55,1202.35 1320.59,1192.89 1324.62,1186.88 1328.65,1205.81 1332.68,1184.05 1336.72,1187.58 1340.75,1221.53 1344.78,1239.36 1348.81,1260.13 1352.85,1269.25 1356.88,1300.42 1360.91,1314.73 1364.94,1286.52 1368.97,1234.92 1373.01,1193.07 1377.04,1203.72 1381.07,1209.83 1385.1,1223.2 1389.14,1186.45 1393.17,1228.82 1397.2,1260.34 1401.23,1263.99 1405.27,1280.67 1409.3,1293.48 1413.33,1285.16 1417.36,1262.57 1421.4,1264.78 1425.43,1277.42 1429.46,1289.18 1433.49,1304.08 1437.53,1310.89 1441.56,1285.92 1445.59,1284.41 1449.62,1246.17 1453.66,1254.74 1457.69,1264.34 1461.72,1277.3 1465.75,1266.99 1469.78,1267.16 1473.82,1252.45 1477.85,1246.14 1481.88,1235.38 1485.91,1208.38 1489.95,1195.33 1493.98,1192.9 1498.01,1205.26 1502.04,1220.36 1506.08,1214.12 1510.11,1214.9 1514.14,1189.54 1518.17,1168.64 1522.21,1159.29 1526.24,1134.21 1530.27,1152.39 1534.3,1140.05 1538.34,1121.32 1542.37,1139.71 1546.4,1153.27 1550.43,1167.66 1554.46,1173.1 1558.5,1195.37 1562.53,1180.81 1566.56,1180.88 1570.59,1195.39 1574.63,1162.2 1578.66,1169.12 1582.69,1187.41 1586.72,1163.64 1590.76,1131.07 1594.79,1126.12 1598.82,1114.58 1602.85,1091.81 1606.89,1134.71 1610.92,1156.96 1614.95,1137.99 1618.98,1153.42 1623.02,1141.85 1627.05,1124.41 1631.08,1154.13 1635.11,1126.03 1639.14,1123.09 1643.18,1104.77 1647.21,1136.18 1651.24,1130.73 1655.27,1120.78 1659.31,1129.19 1663.34,1112.49 1667.37,1115.56 1671.4,1135.85 1675.44,1153.71 1679.47,1156.72 1683.5,1180.96 1687.53,1180.24 1691.57,1187.67 1695.6,1204.49 1699.63,1172.78 1703.66,1172.04 1707.7,1216.99 1711.73,1215.59 1715.76,1202.5 1719.79,1190.11 1723.82,1184.09 1727.86,1177.79 1731.89,1166.82 1735.92,1156.36 1739.95,1162.5 1743.99,1182.85 1748.02,1185.89 1752.05,1187.08 1756.08,1187.12 1760.12,1200.76 1764.15,1183.33 1768.18,1185.07 1772.21,1209.65 1776.25,1234.97 1780.28,1251.04 1784.31,1267.94 1788.34,1261.92 1792.38,1263.45 1796.41,1242.21 1800.44,1213.56 1804.47,1203.16 1808.5,1185.32 1812.54,1174.01 1816.57,1144.02 1820.6,1154.4 1824.63,1180.02 1828.67,1189.88 1832.7,1208.56 1836.73,1190.78 1840.76,1223.08 1844.8,1261.71 1848.83,1263.96 1852.86,1299.69 1856.89,1294.9 1860.93,1307.71 1864.96,1324.49 1868.99,1342.62 1873.02,1339.92 1877.06,1296.25 1881.09,1291.64 1885.12,1277.09 1889.15,1263.48 1893.19,1288.9 1897.22,1284.65 1901.25,1241.84 1905.28,1215.48 1909.31,1223.29 1913.35,1188.71 1917.38,1193.6 1921.41,1200.22 1925.44,1210.94 1929.48,1252.68 1933.51,1260.12 1937.54,1250.09 1941.57,1234.81 1945.61,1213.01 1949.64,1212.14 1953.67,1204.98 1957.7,1205.29 1961.74,1196.04 1965.77,1176.27 1969.8,1148.18 1973.83,1139.79 1977.87,1125.28 1981.9,1164.82 1985.93,1178.98 1989.96,1170.13 1993.99,1167.6 1998.03,1183.65 2002.06,1162.96 2006.09,1149.28 2010.12,1152.22 2014.16,1143.84 2018.19,1137.17 2022.22,1142.71 2026.25,1156.97 2030.29,1148.49 2034.32,1143.65 2038.35,1099.97 2042.38,1082.31 2046.42,1064.29 2050.45,1068.05 2054.48,1062.34 2058.51,1041.95 2062.55,1014.46 2066.58,1039.96 2070.61,1056.38 2074.64,1068.65 2078.67,1089.27 2082.71,1083.15 2086.74,1095.17 2090.77,1097.68 2094.8,1059.88 2098.84,1022.79 2102.87,1036.57 2106.9,1054.81 2110.93,1045.72 2114.97,1017.12 2119,1004.6 2123.03,1022.1 2127.06,996.639 2131.1,994.273 2135.13,994.002 2139.16,998.621 2143.19,1027.24 2147.23,1036.32 2151.26,1072.22 2155.29,1110.06 2159.32,1120.15 2163.35,1130.9 2167.39,1170.99 2171.42,1182.22 2175.45,1201.49 2179.48,1211.44 2183.52,1188.77 2187.55,1164.87 2191.58,1148.23 2195.61,1144.97 2199.65,1127.46 2203.68,1126.27 2207.71,1139.86 2211.74,1157.29 2215.78,1132.49 2219.81,1153.81 2223.84,1147.71 2227.87,1127.59 2231.91,1091.83 2235.94,1094.42 2239.97,1106.22 2244,1140.87 2248.03,1136.95 2252.07,1158.86 2256.1,1179.08 2260.13,1196.71 2264.16,1209.4 2268.2,1215.67 2272.23,1171.81 2276.26,1157.95 2280.29,1177.37 2284.33,1155.29 2288.36,1149.86 2292.39,1145.57 "/>
<polyline clip-path="url(#clip842)" style="stroke:#e26f46; stroke-linecap:round; stroke-linejoin:round; stroke-width:4; stroke-opacity:1; fill:none" points="280.231,86.1857 284.263,269.411 288.296,382.414 292.328,442.09 296.361,512.033 300.393,593.298 304.425,654.583 308.458,702.034 312.49,762.252 316.523,778.197 320.555,787.439 324.587,839.407 328.62,906.36 332.652,918.66 336.684,911.306 340.717,891.969 344.749,912.806 348.782,948.375 352.814,962.985 356.846,981.863 360.879,1005.05 364.911,1034.01 368.944,1043.49 372.976,1064.18 377.008,1052.23 381.041,1046.4 385.073,1018.65 389.105,1001.06 393.138,1021.13 397.17,1030.87 401.203,1047.94 405.235,1046.06 409.267,1043.36 413.3,1042.75 417.332,1037.12 421.365,1056.08 425.397,1075.26 429.429,1053.27 433.462,1044.7 437.494,1044.58 441.526,1047.43 445.559,1045.37 449.591,1025.52 453.624,1038.18 457.656,1048.41 461.688,1045.33 465.721,1062.51 469.753,1050.44 473.786,1086.11 477.818,1108.28 481.85,1121.87 485.883,1116.14 489.915,1117.15 493.947,1144.64 497.98,1151.78 502.012,1184.63 506.045,1193.91 510.077,1207.92 514.109,1186.79 518.142,1183.93 522.174,1186.53 526.207,1186.81 530.239,1163.48 534.271,1139.81 538.304,1133.05 542.336,1134.12 546.368,1148.89 550.401,1130.18 554.433,1125.9 558.466,1132 562.498,1146.05 566.53,1170.72 570.563,1195.59 574.595,1165.7 578.628,1152.22 582.66,1157.92 586.692,1179.49 590.725,1177.91 594.757,1183.74 598.789,1177.06 602.822,1167.98 606.854,1136.28 610.887,1127.03 614.919,1115.19 618.951,1095.41 622.984,1081.03 627.016,1085.03 631.049,1088.62 635.081,1087.23 639.113,1101.06 643.146,1109.79 647.178,1137.66 651.21,1143.35 655.243,1154.46 659.275,1175.93 663.308,1183.16 667.34,1209.43 671.372,1227.67 675.405,1221.02 679.437,1212.72 683.47,1209.12 687.502,1200.7 691.534,1203.25 695.567,1191.33 699.599,1152.33 703.631,1139.22 707.664,1175.49 711.696,1183.85 715.729,1212.16 719.761,1175.14 723.793,1191.85 727.826,1224.03 731.858,1226.48 735.891,1248.36 739.923,1263.68 743.955,1250.77 747.988,1237.16 752.02,1241.36 756.052,1239.32 760.085,1237.98 764.117,1229.04 768.15,1200.02 772.182,1178.38 776.214,1164.94 780.247,1156.36 784.279,1156.53 788.312,1149.83 792.344,1151.06 796.376,1133.3 800.409,1118.1 804.441,1102.23 808.473,1122.81 812.506,1119.49 816.538,1097.96 820.571,1111.96 824.603,1122.19 828.635,1146.01 832.668,1139.17 836.7,1117.18 840.733,1099.34 844.765,1118.82 848.797,1112.76 852.83,1108.75 856.862,1124.27 860.894,1130.65 864.927,1129 868.959,1152.29 872.992,1164.09 877.024,1149.55 881.056,1136.79 885.089,1115.48 889.121,1129.91 893.154,1149.58 897.186,1155.75 901.218,1185.34 905.251,1187.69 909.283,1198.12 913.315,1213.65 917.348,1207.33 921.38,1244.99 925.413,1232.22 929.445,1257.51 933.477,1284.6 937.51,1311.23 941.542,1280.7 945.575,1303.92 949.607,1288.87 953.639,1278.05 957.672,1253.72 961.704,1248.68 965.736,1231 969.769,1237.58 973.801,1240.7 977.834,1234.31 981.866,1228.14 985.898,1216.36 989.931,1225.15 993.963,1253.18 997.996,1212.07 1002.03,1213.02 1006.06,1208.19 1010.09,1232.62 1014.13,1251.24 1018.16,1238.07 1022.19,1255.67 1026.22,1249.48 1030.25,1254.36 1034.29,1246.42 1038.32,1262.59 1042.35,1281.91 1046.38,1279.74 1050.42,1270.82 1054.45,1281.15 1058.48,1275.16 1062.51,1247.15 1066.55,1227.9 1070.58,1245.2 1074.61,1274.47 1078.64,1264.02 1082.68,1268.17 1086.71,1257.37 1090.74,1239.28 1094.77,1205.93 1098.81,1196.92 1102.84,1208.91 1106.87,1179.94 1110.9,1167.26 1114.93,1165.2 1118.97,1162.02 1123,1129.36 1127.03,1108.44 1131.06,1138.17 1135.1,1148.75 1139.13,1116.51 1143.16,1117.21 1147.19,1123.33 1151.23,1116.77 1155.26,1110.13 1159.29,1115.19 1163.32,1117.14 1167.36,1103.84 1171.39,1090.55 1175.42,1099.55 1179.45,1096.69 1183.49,1088.03 1187.52,1107.04 1191.55,1096.55 1195.58,1104.98 1199.61,1108.39 1203.65,1130.71 1207.68,1126.21 1211.71,1120.55 1215.74,1133.76 1219.78,1133.34 1223.81,1134.77 1227.84,1127.47 1231.87,1164.56 1235.91,1155.24 1239.94,1119.53 1243.97,1133.05 1248,1148.93 1252.04,1163.21 1256.07,1152.61 1260.1,1144.84 1264.13,1132.72 1268.17,1139.41 1272.2,1132.98 1276.23,1124.41 1280.26,1089.58 1284.29,1071.43 1288.33,1085.65 1292.36,1097.23 1296.39,1114.11 1300.42,1102.6 1304.46,1111.09 1308.49,1120.15 1312.52,1123.17 1316.55,1155.82 1320.59,1173.78 1324.62,1195.95 1328.65,1199.23 1332.68,1212.19 1336.72,1240.29 1340.75,1247.34 1344.78,1250.83 1348.81,1223.75 1352.85,1222.03 1356.88,1227.06 1360.91,1219.56 1364.94,1204.24 1368.97,1188.77 1373.01,1178.11 1377.04,1171.44 1381.07,1165.65 1385.1,1155.26 1389.14,1151.91 1393.17,1128.92 1397.2,1133.12 1401.23,1142.7 1405.27,1143.9 1409.3,1140.91 1413.33,1122.15 1417.36,1142.18 1421.4,1147.29 1425.43,1144.01 1429.46,1145.59 1433.49,1129.19 1437.53,1144.76 1441.56,1142.88 1445.59,1156.31 1449.62,1185.86 1453.66,1173.23 1457.69,1175.22 1461.72,1182.01 1465.75,1197.51 1469.78,1200.48 1473.82,1190.92 1477.85,1209.62 1481.88,1233.11 1485.91,1233.11 1489.95,1243.68 1493.98,1232.25 1498.01,1232.93 1502.04,1215.06 1506.08,1194.51 1510.11,1203.61 1514.14,1196.92 1518.17,1197.3 1522.21,1200.6 1526.24,1208.52 1530.27,1224.94 1534.3,1237.3 1538.34,1221.16 1542.37,1213.09 1546.4,1205.74 1550.43,1201.21 1554.46,1173.43 1558.5,1151.44 1562.53,1148.68 1566.56,1118.39 1570.59,1110.59 1574.63,1109.82 1578.66,1117.17 1582.69,1116.28 1586.72,1119.59 1590.76,1114.45 1594.79,1111.45 1598.82,1109.63 1602.85,1138.91 1606.89,1153.02 1610.92,1173.03 1614.95,1165.86 1618.98,1171.36 1623.02,1173.74 1627.05,1153.5 1631.08,1148.92 1635.11,1144.21 1639.14,1138.94 1643.18,1149.19 1647.21,1139.62 1651.24,1151.84 1655.27,1162.58 1659.31,1177.29 1663.34,1176.29 1667.37,1164.97 1671.4,1164.5 1675.44,1193.32 1679.47,1195.01 1683.5,1186.34 1687.53,1181.49 1691.57,1155.14 1695.6,1159.32 1699.63,1139.09 1703.66,1147.64 1707.7,1143.88 1711.73,1133.55 1715.76,1124.87 1719.79,1119.07 1723.82,1132.24 1727.86,1128.75 1731.89,1148.58 1735.92,1153.95 1739.95,1139.61 1743.99,1150.59 1748.02,1156.11 1752.05,1180.43 1756.08,1164.89 1760.12,1158.15 1764.15,1143.19 1768.18,1130.92 1772.21,1131.68 1776.25,1137.99 1780.28,1155.83 1784.31,1152.38 1788.34,1149.68 1792.38,1167.43 1796.41,1198.37 1800.44,1193.88 1804.47,1154.7 1808.5,1166.41 1812.54,1181.17 1816.57,1213.72 1820.6,1198.14 1824.63,1218.24 1828.67,1236.21 1832.7,1240.62 1836.73,1257.62 1840.76,1274.28 1844.8,1276.64 1848.83,1270.71 1852.86,1245.18 1856.89,1250.21 1860.93,1248.51 1864.96,1264.15 1868.99,1236.85 1873.02,1237.41 1877.06,1238.65 1881.09,1234.03 1885.12,1237.49 1889.15,1249.32 1893.19,1275.98 1897.22,1284.15 1901.25,1286.09 1905.28,1285.75 1909.31,1293.61 1913.35,1261.84 1917.38,1254.41 1921.41,1244.24 1925.44,1272.07 1929.48,1273.06 1933.51,1268.24 1937.54,1271.87 1941.57,1272.48 1945.61,1276.28 1949.64,1278.04 1953.67,1285.86 1957.7,1292.24 1961.74,1281.97 1965.77,1278.47 1969.8,1283.89 1973.83,1291.61 1977.87,1271.64 1981.9,1263.48 1985.93,1254.73 1989.96,1246.47 1993.99,1243.34 1998.03,1206.52 2002.06,1192.89 2006.09,1201.57 2010.12,1217.44 2014.16,1203 2018.19,1210.96 2022.22,1188.3 2026.25,1171.42 2030.29,1161.2 2034.32,1176.09 2038.35,1184.11 2042.38,1170.19 2046.42,1157.92 2050.45,1196.13 2054.48,1214.2 2058.51,1217.76 2062.55,1204.31 2066.58,1225.22 2070.61,1217.84 2074.64,1198.83 2078.67,1214.65 2082.71,1227.61 2086.74,1234.73 2090.77,1220.68 2094.8,1232.97 2098.84,1249.04 2102.87,1238.94 2106.9,1221.48 2110.93,1208.43 2114.97,1176.1 2119,1157.99 2123.03,1153.11 2127.06,1144.97 2131.1,1141.16 2135.13,1134.91 2139.16,1151.32 2143.19,1127.69 2147.23,1117.94 2151.26,1117.92 2155.29,1109.73 2159.32,1109.02 2163.35,1109.31 2167.39,1111.78 2171.42,1136.82 2175.45,1155.08 2179.48,1170.63 2183.52,1169.37 2187.55,1151.72 2191.58,1158.02 2195.61,1166.61 2199.65,1161.46 2203.68,1179.7 2207.71,1168.27 2211.74,1167.02 2215.78,1161.82 2219.81,1168.93 2223.84,1158.59 2227.87,1147.89 2231.91,1134.9 2235.94,1141.21 2239.97,1168.85 2244,1169.76 2248.03,1147.1 2252.07,1151.27 2256.1,1136.07 2260.13,1146 2264.16,1140.63 2268.2,1130.49 2272.23,1157.39 2276.26,1159.26 2280.29,1152.78 2284.33,1147.81 2288.36,1129.19 2292.39,1146.05 "/>
<path clip-path="url(#clip840)" d="M2015.94 248.629 L2281.66 248.629 L2281.66 93.1086 L2015.94 93.1086  Z" fill="#ffffff" fill-rule="evenodd" fill-opacity="1"/>
<polyline clip-path="url(#clip840)" style="stroke:#000000; stroke-linecap:round; stroke-linejoin:round; stroke-width:4; stroke-opacity:1; fill:none" points="2015.94,248.629 2281.66,248.629 2281.66,93.1086 2015.94,93.1086 2015.94,248.629 "/>
<polyline clip-path="url(#clip840)" style="stroke:#009af9; stroke-linecap:round; stroke-linejoin:round; stroke-width:4; stroke-opacity:1; fill:none" points="2039.64,144.949 2181.83,144.949 "/>
<path clip-path="url(#clip840)" d="M2219.37 164.636 Q2217.57 169.266 2215.85 170.678 Q2214.14 172.09 2211.27 172.09 L2207.87 172.09 L2207.87 168.525 L2210.37 168.525 Q2212.13 168.525 2213.1 167.692 Q2214.07 166.858 2215.25 163.756 L2216.02 161.812 L2205.53 136.303 L2210.04 136.303 L2218.15 156.581 L2226.25 136.303 L2230.76 136.303 L2219.37 164.636 Z" fill="#000000" fill-rule="nonzero" fill-opacity="1" /><path clip-path="url(#clip840)" d="M2238.05 158.293 L2245.69 158.293 L2245.69 131.928 L2237.38 133.595 L2237.38 129.335 L2245.65 127.669 L2250.32 127.669 L2250.32 158.293 L2257.96 158.293 L2257.96 162.229 L2238.05 162.229 L2238.05 158.293 Z" fill="#000000" fill-rule="nonzero" fill-opacity="1" /><polyline clip-path="url(#clip840)" style="stroke:#e26f46; stroke-linecap:round; stroke-linejoin:round; stroke-width:4; stroke-opacity:1; fill:none" points="2039.64,196.789 2181.83,196.789 "/>
<path clip-path="url(#clip840)" d="M2219.37 216.476 Q2217.57 221.106 2215.85 222.518 Q2214.14 223.93 2211.27 223.93 L2207.87 223.93 L2207.87 220.365 L2210.37 220.365 Q2212.13 220.365 2213.1 219.532 Q2214.07 218.698 2215.25 215.596 L2216.02 213.652 L2205.53 188.143 L2210.04 188.143 L2218.15 208.421 L2226.25 188.143 L2230.76 188.143 L2219.37 216.476 Z" fill="#000000" fill-rule="nonzero" fill-opacity="1" /><path clip-path="url(#clip840)" d="M2241.27 210.133 L2257.59 210.133 L2257.59 214.069 L2235.65 214.069 L2235.65 210.133 Q2238.31 207.379 2242.89 202.749 Q2247.5 198.096 2248.68 196.754 Q2250.92 194.231 2251.8 192.495 Q2252.71 190.735 2252.71 189.046 Q2252.71 186.291 2250.76 184.555 Q2248.84 182.819 2245.74 182.819 Q2243.54 182.819 2241.09 183.583 Q2238.66 184.347 2235.88 185.897 L2235.88 181.175 Q2238.7 180.041 2241.16 179.462 Q2243.61 178.884 2245.65 178.884 Q2251.02 178.884 2254.21 181.569 Q2257.41 184.254 2257.41 188.745 Q2257.41 190.874 2256.6 192.796 Q2255.81 194.694 2253.7 197.286 Q2253.12 197.958 2250.02 201.175 Q2246.92 204.37 2241.27 210.133 Z" fill="#000000" fill-rule="nonzero" fill-opacity="1" /></svg>
