<?xml version="1.0" encoding="utf-8"?>
<svg xmlns="http://www.w3.org/2000/svg" xmlns:xlink="http://www.w3.org/1999/xlink" width="600" height="400" viewBox="0 0 2400 1600">
<defs>
  <clipPath id="clip380">
    <rect x="0" y="0" width="2400" height="1600"/>
  </clipPath>
</defs>
<path clip-path="url(#clip380)" d="M0 1600 L2400 1600 L2400 0 L0 0  Z" fill="#ffffff" fill-rule="evenodd" fill-opacity="1"/>
<defs>
  <clipPath id="clip381">
    <rect x="480" y="0" width="1681" height="1600"/>
  </clipPath>
</defs>
<path clip-path="url(#clip380)" d="M203.964 1423.18 L2352.76 1423.18 L2352.76 47.2441 L203.964 47.2441  Z" fill="#ffffff" fill-rule="evenodd" fill-opacity="1"/>
<defs>
  <clipPath id="clip382">
    <rect x="203" y="47" width="2150" height="1377"/>
  </clipPath>
</defs>
<polyline clip-path="url(#clip382)" style="stroke:#000000; stroke-linecap:round; stroke-linejoin:round; stroke-width:2; stroke-opacity:0.1; fill:none" points="262.749,1423.18 262.749,47.2441 "/>
<polyline clip-path="url(#clip382)" style="stroke:#000000; stroke-linecap:round; stroke-linejoin:round; stroke-width:2; stroke-opacity:0.1; fill:none" points="770.047,1423.18 770.047,47.2441 "/>
<polyline clip-path="url(#clip382)" style="stroke:#000000; stroke-linecap:round; stroke-linejoin:round; stroke-width:2; stroke-opacity:0.1; fill:none" points="1277.35,1423.18 1277.35,47.2441 "/>
<polyline clip-path="url(#clip382)" style="stroke:#000000; stroke-linecap:round; stroke-linejoin:round; stroke-width:2; stroke-opacity:0.1; fill:none" points="1784.64,1423.18 1784.64,47.2441 "/>
<polyline clip-path="url(#clip382)" style="stroke:#000000; stroke-linecap:round; stroke-linejoin:round; stroke-width:2; stroke-opacity:0.1; fill:none" points="2291.94,1423.18 2291.94,47.2441 "/>
<polyline clip-path="url(#clip380)" style="stroke:#000000; stroke-linecap:round; stroke-linejoin:round; stroke-width:4; stroke-opacity:1; fill:none" points="203.964,1423.18 2352.76,1423.18 "/>
<polyline clip-path="url(#clip380)" style="stroke:#000000; stroke-linecap:round; stroke-linejoin:round; stroke-width:4; stroke-opacity:1; fill:none" points="262.749,1423.18 262.749,1404.28 "/>
<polyline clip-path="url(#clip380)" style="stroke:#000000; stroke-linecap:round; stroke-linejoin:round; stroke-width:4; stroke-opacity:1; fill:none" points="770.047,1423.18 770.047,1404.28 "/>
<polyline clip-path="url(#clip380)" style="stroke:#000000; stroke-linecap:round; stroke-linejoin:round; stroke-width:4; stroke-opacity:1; fill:none" points="1277.35,1423.18 1277.35,1404.28 "/>
<polyline clip-path="url(#clip380)" style="stroke:#000000; stroke-linecap:round; stroke-linejoin:round; stroke-width:4; stroke-opacity:1; fill:none" points="1784.64,1423.18 1784.64,1404.28 "/>
<polyline clip-path="url(#clip380)" style="stroke:#000000; stroke-linecap:round; stroke-linejoin:round; stroke-width:4; stroke-opacity:1; fill:none" points="2291.94,1423.18 2291.94,1404.28 "/>
<path clip-path="url(#clip380)" d="M262.749 1454.1 Q259.138 1454.1 257.309 1457.66 Q255.504 1461.2 255.504 1468.33 Q255.504 1475.44 257.309 1479.01 Q259.138 1482.55 262.749 1482.55 Q266.383 1482.55 268.189 1479.01 Q270.018 1475.44 270.018 1468.33 Q270.018 1461.2 268.189 1457.66 Q266.383 1454.1 262.749 1454.1 M262.749 1450.39 Q268.559 1450.39 271.615 1455 Q274.694 1459.58 274.694 1468.33 Q274.694 1477.06 271.615 1481.67 Q268.559 1486.25 262.749 1486.25 Q256.939 1486.25 253.86 1481.67 Q250.805 1477.06 250.805 1468.33 Q250.805 1459.58 253.86 1455 Q256.939 1450.39 262.749 1450.39 Z" fill="#000000" fill-rule="nonzero" fill-opacity="1" /><path clip-path="url(#clip380)" d="M733.74 1481.64 L750.059 1481.64 L750.059 1485.58 L728.115 1485.58 L728.115 1481.64 Q730.777 1478.89 735.36 1474.26 Q739.966 1469.61 741.147 1468.27 Q743.392 1465.74 744.272 1464.01 Q745.175 1462.25 745.175 1460.56 Q745.175 1457.8 743.23 1456.07 Q741.309 1454.33 738.207 1454.33 Q736.008 1454.33 733.554 1455.09 Q731.124 1455.86 728.346 1457.41 L728.346 1452.69 Q731.17 1451.55 733.624 1450.97 Q736.077 1450.39 738.115 1450.39 Q743.485 1450.39 746.679 1453.08 Q749.874 1455.77 749.874 1460.26 Q749.874 1462.39 749.064 1464.31 Q748.276 1466.2 746.17 1468.8 Q745.591 1469.47 742.489 1472.69 Q739.388 1475.88 733.74 1481.64 Z" fill="#000000" fill-rule="nonzero" fill-opacity="1" /><path clip-path="url(#clip380)" d="M759.92 1451.02 L778.276 1451.02 L778.276 1454.96 L764.202 1454.96 L764.202 1463.43 Q765.221 1463.08 766.239 1462.92 Q767.258 1462.73 768.276 1462.73 Q774.063 1462.73 777.443 1465.9 Q780.823 1469.08 780.823 1474.49 Q780.823 1480.07 777.35 1483.17 Q773.878 1486.25 767.559 1486.25 Q765.383 1486.25 763.114 1485.88 Q760.869 1485.51 758.462 1484.77 L758.462 1480.07 Q760.545 1481.2 762.767 1481.76 Q764.989 1482.32 767.466 1482.32 Q771.471 1482.32 773.809 1480.21 Q776.147 1478.1 776.147 1474.49 Q776.147 1470.88 773.809 1468.77 Q771.471 1466.67 767.466 1466.67 Q765.591 1466.67 763.716 1467.08 Q761.864 1467.5 759.92 1468.38 L759.92 1451.02 Z" fill="#000000" fill-rule="nonzero" fill-opacity="1" /><path clip-path="url(#clip380)" d="M800.035 1454.1 Q796.424 1454.1 794.596 1457.66 Q792.79 1461.2 792.79 1468.33 Q792.79 1475.44 794.596 1479.01 Q796.424 1482.55 800.035 1482.55 Q803.67 1482.55 805.475 1479.01 Q807.304 1475.44 807.304 1468.33 Q807.304 1461.2 805.475 1457.66 Q803.67 1454.1 800.035 1454.1 M800.035 1450.39 Q805.846 1450.39 808.901 1455 Q811.98 1459.58 811.98 1468.33 Q811.98 1477.06 808.901 1481.67 Q805.846 1486.25 800.035 1486.25 Q794.225 1486.25 791.147 1481.67 Q788.091 1477.06 788.091 1468.33 Q788.091 1459.58 791.147 1455 Q794.225 1450.39 800.035 1450.39 Z" fill="#000000" fill-rule="nonzero" fill-opacity="1" /><path clip-path="url(#clip380)" d="M1236.96 1451.02 L1255.32 1451.02 L1255.32 1454.96 L1241.25 1454.96 L1241.25 1463.43 Q1242.26 1463.08 1243.28 1462.92 Q1244.3 1462.73 1245.32 1462.73 Q1251.11 1462.73 1254.49 1465.9 Q1257.87 1469.08 1257.87 1474.49 Q1257.87 1480.07 1254.39 1483.17 Q1250.92 1486.25 1244.6 1486.25 Q1242.43 1486.25 1240.16 1485.88 Q1237.91 1485.51 1235.51 1484.77 L1235.51 1480.07 Q1237.59 1481.2 1239.81 1481.76 Q1242.03 1482.32 1244.51 1482.32 Q1248.51 1482.32 1250.85 1480.21 Q1253.19 1478.1 1253.19 1474.49 Q1253.19 1470.88 1250.85 1468.77 Q1248.51 1466.67 1244.51 1466.67 Q1242.63 1466.67 1240.76 1467.08 Q1238.91 1467.5 1236.96 1468.38 L1236.96 1451.02 Z" fill="#000000" fill-rule="nonzero" fill-opacity="1" /><path clip-path="url(#clip380)" d="M1277.08 1454.1 Q1273.47 1454.1 1271.64 1457.66 Q1269.83 1461.2 1269.83 1468.33 Q1269.83 1475.44 1271.64 1479.01 Q1273.47 1482.55 1277.08 1482.55 Q1280.71 1482.55 1282.52 1479.01 Q1284.35 1475.44 1284.35 1468.33 Q1284.35 1461.2 1282.52 1457.66 Q1280.71 1454.1 1277.08 1454.1 M1277.08 1450.39 Q1282.89 1450.39 1285.94 1455 Q1289.02 1459.58 1289.02 1468.33 Q1289.02 1477.06 1285.94 1481.67 Q1282.89 1486.25 1277.08 1486.25 Q1271.27 1486.25 1268.19 1481.67 Q1265.13 1477.06 1265.13 1468.33 Q1265.13 1459.58 1268.19 1455 Q1271.27 1450.39 1277.08 1450.39 Z" fill="#000000" fill-rule="nonzero" fill-opacity="1" /><path clip-path="url(#clip380)" d="M1307.24 1454.1 Q1303.63 1454.1 1301.8 1457.66 Q1300 1461.2 1300 1468.33 Q1300 1475.44 1301.8 1479.01 Q1303.63 1482.55 1307.24 1482.55 Q1310.88 1482.55 1312.68 1479.01 Q1314.51 1475.44 1314.51 1468.33 Q1314.51 1461.2 1312.68 1457.66 Q1310.88 1454.1 1307.24 1454.1 M1307.24 1450.39 Q1313.05 1450.39 1316.11 1455 Q1319.19 1459.58 1319.19 1468.33 Q1319.19 1477.06 1316.11 1481.67 Q1313.05 1486.25 1307.24 1486.25 Q1301.43 1486.25 1298.35 1481.67 Q1295.3 1477.06 1295.3 1468.33 Q1295.3 1459.58 1298.35 1455 Q1301.43 1450.39 1307.24 1450.39 Z" fill="#000000" fill-rule="nonzero" fill-opacity="1" /><path clip-path="url(#clip380)" d="M1742.92 1451.02 L1765.14 1451.02 L1765.14 1453.01 L1752.59 1485.58 L1747.71 1485.58 L1759.52 1454.96 L1742.92 1454.96 L1742.92 1451.02 Z" fill="#000000" fill-rule="nonzero" fill-opacity="1" /><path clip-path="url(#clip380)" d="M1774.31 1451.02 L1792.66 1451.02 L1792.66 1454.96 L1778.59 1454.96 L1778.59 1463.43 Q1779.61 1463.08 1780.63 1462.92 Q1781.65 1462.73 1782.66 1462.73 Q1788.45 1462.73 1791.83 1465.9 Q1795.21 1469.08 1795.21 1474.49 Q1795.21 1480.07 1791.74 1483.17 Q1788.27 1486.25 1781.95 1486.25 Q1779.77 1486.25 1777.5 1485.88 Q1775.26 1485.51 1772.85 1484.77 L1772.85 1480.07 Q1774.93 1481.2 1777.15 1481.76 Q1779.38 1482.32 1781.85 1482.32 Q1785.86 1482.32 1788.2 1480.21 Q1790.53 1478.1 1790.53 1474.49 Q1790.53 1470.88 1788.2 1468.77 Q1785.86 1466.67 1781.85 1466.67 Q1779.98 1466.67 1778.1 1467.08 Q1776.25 1467.5 1774.31 1468.38 L1774.31 1451.02 Z" fill="#000000" fill-rule="nonzero" fill-opacity="1" /><path clip-path="url(#clip380)" d="M1814.42 1454.1 Q1810.81 1454.1 1808.98 1457.66 Q1807.18 1461.2 1807.18 1468.33 Q1807.18 1475.44 1808.98 1479.01 Q1810.81 1482.55 1814.42 1482.55 Q1818.06 1482.55 1819.86 1479.01 Q1821.69 1475.44 1821.69 1468.33 Q1821.69 1461.2 1819.86 1457.66 Q1818.06 1454.1 1814.42 1454.1 M1814.42 1450.39 Q1820.23 1450.39 1823.29 1455 Q1826.37 1459.58 1826.37 1468.33 Q1826.37 1477.06 1823.29 1481.67 Q1820.23 1486.25 1814.42 1486.25 Q1808.61 1486.25 1805.53 1481.67 Q1802.48 1477.06 1802.48 1468.33 Q1802.48 1459.58 1805.53 1455 Q1808.61 1450.39 1814.42 1450.39 Z" fill="#000000" fill-rule="nonzero" fill-opacity="1" /><path clip-path="url(#clip380)" d="M2236.47 1481.64 L2244.11 1481.64 L2244.11 1455.28 L2235.8 1456.95 L2235.8 1452.69 L2244.06 1451.02 L2248.74 1451.02 L2248.74 1481.64 L2256.37 1481.64 L2256.37 1485.58 L2236.47 1485.58 L2236.47 1481.64 Z" fill="#000000" fill-rule="nonzero" fill-opacity="1" /><path clip-path="url(#clip380)" d="M2275.82 1454.1 Q2272.21 1454.1 2270.38 1457.66 Q2268.57 1461.2 2268.57 1468.33 Q2268.57 1475.44 2270.38 1479.01 Q2272.21 1482.55 2275.82 1482.55 Q2279.45 1482.55 2281.26 1479.01 Q2283.09 1475.44 2283.09 1468.33 Q2283.09 1461.2 2281.26 1457.66 Q2279.45 1454.1 2275.82 1454.1 M2275.82 1450.39 Q2281.63 1450.39 2284.68 1455 Q2287.76 1459.58 2287.76 1468.33 Q2287.76 1477.06 2284.68 1481.67 Q2281.63 1486.25 2275.82 1486.25 Q2270.01 1486.25 2266.93 1481.67 Q2263.87 1477.06 2263.87 1468.33 Q2263.87 1459.58 2266.93 1455 Q2270.01 1450.39 2275.82 1450.39 Z" fill="#000000" fill-rule="nonzero" fill-opacity="1" /><path clip-path="url(#clip380)" d="M2305.98 1454.1 Q2302.37 1454.1 2300.54 1457.66 Q2298.73 1461.2 2298.73 1468.33 Q2298.73 1475.44 2300.54 1479.01 Q2302.37 1482.55 2305.98 1482.55 Q2309.61 1482.55 2311.42 1479.01 Q2313.25 1475.44 2313.25 1468.33 Q2313.25 1461.2 2311.42 1457.66 Q2309.61 1454.1 2305.98 1454.1 M2305.98 1450.39 Q2311.79 1450.39 2314.85 1455 Q2317.92 1459.58 2317.92 1468.33 Q2317.92 1477.06 2314.85 1481.67 Q2311.79 1486.25 2305.98 1486.25 Q2300.17 1486.25 2297.09 1481.67 Q2294.04 1477.06 2294.04 1468.33 Q2294.04 1459.58 2297.09 1455 Q2300.17 1450.39 2305.98 1450.39 Z" fill="#000000" fill-rule="nonzero" fill-opacity="1" /><path clip-path="url(#clip380)" d="M2336.14 1454.1 Q2332.53 1454.1 2330.7 1457.66 Q2328.9 1461.2 2328.9 1468.33 Q2328.9 1475.44 2330.7 1479.01 Q2332.53 1482.55 2336.14 1482.55 Q2339.78 1482.55 2341.58 1479.01 Q2343.41 1475.44 2343.41 1468.33 Q2343.41 1461.2 2341.58 1457.66 Q2339.78 1454.1 2336.14 1454.1 M2336.14 1450.39 Q2341.95 1450.39 2345.01 1455 Q2348.09 1459.58 2348.09 1468.33 Q2348.09 1477.06 2345.01 1481.67 Q2341.95 1486.25 2336.14 1486.25 Q2330.33 1486.25 2327.25 1481.67 Q2324.2 1477.06 2324.2 1468.33 Q2324.2 1459.58 2327.25 1455 Q2330.33 1450.39 2336.14 1450.39 Z" fill="#000000" fill-rule="nonzero" fill-opacity="1" /><path clip-path="url(#clip380)" d="M1146.51 1532.4 L1152.37 1532.4 L1152.37 1568.04 L1146.51 1568.04 L1146.51 1532.4 M1146.51 1518.52 L1152.37 1518.52 L1152.37 1525.93 L1146.51 1525.93 L1146.51 1518.52 Z" fill="#000000" fill-rule="nonzero" fill-opacity="1" /><path clip-path="url(#clip380)" d="M1170.41 1522.27 L1170.41 1532.4 L1182.48 1532.4 L1182.48 1536.95 L1170.41 1536.95 L1170.41 1556.3 Q1170.41 1560.66 1171.59 1561.9 Q1172.8 1563.14 1176.46 1563.14 L1182.48 1563.14 L1182.48 1568.04 L1176.46 1568.04 Q1169.68 1568.04 1167.1 1565.53 Q1164.52 1562.98 1164.52 1556.3 L1164.52 1536.95 L1160.23 1536.95 L1160.23 1532.4 L1164.52 1532.4 L1164.52 1522.27 L1170.41 1522.27 Z" fill="#000000" fill-rule="nonzero" fill-opacity="1" /><path clip-path="url(#clip380)" d="M1220.67 1548.76 L1220.67 1551.62 L1193.74 1551.62 Q1194.13 1557.67 1197.37 1560.85 Q1200.65 1564 1206.47 1564 Q1209.85 1564 1213 1563.17 Q1216.18 1562.35 1219.3 1560.69 L1219.3 1566.23 Q1216.15 1567.57 1212.84 1568.27 Q1209.53 1568.97 1206.12 1568.97 Q1197.59 1568.97 1192.6 1564 Q1187.63 1559.04 1187.63 1550.57 Q1187.63 1541.82 1192.34 1536.69 Q1197.09 1531.54 1205.11 1531.54 Q1212.3 1531.54 1216.47 1536.18 Q1220.67 1540.8 1220.67 1548.76 M1214.81 1547.04 Q1214.75 1542.23 1212.11 1539.37 Q1209.5 1536.5 1205.17 1536.5 Q1200.27 1536.5 1197.31 1539.27 Q1194.38 1542.04 1193.93 1547.07 L1214.81 1547.04 Z" fill="#000000" fill-rule="nonzero" fill-opacity="1" /><path clip-path="url(#clip380)" d="M1250.94 1537.87 Q1249.95 1537.3 1248.78 1537.04 Q1247.63 1536.76 1246.23 1536.76 Q1241.26 1536.76 1238.59 1540 Q1235.95 1543.22 1235.95 1549.27 L1235.95 1568.04 L1230.06 1568.04 L1230.06 1532.4 L1235.95 1532.4 L1235.95 1537.93 Q1237.79 1534.69 1240.75 1533.13 Q1243.71 1531.54 1247.95 1531.54 Q1248.55 1531.54 1249.28 1531.63 Q1250.02 1531.7 1250.91 1531.85 L1250.94 1537.87 Z" fill="#000000" fill-rule="nonzero" fill-opacity="1" /><path clip-path="url(#clip380)" d="M1273.28 1550.12 Q1266.19 1550.12 1263.45 1551.75 Q1260.71 1553.37 1260.71 1557.29 Q1260.71 1560.4 1262.75 1562.25 Q1264.82 1564.07 1268.35 1564.07 Q1273.22 1564.07 1276.15 1560.63 Q1279.11 1557.16 1279.11 1551.43 L1279.11 1550.12 L1273.28 1550.12 M1284.96 1547.71 L1284.96 1568.04 L1279.11 1568.04 L1279.11 1562.63 Q1277.1 1565.88 1274.11 1567.44 Q1271.12 1568.97 1266.79 1568.97 Q1261.32 1568.97 1258.07 1565.91 Q1254.85 1562.82 1254.85 1557.67 Q1254.85 1551.65 1258.86 1548.6 Q1262.91 1545.54 1270.9 1545.54 L1279.11 1545.54 L1279.11 1544.97 Q1279.11 1540.93 1276.43 1538.73 Q1273.79 1536.5 1268.99 1536.5 Q1265.93 1536.5 1263.03 1537.23 Q1260.14 1537.97 1257.46 1539.43 L1257.46 1534.02 Q1260.68 1532.78 1263.7 1532.17 Q1266.73 1531.54 1269.59 1531.54 Q1277.33 1531.54 1281.14 1535.55 Q1284.96 1539.56 1284.96 1547.71 Z" fill="#000000" fill-rule="nonzero" fill-opacity="1" /><path clip-path="url(#clip380)" d="M1302.82 1522.27 L1302.82 1532.4 L1314.88 1532.4 L1314.88 1536.95 L1302.82 1536.95 L1302.82 1556.3 Q1302.82 1560.66 1304 1561.9 Q1305.21 1563.14 1308.87 1563.14 L1314.88 1563.14 L1314.88 1568.04 L1308.87 1568.04 Q1302.09 1568.04 1299.51 1565.53 Q1296.93 1562.98 1296.93 1556.3 L1296.93 1536.95 L1292.63 1536.95 L1292.63 1532.4 L1296.93 1532.4 L1296.93 1522.27 L1302.82 1522.27 Z" fill="#000000" fill-rule="nonzero" fill-opacity="1" /><path clip-path="url(#clip380)" d="M1322.59 1532.4 L1328.44 1532.4 L1328.44 1568.04 L1322.59 1568.04 L1322.59 1532.4 M1322.59 1518.52 L1328.44 1518.52 L1328.44 1525.93 L1322.59 1525.93 L1322.59 1518.52 Z" fill="#000000" fill-rule="nonzero" fill-opacity="1" /><path clip-path="url(#clip380)" d="M1354.51 1536.5 Q1349.8 1536.5 1347.06 1540.19 Q1344.32 1543.85 1344.32 1550.25 Q1344.32 1556.65 1347.03 1560.34 Q1349.77 1564 1354.51 1564 Q1359.19 1564 1361.93 1560.31 Q1364.66 1556.62 1364.66 1550.25 Q1364.66 1543.92 1361.93 1540.23 Q1359.19 1536.5 1354.51 1536.5 M1354.51 1531.54 Q1362.15 1531.54 1366.51 1536.5 Q1370.87 1541.47 1370.87 1550.25 Q1370.87 1559 1366.51 1564 Q1362.15 1568.97 1354.51 1568.97 Q1346.84 1568.97 1342.48 1564 Q1338.15 1559 1338.15 1550.25 Q1338.15 1541.47 1342.48 1536.5 Q1346.84 1531.54 1354.51 1531.54 Z" fill="#000000" fill-rule="nonzero" fill-opacity="1" /><path clip-path="url(#clip380)" d="M1410.21 1546.53 L1410.21 1568.04 L1404.35 1568.04 L1404.35 1546.72 Q1404.35 1541.66 1402.38 1539.14 Q1400.41 1536.63 1396.46 1536.63 Q1391.72 1536.63 1388.98 1539.65 Q1386.24 1542.68 1386.24 1547.9 L1386.24 1568.04 L1380.35 1568.04 L1380.35 1532.4 L1386.24 1532.4 L1386.24 1537.93 Q1388.34 1534.72 1391.18 1533.13 Q1394.04 1531.54 1397.76 1531.54 Q1403.91 1531.54 1407.06 1535.36 Q1410.21 1539.14 1410.21 1546.53 Z" fill="#000000" fill-rule="nonzero" fill-opacity="1" /><polyline clip-path="url(#clip382)" style="stroke:#000000; stroke-linecap:round; stroke-linejoin:round; stroke-width:2; stroke-opacity:0.1; fill:none" points="203.964,1337.36 2352.76,1337.36 "/>
<polyline clip-path="url(#clip382)" style="stroke:#000000; stroke-linecap:round; stroke-linejoin:round; stroke-width:2; stroke-opacity:0.1; fill:none" points="203.964,1140.87 2352.76,1140.87 "/>
<polyline clip-path="url(#clip382)" style="stroke:#000000; stroke-linecap:round; stroke-linejoin:round; stroke-width:2; stroke-opacity:0.1; fill:none" points="203.964,944.384 2352.76,944.384 "/>
<polyline clip-path="url(#clip382)" style="stroke:#000000; stroke-linecap:round; stroke-linejoin:round; stroke-width:2; stroke-opacity:0.1; fill:none" points="203.964,747.896 2352.76,747.896 "/>
<polyline clip-path="url(#clip382)" style="stroke:#000000; stroke-linecap:round; stroke-linejoin:round; stroke-width:2; stroke-opacity:0.1; fill:none" points="203.964,551.408 2352.76,551.408 "/>
<polyline clip-path="url(#clip382)" style="stroke:#000000; stroke-linecap:round; stroke-linejoin:round; stroke-width:2; stroke-opacity:0.1; fill:none" points="203.964,354.921 2352.76,354.921 "/>
<polyline clip-path="url(#clip382)" style="stroke:#000000; stroke-linecap:round; stroke-linejoin:round; stroke-width:2; stroke-opacity:0.1; fill:none" points="203.964,158.433 2352.76,158.433 "/>
<polyline clip-path="url(#clip380)" style="stroke:#000000; stroke-linecap:round; stroke-linejoin:round; stroke-width:4; stroke-opacity:1; fill:none" points="203.964,1423.18 203.964,47.2441 "/>
<polyline clip-path="url(#clip380)" style="stroke:#000000; stroke-linecap:round; stroke-linejoin:round; stroke-width:4; stroke-opacity:1; fill:none" points="203.964,1337.36 222.861,1337.36 "/>
<polyline clip-path="url(#clip380)" style="stroke:#000000; stroke-linecap:round; stroke-linejoin:round; stroke-width:4; stroke-opacity:1; fill:none" points="203.964,1140.87 222.861,1140.87 "/>
<polyline clip-path="url(#clip380)" style="stroke:#000000; stroke-linecap:round; stroke-linejoin:round; stroke-width:4; stroke-opacity:1; fill:none" points="203.964,944.384 222.861,944.384 "/>
<polyline clip-path="url(#clip380)" style="stroke:#000000; stroke-linecap:round; stroke-linejoin:round; stroke-width:4; stroke-opacity:1; fill:none" points="203.964,747.896 222.861,747.896 "/>
<polyline clip-path="url(#clip380)" style="stroke:#000000; stroke-linecap:round; stroke-linejoin:round; stroke-width:4; stroke-opacity:1; fill:none" points="203.964,551.408 222.861,551.408 "/>
<polyline clip-path="url(#clip380)" style="stroke:#000000; stroke-linecap:round; stroke-linejoin:round; stroke-width:4; stroke-opacity:1; fill:none" points="203.964,354.921 222.861,354.921 "/>
<polyline clip-path="url(#clip380)" style="stroke:#000000; stroke-linecap:round; stroke-linejoin:round; stroke-width:4; stroke-opacity:1; fill:none" points="203.964,158.433 222.861,158.433 "/>
<path clip-path="url(#clip380)" d="M156.112 1338.23 Q152.778 1338.23 150.857 1340.01 Q148.959 1341.79 148.959 1344.92 Q148.959 1348.04 150.857 1349.82 Q152.778 1351.61 156.112 1351.61 Q159.445 1351.61 161.366 1349.82 Q163.288 1348.02 163.288 1344.92 Q163.288 1341.79 161.366 1340.01 Q159.468 1338.23 156.112 1338.23 M151.436 1336.24 Q148.427 1335.5 146.737 1333.44 Q145.07 1331.38 145.07 1328.41 Q145.07 1324.27 148.01 1321.86 Q150.973 1319.45 156.112 1319.45 Q161.274 1319.45 164.214 1321.86 Q167.153 1324.27 167.153 1328.41 Q167.153 1331.38 165.464 1333.44 Q163.797 1335.5 160.811 1336.24 Q164.19 1337.02 166.065 1339.32 Q167.964 1341.61 167.964 1344.92 Q167.964 1349.94 164.885 1352.63 Q161.829 1355.31 156.112 1355.31 Q150.394 1355.31 147.316 1352.63 Q144.26 1349.94 144.26 1344.92 Q144.26 1341.61 146.158 1339.32 Q148.056 1337.02 151.436 1336.24 M149.723 1328.85 Q149.723 1331.54 151.39 1333.04 Q153.079 1334.55 156.112 1334.55 Q159.121 1334.55 160.811 1333.04 Q162.524 1331.54 162.524 1328.85 Q162.524 1326.17 160.811 1324.66 Q159.121 1323.16 156.112 1323.16 Q153.079 1323.16 151.39 1324.66 Q149.723 1326.17 149.723 1328.85 Z" fill="#000000" fill-rule="nonzero" fill-opacity="1" /><path clip-path="url(#clip380)" d="M116.668 1154.22 L124.306 1154.22 L124.306 1127.85 L115.996 1129.52 L115.996 1125.26 L124.26 1123.59 L128.936 1123.59 L128.936 1154.22 L136.575 1154.22 L136.575 1158.15 L116.668 1158.15 L116.668 1154.22 Z" fill="#000000" fill-rule="nonzero" fill-opacity="1" /><path clip-path="url(#clip380)" d="M156.019 1126.67 Q152.408 1126.67 150.579 1130.24 Q148.774 1133.78 148.774 1140.91 Q148.774 1148.01 150.579 1151.58 Q152.408 1155.12 156.019 1155.12 Q159.653 1155.12 161.459 1151.58 Q163.288 1148.01 163.288 1140.91 Q163.288 1133.78 161.459 1130.24 Q159.653 1126.67 156.019 1126.67 M156.019 1122.97 Q161.829 1122.97 164.885 1127.57 Q167.964 1132.16 167.964 1140.91 Q167.964 1149.63 164.885 1154.24 Q161.829 1158.82 156.019 1158.82 Q150.209 1158.82 147.13 1154.24 Q144.075 1149.63 144.075 1140.91 Q144.075 1132.16 147.13 1127.57 Q150.209 1122.97 156.019 1122.97 Z" fill="#000000" fill-rule="nonzero" fill-opacity="1" /><path clip-path="url(#clip380)" d="M118.265 957.729 L125.904 957.729 L125.904 931.363 L117.593 933.03 L117.593 928.771 L125.857 927.104 L130.533 927.104 L130.533 957.729 L138.172 957.729 L138.172 961.664 L118.265 961.664 L118.265 957.729 Z" fill="#000000" fill-rule="nonzero" fill-opacity="1" /><path clip-path="url(#clip380)" d="M151.644 957.729 L167.964 957.729 L167.964 961.664 L146.019 961.664 L146.019 957.729 Q148.681 954.974 153.265 950.345 Q157.871 945.692 159.052 944.349 Q161.297 941.826 162.177 940.09 Q163.079 938.331 163.079 936.641 Q163.079 933.886 161.135 932.15 Q159.214 930.414 156.112 930.414 Q153.913 930.414 151.459 931.178 Q149.028 931.942 146.251 933.493 L146.251 928.771 Q149.075 927.636 151.528 927.058 Q153.982 926.479 156.019 926.479 Q161.39 926.479 164.584 929.164 Q167.778 931.849 167.778 936.34 Q167.778 938.47 166.968 940.391 Q166.181 942.289 164.075 944.882 Q163.496 945.553 160.394 948.771 Q157.292 951.965 151.644 957.729 Z" fill="#000000" fill-rule="nonzero" fill-opacity="1" /><path clip-path="url(#clip380)" d="M116.181 761.241 L123.82 761.241 L123.82 734.875 L115.51 736.542 L115.51 732.283 L123.774 730.616 L128.45 730.616 L128.45 761.241 L136.089 761.241 L136.089 765.176 L116.181 765.176 L116.181 761.241 Z" fill="#000000" fill-rule="nonzero" fill-opacity="1" /><path clip-path="url(#clip380)" d="M158.38 734.69 L146.575 753.139 L158.38 753.139 L158.38 734.69 M157.153 730.616 L163.033 730.616 L163.033 753.139 L167.964 753.139 L167.964 757.028 L163.033 757.028 L163.033 765.176 L158.38 765.176 L158.38 757.028 L142.779 757.028 L142.779 752.514 L157.153 730.616 Z" fill="#000000" fill-rule="nonzero" fill-opacity="1" /><path clip-path="url(#clip380)" d="M116.506 564.753 L124.144 564.753 L124.144 538.388 L115.834 540.054 L115.834 535.795 L124.098 534.128 L128.774 534.128 L128.774 564.753 L136.413 564.753 L136.413 568.688 L116.506 568.688 L116.506 564.753 Z" fill="#000000" fill-rule="nonzero" fill-opacity="1" /><path clip-path="url(#clip380)" d="M156.436 549.545 Q153.288 549.545 151.436 551.698 Q149.607 553.851 149.607 557.6 Q149.607 561.327 151.436 563.503 Q153.288 565.656 156.436 565.656 Q159.584 565.656 161.413 563.503 Q163.265 561.327 163.265 557.6 Q163.265 553.851 161.413 551.698 Q159.584 549.545 156.436 549.545 M165.718 534.892 L165.718 539.152 Q163.959 538.318 162.153 537.878 Q160.371 537.439 158.612 537.439 Q153.982 537.439 151.528 540.564 Q149.098 543.689 148.751 550.008 Q150.116 547.994 152.177 546.929 Q154.237 545.841 156.714 545.841 Q161.922 545.841 164.931 549.013 Q167.964 552.161 167.964 557.6 Q167.964 562.925 164.815 566.142 Q161.667 569.36 156.436 569.36 Q150.441 569.36 147.269 564.776 Q144.098 560.17 144.098 551.443 Q144.098 543.249 147.987 538.388 Q151.876 533.503 158.427 533.503 Q160.186 533.503 161.968 533.851 Q163.774 534.198 165.718 534.892 Z" fill="#000000" fill-rule="nonzero" fill-opacity="1" /><path clip-path="url(#clip380)" d="M116.76 368.265 L124.399 368.265 L124.399 341.9 L116.089 343.566 L116.089 339.307 L124.353 337.641 L129.029 337.641 L129.029 368.265 L136.667 368.265 L136.667 372.201 L116.76 372.201 L116.76 368.265 Z" fill="#000000" fill-rule="nonzero" fill-opacity="1" /><path clip-path="url(#clip380)" d="M156.112 355.789 Q152.778 355.789 150.857 357.571 Q148.959 359.353 148.959 362.478 Q148.959 365.603 150.857 367.386 Q152.778 369.168 156.112 369.168 Q159.445 369.168 161.366 367.386 Q163.288 365.58 163.288 362.478 Q163.288 359.353 161.366 357.571 Q159.468 355.789 156.112 355.789 M151.436 353.798 Q148.427 353.057 146.737 350.997 Q145.07 348.937 145.07 345.974 Q145.07 341.83 148.01 339.423 Q150.973 337.016 156.112 337.016 Q161.274 337.016 164.214 339.423 Q167.153 341.83 167.153 345.974 Q167.153 348.937 165.464 350.997 Q163.797 353.057 160.811 353.798 Q164.19 354.585 166.065 356.877 Q167.964 359.168 167.964 362.478 Q167.964 367.502 164.885 370.187 Q161.829 372.872 156.112 372.872 Q150.394 372.872 147.316 370.187 Q144.26 367.502 144.26 362.478 Q144.26 359.168 146.158 356.877 Q148.056 354.585 151.436 353.798 M149.723 346.414 Q149.723 349.099 151.39 350.603 Q153.079 352.108 156.112 352.108 Q159.121 352.108 160.811 350.603 Q162.524 349.099 162.524 346.414 Q162.524 343.728 160.811 342.224 Q159.121 340.719 156.112 340.719 Q153.079 340.719 151.39 342.224 Q149.723 343.728 149.723 346.414 Z" fill="#000000" fill-rule="nonzero" fill-opacity="1" /><path clip-path="url(#clip380)" d="M119.885 171.778 L136.204 171.778 L136.204 175.713 L114.26 175.713 L114.26 171.778 Q116.922 169.023 121.505 164.393 Q126.112 159.741 127.292 158.398 Q129.538 155.875 130.417 154.139 Q131.32 152.38 131.32 150.69 Q131.32 147.935 129.376 146.199 Q127.455 144.463 124.353 144.463 Q122.154 144.463 119.7 145.227 Q117.269 145.991 114.492 147.542 L114.492 142.819 Q117.316 141.685 119.769 141.106 Q122.223 140.528 124.26 140.528 Q129.63 140.528 132.825 143.213 Q136.019 145.898 136.019 150.389 Q136.019 152.518 135.209 154.44 Q134.422 156.338 132.316 158.93 Q131.737 159.602 128.635 162.819 Q125.533 166.014 119.885 171.778 Z" fill="#000000" fill-rule="nonzero" fill-opacity="1" /><path clip-path="url(#clip380)" d="M156.019 144.231 Q152.408 144.231 150.579 147.796 Q148.774 151.338 148.774 158.467 Q148.774 165.574 150.579 169.139 Q152.408 172.68 156.019 172.68 Q159.653 172.68 161.459 169.139 Q163.288 165.574 163.288 158.467 Q163.288 151.338 161.459 147.796 Q159.653 144.231 156.019 144.231 M156.019 140.528 Q161.829 140.528 164.885 145.134 Q167.964 149.717 167.964 158.467 Q167.964 167.194 164.885 171.801 Q161.829 176.384 156.019 176.384 Q150.209 176.384 147.13 171.801 Q144.075 167.194 144.075 158.467 Q144.075 149.717 147.13 145.134 Q150.209 140.528 156.019 140.528 Z" fill="#000000" fill-rule="nonzero" fill-opacity="1" /><path clip-path="url(#clip380)" d="M29.4065 1046.62 L34.9447 1046.62 Q33.6716 1049.1 33.035 1051.78 Q32.3984 1054.45 32.3984 1057.32 Q32.3984 1061.68 33.7352 1063.87 Q35.072 1066.04 37.7456 1066.04 Q39.7826 1066.04 40.9603 1064.48 Q42.1061 1062.92 43.1565 1058.21 L43.6021 1056.2 Q44.9389 1049.96 47.3897 1047.35 Q49.8086 1044.71 54.1691 1044.71 Q59.1344 1044.71 62.0308 1048.66 Q64.9272 1052.57 64.9272 1059.45 Q64.9272 1062.31 64.3543 1065.43 Q63.8132 1068.52 62.6992 1071.96 L56.6518 1071.96 Q58.3387 1068.71 59.198 1065.56 Q60.0256 1062.41 60.0256 1059.32 Q60.0256 1055.18 58.6251 1052.96 Q57.1929 1050.73 54.6147 1050.73 Q52.2276 1050.73 50.9545 1052.35 Q49.6813 1053.94 48.5037 1059.39 L48.0262 1061.42 Q46.8804 1066.87 44.5251 1069.28 Q42.138 1071.7 38.0002 1071.7 Q32.9713 1071.7 30.2341 1068.14 Q27.4968 1064.57 27.4968 1058.02 Q27.4968 1054.77 27.9743 1051.91 Q28.4517 1049.04 29.4065 1046.62 Z" fill="#000000" fill-rule="nonzero" fill-opacity="1" /><path clip-path="url(#clip380)" d="M44.7161 1004.9 L47.5806 1004.9 L47.5806 1031.82 Q53.6281 1031.44 56.8109 1028.19 Q59.9619 1024.92 59.9619 1019.09 Q59.9619 1015.72 59.1344 1012.57 Q58.3069 1009.38 56.6518 1006.26 L62.1899 1006.26 Q63.5267 1009.41 64.227 1012.72 Q64.9272 1016.04 64.9272 1019.44 Q64.9272 1027.97 59.9619 1032.97 Q54.9967 1037.93 46.5303 1037.93 Q37.7774 1037.93 32.6531 1033.22 Q27.4968 1028.48 27.4968 1020.46 Q27.4968 1013.27 32.1438 1009.1 Q36.7589 1004.9 44.7161 1004.9 M42.9973 1010.75 Q38.1912 1010.82 35.3266 1013.46 Q32.4621 1016.07 32.4621 1020.4 Q32.4621 1025.3 35.2312 1028.26 Q38.0002 1031.19 43.0292 1031.63 L42.9973 1010.75 Z" fill="#000000" fill-rule="nonzero" fill-opacity="1" /><path clip-path="url(#clip380)" d="M35.1993 967.528 Q31.2526 965.332 29.3747 962.277 Q27.4968 959.221 27.4968 955.083 Q27.4968 949.513 31.4117 946.49 Q35.2948 943.466 42.4881 943.466 L64.0042 943.466 L64.0042 949.354 L42.679 949.354 Q37.5546 949.354 35.072 951.169 Q32.5894 952.983 32.5894 956.707 Q32.5894 961.258 35.6131 963.9 Q38.6368 966.542 43.8567 966.542 L64.0042 966.542 L64.0042 972.43 L42.679 972.43 Q37.5228 972.43 35.072 974.244 Q32.5894 976.058 32.5894 979.846 Q32.5894 984.334 35.6449 986.976 Q38.6686 989.617 43.8567 989.617 L64.0042 989.617 L64.0042 995.506 L28.3562 995.506 L28.3562 989.617 L33.8944 989.617 Q30.616 987.612 29.0564 984.811 Q27.4968 982.01 27.4968 978.159 Q27.4968 974.276 29.4702 971.571 Q31.4436 968.833 35.1993 967.528 Z" fill="#000000" fill-rule="nonzero" fill-opacity="1" /><path clip-path="url(#clip380)" d="M28.3562 931.785 L28.3562 925.929 L64.0042 925.929 L64.0042 931.785 L28.3562 931.785 M14.479 931.785 L14.479 925.929 L21.895 925.929 L21.895 931.785 L14.479 931.785 Z" fill="#000000" fill-rule="nonzero" fill-opacity="1" /><path clip-path="url(#clip380)" d="M43.5384 916.635 L43.5384 899.479 L48.7583 899.479 L48.7583 916.635 L43.5384 916.635 Z" fill="#000000" fill-rule="nonzero" fill-opacity="1" /><path clip-path="url(#clip380)" d="M35.1993 862.399 Q31.2526 860.203 29.3747 857.147 Q27.4968 854.092 27.4968 849.954 Q27.4968 844.384 31.4117 841.36 Q35.2948 838.336 42.4881 838.336 L64.0042 838.336 L64.0042 844.225 L42.679 844.225 Q37.5546 844.225 35.072 846.039 Q32.5894 847.853 32.5894 851.577 Q32.5894 856.129 35.6131 858.77 Q38.6368 861.412 43.8567 861.412 L64.0042 861.412 L64.0042 867.3 L42.679 867.3 Q37.5228 867.3 35.072 869.115 Q32.5894 870.929 32.5894 874.716 Q32.5894 879.204 35.6449 881.846 Q38.6686 884.488 43.8567 884.488 L64.0042 884.488 L64.0042 890.376 L28.3562 890.376 L28.3562 884.488 L33.8944 884.488 Q30.616 882.483 29.0564 879.682 Q27.4968 876.881 27.4968 873.03 Q27.4968 869.146 29.4702 866.441 Q31.4436 863.704 35.1993 862.399 Z" fill="#000000" fill-rule="nonzero" fill-opacity="1" /><path clip-path="url(#clip380)" d="M46.0847 810.455 Q46.0847 817.552 47.7079 820.29 Q49.3312 823.027 53.2461 823.027 Q56.3653 823.027 58.2114 820.99 Q60.0256 818.921 60.0256 815.388 Q60.0256 810.518 56.5881 807.59 Q53.1188 804.63 47.3897 804.63 L46.0847 804.63 L46.0847 810.455 M43.6657 798.774 L64.0042 798.774 L64.0042 804.63 L58.5933 804.63 Q61.8398 806.635 63.3994 809.627 Q64.9272 812.619 64.9272 816.948 Q64.9272 822.422 61.8716 825.669 Q58.7843 828.883 53.6281 828.883 Q47.6125 828.883 44.5569 824.873 Q41.5014 820.831 41.5014 812.842 L41.5014 804.63 L40.9285 804.63 Q36.8862 804.63 34.6901 807.304 Q32.4621 809.945 32.4621 814.751 Q32.4621 817.807 33.1941 820.703 Q33.9262 823.6 35.3903 826.273 L29.9795 826.273 Q28.7381 823.059 28.1334 820.035 Q27.4968 817.011 27.4968 814.147 Q27.4968 806.412 31.5072 802.593 Q35.5176 798.774 43.6657 798.774 Z" fill="#000000" fill-rule="nonzero" fill-opacity="1" /><path clip-path="url(#clip380)" d="M28.3562 786.711 L28.3562 780.854 L64.6407 780.854 Q71.452 780.854 74.5076 783.464 Q77.5631 786.042 77.5631 791.803 L77.5631 794.031 L72.5979 794.031 L72.5979 792.471 Q72.5979 789.13 71.0383 787.92 Q69.5105 786.711 64.6407 786.711 L28.3562 786.711 M14.479 786.711 L14.479 780.854 L21.895 780.854 L21.895 786.711 L14.479 786.711 Z" fill="#000000" fill-rule="nonzero" fill-opacity="1" /><path clip-path="url(#clip380)" d="M32.4621 754.787 Q32.4621 759.497 36.1542 762.234 Q39.8145 764.972 46.212 764.972 Q52.6095 764.972 56.3017 762.266 Q59.9619 759.529 59.9619 754.787 Q59.9619 750.108 56.2698 747.37 Q52.5777 744.633 46.212 744.633 Q39.8781 744.633 36.186 747.37 Q32.4621 750.108 32.4621 754.787 M27.4968 754.787 Q27.4968 747.148 32.4621 742.787 Q37.4273 738.427 46.212 738.427 Q54.9649 738.427 59.9619 742.787 Q64.9272 747.148 64.9272 754.787 Q64.9272 762.457 59.9619 766.818 Q54.9649 771.146 46.212 771.146 Q37.4273 771.146 32.4621 766.818 Q27.4968 762.457 27.4968 754.787 Z" fill="#000000" fill-rule="nonzero" fill-opacity="1" /><path clip-path="url(#clip380)" d="M33.8307 708.062 Q33.2578 709.049 33.0032 710.227 Q32.7167 711.372 32.7167 712.773 Q32.7167 717.738 35.9632 720.412 Q39.1779 723.053 45.2253 723.053 L64.0042 723.053 L64.0042 728.942 L28.3562 728.942 L28.3562 723.053 L33.8944 723.053 Q30.6479 721.207 29.0883 718.247 Q27.4968 715.287 27.4968 711.054 Q27.4968 710.449 27.5923 709.717 Q27.656 708.985 27.8151 708.094 L33.8307 708.062 Z" fill="#000000" fill-rule="nonzero" fill-opacity="1" /><path clip-path="url(#clip380)" d="M46.0847 664.998 Q46.0847 672.096 47.7079 674.833 Q49.3312 677.57 53.2461 677.57 Q56.3653 677.57 58.2114 675.533 Q60.0256 673.465 60.0256 669.932 Q60.0256 665.062 56.5881 662.134 Q53.1188 659.174 47.3897 659.174 L46.0847 659.174 L46.0847 664.998 M43.6657 653.317 L64.0042 653.317 L64.0042 659.174 L58.5933 659.174 Q61.8398 661.179 63.3994 664.171 Q64.9272 667.163 64.9272 671.491 Q64.9272 676.966 61.8716 680.212 Q58.7843 683.427 53.6281 683.427 Q47.6125 683.427 44.5569 679.417 Q41.5014 675.374 41.5014 667.385 L41.5014 659.174 L40.9285 659.174 Q36.8862 659.174 34.6901 661.847 Q32.4621 664.489 32.4621 669.295 Q32.4621 672.351 33.1941 675.247 Q33.9262 678.143 35.3903 680.817 L29.9795 680.817 Q28.7381 677.602 28.1334 674.579 Q27.4968 671.555 27.4968 668.69 Q27.4968 660.956 31.5072 657.137 Q35.5176 653.317 43.6657 653.317 Z" fill="#000000" fill-rule="nonzero" fill-opacity="1" /><path clip-path="url(#clip380)" d="M28.3562 611.622 L45.7028 624.512 L64.0042 610.953 L64.0042 617.86 L49.9996 628.236 L64.0042 638.612 L64.0042 645.519 L45.3526 631.674 L28.3562 644.342 L28.3562 637.435 L41.0558 627.982 L28.3562 618.529 L28.3562 611.622 Z" fill="#000000" fill-rule="nonzero" fill-opacity="1" /><path clip-path="url(#clip380)" d="M28.3562 602.678 L28.3562 596.822 L64.0042 596.822 L64.0042 602.678 L28.3562 602.678 M14.479 602.678 L14.479 596.822 L21.895 596.822 L21.895 602.678 L14.479 602.678 Z" fill="#000000" fill-rule="nonzero" fill-opacity="1" /><path clip-path="url(#clip380)" d="M29.4065 561.842 L34.9447 561.842 Q33.6716 564.325 33.035 566.998 Q32.3984 569.672 32.3984 572.536 Q32.3984 576.897 33.7352 579.093 Q35.072 581.257 37.7456 581.257 Q39.7826 581.257 40.9603 579.698 Q42.1061 578.138 43.1565 573.428 L43.6021 571.422 Q44.9389 565.184 47.3897 562.574 Q49.8086 559.932 54.1691 559.932 Q59.1344 559.932 62.0308 563.879 Q64.9272 567.794 64.9272 574.669 Q64.9272 577.533 64.3543 580.653 Q63.8132 583.74 62.6992 587.177 L56.6518 587.177 Q58.3387 583.931 59.198 580.78 Q60.0256 577.629 60.0256 574.542 Q60.0256 570.404 58.6251 568.176 Q57.1929 565.948 54.6147 565.948 Q52.2276 565.948 50.9545 567.571 Q49.6813 569.163 48.5037 574.605 L48.0262 576.642 Q46.8804 582.085 44.5251 584.504 Q42.138 586.923 38.0002 586.923 Q32.9713 586.923 30.2341 583.358 Q27.4968 579.793 27.4968 573.237 Q27.4968 569.99 27.9743 567.125 Q28.4517 564.261 29.4065 561.842 Z" fill="#000000" fill-rule="nonzero" fill-opacity="1" /><path clip-path="url(#clip380)" d="M14.5426 515.818 Q21.8632 520.083 29.0246 522.152 Q36.186 524.221 43.5384 524.221 Q50.8908 524.221 58.1159 522.152 Q65.3091 520.051 72.5979 515.818 L72.5979 520.91 Q65.1182 525.685 57.8931 528.072 Q50.668 530.427 43.5384 530.427 Q36.4406 530.427 29.2474 528.072 Q22.0542 525.717 14.5426 520.91 L14.5426 515.818 Z" fill="#000000" fill-rule="nonzero" fill-opacity="1" /><path clip-path="url(#clip380)" d="M22.818 488.318 L46.4666 497.039 L46.4666 479.565 L22.818 488.318 M16.4842 491.946 L16.4842 484.658 L64.0042 466.547 L64.0042 473.231 L51.8138 477.56 L51.8138 498.981 L64.0042 503.309 L64.0042 510.089 L16.4842 491.946 Z" fill="#000000" fill-rule="nonzero" fill-opacity="1" /><path clip-path="url(#clip380)" d="M16.4842 460.341 L16.4842 453.88 L45.3526 453.88 Q52.9915 453.88 56.3653 451.11 Q59.7073 448.341 59.7073 442.135 Q59.7073 435.96 56.3653 433.191 Q52.9915 430.422 45.3526 430.422 L16.4842 430.422 L16.4842 423.961 L46.1484 423.961 Q55.4423 423.961 60.1847 428.576 Q64.9272 433.159 64.9272 442.135 Q64.9272 451.142 60.1847 455.757 Q55.4423 460.341 46.1484 460.341 L16.4842 460.341 Z" fill="#000000" fill-rule="nonzero" fill-opacity="1" /><path clip-path="url(#clip380)" d="M14.5426 413.075 L14.5426 407.983 Q22.0542 403.209 29.2474 400.853 Q36.4406 398.466 43.5384 398.466 Q50.668 398.466 57.8931 400.853 Q65.1182 403.209 72.5979 407.983 L72.5979 413.075 Q65.3091 408.842 58.1159 406.773 Q50.8908 404.673 43.5384 404.673 Q36.186 404.673 29.0246 406.773 Q21.8632 408.842 14.5426 413.075 Z" fill="#000000" fill-rule="nonzero" fill-opacity="1" /><polyline clip-path="url(#clip382)" style="stroke:#009af9; stroke-linecap:round; stroke-linejoin:round; stroke-width:4; stroke-opacity:1; fill:none" points="264.778,1235.26 266.808,1026.04 268.837,1001.55 270.866,1061.16 272.895,1314.07 274.924,1268.28 276.954,717.152 278.983,918.597 281.012,971.645 283.041,957.764 285.07,915.729 287.1,841.098 289.129,856.709 291.158,977.116 293.187,870.439 295.216,1047.75 297.246,1090.52 299.275,795.308 301.304,1026.33 303.333,960.252 305.362,912.163 307.391,1068.01 309.421,946.451 311.45,754.806 313.479,652.856 315.508,541.52 317.537,554.829 319.567,593.788 321.596,864.33 323.625,723.24 325.654,849.794 327.683,747.978 329.713,776.682 331.742,1060.65 333.771,1031.5 335.8,1007.21 337.829,992.255 339.859,811.335 341.888,942.544 343.917,798.774 345.946,999.966 347.975,755.767 350.005,801.598 352.034,760.258 354.063,783.814 356.092,650.356 358.121,684.475 360.15,1046.53 362.18,952.749 364.209,1044.47 366.238,557.023 368.267,625.963 370.296,451.781 372.326,486.054 374.355,489.218 376.384,383.678 378.413,628.781 380.442,617.761 382.472,880.924 384.501,1030.54 386.53,702.102 388.559,753.512 390.588,1109.24 392.618,1108.09 394.647,1121.75 396.676,1072.49 398.705,1046.59 400.734,1076.41 402.763,1240.76 404.793,1085 406.822,702.291 408.851,974.38 410.88,494.87 412.909,873.693 414.939,873.832 416.968,1109.76 418.997,924.329 421.026,899.1 423.055,996.972 425.085,1213.91 427.114,1300.48 429.143,1020.42 431.172,1103.83 433.201,954.08 435.231,658.97 437.26,1103.99 439.289,951.918 441.318,458.812 443.347,440.373 445.377,630.284 447.406,799.785 449.435,785.308 451.464,956.995 453.493,1053.44 455.522,1140.84 457.552,925.713 459.581,951.748 461.61,1273.06 463.639,1075.3 465.668,1110.07 467.698,783.153 469.727,986.104 471.756,981.341 473.785,974.968 475.814,985.185 477.844,1037.41 479.873,1010.13 481.902,1099.6 483.931,1261.01 485.96,1106.61 487.99,958.106 490.019,682.779 492.048,985.589 494.077,971.088 496.106,1070.62 498.136,1025.7 500.165,974.745 502.194,920.324 504.223,775.922 506.252,809.832 508.281,778.17 510.311,1217.88 512.34,1152.11 514.369,1109.01 516.398,1227.19 518.427,1273.16 520.457,1214.39 522.486,1188.24 524.515,722.416 526.544,1033.54 528.573,935.47 530.603,1244.27 532.632,1039.67 534.661,1045.99 536.69,969.44 538.719,944.916 540.749,894.014 542.778,888.845 544.807,462.941 546.836,701.683 548.865,830.538 550.894,1055.08 552.924,1121.91 554.953,1199.03 556.982,1259.57 559.011,1179.38 561.04,1112.15 563.07,1142.56 565.099,654.995 567.128,653.966 569.157,675.16 571.186,893.641 573.216,999.208 575.245,1104.31 577.274,1115.26 579.303,980.347 581.332,774.677 583.362,773.651 585.391,614.989 587.42,934.83 589.449,676.073 591.478,809.355 593.508,1229.77 595.537,767.986 597.566,798.58 599.595,558.717 601.624,645.474 603.653,513.734 605.683,655.612 607.712,1219.7 609.741,1044.89 611.77,988.626 613.799,926.816 615.829,1064.61 617.858,949.187 619.887,709.677 621.916,892.392 623.945,874.812 625.975,887.025 628.004,808.555 630.033,1110.14 632.062,1145.49 634.091,1213.31 636.121,1099.09 638.15,1177.89 640.179,1287.78 642.208,1289 644.237,1372.58 646.267,1282.84 648.296,1037.63 650.325,1243.57 652.354,1112.55 654.383,1043.6 656.412,737.987 658.442,1096.96 660.471,902.977 662.5,795.338 664.529,930.68 666.558,692.166 668.588,811.993 670.617,923.741 672.646,914.052 674.675,583.61 676.704,623.239 678.734,997.019 680.763,981.236 682.792,1070.41 684.821,1119.43 686.85,1145.78 688.88,1155.43 690.909,1218.8 692.938,1275.46 694.967,1210.2 696.996,1223.61 699.025,1243.94 701.055,1073.67 703.084,819.885 705.113,1064.1 707.142,983.932 709.171,1058.47 711.201,1106.32 713.23,1089.6 715.259,1124.47 717.288,887.848 719.317,625.707 721.347,718.214 723.376,1002.56 725.405,1064.43 727.434,1061.04 729.463,1127.4 731.493,1107.71 733.522,1192.31 735.551,1028.43 737.58,944.586 739.609,968.442 741.639,1094.05 743.668,1230.03 745.697,1221.4 747.726,1366.76 749.755,1084.19 751.784,1052.24 753.814,1057.07 755.843,1336.71 757.872,1175.32 759.901,1182.35 761.93,1105.9 763.96,954.508 765.989,975.092 768.018,824.135 770.047,540.55 772.076,749.482 774.106,710.238 776.135,1002.11 778.164,986.495 780.193,966.189 782.222,788.677 784.252,1010.89 786.281,1028.38 788.31,1031.84 790.339,1007.26 792.368,826.132 794.398,655.36 796.427,681.016 798.456,969.468 800.485,943.816 802.514,901.489 804.543,785.544 806.573,964.096 808.602,1094.43 810.631,1159.89 812.66,1243.87 814.689,1099.43 816.719,1060.99 818.748,870.289 820.777,979.038 822.806,1052.77 824.835,557.343 826.865,484.197 828.894,634.398 830.923,1005.06 832.952,1135.09 834.981,1034.15 837.011,1076.8 839.04,1060.16 841.069,989.53 843.098,1009.21 845.127,1078.78 847.156,1061.09 849.186,890.709 851.215,706.502 853.244,996.147 855.273,1165.56 857.302,1156.86 859.332,1150.53 861.361,1318.35 863.39,1292.29 865.419,1142.71 867.448,1213.92 869.478,993.025 871.507,1000.22 873.536,908.664 875.565,904.858 877.594,962.007 879.624,950.291 881.653,676.704 883.682,937.582 885.711,889.932 887.74,943.757 889.77,878.381 891.799,821.927 893.828,1001.34 895.857,914.426 897.886,920.886 899.915,986.377 901.945,971.121 903.974,718.718 906.003,688.402 908.032,621.518 910.061,522.114 912.091,458.974 914.12,468.22 916.149,954.673 918.178,871.88 920.207,813.065 922.237,851.153 924.266,1072.34 926.295,1118.74 928.324,943.224 930.353,1080.93 932.383,1179.69 934.412,1135.09 936.441,976.963 938.47,739.136 940.499,777.514 942.529,856.521 944.558,871.42 946.587,753.188 948.616,788.994 950.645,774.935 952.674,870.166 954.704,618.284 956.733,849.828 958.762,627.896 960.791,740.986 962.82,888.378 964.85,861.012 966.879,773.725 968.908,570.873 970.937,376.317 972.966,660.245 974.996,715.736 977.025,819.086 979.054,427.765 981.083,922.934 983.112,1315.14 985.142,1257.86 987.171,1345.06 989.2,854.299 991.229,888.489 993.258,991.402 995.287,934.245 997.317,1067.03 999.346,839.255 1001.38,721.869 1003.4,927.328 1005.43,861.332 1007.46,1032.83 1009.49,660.72 1011.52,895.162 1013.55,1153.57 1015.58,1073.4 1017.61,943.509 1019.64,1145.27 1021.67,911.372 1023.7,937.962 1025.73,253.008 1027.75,599.637 1029.78,297.51 1031.81,249.539 1033.84,240.712 1035.87,299.561 1037.9,289.955 1039.93,183.206 1041.96,144.272 1043.99,548.04 1046.02,602.434 1048.05,524.194 1050.08,558.16 1052.1,558.16 1054.13,468.699 1056.16,514.672 1058.19,676.461 1060.22,639.245 1062.25,639.245 1064.28,639.245 1066.31,639.224 1068.34,640.823 1070.37,640.823 1072.4,640.823 1074.43,640.823 1076.46,647.044 1078.48,647.044 1080.51,650.547 1082.54,659.073 1084.57,638.534 1086.6,645.405 1088.63,629.535 1090.66,631.401 1092.69,631.547 1094.72,631.547 1096.75,629.814 1098.78,629.814 1100.81,629.814 1102.83,629.814 1104.86,641.123 1106.89,673.488 1108.92,661.868 1110.95,608.015 1112.98,166.475 1115.01,104.869 1117.04,86.1857 1119.07,232.987 1121.1,759.843 1123.13,663.046 1125.16,628.992 1127.18,484.801 1129.21,656.761 1131.24,529.771 1133.27,310.882 1135.3,440.93 1137.33,536.156 1139.36,783.074 1141.39,923.742 1143.42,801.659 1145.45,1023.69 1147.48,975.647 1149.51,1044.56 1151.54,778.839 1153.56,1029.97 1155.59,1059.2 1157.62,1254.21 1159.65,1303.98 1161.68,1384.24 1163.71,1168.94 1165.74,1100.06 1167.77,1038.93 1169.8,1105.28 1171.83,1126.59 1173.86,1310.97 1175.89,960.419 1177.91,995.422 1179.94,945.18 1181.97,1055.27 1184,1012.89 1186.03,1090.22 1188.06,1234.51 1190.09,1026.6 1192.12,1042.84 1194.15,1037.94 1196.18,998.205 1198.21,753.265 1200.24,702.408 1202.27,423.44 1204.29,380.228 1206.32,381.885 1208.35,634.458 1210.38,467.89 1212.41,594.773 1214.44,767.438 1216.47,782.117 1218.5,665.168 1220.53,486.325 1222.56,986.988 1224.59,1115.87 1226.62,812.502 1228.64,703.952 1230.67,733.766 1232.7,1027.76 1234.73,530.53 1236.76,537.443 1238.79,545.884 1240.82,844.538 1242.85,325.658 1244.88,518.092 1246.91,1004.3 1248.94,952.346 1250.97,979.34 1252.99,976.656 1255.02,985.274 1257.05,1144.79 1259.08,1028.27 1261.11,706.189 1263.14,756.94 1265.17,987.481 1267.2,804.274 1269.23,1035.39 1271.26,1108.91 1273.29,970.143 1275.32,960.535 1277.35,812.06 1279.37,1084.7 1281.4,1175.96 1283.43,1192.07 1285.46,821.411 1287.49,1221.27 1289.52,964.155 1291.55,1097.53 1293.58,892.095 1295.61,1005.45 1297.64,1069.15 1299.67,1038.17 1301.7,870.58 1303.72,912.885 1305.75,488.592 1307.78,561.939 1309.81,425.668 1311.84,371.298 1313.87,865.464 1315.9,838.848 1317.93,821.879 1319.96,618.521 1321.99,651.483 1324.02,1128.39 1326.05,1029.14 1328.07,1076.89 1330.1,1195.71 1332.13,1282.03 1334.16,1112.13 1336.19,1080.4 1338.22,1147.1 1340.25,1275.16 1342.28,1125.21 1344.31,1092.83 1346.34,1222.89 1348.37,1029.58 1350.4,1033.83 1352.43,1050.85 1354.45,961.985 1356.48,916.811 1358.51,930.763 1360.54,930.763 1362.57,930.763 1364.6,930.763 1366.63,1111.25 1368.66,1065.07 1370.69,1050.32 1372.72,696.636 1374.75,701.79 1376.78,1043.73 1378.8,696.65 1380.83,1178.64 1382.86,1026.36 1384.89,1072.78 1386.92,1100.16 1388.95,771.332 1390.98,777.927 1393.01,656.598 1395.04,742.316 1397.07,1007.97 1399.1,1074.2 1401.13,563.45 1403.16,737.059 1405.18,752.021 1407.21,929.275 1409.24,943.62 1411.27,952.427 1413.3,1075.35 1415.33,1212.81 1417.36,1320.87 1419.39,1145.66 1421.42,1178.08 1423.45,1162.16 1425.48,1175.86 1427.51,1101.46 1429.53,1118.27 1431.56,1205.52 1433.59,1164.87 1435.62,1237.17 1437.65,1223.94 1439.68,1184.26 1441.71,1224.53 1443.74,1310.91 1445.77,1005.28 1447.8,1058.83 1449.83,930.116 1451.86,716.501 1453.88,754.632 1455.91,886.072 1457.94,1063.86 1459.97,1022.03 1462,1141.45 1464.03,957.084 1466.06,933.109 1468.09,1218.15 1470.12,925.044 1472.15,1124.87 1474.18,1274.18 1476.21,1233.42 1478.24,959.055 1480.26,1067.79 1482.29,886.76 1484.32,845.247 1486.35,907.628 1488.38,619.258 1490.41,1173.42 1492.44,1085.11 1494.47,1057.09 1496.5,1079.7 1498.53,1082.24 1500.56,1082.24 1502.59,1064.24 1504.61,1192.52 1506.64,1150.01 1508.67,1151.35 1510.7,1148.25 1512.73,890.881 1514.76,995.552 1516.79,739.536 1518.82,970.764 1520.85,730.038 1522.88,810.433 1524.91,1032.54 1526.94,1085.22 1528.96,1073.85 1530.99,764.505 1533.02,829.53 1535.05,797.833 1537.08,782.675 1539.11,839.278 1541.14,893.145 1543.17,930.172 1545.2,724.26 1547.23,886.025 1549.26,793.142 1551.29,953.427 1553.32,996.658 1555.34,860.747 1557.37,1151.64 1559.4,1080.16 1561.43,1069.96 1563.46,1109.72 1565.49,798.317 1567.52,654.415 1569.55,832.084 1571.58,765.064 1573.61,838.883 1575.64,839.845 1577.67,772.321 1579.69,704.246 1581.72,904.573 1583.75,892.48 1585.78,879.691 1587.81,943.248 1589.84,1006.63 1591.87,1083.52 1593.9,1234.82 1595.93,1144.83 1597.96,1066.64 1599.99,1147.1 1602.02,1253.21 1604.05,1207.11 1606.07,1213.31 1608.1,1202.29 1610.13,1110.58 1612.16,1047.4 1614.19,1086.35 1616.22,1086.32 1618.25,1139.96 1620.28,1158.13 1622.31,1108.81 1624.34,1099.28 1626.37,1029.56 1628.4,1052.84 1630.42,1032.35 1632.45,715.47 1634.48,613.734 1636.51,612.299 1638.54,557.638 1640.57,896.338 1642.6,765.784 1644.63,650.459 1646.66,871.612 1648.69,838.187 1650.72,803.915 1652.75,765.364 1654.77,991.259 1656.8,1071.95 1658.83,1042.22 1660.86,952.57 1662.89,975.484 1664.92,1058.72 1666.95,1092.67 1668.98,1102.71 1671.01,1192.8 1673.04,1200.83 1675.07,1051.13 1677.1,1207.3 1679.13,618.417 1681.15,803.085 1683.18,761.774 1685.21,879.141 1687.24,1110.13 1689.27,1182.75 1691.3,1031.86 1693.33,893.915 1695.36,985.731 1697.39,947.602 1699.42,982.32 1701.45,924.509 1703.48,926.206 1705.5,979.408 1707.53,945.327 1709.56,1028.21 1711.59,297.453 1713.62,777.813 1715.65,806.817 1717.68,649.027 1719.71,740.324 1721.74,752.76 1723.77,485.202 1725.8,733.279 1727.83,824.224 1729.85,744.534 1731.88,914.122 1733.91,723.272 1735.94,601.647 1737.97,955.215 1740,547.37 1742.03,398.481 1744.06,357.784 1746.09,961.984 1748.12,486.208 1750.15,708.054 1752.18,432.65 1754.21,456.693 1756.23,715.882 1758.26,862.66 1760.29,1205.28 1762.32,1272.01 1764.35,1272.27 1766.38,1377.49 1768.41,1311.75 1770.44,1096.63 1772.47,1138.88 1774.5,1023.56 1776.53,1159.36 1778.56,1139.99 1780.58,1121.19 1782.61,1111.05 1784.64,644.953 1786.67,977.24 1788.7,983.289 1790.73,873.763 1792.76,996.419 1794.79,1167.36 1796.82,1124.58 1798.85,1003.83 1800.88,973.724 1802.91,841.979 1804.94,808.409 1806.96,873.448 1808.99,949.02 1811.02,557.64 1813.05,765.501 1815.08,757.052 1817.11,971.574 1819.14,956.404 1821.17,958.42 1823.2,958.638 1825.23,849.255 1827.26,820.496 1829.29,1120.86 1831.31,1053.47 1833.34,1016.51 1835.37,488.361 1837.4,455.413 1839.43,307.614 1841.46,320.159 1843.49,315.338 1845.52,318.988 1847.55,688.323 1849.58,679.57 1851.61,822.918 1853.64,750.809 1855.66,972.008 1857.69,1138.4 1859.72,974.897 1861.75,957.204 1863.78,868.637 1865.81,634.053 1867.84,746.756 1869.87,660.178 1871.9,718.324 1873.93,924.33 1875.96,857.399 1877.99,907.075 1880.02,989.407 1882.04,1104.83 1884.07,1071.09 1886.1,621.337 1888.13,493.411 1890.16,931.521 1892.19,831.405 1894.22,475.659 1896.25,976.342 1898.28,795.789 1900.31,1108.14 1902.34,783.535 1904.37,692.939 1906.39,557.222 1908.42,1242.45 1910.45,791.671 1912.48,634.853 1914.51,656.185 1916.54,1102.58 1918.57,1134.31 1920.6,1130.65 1922.63,1016.86 1924.66,1028.82 1926.69,1181.68 1928.72,1144.98 1930.74,904.303 1932.77,866.051 1934.8,880.354 1936.83,754.662 1938.86,859.326 1940.89,916.692 1942.92,1145.29 1944.95,1048.76 1946.98,984.75 1949.01,1045.22 1951.04,1194.77 1953.07,1101.16 1955.1,1167.01 1957.12,1099.98 1959.15,1173.39 1961.18,1079.05 1963.21,1228.9 1965.24,1087.47 1967.27,725.384 1969.3,678.718 1971.33,1033.61 1973.36,1029.67 1975.39,1136.46 1977.42,915.902 1979.45,877.77 1981.47,904.513 1983.5,1070.8 1985.53,1122.18 1987.56,1179.98 1989.59,1134.11 1991.62,1151.39 1993.65,1055.13 1995.68,1111.89 1997.71,307.308 1999.74,689.101 2001.77,555.362 2003.8,1052.67 2005.82,972.918 2007.85,1022.71 2009.88,1084.27 2011.91,1198.69 2013.94,1329.25 2015.97,1295.99 2018,1254.98 2020.03,1170.83 2022.06,1322.01 2024.09,1325.23 2026.12,1222.03 2028.15,1073 2030.18,1066.62 2032.2,1147.76 2034.23,1090.35 2036.26,1102.48 2038.29,648.623 2040.32,954.802 2042.35,1242.86 2044.38,1243.45 2046.41,956.643 2048.44,847.284 2050.47,1086.61 2052.5,1044.14 2054.53,1074.22 2056.55,1016.42 2058.58,944.353 2060.61,672.18 2062.64,1077.69 2064.67,1087.55 2066.7,1070.12 2068.73,748.138 2070.76,892.406 2072.79,841.448 2074.82,828.458 2076.85,725.513 2078.88,1106.35 2080.91,1075.44 2082.93,811.084 2084.96,899.543 2086.99,1177.78 2089.02,1206.74 2091.05,802.243 2093.08,1011.69 2095.11,670.308 2097.14,778.596 2099.17,758.759 2101.2,855.646 2103.23,813.89 2105.26,882.343 2107.28,738.916 2109.31,831.566 2111.34,877.971 2113.37,400.347 2115.4,432.955 2117.43,387.4 2119.46,708.332 2121.49,698.936 2123.52,823.207 2125.55,959.715 2127.58,1035.07 2129.61,812.931 2131.63,1016.83 2133.66,819.82 2135.69,864.128 2137.72,868.857 2139.75,1068.77 2141.78,948.358 2143.81,788.919 2145.84,665.65 2147.87,911.014 2149.9,706.373 2151.93,845.622 2153.96,976.301 2155.99,709.706 2158.01,789.349 2160.04,1077.4 2162.07,1098.8 2164.1,1102.25 2166.13,1141.11 2168.16,836.989 2170.19,995.139 2172.22,1223.03 2174.25,1236.96 2176.28,1147.47 2178.31,1106.18 2180.34,1117.75 2182.36,1117.75 2184.39,1131.14 2186.42,1142.39 2188.45,1074.46 2190.48,1062.19 2192.51,972.641 2194.54,1090.08 2196.57,1126.71 2198.6,1061.99 2200.63,1070.33 2202.66,1290.93 2204.69,1184.19 2206.71,1160.93 2208.74,1184.95 2210.77,1177.51 2212.8,1238.42 2214.83,1296.67 2216.86,1285.88 2218.89,1283.94 2220.92,1308.39 2222.95,974.854 2224.98,959.044 2227.01,1093.05 2229.04,995.374 2231.07,1032.9 2233.09,795.957 2235.12,698.006 2237.15,915.205 2239.18,960.301 2241.21,1367.02 2243.24,1327.14 2245.27,1175.51 2247.3,1145.53 2249.33,1223.79 2251.36,1253.18 2253.39,1254.6 2255.42,1254.6 2257.44,1254.6 2259.47,1222.35 2261.5,1248.5 2263.53,355.932 2265.56,670.173 2267.59,643.708 2269.62,819.332 2271.65,948.872 2273.68,856.213 2275.71,920.087 2277.74,866.525 2279.77,1036.39 2281.8,1028.19 2283.82,1051.51 2285.85,625.891 2287.88,672.563 2289.91,848.676 2291.94,1039.44 "/>
<path clip-path="url(#clip380)" d="M275.59 196.789 L542.899 196.789 L542.899 93.1086 L275.59 93.1086  Z" fill="#ffffff" fill-rule="evenodd" fill-opacity="1"/>
<polyline clip-path="url(#clip380)" style="stroke:#000000; stroke-linecap:round; stroke-linejoin:round; stroke-width:4; stroke-opacity:1; fill:none" points="275.59,196.789 542.899,196.789 542.899,93.1086 275.59,93.1086 275.59,196.789 "/>
<polyline clip-path="url(#clip380)" style="stroke:#009af9; stroke-linecap:round; stroke-linejoin:round; stroke-width:4; stroke-opacity:1; fill:none" points="299.465,144.949 442.718,144.949 "/>
<path clip-path="url(#clip380)" d="M480.436 164.636 Q478.631 169.266 476.918 170.678 Q475.205 172.09 472.334 172.09 L468.932 172.09 L468.932 168.525 L471.432 168.525 Q473.191 168.525 474.163 167.692 Q475.135 166.858 476.316 163.756 L477.08 161.812 L466.594 136.303 L471.108 136.303 L479.209 156.581 L487.311 136.303 L491.825 136.303 L480.436 164.636 Z" fill="#000000" fill-rule="nonzero" fill-opacity="1" /><path clip-path="url(#clip380)" d="M499.117 158.293 L506.756 158.293 L506.756 131.928 L498.445 133.595 L498.445 129.335 L506.709 127.669 L511.385 127.669 L511.385 158.293 L519.024 158.293 L519.024 162.229 L499.117 162.229 L499.117 158.293 Z" fill="#000000" fill-rule="nonzero" fill-opacity="1" /></svg>
