<?xml version="1.0" encoding="utf-8"?>
<svg xmlns="http://www.w3.org/2000/svg" xmlns:xlink="http://www.w3.org/1999/xlink" width="600" height="400" viewBox="0 0 2400 1600">
<defs>
  <clipPath id="clip630">
    <rect x="0" y="0" width="2400" height="1600"/>
  </clipPath>
</defs>
<path clip-path="url(#clip630)" d="M0 1600 L2400 1600 L2400 0 L0 0  Z" fill="#ffffff" fill-rule="evenodd" fill-opacity="1"/>
<defs>
  <clipPath id="clip631">
    <rect x="480" y="0" width="1681" height="1600"/>
  </clipPath>
</defs>
<path clip-path="url(#clip630)" d="M202.737 1423.18 L2352.76 1423.18 L2352.76 47.2441 L202.737 47.2441  Z" fill="#ffffff" fill-rule="evenodd" fill-opacity="1"/>
<defs>
  <clipPath id="clip632">
    <rect x="202" y="47" width="2151" height="1377"/>
  </clipPath>
</defs>
<polyline clip-path="url(#clip632)" style="stroke:#000000; stroke-linecap:round; stroke-linejoin:round; stroke-width:2; stroke-opacity:0.1; fill:none" points="261.556,1423.18 261.556,47.2441 "/>
<polyline clip-path="url(#clip632)" style="stroke:#000000; stroke-linecap:round; stroke-linejoin:round; stroke-width:2; stroke-opacity:0.1; fill:none" points="769.144,1423.18 769.144,47.2441 "/>
<polyline clip-path="url(#clip632)" style="stroke:#000000; stroke-linecap:round; stroke-linejoin:round; stroke-width:2; stroke-opacity:0.1; fill:none" points="1276.73,1423.18 1276.73,47.2441 "/>
<polyline clip-path="url(#clip632)" style="stroke:#000000; stroke-linecap:round; stroke-linejoin:round; stroke-width:2; stroke-opacity:0.1; fill:none" points="1784.32,1423.18 1784.32,47.2441 "/>
<polyline clip-path="url(#clip632)" style="stroke:#000000; stroke-linecap:round; stroke-linejoin:round; stroke-width:2; stroke-opacity:0.1; fill:none" points="2291.91,1423.18 2291.91,47.2441 "/>
<polyline clip-path="url(#clip630)" style="stroke:#000000; stroke-linecap:round; stroke-linejoin:round; stroke-width:4; stroke-opacity:1; fill:none" points="202.737,1423.18 2352.76,1423.18 "/>
<polyline clip-path="url(#clip630)" style="stroke:#000000; stroke-linecap:round; stroke-linejoin:round; stroke-width:4; stroke-opacity:1; fill:none" points="261.556,1423.18 261.556,1404.28 "/>
<polyline clip-path="url(#clip630)" style="stroke:#000000; stroke-linecap:round; stroke-linejoin:round; stroke-width:4; stroke-opacity:1; fill:none" points="769.144,1423.18 769.144,1404.28 "/>
<polyline clip-path="url(#clip630)" style="stroke:#000000; stroke-linecap:round; stroke-linejoin:round; stroke-width:4; stroke-opacity:1; fill:none" points="1276.73,1423.18 1276.73,1404.28 "/>
<polyline clip-path="url(#clip630)" style="stroke:#000000; stroke-linecap:round; stroke-linejoin:round; stroke-width:4; stroke-opacity:1; fill:none" points="1784.32,1423.18 1784.32,1404.28 "/>
<polyline clip-path="url(#clip630)" style="stroke:#000000; stroke-linecap:round; stroke-linejoin:round; stroke-width:4; stroke-opacity:1; fill:none" points="2291.91,1423.18 2291.91,1404.28 "/>
<path clip-path="url(#clip630)" d="M261.556 1454.1 Q257.945 1454.1 256.116 1457.66 Q254.311 1461.2 254.311 1468.33 Q254.311 1475.44 256.116 1479.01 Q257.945 1482.55 261.556 1482.55 Q265.19 1482.55 266.996 1479.01 Q268.824 1475.44 268.824 1468.33 Q268.824 1461.2 266.996 1457.66 Q265.19 1454.1 261.556 1454.1 M261.556 1450.39 Q267.366 1450.39 270.422 1455 Q273.5 1459.58 273.5 1468.33 Q273.5 1477.06 270.422 1481.67 Q267.366 1486.25 261.556 1486.25 Q255.746 1486.25 252.667 1481.67 Q249.612 1477.06 249.612 1468.33 Q249.612 1459.58 252.667 1455 Q255.746 1450.39 261.556 1450.39 Z" fill="#000000" fill-rule="nonzero" fill-opacity="1" /><path clip-path="url(#clip630)" d="M732.836 1481.64 L749.155 1481.64 L749.155 1485.58 L727.211 1485.58 L727.211 1481.64 Q729.873 1478.89 734.456 1474.26 Q739.063 1469.61 740.243 1468.27 Q742.489 1465.74 743.368 1464.01 Q744.271 1462.25 744.271 1460.56 Q744.271 1457.8 742.327 1456.07 Q740.405 1454.33 737.303 1454.33 Q735.104 1454.33 732.651 1455.09 Q730.22 1455.86 727.442 1457.41 L727.442 1452.69 Q730.266 1451.55 732.72 1450.97 Q735.174 1450.39 737.211 1450.39 Q742.581 1450.39 745.776 1453.08 Q748.97 1455.77 748.97 1460.26 Q748.97 1462.39 748.16 1464.31 Q747.373 1466.2 745.266 1468.8 Q744.688 1469.47 741.586 1472.69 Q738.484 1475.88 732.836 1481.64 Z" fill="#000000" fill-rule="nonzero" fill-opacity="1" /><path clip-path="url(#clip630)" d="M759.016 1451.02 L777.373 1451.02 L777.373 1454.96 L763.299 1454.96 L763.299 1463.43 Q764.317 1463.08 765.336 1462.92 Q766.354 1462.73 767.373 1462.73 Q773.16 1462.73 776.539 1465.9 Q779.919 1469.08 779.919 1474.49 Q779.919 1480.07 776.447 1483.17 Q772.975 1486.25 766.655 1486.25 Q764.479 1486.25 762.211 1485.88 Q759.965 1485.51 757.558 1484.77 L757.558 1480.07 Q759.641 1481.2 761.864 1481.76 Q764.086 1482.32 766.563 1482.32 Q770.567 1482.32 772.905 1480.21 Q775.243 1478.1 775.243 1474.49 Q775.243 1470.88 772.905 1468.77 Q770.567 1466.67 766.563 1466.67 Q764.688 1466.67 762.813 1467.08 Q760.961 1467.5 759.016 1468.38 L759.016 1451.02 Z" fill="#000000" fill-rule="nonzero" fill-opacity="1" /><path clip-path="url(#clip630)" d="M799.132 1454.1 Q795.521 1454.1 793.692 1457.66 Q791.886 1461.2 791.886 1468.33 Q791.886 1475.44 793.692 1479.01 Q795.521 1482.55 799.132 1482.55 Q802.766 1482.55 804.572 1479.01 Q806.4 1475.44 806.4 1468.33 Q806.4 1461.2 804.572 1457.66 Q802.766 1454.1 799.132 1454.1 M799.132 1450.39 Q804.942 1450.39 807.998 1455 Q811.076 1459.58 811.076 1468.33 Q811.076 1477.06 807.998 1481.67 Q804.942 1486.25 799.132 1486.25 Q793.322 1486.25 790.243 1481.67 Q787.187 1477.06 787.187 1468.33 Q787.187 1459.58 790.243 1455 Q793.322 1450.39 799.132 1450.39 Z" fill="#000000" fill-rule="nonzero" fill-opacity="1" /><path clip-path="url(#clip630)" d="M1236.35 1451.02 L1254.71 1451.02 L1254.71 1454.96 L1240.63 1454.96 L1240.63 1463.43 Q1241.65 1463.08 1242.67 1462.92 Q1243.69 1462.73 1244.71 1462.73 Q1250.49 1462.73 1253.87 1465.9 Q1257.25 1469.08 1257.25 1474.49 Q1257.25 1480.07 1253.78 1483.17 Q1250.31 1486.25 1243.99 1486.25 Q1241.81 1486.25 1239.54 1485.88 Q1237.3 1485.51 1234.89 1484.77 L1234.89 1480.07 Q1236.97 1481.2 1239.2 1481.76 Q1241.42 1482.32 1243.9 1482.32 Q1247.9 1482.32 1250.24 1480.21 Q1252.58 1478.1 1252.58 1474.49 Q1252.58 1470.88 1250.24 1468.77 Q1247.9 1466.67 1243.9 1466.67 Q1242.02 1466.67 1240.15 1467.08 Q1238.29 1467.5 1236.35 1468.38 L1236.35 1451.02 Z" fill="#000000" fill-rule="nonzero" fill-opacity="1" /><path clip-path="url(#clip630)" d="M1276.46 1454.1 Q1272.85 1454.1 1271.03 1457.66 Q1269.22 1461.2 1269.22 1468.33 Q1269.22 1475.44 1271.03 1479.01 Q1272.85 1482.55 1276.46 1482.55 Q1280.1 1482.55 1281.9 1479.01 Q1283.73 1475.44 1283.73 1468.33 Q1283.73 1461.2 1281.9 1457.66 Q1280.1 1454.1 1276.46 1454.1 M1276.46 1450.39 Q1282.28 1450.39 1285.33 1455 Q1288.41 1459.58 1288.41 1468.33 Q1288.41 1477.06 1285.33 1481.67 Q1282.28 1486.25 1276.46 1486.25 Q1270.65 1486.25 1267.58 1481.67 Q1264.52 1477.06 1264.52 1468.33 Q1264.52 1459.58 1267.58 1455 Q1270.65 1450.39 1276.46 1450.39 Z" fill="#000000" fill-rule="nonzero" fill-opacity="1" /><path clip-path="url(#clip630)" d="M1306.63 1454.1 Q1303.02 1454.1 1301.19 1457.66 Q1299.38 1461.2 1299.38 1468.33 Q1299.38 1475.44 1301.19 1479.01 Q1303.02 1482.55 1306.63 1482.55 Q1310.26 1482.55 1312.07 1479.01 Q1313.9 1475.44 1313.9 1468.33 Q1313.9 1461.2 1312.07 1457.66 Q1310.26 1454.1 1306.63 1454.1 M1306.63 1450.39 Q1312.44 1450.39 1315.49 1455 Q1318.57 1459.58 1318.57 1468.33 Q1318.57 1477.06 1315.49 1481.67 Q1312.44 1486.25 1306.63 1486.25 Q1300.82 1486.25 1297.74 1481.67 Q1294.68 1477.06 1294.68 1468.33 Q1294.68 1459.58 1297.74 1455 Q1300.82 1450.39 1306.63 1450.39 Z" fill="#000000" fill-rule="nonzero" fill-opacity="1" /><path clip-path="url(#clip630)" d="M1742.59 1451.02 L1764.82 1451.02 L1764.82 1453.01 L1752.27 1485.58 L1747.39 1485.58 L1759.19 1454.96 L1742.59 1454.96 L1742.59 1451.02 Z" fill="#000000" fill-rule="nonzero" fill-opacity="1" /><path clip-path="url(#clip630)" d="M1773.98 1451.02 L1792.34 1451.02 L1792.34 1454.96 L1778.27 1454.96 L1778.27 1463.43 Q1779.28 1463.08 1780.3 1462.92 Q1781.32 1462.73 1782.34 1462.73 Q1788.13 1462.73 1791.51 1465.9 Q1794.89 1469.08 1794.89 1474.49 Q1794.89 1480.07 1791.41 1483.17 Q1787.94 1486.25 1781.62 1486.25 Q1779.45 1486.25 1777.18 1485.88 Q1774.93 1485.51 1772.52 1484.77 L1772.52 1480.07 Q1774.61 1481.2 1776.83 1481.76 Q1779.05 1482.32 1781.53 1482.32 Q1785.53 1482.32 1787.87 1480.21 Q1790.21 1478.1 1790.21 1474.49 Q1790.21 1470.88 1787.87 1468.77 Q1785.53 1466.67 1781.53 1466.67 Q1779.65 1466.67 1777.78 1467.08 Q1775.93 1467.5 1773.98 1468.38 L1773.98 1451.02 Z" fill="#000000" fill-rule="nonzero" fill-opacity="1" /><path clip-path="url(#clip630)" d="M1814.1 1454.1 Q1810.49 1454.1 1808.66 1457.66 Q1806.85 1461.2 1806.85 1468.33 Q1806.85 1475.44 1808.66 1479.01 Q1810.49 1482.55 1814.1 1482.55 Q1817.73 1482.55 1819.54 1479.01 Q1821.37 1475.44 1821.37 1468.33 Q1821.37 1461.2 1819.54 1457.66 Q1817.73 1454.1 1814.1 1454.1 M1814.1 1450.39 Q1819.91 1450.39 1822.96 1455 Q1826.04 1459.58 1826.04 1468.33 Q1826.04 1477.06 1822.96 1481.67 Q1819.91 1486.25 1814.1 1486.25 Q1808.29 1486.25 1805.21 1481.67 Q1802.15 1477.06 1802.15 1468.33 Q1802.15 1459.58 1805.21 1455 Q1808.29 1450.39 1814.1 1450.39 Z" fill="#000000" fill-rule="nonzero" fill-opacity="1" /><path clip-path="url(#clip630)" d="M2236.43 1481.64 L2244.07 1481.64 L2244.07 1455.28 L2235.76 1456.95 L2235.76 1452.69 L2244.02 1451.02 L2248.7 1451.02 L2248.7 1481.64 L2256.34 1481.64 L2256.34 1485.58 L2236.43 1485.58 L2236.43 1481.64 Z" fill="#000000" fill-rule="nonzero" fill-opacity="1" /><path clip-path="url(#clip630)" d="M2275.78 1454.1 Q2272.17 1454.1 2270.34 1457.66 Q2268.54 1461.2 2268.54 1468.33 Q2268.54 1475.44 2270.34 1479.01 Q2272.17 1482.55 2275.78 1482.55 Q2279.42 1482.55 2281.22 1479.01 Q2283.05 1475.44 2283.05 1468.33 Q2283.05 1461.2 2281.22 1457.66 Q2279.42 1454.1 2275.78 1454.1 M2275.78 1450.39 Q2281.59 1450.39 2284.65 1455 Q2287.73 1459.58 2287.73 1468.33 Q2287.73 1477.06 2284.65 1481.67 Q2281.59 1486.25 2275.78 1486.25 Q2269.97 1486.25 2266.89 1481.67 Q2263.84 1477.06 2263.84 1468.33 Q2263.84 1459.58 2266.89 1455 Q2269.97 1450.39 2275.78 1450.39 Z" fill="#000000" fill-rule="nonzero" fill-opacity="1" /><path clip-path="url(#clip630)" d="M2305.95 1454.1 Q2302.33 1454.1 2300.51 1457.66 Q2298.7 1461.2 2298.7 1468.33 Q2298.7 1475.44 2300.51 1479.01 Q2302.33 1482.55 2305.95 1482.55 Q2309.58 1482.55 2311.39 1479.01 Q2313.21 1475.44 2313.21 1468.33 Q2313.21 1461.2 2311.39 1457.66 Q2309.58 1454.1 2305.95 1454.1 M2305.95 1450.39 Q2311.76 1450.39 2314.81 1455 Q2317.89 1459.58 2317.89 1468.33 Q2317.89 1477.06 2314.81 1481.67 Q2311.76 1486.25 2305.95 1486.25 Q2300.14 1486.25 2297.06 1481.67 Q2294 1477.06 2294 1468.33 Q2294 1459.58 2297.06 1455 Q2300.14 1450.39 2305.95 1450.39 Z" fill="#000000" fill-rule="nonzero" fill-opacity="1" /><path clip-path="url(#clip630)" d="M2336.11 1454.1 Q2332.5 1454.1 2330.67 1457.66 Q2328.86 1461.2 2328.86 1468.33 Q2328.86 1475.44 2330.67 1479.01 Q2332.5 1482.55 2336.11 1482.55 Q2339.74 1482.55 2341.55 1479.01 Q2343.38 1475.44 2343.38 1468.33 Q2343.38 1461.2 2341.55 1457.66 Q2339.74 1454.1 2336.11 1454.1 M2336.11 1450.39 Q2341.92 1450.39 2344.97 1455 Q2348.05 1459.58 2348.05 1468.33 Q2348.05 1477.06 2344.97 1481.67 Q2341.92 1486.25 2336.11 1486.25 Q2330.3 1486.25 2327.22 1481.67 Q2324.16 1477.06 2324.16 1468.33 Q2324.16 1459.58 2327.22 1455 Q2330.3 1450.39 2336.11 1450.39 Z" fill="#000000" fill-rule="nonzero" fill-opacity="1" /><path clip-path="url(#clip630)" d="M1145.9 1532.4 L1151.75 1532.4 L1151.75 1568.04 L1145.9 1568.04 L1145.9 1532.4 M1145.9 1518.52 L1151.75 1518.52 L1151.75 1525.93 L1145.9 1525.93 L1145.9 1518.52 Z" fill="#000000" fill-rule="nonzero" fill-opacity="1" /><path clip-path="url(#clip630)" d="M1169.8 1522.27 L1169.8 1532.4 L1181.86 1532.4 L1181.86 1536.95 L1169.8 1536.95 L1169.8 1556.3 Q1169.8 1560.66 1170.98 1561.9 Q1172.19 1563.14 1175.85 1563.14 L1181.86 1563.14 L1181.86 1568.04 L1175.85 1568.04 Q1169.07 1568.04 1166.49 1565.53 Q1163.91 1562.98 1163.91 1556.3 L1163.91 1536.95 L1159.61 1536.95 L1159.61 1532.4 L1163.91 1532.4 L1163.91 1522.27 L1169.8 1522.27 Z" fill="#000000" fill-rule="nonzero" fill-opacity="1" /><path clip-path="url(#clip630)" d="M1220.06 1548.76 L1220.06 1551.62 L1193.13 1551.62 Q1193.51 1557.67 1196.76 1560.85 Q1200.04 1564 1205.86 1564 Q1209.24 1564 1212.39 1563.17 Q1215.57 1562.35 1218.69 1560.69 L1218.69 1566.23 Q1215.54 1567.57 1212.23 1568.27 Q1208.92 1568.97 1205.51 1568.97 Q1196.98 1568.97 1191.98 1564 Q1187.02 1559.04 1187.02 1550.57 Q1187.02 1541.82 1191.73 1536.69 Q1196.47 1531.54 1204.49 1531.54 Q1211.69 1531.54 1215.86 1536.18 Q1220.06 1540.8 1220.06 1548.76 M1214.2 1547.04 Q1214.14 1542.23 1211.5 1539.37 Q1208.89 1536.5 1204.56 1536.5 Q1199.66 1536.5 1196.69 1539.27 Q1193.77 1542.04 1193.32 1547.07 L1214.2 1547.04 Z" fill="#000000" fill-rule="nonzero" fill-opacity="1" /><path clip-path="url(#clip630)" d="M1250.33 1537.87 Q1249.34 1537.3 1248.16 1537.04 Q1247.02 1536.76 1245.62 1536.76 Q1240.65 1536.76 1237.98 1540 Q1235.33 1543.22 1235.33 1549.27 L1235.33 1568.04 L1229.45 1568.04 L1229.45 1532.4 L1235.33 1532.4 L1235.33 1537.93 Q1237.18 1534.69 1240.14 1533.13 Q1243.1 1531.54 1247.33 1531.54 Q1247.94 1531.54 1248.67 1531.63 Q1249.4 1531.7 1250.29 1531.85 L1250.33 1537.87 Z" fill="#000000" fill-rule="nonzero" fill-opacity="1" /><path clip-path="url(#clip630)" d="M1272.67 1550.12 Q1265.57 1550.12 1262.83 1551.75 Q1260.1 1553.37 1260.1 1557.29 Q1260.1 1560.4 1262.13 1562.25 Q1264.2 1564.07 1267.74 1564.07 Q1272.61 1564.07 1275.53 1560.63 Q1278.49 1557.16 1278.49 1551.43 L1278.49 1550.12 L1272.67 1550.12 M1284.35 1547.71 L1284.35 1568.04 L1278.49 1568.04 L1278.49 1562.63 Q1276.49 1565.88 1273.5 1567.44 Q1270.51 1568.97 1266.18 1568.97 Q1260.7 1568.97 1257.46 1565.91 Q1254.24 1562.82 1254.24 1557.67 Q1254.24 1551.65 1258.25 1548.6 Q1262.29 1545.54 1270.28 1545.54 L1278.49 1545.54 L1278.49 1544.97 Q1278.49 1540.93 1275.82 1538.73 Q1273.18 1536.5 1268.37 1536.5 Q1265.32 1536.5 1262.42 1537.23 Q1259.52 1537.97 1256.85 1539.43 L1256.85 1534.02 Q1260.07 1532.78 1263.09 1532.17 Q1266.11 1531.54 1268.98 1531.54 Q1276.71 1531.54 1280.53 1535.55 Q1284.35 1539.56 1284.35 1547.71 Z" fill="#000000" fill-rule="nonzero" fill-opacity="1" /><path clip-path="url(#clip630)" d="M1302.21 1522.27 L1302.21 1532.4 L1314.27 1532.4 L1314.27 1536.95 L1302.21 1536.95 L1302.21 1556.3 Q1302.21 1560.66 1303.38 1561.9 Q1304.59 1563.14 1308.25 1563.14 L1314.27 1563.14 L1314.27 1568.04 L1308.25 1568.04 Q1301.47 1568.04 1298.9 1565.53 Q1296.32 1562.98 1296.32 1556.3 L1296.32 1536.95 L1292.02 1536.95 L1292.02 1532.4 L1296.32 1532.4 L1296.32 1522.27 L1302.21 1522.27 Z" fill="#000000" fill-rule="nonzero" fill-opacity="1" /><path clip-path="url(#clip630)" d="M1321.97 1532.4 L1327.83 1532.4 L1327.83 1568.04 L1321.97 1568.04 L1321.97 1532.4 M1321.97 1518.52 L1327.83 1518.52 L1327.83 1525.93 L1321.97 1525.93 L1321.97 1518.52 Z" fill="#000000" fill-rule="nonzero" fill-opacity="1" /><path clip-path="url(#clip630)" d="M1353.9 1536.5 Q1349.19 1536.5 1346.45 1540.19 Q1343.71 1543.85 1343.71 1550.25 Q1343.71 1556.65 1346.42 1560.34 Q1349.15 1564 1353.9 1564 Q1358.57 1564 1361.31 1560.31 Q1364.05 1556.62 1364.05 1550.25 Q1364.05 1543.92 1361.31 1540.23 Q1358.57 1536.5 1353.9 1536.5 M1353.9 1531.54 Q1361.53 1531.54 1365.9 1536.5 Q1370.26 1541.47 1370.26 1550.25 Q1370.26 1559 1365.9 1564 Q1361.53 1568.97 1353.9 1568.97 Q1346.23 1568.97 1341.86 1564 Q1337.54 1559 1337.54 1550.25 Q1337.54 1541.47 1341.86 1536.5 Q1346.23 1531.54 1353.9 1531.54 Z" fill="#000000" fill-rule="nonzero" fill-opacity="1" /><path clip-path="url(#clip630)" d="M1409.6 1546.53 L1409.6 1568.04 L1403.74 1568.04 L1403.74 1546.72 Q1403.74 1541.66 1401.77 1539.14 Q1399.79 1536.63 1395.85 1536.63 Q1391.1 1536.63 1388.37 1539.65 Q1385.63 1542.68 1385.63 1547.9 L1385.63 1568.04 L1379.74 1568.04 L1379.74 1532.4 L1385.63 1532.4 L1385.63 1537.93 Q1387.73 1534.72 1390.56 1533.13 Q1393.43 1531.54 1397.15 1531.54 Q1403.29 1531.54 1406.44 1535.36 Q1409.6 1539.14 1409.6 1546.53 Z" fill="#000000" fill-rule="nonzero" fill-opacity="1" /><polyline clip-path="url(#clip632)" style="stroke:#000000; stroke-linecap:round; stroke-linejoin:round; stroke-width:2; stroke-opacity:0.1; fill:none" points="202.737,1226.94 2352.76,1226.94 "/>
<polyline clip-path="url(#clip632)" style="stroke:#000000; stroke-linecap:round; stroke-linejoin:round; stroke-width:2; stroke-opacity:0.1; fill:none" points="202.737,974.916 2352.76,974.916 "/>
<polyline clip-path="url(#clip632)" style="stroke:#000000; stroke-linecap:round; stroke-linejoin:round; stroke-width:2; stroke-opacity:0.1; fill:none" points="202.737,722.895 2352.76,722.895 "/>
<polyline clip-path="url(#clip632)" style="stroke:#000000; stroke-linecap:round; stroke-linejoin:round; stroke-width:2; stroke-opacity:0.1; fill:none" points="202.737,470.874 2352.76,470.874 "/>
<polyline clip-path="url(#clip632)" style="stroke:#000000; stroke-linecap:round; stroke-linejoin:round; stroke-width:2; stroke-opacity:0.1; fill:none" points="202.737,218.853 2352.76,218.853 "/>
<polyline clip-path="url(#clip630)" style="stroke:#000000; stroke-linecap:round; stroke-linejoin:round; stroke-width:4; stroke-opacity:1; fill:none" points="202.737,1423.18 202.737,47.2441 "/>
<polyline clip-path="url(#clip630)" style="stroke:#000000; stroke-linecap:round; stroke-linejoin:round; stroke-width:4; stroke-opacity:1; fill:none" points="202.737,1226.94 221.634,1226.94 "/>
<polyline clip-path="url(#clip630)" style="stroke:#000000; stroke-linecap:round; stroke-linejoin:round; stroke-width:4; stroke-opacity:1; fill:none" points="202.737,974.916 221.634,974.916 "/>
<polyline clip-path="url(#clip630)" style="stroke:#000000; stroke-linecap:round; stroke-linejoin:round; stroke-width:4; stroke-opacity:1; fill:none" points="202.737,722.895 221.634,722.895 "/>
<polyline clip-path="url(#clip630)" style="stroke:#000000; stroke-linecap:round; stroke-linejoin:round; stroke-width:4; stroke-opacity:1; fill:none" points="202.737,470.874 221.634,470.874 "/>
<polyline clip-path="url(#clip630)" style="stroke:#000000; stroke-linecap:round; stroke-linejoin:round; stroke-width:4; stroke-opacity:1; fill:none" points="202.737,218.853 221.634,218.853 "/>
<path clip-path="url(#clip630)" d="M145.116 1243.5 L145.116 1239.24 Q146.876 1240.07 148.681 1240.51 Q150.487 1240.95 152.223 1240.95 Q156.853 1240.95 159.283 1237.85 Q161.737 1234.73 162.084 1228.38 Q160.741 1230.37 158.681 1231.44 Q156.621 1232.5 154.121 1232.5 Q148.936 1232.5 145.904 1229.38 Q142.894 1226.23 142.894 1220.79 Q142.894 1215.47 146.042 1212.25 Q149.191 1209.03 154.422 1209.03 Q160.417 1209.03 163.565 1213.64 Q166.737 1218.22 166.737 1226.97 Q166.737 1235.14 162.848 1240.03 Q158.982 1244.89 152.431 1244.89 Q150.672 1244.89 148.866 1244.54 Q147.061 1244.19 145.116 1243.5 M154.422 1228.85 Q157.57 1228.85 159.399 1226.69 Q161.251 1224.54 161.251 1220.79 Q161.251 1217.06 159.399 1214.91 Q157.57 1212.74 154.422 1212.74 Q151.274 1212.74 149.422 1214.91 Q147.593 1217.06 147.593 1220.79 Q147.593 1224.54 149.422 1226.69 Q151.274 1228.85 154.422 1228.85 Z" fill="#000000" fill-rule="nonzero" fill-opacity="1" /><path clip-path="url(#clip630)" d="M117.038 988.261 L124.677 988.261 L124.677 961.896 L116.367 963.562 L116.367 959.303 L124.63 957.636 L129.306 957.636 L129.306 988.261 L136.945 988.261 L136.945 992.196 L117.038 992.196 L117.038 988.261 Z" fill="#000000" fill-rule="nonzero" fill-opacity="1" /><path clip-path="url(#clip630)" d="M150.417 988.261 L166.737 988.261 L166.737 992.196 L144.792 992.196 L144.792 988.261 Q147.454 985.507 152.038 980.877 Q156.644 976.224 157.825 974.882 Q160.07 972.358 160.95 970.622 Q161.852 968.863 161.852 967.173 Q161.852 964.419 159.908 962.683 Q157.987 960.946 154.885 960.946 Q152.686 960.946 150.232 961.71 Q147.802 962.474 145.024 964.025 L145.024 959.303 Q147.848 958.169 150.302 957.59 Q152.755 957.011 154.792 957.011 Q160.163 957.011 163.357 959.696 Q166.552 962.382 166.552 966.872 Q166.552 969.002 165.741 970.923 Q164.954 972.821 162.848 975.414 Q162.269 976.085 159.167 979.303 Q156.065 982.497 150.417 988.261 Z" fill="#000000" fill-rule="nonzero" fill-opacity="1" /><path clip-path="url(#clip630)" d="M116.436 736.24 L124.075 736.24 L124.075 709.874 L115.765 711.541 L115.765 707.282 L124.029 705.615 L128.705 705.615 L128.705 736.24 L136.343 736.24 L136.343 740.175 L116.436 740.175 L116.436 736.24 Z" fill="#000000" fill-rule="nonzero" fill-opacity="1" /><path clip-path="url(#clip630)" d="M145.834 705.615 L164.19 705.615 L164.19 709.55 L150.116 709.55 L150.116 718.022 Q151.135 717.675 152.153 717.513 Q153.172 717.328 154.19 717.328 Q159.978 717.328 163.357 720.499 Q166.737 723.671 166.737 729.087 Q166.737 734.666 163.265 737.768 Q159.792 740.846 153.473 740.846 Q151.297 740.846 149.028 740.476 Q146.783 740.106 144.376 739.365 L144.376 734.666 Q146.459 735.8 148.681 736.356 Q150.903 736.911 153.38 736.911 Q157.385 736.911 159.723 734.805 Q162.061 732.698 162.061 729.087 Q162.061 725.476 159.723 723.37 Q157.385 721.263 153.38 721.263 Q151.505 721.263 149.63 721.68 Q147.778 722.096 145.834 722.976 L145.834 705.615 Z" fill="#000000" fill-rule="nonzero" fill-opacity="1" /><path clip-path="url(#clip630)" d="M115.533 484.219 L123.172 484.219 L123.172 457.853 L114.862 459.52 L114.862 455.261 L123.126 453.594 L127.802 453.594 L127.802 484.219 L135.441 484.219 L135.441 488.154 L115.533 488.154 L115.533 484.219 Z" fill="#000000" fill-rule="nonzero" fill-opacity="1" /><path clip-path="url(#clip630)" d="M154.885 471.742 Q151.552 471.742 149.63 473.524 Q147.732 475.307 147.732 478.432 Q147.732 481.557 149.63 483.339 Q151.552 485.121 154.885 485.121 Q158.218 485.121 160.14 483.339 Q162.061 481.534 162.061 478.432 Q162.061 475.307 160.14 473.524 Q158.241 471.742 154.885 471.742 M150.209 469.751 Q147.2 469.01 145.51 466.95 Q143.843 464.89 143.843 461.927 Q143.843 457.784 146.783 455.376 Q149.746 452.969 154.885 452.969 Q160.047 452.969 162.987 455.376 Q165.927 457.784 165.927 461.927 Q165.927 464.89 164.237 466.95 Q162.57 469.01 159.584 469.751 Q162.964 470.538 164.839 472.83 Q166.737 475.122 166.737 478.432 Q166.737 483.455 163.658 486.14 Q160.603 488.825 154.885 488.825 Q149.167 488.825 146.089 486.14 Q143.033 483.455 143.033 478.432 Q143.033 475.122 144.931 472.83 Q146.829 470.538 150.209 469.751 M148.496 462.367 Q148.496 465.052 150.163 466.557 Q151.853 468.061 154.885 468.061 Q157.894 468.061 159.584 466.557 Q161.297 465.052 161.297 462.367 Q161.297 459.682 159.584 458.177 Q157.894 456.673 154.885 456.673 Q151.853 456.673 150.163 458.177 Q148.496 459.682 148.496 462.367 Z" fill="#000000" fill-rule="nonzero" fill-opacity="1" /><path clip-path="url(#clip630)" d="M119.885 232.197 L136.204 232.197 L136.204 236.133 L114.26 236.133 L114.26 232.197 Q116.922 229.443 121.505 224.813 Q126.112 220.16 127.292 218.818 Q129.538 216.295 130.417 214.559 Q131.32 212.799 131.32 211.11 Q131.32 208.355 129.376 206.619 Q127.455 204.883 124.353 204.883 Q122.154 204.883 119.7 205.647 Q117.269 206.411 114.492 207.961 L114.492 203.239 Q117.316 202.105 119.769 201.526 Q122.223 200.948 124.26 200.948 Q129.63 200.948 132.825 203.633 Q136.019 206.318 136.019 210.809 Q136.019 212.938 135.209 214.86 Q134.422 216.758 132.316 219.35 Q131.737 220.022 128.635 223.239 Q125.533 226.434 119.885 232.197 Z" fill="#000000" fill-rule="nonzero" fill-opacity="1" /><path clip-path="url(#clip630)" d="M146.829 232.197 L154.468 232.197 L154.468 205.832 L146.158 207.499 L146.158 203.239 L154.422 201.573 L159.098 201.573 L159.098 232.197 L166.737 232.197 L166.737 236.133 L146.829 236.133 L146.829 232.197 Z" fill="#000000" fill-rule="nonzero" fill-opacity="1" /><path clip-path="url(#clip630)" d="M29.4065 1046.62 L34.9447 1046.62 Q33.6716 1049.1 33.035 1051.78 Q32.3984 1054.45 32.3984 1057.32 Q32.3984 1061.68 33.7352 1063.87 Q35.072 1066.04 37.7456 1066.04 Q39.7826 1066.04 40.9603 1064.48 Q42.1061 1062.92 43.1565 1058.21 L43.6021 1056.2 Q44.9389 1049.96 47.3897 1047.35 Q49.8086 1044.71 54.1691 1044.71 Q59.1344 1044.71 62.0308 1048.66 Q64.9272 1052.57 64.9272 1059.45 Q64.9272 1062.31 64.3543 1065.43 Q63.8132 1068.52 62.6992 1071.96 L56.6518 1071.96 Q58.3387 1068.71 59.198 1065.56 Q60.0256 1062.41 60.0256 1059.32 Q60.0256 1055.18 58.6251 1052.96 Q57.1929 1050.73 54.6147 1050.73 Q52.2276 1050.73 50.9545 1052.35 Q49.6813 1053.94 48.5037 1059.39 L48.0262 1061.42 Q46.8804 1066.87 44.5251 1069.28 Q42.138 1071.7 38.0002 1071.7 Q32.9713 1071.7 30.2341 1068.14 Q27.4968 1064.57 27.4968 1058.02 Q27.4968 1054.77 27.9743 1051.91 Q28.4517 1049.04 29.4065 1046.62 Z" fill="#000000" fill-rule="nonzero" fill-opacity="1" /><path clip-path="url(#clip630)" d="M44.7161 1004.9 L47.5806 1004.9 L47.5806 1031.82 Q53.6281 1031.44 56.8109 1028.19 Q59.9619 1024.92 59.9619 1019.09 Q59.9619 1015.72 59.1344 1012.57 Q58.3069 1009.38 56.6518 1006.26 L62.1899 1006.26 Q63.5267 1009.41 64.227 1012.72 Q64.9272 1016.04 64.9272 1019.44 Q64.9272 1027.97 59.9619 1032.97 Q54.9967 1037.93 46.5303 1037.93 Q37.7774 1037.93 32.6531 1033.22 Q27.4968 1028.48 27.4968 1020.46 Q27.4968 1013.27 32.1438 1009.1 Q36.7589 1004.9 44.7161 1004.9 M42.9973 1010.75 Q38.1912 1010.82 35.3266 1013.46 Q32.4621 1016.07 32.4621 1020.4 Q32.4621 1025.3 35.2312 1028.26 Q38.0002 1031.19 43.0292 1031.63 L42.9973 1010.75 Z" fill="#000000" fill-rule="nonzero" fill-opacity="1" /><path clip-path="url(#clip630)" d="M35.1993 967.528 Q31.2526 965.332 29.3747 962.277 Q27.4968 959.221 27.4968 955.083 Q27.4968 949.513 31.4117 946.49 Q35.2948 943.466 42.4881 943.466 L64.0042 943.466 L64.0042 949.354 L42.679 949.354 Q37.5546 949.354 35.072 951.169 Q32.5894 952.983 32.5894 956.707 Q32.5894 961.258 35.6131 963.9 Q38.6368 966.542 43.8567 966.542 L64.0042 966.542 L64.0042 972.43 L42.679 972.43 Q37.5228 972.43 35.072 974.244 Q32.5894 976.058 32.5894 979.846 Q32.5894 984.334 35.6449 986.976 Q38.6686 989.617 43.8567 989.617 L64.0042 989.617 L64.0042 995.506 L28.3562 995.506 L28.3562 989.617 L33.8944 989.617 Q30.616 987.612 29.0564 984.811 Q27.4968 982.01 27.4968 978.159 Q27.4968 974.276 29.4702 971.571 Q31.4436 968.833 35.1993 967.528 Z" fill="#000000" fill-rule="nonzero" fill-opacity="1" /><path clip-path="url(#clip630)" d="M28.3562 931.785 L28.3562 925.929 L64.0042 925.929 L64.0042 931.785 L28.3562 931.785 M14.479 931.785 L14.479 925.929 L21.895 925.929 L21.895 931.785 L14.479 931.785 Z" fill="#000000" fill-rule="nonzero" fill-opacity="1" /><path clip-path="url(#clip630)" d="M43.5384 916.635 L43.5384 899.479 L48.7583 899.479 L48.7583 916.635 L43.5384 916.635 Z" fill="#000000" fill-rule="nonzero" fill-opacity="1" /><path clip-path="url(#clip630)" d="M35.1993 862.399 Q31.2526 860.203 29.3747 857.147 Q27.4968 854.092 27.4968 849.954 Q27.4968 844.384 31.4117 841.36 Q35.2948 838.336 42.4881 838.336 L64.0042 838.336 L64.0042 844.225 L42.679 844.225 Q37.5546 844.225 35.072 846.039 Q32.5894 847.853 32.5894 851.577 Q32.5894 856.129 35.6131 858.77 Q38.6368 861.412 43.8567 861.412 L64.0042 861.412 L64.0042 867.3 L42.679 867.3 Q37.5228 867.3 35.072 869.115 Q32.5894 870.929 32.5894 874.716 Q32.5894 879.204 35.6449 881.846 Q38.6686 884.488 43.8567 884.488 L64.0042 884.488 L64.0042 890.376 L28.3562 890.376 L28.3562 884.488 L33.8944 884.488 Q30.616 882.483 29.0564 879.682 Q27.4968 876.881 27.4968 873.03 Q27.4968 869.146 29.4702 866.441 Q31.4436 863.704 35.1993 862.399 Z" fill="#000000" fill-rule="nonzero" fill-opacity="1" /><path clip-path="url(#clip630)" d="M46.0847 810.455 Q46.0847 817.552 47.7079 820.29 Q49.3312 823.027 53.2461 823.027 Q56.3653 823.027 58.2114 820.99 Q60.0256 818.921 60.0256 815.388 Q60.0256 810.518 56.5881 807.59 Q53.1188 804.63 47.3897 804.63 L46.0847 804.63 L46.0847 810.455 M43.6657 798.774 L64.0042 798.774 L64.0042 804.63 L58.5933 804.63 Q61.8398 806.635 63.3994 809.627 Q64.9272 812.619 64.9272 816.948 Q64.9272 822.422 61.8716 825.669 Q58.7843 828.883 53.6281 828.883 Q47.6125 828.883 44.5569 824.873 Q41.5014 820.831 41.5014 812.842 L41.5014 804.63 L40.9285 804.63 Q36.8862 804.63 34.6901 807.304 Q32.4621 809.945 32.4621 814.751 Q32.4621 817.807 33.1941 820.703 Q33.9262 823.6 35.3903 826.273 L29.9795 826.273 Q28.7381 823.059 28.1334 820.035 Q27.4968 817.011 27.4968 814.147 Q27.4968 806.412 31.5072 802.593 Q35.5176 798.774 43.6657 798.774 Z" fill="#000000" fill-rule="nonzero" fill-opacity="1" /><path clip-path="url(#clip630)" d="M28.3562 786.711 L28.3562 780.854 L64.6407 780.854 Q71.452 780.854 74.5076 783.464 Q77.5631 786.042 77.5631 791.803 L77.5631 794.031 L72.5979 794.031 L72.5979 792.471 Q72.5979 789.13 71.0383 787.92 Q69.5105 786.711 64.6407 786.711 L28.3562 786.711 M14.479 786.711 L14.479 780.854 L21.895 780.854 L21.895 786.711 L14.479 786.711 Z" fill="#000000" fill-rule="nonzero" fill-opacity="1" /><path clip-path="url(#clip630)" d="M32.4621 754.787 Q32.4621 759.497 36.1542 762.234 Q39.8145 764.972 46.212 764.972 Q52.6095 764.972 56.3017 762.266 Q59.9619 759.529 59.9619 754.787 Q59.9619 750.108 56.2698 747.37 Q52.5777 744.633 46.212 744.633 Q39.8781 744.633 36.186 747.37 Q32.4621 750.108 32.4621 754.787 M27.4968 754.787 Q27.4968 747.148 32.4621 742.787 Q37.4273 738.427 46.212 738.427 Q54.9649 738.427 59.9619 742.787 Q64.9272 747.148 64.9272 754.787 Q64.9272 762.457 59.9619 766.818 Q54.9649 771.146 46.212 771.146 Q37.4273 771.146 32.4621 766.818 Q27.4968 762.457 27.4968 754.787 Z" fill="#000000" fill-rule="nonzero" fill-opacity="1" /><path clip-path="url(#clip630)" d="M33.8307 708.062 Q33.2578 709.049 33.0032 710.227 Q32.7167 711.372 32.7167 712.773 Q32.7167 717.738 35.9632 720.412 Q39.1779 723.053 45.2253 723.053 L64.0042 723.053 L64.0042 728.942 L28.3562 728.942 L28.3562 723.053 L33.8944 723.053 Q30.6479 721.207 29.0883 718.247 Q27.4968 715.287 27.4968 711.054 Q27.4968 710.449 27.5923 709.717 Q27.656 708.985 27.8151 708.094 L33.8307 708.062 Z" fill="#000000" fill-rule="nonzero" fill-opacity="1" /><path clip-path="url(#clip630)" d="M46.0847 664.998 Q46.0847 672.096 47.7079 674.833 Q49.3312 677.57 53.2461 677.57 Q56.3653 677.57 58.2114 675.533 Q60.0256 673.465 60.0256 669.932 Q60.0256 665.062 56.5881 662.134 Q53.1188 659.174 47.3897 659.174 L46.0847 659.174 L46.0847 664.998 M43.6657 653.317 L64.0042 653.317 L64.0042 659.174 L58.5933 659.174 Q61.8398 661.179 63.3994 664.171 Q64.9272 667.163 64.9272 671.491 Q64.9272 676.966 61.8716 680.212 Q58.7843 683.427 53.6281 683.427 Q47.6125 683.427 44.5569 679.417 Q41.5014 675.374 41.5014 667.385 L41.5014 659.174 L40.9285 659.174 Q36.8862 659.174 34.6901 661.847 Q32.4621 664.489 32.4621 669.295 Q32.4621 672.351 33.1941 675.247 Q33.9262 678.143 35.3903 680.817 L29.9795 680.817 Q28.7381 677.602 28.1334 674.579 Q27.4968 671.555 27.4968 668.69 Q27.4968 660.956 31.5072 657.137 Q35.5176 653.317 43.6657 653.317 Z" fill="#000000" fill-rule="nonzero" fill-opacity="1" /><path clip-path="url(#clip630)" d="M28.3562 611.622 L45.7028 624.512 L64.0042 610.953 L64.0042 617.86 L49.9996 628.236 L64.0042 638.612 L64.0042 645.519 L45.3526 631.674 L28.3562 644.342 L28.3562 637.435 L41.0558 627.982 L28.3562 618.529 L28.3562 611.622 Z" fill="#000000" fill-rule="nonzero" fill-opacity="1" /><path clip-path="url(#clip630)" d="M28.3562 602.678 L28.3562 596.822 L64.0042 596.822 L64.0042 602.678 L28.3562 602.678 M14.479 602.678 L14.479 596.822 L21.895 596.822 L21.895 602.678 L14.479 602.678 Z" fill="#000000" fill-rule="nonzero" fill-opacity="1" /><path clip-path="url(#clip630)" d="M29.4065 561.842 L34.9447 561.842 Q33.6716 564.325 33.035 566.998 Q32.3984 569.672 32.3984 572.536 Q32.3984 576.897 33.7352 579.093 Q35.072 581.257 37.7456 581.257 Q39.7826 581.257 40.9603 579.698 Q42.1061 578.138 43.1565 573.428 L43.6021 571.422 Q44.9389 565.184 47.3897 562.574 Q49.8086 559.932 54.1691 559.932 Q59.1344 559.932 62.0308 563.879 Q64.9272 567.794 64.9272 574.669 Q64.9272 577.533 64.3543 580.653 Q63.8132 583.74 62.6992 587.177 L56.6518 587.177 Q58.3387 583.931 59.198 580.78 Q60.0256 577.629 60.0256 574.542 Q60.0256 570.404 58.6251 568.176 Q57.1929 565.948 54.6147 565.948 Q52.2276 565.948 50.9545 567.571 Q49.6813 569.163 48.5037 574.605 L48.0262 576.642 Q46.8804 582.085 44.5251 584.504 Q42.138 586.923 38.0002 586.923 Q32.9713 586.923 30.2341 583.358 Q27.4968 579.793 27.4968 573.237 Q27.4968 569.99 27.9743 567.125 Q28.4517 564.261 29.4065 561.842 Z" fill="#000000" fill-rule="nonzero" fill-opacity="1" /><path clip-path="url(#clip630)" d="M14.5426 515.818 Q21.8632 520.083 29.0246 522.152 Q36.186 524.221 43.5384 524.221 Q50.8908 524.221 58.1159 522.152 Q65.3091 520.051 72.5979 515.818 L72.5979 520.91 Q65.1182 525.685 57.8931 528.072 Q50.668 530.427 43.5384 530.427 Q36.4406 530.427 29.2474 528.072 Q22.0542 525.717 14.5426 520.91 L14.5426 515.818 Z" fill="#000000" fill-rule="nonzero" fill-opacity="1" /><path clip-path="url(#clip630)" d="M22.818 488.318 L46.4666 497.039 L46.4666 479.565 L22.818 488.318 M16.4842 491.946 L16.4842 484.658 L64.0042 466.547 L64.0042 473.231 L51.8138 477.56 L51.8138 498.981 L64.0042 503.309 L64.0042 510.089 L16.4842 491.946 Z" fill="#000000" fill-rule="nonzero" fill-opacity="1" /><path clip-path="url(#clip630)" d="M16.4842 460.341 L16.4842 453.88 L45.3526 453.88 Q52.9915 453.88 56.3653 451.11 Q59.7073 448.341 59.7073 442.135 Q59.7073 435.96 56.3653 433.191 Q52.9915 430.422 45.3526 430.422 L16.4842 430.422 L16.4842 423.961 L46.1484 423.961 Q55.4423 423.961 60.1847 428.576 Q64.9272 433.159 64.9272 442.135 Q64.9272 451.142 60.1847 455.757 Q55.4423 460.341 46.1484 460.341 L16.4842 460.341 Z" fill="#000000" fill-rule="nonzero" fill-opacity="1" /><path clip-path="url(#clip630)" d="M14.5426 413.075 L14.5426 407.983 Q22.0542 403.209 29.2474 400.853 Q36.4406 398.466 43.5384 398.466 Q50.668 398.466 57.8931 400.853 Q65.1182 403.209 72.5979 407.983 L72.5979 413.075 Q65.3091 408.842 58.1159 406.773 Q50.8908 404.673 43.5384 404.673 Q36.186 404.673 29.0246 406.773 Q21.8632 408.842 14.5426 413.075 Z" fill="#000000" fill-rule="nonzero" fill-opacity="1" /><polyline clip-path="url(#clip632)" style="stroke:#009af9; stroke-linecap:round; stroke-linejoin:round; stroke-width:4; stroke-opacity:1; fill:none" points="263.586,992.254 265.617,1164.07 267.647,1066.23 269.677,1094.99 271.708,1118 273.738,1070.05 275.768,1183.44 277.799,1149.31 279.829,1133.42 281.859,1302.79 283.89,929.412 285.92,1000.01 287.951,913.79 289.981,878.449 292.011,669.773 294.042,829.089 296.072,938.511 298.102,1038.15 300.133,1055.47 302.163,1216.16 304.193,775.819 306.224,902.522 308.254,610.024 310.284,953.604 312.315,863.772 314.345,823.851 316.375,595.932 318.406,998.049 320.436,1025.37 322.466,1023.49 324.497,1050.86 326.527,1086.91 328.558,1203.72 330.588,1091.72 332.618,1104.29 334.649,1051.76 336.679,1102.06 338.709,1039.58 340.74,996.54 342.77,1101.53 344.8,855.132 346.831,883.378 348.861,886.794 350.891,837.07 352.922,925.241 354.952,754.692 356.982,929.415 359.013,852.128 361.043,827.749 363.073,1052.66 365.104,1024.69 367.134,864.511 369.165,966.045 371.195,974.467 373.225,941.468 375.256,736.851 377.286,1056.92 379.316,1104.01 381.347,1138.44 383.377,874.821 385.407,1251.33 387.438,1163.94 389.468,1133.96 391.498,914.58 393.529,1196.14 395.559,1165.54 397.589,1076.63 399.62,830.783 401.65,1133.36 403.681,1069.94 405.711,989.731 407.741,985.673 409.772,1016.71 411.802,1239.79 413.832,1075.72 415.863,1114.21 417.893,1167.85 419.923,725.565 421.954,1135.04 423.984,1159.57 426.014,1187.6 428.045,983.35 430.075,567.46 432.105,819.865 434.136,1092.36 436.166,1127.6 438.196,911.335 440.227,1204.64 442.257,1293.62 444.288,1304.72 446.318,1128.99 448.348,1085.4 450.379,1187.52 452.409,1140.27 454.439,1131.99 456.47,1140.02 458.5,987.759 460.53,1311.73 462.561,1142.57 464.591,875.337 466.621,1155.13 468.652,1166.65 470.682,1212.99 472.712,1213.86 474.743,1063.05 476.773,1076.92 478.803,1207.93 480.834,1064.91 482.864,1058.48 484.895,1098.08 486.925,1071.25 488.955,1145.26 490.986,1127.42 493.016,1138.27 495.046,901.992 497.077,1207.31 499.107,1188.49 501.137,1170.33 503.168,940.107 505.198,884.317 507.228,1027.92 509.259,1066.99 511.289,1024.86 513.319,1044.19 515.35,1064.18 517.38,1130.28 519.41,1052.1 521.441,1323.02 523.471,1197.06 525.502,1171.29 527.532,1339.2 529.562,1100.8 531.593,1057.56 533.623,1173.29 535.653,930.003 537.684,948.446 539.714,711.883 541.744,552.239 543.775,755.895 545.805,1006.92 547.835,1059.4 549.866,1038.7 551.896,797.513 553.926,1096.68 555.957,1097.87 557.987,1339.84 560.017,1036.42 562.048,908.142 564.078,969.134 566.109,1032.61 568.139,1027.59 570.169,1003.34 572.2,1049.32 574.23,1037.04 576.26,915.509 578.291,1023.78 580.321,1091.96 582.351,1096.86 584.382,896.254 586.412,1249.95 588.442,1221.62 590.473,1221.26 592.503,1281.64 594.533,1219.66 596.564,1195.42 598.594,832.791 600.624,1191.46 602.655,1218.4 604.685,1220.92 606.716,1176.53 608.746,1173.84 610.776,1057.64 612.807,768.253 614.837,758.201 616.867,828.61 618.898,701.418 620.928,628.619 622.958,715.026 624.989,1081.17 627.019,1061.13 629.049,1183.98 631.08,1189.86 633.11,1277.6 635.14,1191.37 637.171,1173.76 639.201,1131.11 641.231,1171.45 643.262,1107.01 645.292,1098 647.323,1019.26 649.353,977.903 651.383,1161.03 653.414,1070.11 655.444,813.277 657.474,1177.87 659.505,1069.41 661.535,1077.69 663.565,1156.82 665.596,1128.41 667.626,1160.58 669.656,1166.33 671.687,958.266 673.717,986.994 675.747,822.764 677.778,753.508 679.808,1057.68 681.838,1133.86 683.869,1063.48 685.899,1116.95 687.93,1137.33 689.96,904.304 691.99,919.134 694.021,1171.96 696.051,1119.59 698.081,373.914 700.112,1096.42 702.142,905.647 704.172,992.123 706.203,901.339 708.233,1040.78 710.263,929 712.294,888.572 714.324,554.335 716.354,1073.12 718.385,863.914 720.415,938.667 722.446,778.74 724.476,723.238 726.506,748.382 728.537,807.121 730.567,732.339 732.597,858.479 734.628,852.738 736.658,756.986 738.688,753.227 740.719,1108.97 742.749,1290.64 744.779,1118.91 746.81,1176.41 748.84,1088.98 750.87,1181.28 752.901,739.067 754.931,1014.78 756.961,943.492 758.992,859.33 761.022,388.449 763.053,1037.64 765.083,1024.95 767.113,1239.84 769.144,1252.67 771.174,1221.86 773.204,1093.09 775.235,1281.48 777.265,1184.18 779.295,1203.49 781.326,1058.19 783.356,1151.04 785.386,931.228 787.417,930.198 789.447,771.107 791.477,1155.38 793.508,1101.24 795.538,970.99 797.568,860.416 799.599,974.285 801.629,843.639 803.66,1113.17 805.69,946.508 807.72,1046.63 809.751,872.119 811.781,918.915 813.811,902.936 815.842,972.572 817.872,642.09 819.902,637.62 821.933,947.97 823.963,930.561 825.993,891.615 828.024,836.094 830.054,947.327 832.084,1043.7 834.115,1029.86 836.145,836.406 838.175,887.305 840.206,978.797 842.236,1118.23 844.267,1038.07 846.297,1165.27 848.327,934.026 850.358,986.836 852.388,661.403 854.418,650.234 856.449,563.454 858.479,953.02 860.509,888.434 862.54,1154.69 864.57,1084.43 866.6,1042.59 868.631,1174.93 870.661,1354.92 872.691,1262.59 874.722,1234.59 876.752,1237.83 878.782,1185.96 880.813,1152.61 882.843,1163 884.874,1111.43 886.904,1075.22 888.934,1144.94 890.965,1125.61 892.995,1128.65 895.025,1008.93 897.056,1036.05 899.086,871.874 901.116,914.251 903.147,896.786 905.177,889.079 907.207,1135.68 909.238,1055.47 911.268,1162.82 913.298,1206 915.329,1216.02 917.359,1160.77 919.389,1256.75 921.42,1317.66 923.45,1339.73 925.481,1163.17 927.511,1284.2 929.541,1261.72 931.572,1276.76 933.602,1175.31 935.632,1178.17 937.663,1201.46 939.693,1230.09 941.723,1342.93 943.754,1338.21 945.784,1344.66 947.814,1242.12 949.845,1225.44 951.875,1198.21 953.905,1177.17 955.936,1093.23 957.966,1085.74 959.996,1129.13 962.027,1109.37 964.057,989.009 966.088,857.223 968.118,964.788 970.148,1003.91 972.179,677.931 974.209,713.437 976.239,1062.76 978.27,846.787 980.3,824.187 982.33,960.596 984.361,1079.51 986.391,1086.31 988.421,515.687 990.452,1144.85 992.482,942.654 994.512,1153.12 996.543,1182.22 998.573,1148.57 1000.6,1155.95 1002.63,1014.34 1004.66,892.422 1006.69,714.574 1008.72,1002.32 1010.76,1040.25 1012.79,908.636 1014.82,1041.11 1016.85,1086.75 1018.88,1098.05 1020.91,713.067 1022.94,1158.99 1024.97,1159.17 1027,1213.03 1029.03,992.487 1031.06,943.296 1033.09,1234.14 1035.12,1287.22 1037.15,1233.98 1039.18,1343.28 1041.21,1330.59 1043.24,1138.97 1045.27,1290.74 1047.3,976.135 1049.33,1119.63 1051.36,1101.96 1053.39,1091.35 1055.42,1027.29 1057.45,1178.66 1059.48,1085.86 1061.51,754.784 1063.54,557.793 1065.57,791.154 1067.61,561.491 1069.64,813.475 1071.67,778.434 1073.7,911.663 1075.73,905.949 1077.76,995.939 1079.79,1037.52 1081.82,709.002 1083.85,865.528 1085.88,1005.35 1087.91,871.37 1089.94,871.419 1091.97,884.012 1094,1133.82 1096.03,641.506 1098.06,814.524 1100.09,725.795 1102.12,742.347 1104.15,1080.49 1106.18,1198.56 1108.21,1133.09 1110.24,1147.72 1112.27,1114.85 1114.3,1136.36 1116.33,1175.15 1118.36,1210.11 1120.39,776.597 1122.42,926.63 1124.45,1204.82 1126.49,1223.88 1128.52,764.553 1130.55,1169.37 1132.58,1034.54 1134.61,1048.72 1136.64,501.727 1138.67,726.054 1140.7,834.232 1142.73,1020.47 1144.76,878.776 1146.79,1127.01 1148.82,1127.96 1150.85,1012.7 1152.88,1099.89 1154.91,1085.97 1156.94,1099.73 1158.97,1042.44 1161,1068.74 1163.03,247.104 1165.06,747.558 1167.09,815.741 1169.12,808.284 1171.15,1050.26 1173.18,1130.85 1175.21,1095.59 1177.24,1115.87 1179.27,990.091 1181.3,782.292 1183.34,836.514 1185.37,1034.75 1187.4,1040.12 1189.43,936.957 1191.46,947.116 1193.49,922.327 1195.52,931.518 1197.55,697.326 1199.58,809.666 1201.61,753.505 1203.64,890.701 1205.67,1010.3 1207.7,1068.34 1209.73,1093.15 1211.76,970.369 1213.79,797.432 1215.82,773.952 1217.85,914.527 1219.88,863.79 1221.91,741.895 1223.94,742.374 1225.97,799.651 1228,1324.9 1230.03,1204.85 1232.06,1275.49 1234.09,1312.72 1236.12,881.953 1238.15,1048.46 1240.18,749.927 1242.22,1090.13 1244.25,949.928 1246.28,840.947 1248.31,1011.86 1250.34,967.506 1252.37,1087.41 1254.4,1190.47 1256.43,1285.39 1258.46,1239.51 1260.49,1280.08 1262.52,1269.62 1264.55,990.782 1266.58,1029.28 1268.61,1242.93 1270.64,1171.74 1272.67,1240.82 1274.7,920.478 1276.73,1050.13 1278.76,1170.57 1280.79,1137.44 1282.82,1219.94 1284.85,1188.5 1286.88,1182.34 1288.91,1178.32 1290.94,1223.33 1292.97,1176.95 1295,1233.7 1297.03,1248.73 1299.06,1134.92 1301.1,1041.36 1303.13,903.699 1305.16,737.995 1307.19,1053.87 1309.22,962.409 1311.25,837.082 1313.28,1125.85 1315.31,1037.5 1317.34,905.711 1319.37,855.392 1321.4,1043.39 1323.43,1180 1325.46,958.421 1327.49,776.997 1329.52,810.382 1331.55,844.705 1333.58,966.934 1335.61,1026.31 1337.64,977.203 1339.67,957.512 1341.7,953.402 1343.73,1041.42 1345.76,707.049 1347.79,1024.76 1349.82,1049.69 1351.85,1060.56 1353.88,1058.48 1355.91,1066.89 1357.95,1080.79 1359.98,872.278 1362.01,1023.31 1364.04,1057.53 1366.07,977.788 1368.1,1126.8 1370.13,1179.59 1372.16,1047.78 1374.19,1115.9 1376.22,1093.48 1378.25,1046.86 1380.28,1018.52 1382.31,1063.32 1384.34,1049.59 1386.37,1190.98 1388.4,1132.38 1390.43,1111.85 1392.46,1219.99 1394.49,1119.3 1396.52,1213.32 1398.55,1174.66 1400.58,1189.75 1402.61,1057.38 1404.64,1106.4 1406.67,902.49 1408.7,1143.25 1410.73,1186.26 1412.76,1118.47 1414.79,1154.89 1416.83,1147.8 1418.86,1085.57 1420.89,1141.69 1422.92,1183.69 1424.95,1030.86 1426.98,1144.01 1429.01,1023.94 1431.04,1059.23 1433.07,1100.23 1435.1,737.381 1437.13,1053.87 1439.16,1233.35 1441.19,1162.2 1443.22,1285.78 1445.25,1115.08 1447.28,1226.1 1449.31,1171.36 1451.34,1179.42 1453.37,1129.78 1455.4,668.95 1457.43,982.856 1459.46,982.129 1461.49,1079.49 1463.52,1368.03 1465.55,1350.23 1467.58,1334.49 1469.61,1384.24 1471.64,1356.37 1473.68,1300.14 1475.71,1066.43 1477.74,950.25 1479.77,1077.38 1481.8,1127.63 1483.83,776.505 1485.86,787.356 1487.89,470.013 1489.92,575.171 1491.95,953.586 1493.98,937.465 1496.01,832.159 1498.04,503.34 1500.07,493.559 1502.1,833.331 1504.13,840.881 1506.16,1171.21 1508.19,1120.9 1510.22,1097.3 1512.25,757.523 1514.28,1148 1516.31,917.907 1518.34,999.502 1520.37,974.756 1522.4,775.041 1524.43,1014.85 1526.46,1065.4 1528.49,945.173 1530.52,919.586 1532.56,992.28 1534.59,966.375 1536.62,639.352 1538.65,838.496 1540.68,643.243 1542.71,888.997 1544.74,1101.85 1546.77,963.75 1548.8,1070.66 1550.83,1109.21 1552.86,1012.79 1554.89,1098.08 1556.92,1300.03 1558.95,1072.26 1560.98,1019.07 1563.01,991.649 1565.04,775.616 1567.07,611.186 1569.1,692.635 1571.13,769.439 1573.16,1028.4 1575.19,525.354 1577.22,903.631 1579.25,1294.13 1581.28,1129.55 1583.31,1221.27 1585.34,1154.59 1587.37,1023.87 1589.41,1257.61 1591.44,898.846 1593.47,745.083 1595.5,770.587 1597.53,1089.46 1599.56,1095.33 1601.59,1104.72 1603.62,1162.68 1605.65,1273.19 1607.68,1020.35 1609.71,1039.46 1611.74,856.983 1613.77,1072.2 1615.8,979.153 1617.83,853.798 1619.86,618.563 1621.89,750.431 1623.92,883.04 1625.95,971.538 1627.98,1183.66 1630.01,1211.52 1632.04,1205.63 1634.07,930.368 1636.1,1211.55 1638.13,1202.31 1640.16,1232 1642.19,1152.91 1644.22,1317.63 1646.25,1273.02 1648.29,1189 1650.32,1159.81 1652.35,949.497 1654.38,1240.26 1656.41,1107.37 1658.44,1074.91 1660.47,609.941 1662.5,1107.39 1664.53,886.67 1666.56,841.067 1668.59,1013.31 1670.62,919.541 1672.65,975.581 1674.68,983.89 1676.71,1070.55 1678.74,1047.54 1680.77,1034.34 1682.8,1142.68 1684.83,1005.05 1686.86,933.708 1688.89,920.211 1690.92,884.222 1692.95,896.017 1694.98,893.71 1697.01,1112.25 1699.04,1100.17 1701.07,1084.67 1703.1,1040.21 1705.14,1319.28 1707.17,1278.19 1709.2,1131.3 1711.23,1014.15 1713.26,1049.34 1715.29,1059.62 1717.32,1117.99 1719.35,1003.66 1721.38,1129.22 1723.41,1195.94 1725.44,960.892 1727.47,957.355 1729.5,914.452 1731.53,858.082 1733.56,880.857 1735.59,623.087 1737.62,753.523 1739.65,722.305 1741.68,957.166 1743.71,1130.62 1745.74,953.781 1747.77,1022.35 1749.8,970.78 1751.83,938.971 1753.86,1027.58 1755.89,761.039 1757.92,764.434 1759.95,1039.4 1761.98,1153.66 1764.02,729.262 1766.05,805.96 1768.08,852.625 1770.11,690.749 1772.14,888.633 1774.17,478.515 1776.2,496.609 1778.23,618.006 1780.26,882.613 1782.29,676.015 1784.32,663.698 1786.35,1047.82 1788.38,857.749 1790.41,715.065 1792.44,715.51 1794.47,1027.44 1796.5,714.271 1798.53,739.53 1800.56,944.151 1802.59,902.508 1804.62,642.645 1806.65,617.051 1808.68,951.548 1810.71,892.977 1812.74,1095.94 1814.77,964.734 1816.8,893.899 1818.83,956.235 1820.87,1055.77 1822.9,883.794 1824.93,617.03 1826.96,902.203 1828.99,1010.64 1831.02,901.145 1833.05,922.25 1835.08,916.333 1837.11,1172.35 1839.14,990.23 1841.17,855.401 1843.2,718.386 1845.23,536.39 1847.26,517.86 1849.29,602.917 1851.32,1083.35 1853.35,899.083 1855.38,1132.5 1857.41,1112.82 1859.44,768.211 1861.47,431.627 1863.5,506.559 1865.53,1124.84 1867.56,873.418 1869.59,1048.5 1871.62,1032.37 1873.65,1084.08 1875.68,1192.92 1877.71,972.199 1879.75,1235.21 1881.78,1280.86 1883.81,1163.39 1885.84,1163.8 1887.87,1127.16 1889.9,1158.22 1891.93,1247.85 1893.96,1198.08 1895.99,1252.94 1898.02,1085.33 1900.05,879.484 1902.08,1328.3 1904.11,1326.03 1906.14,1307 1908.17,1270.59 1910.2,1339.72 1912.23,1358.13 1914.26,1081.32 1916.29,1116.32 1918.32,1109.23 1920.35,1127.03 1922.38,962.702 1924.41,809.324 1926.44,813.701 1928.47,672.53 1930.5,733.014 1932.53,790.562 1934.56,660.686 1936.59,665.299 1938.63,655.156 1940.66,693.592 1942.69,86.1857 1944.72,672.358 1946.75,869.555 1948.78,778.354 1950.81,978.67 1952.84,1072.06 1954.87,815.674 1956.9,837.862 1958.93,1068.35 1960.96,1134.11 1962.99,1007.56 1965.02,1007.66 1967.05,1028.44 1969.08,1170.18 1971.11,1149.15 1973.14,1173.48 1975.17,1058.99 1977.2,1118.16 1979.23,1247.62 1981.26,809.031 1983.29,1248.81 1985.32,691.479 1987.35,1039.77 1989.38,615.304 1991.41,1179.28 1993.44,1204.02 1995.48,1125.27 1997.51,1139.75 1999.54,1181.24 2001.57,1107.1 2003.6,1142.78 2005.63,1129.44 2007.66,1112.19 2009.69,997.663 2011.72,899.871 2013.75,858.621 2015.78,875.793 2017.81,765.723 2019.84,950.096 2021.87,986.348 2023.9,992.174 2025.93,965.31 2027.96,1121.88 2029.99,1088 2032.02,1106.22 2034.05,1113.54 2036.08,653.819 2038.11,938.55 2040.14,1001.15 2042.17,1166.81 2044.2,1223.83 2046.23,1110.32 2048.26,1097.67 2050.29,1129.35 2052.32,1134.41 2054.36,693.472 2056.39,688.435 2058.42,837.131 2060.45,904.975 2062.48,704.861 2064.51,980.103 2066.54,771.011 2068.57,864.245 2070.6,815.679 2072.63,1148.23 2074.66,1055.14 2076.69,1055.38 2078.72,845.447 2080.75,587.184 2082.78,839.991 2084.81,1100.86 2086.84,927.012 2088.87,941.907 2090.9,732.905 2092.93,853.36 2094.96,739.243 2096.99,1103.35 2099.02,1006.41 2101.05,873.024 2103.08,747.122 2105.11,655.114 2107.14,863.561 2109.17,1007.27 2111.21,869.437 2113.24,936.459 2115.27,674.801 2117.3,990.153 2119.33,1011.36 2121.36,1036.1 2123.39,967.549 2125.42,1005.99 2127.45,1034.65 2129.48,1137.65 2131.51,1167.98 2133.54,1165.53 2135.57,1164.67 2137.6,1155.67 2139.63,1255.23 2141.66,1027.91 2143.69,1163.66 2145.72,1128.05 2147.75,1150.97 2149.78,1099.45 2151.81,1274.82 2153.84,996.642 2155.87,1013.55 2157.9,1066.18 2159.93,1068.2 2161.96,848.842 2163.99,1050.51 2166.02,1102.69 2168.05,1186.83 2170.09,1164.62 2172.12,756.523 2174.15,1025.03 2176.18,1102.88 2178.21,902.661 2180.24,1152.98 2182.27,977.743 2184.3,812.75 2186.33,754.814 2188.36,849.042 2190.39,796.974 2192.42,892.976 2194.45,840.914 2196.48,745.467 2198.51,626.522 2200.54,1039.03 2202.57,1235.82 2204.6,1169.64 2206.63,1149.84 2208.66,1132.27 2210.69,1130.05 2212.72,1188.21 2214.75,1266.1 2216.78,1216.43 2218.81,1191.87 2220.84,1269.66 2222.87,1222.67 2224.9,985.988 2226.94,1175.9 2228.97,1204.42 2231,1202.17 2233.03,1240.49 2235.06,1338.62 2237.09,1193.72 2239.12,1239.44 2241.15,1132.55 2243.18,1097.74 2245.21,1172.18 2247.24,1128.56 2249.27,1087.8 2251.3,1081.11 2253.33,1129.24 2255.36,1105.06 2257.39,1124.76 2259.42,949.073 2261.45,915.265 2263.48,635.554 2265.51,468.885 2267.54,953.326 2269.57,709.749 2271.6,792.993 2273.63,699.103 2275.66,371.716 2277.69,751.855 2279.72,762.254 2281.75,795.577 2283.78,1029.4 2285.82,995.631 2287.85,1026.7 2289.88,1026.8 2291.91,943.91 "/>
<path clip-path="url(#clip630)" d="M274.404 196.789 L541.836 196.789 L541.836 93.1086 L274.404 93.1086  Z" fill="#ffffff" fill-rule="evenodd" fill-opacity="1"/>
<polyline clip-path="url(#clip630)" style="stroke:#000000; stroke-linecap:round; stroke-linejoin:round; stroke-width:4; stroke-opacity:1; fill:none" points="274.404,196.789 541.836,196.789 541.836,93.1086 274.404,93.1086 274.404,196.789 "/>
<polyline clip-path="url(#clip630)" style="stroke:#009af9; stroke-linecap:round; stroke-linejoin:round; stroke-width:4; stroke-opacity:1; fill:none" points="298.293,144.949 441.628,144.949 "/>
<path clip-path="url(#clip630)" d="M479.359 164.636 Q477.554 169.266 475.841 170.678 Q474.128 172.09 471.258 172.09 L467.855 172.09 L467.855 168.525 L470.355 168.525 Q472.114 168.525 473.086 167.692 Q474.058 166.858 475.239 163.756 L476.003 161.812 L465.517 136.303 L470.031 136.303 L478.133 156.581 L486.234 136.303 L490.748 136.303 L479.359 164.636 Z" fill="#000000" fill-rule="nonzero" fill-opacity="1" /><path clip-path="url(#clip630)" d="M498.04 158.293 L505.679 158.293 L505.679 131.928 L497.369 133.595 L497.369 129.335 L505.632 127.669 L510.308 127.669 L510.308 158.293 L517.947 158.293 L517.947 162.229 L498.04 162.229 L498.04 158.293 Z" fill="#000000" fill-rule="nonzero" fill-opacity="1" /></svg>
