<?xml version="1.0" encoding="utf-8"?>
<svg xmlns="http://www.w3.org/2000/svg" xmlns:xlink="http://www.w3.org/1999/xlink" width="600" height="400" viewBox="0 0 2400 1600">
<defs>
  <clipPath id="clip600">
    <rect x="0" y="0" width="2400" height="1600"/>
  </clipPath>
</defs>
<path clip-path="url(#clip600)" d="M0 1600 L2400 1600 L2400 0 L0 0  Z" fill="#ffffff" fill-rule="evenodd" fill-opacity="1"/>
<defs>
  <clipPath id="clip601">
    <rect x="480" y="0" width="1681" height="1600"/>
  </clipPath>
</defs>
<path clip-path="url(#clip600)" d="M255.977 1423.18 L2352.76 1423.18 L2352.76 47.2441 L255.977 47.2441  Z" fill="#ffffff" fill-rule="evenodd" fill-opacity="1"/>
<defs>
  <clipPath id="clip602">
    <rect x="255" y="47" width="2098" height="1377"/>
  </clipPath>
</defs>
<polyline clip-path="url(#clip602)" style="stroke:#000000; stroke-linecap:round; stroke-linejoin:round; stroke-width:2; stroke-opacity:0.1; fill:none" points="311.356,1423.18 311.356,47.2441 "/>
<polyline clip-path="url(#clip602)" style="stroke:#000000; stroke-linecap:round; stroke-linejoin:round; stroke-width:2; stroke-opacity:0.1; fill:none" points="707.767,1423.18 707.767,47.2441 "/>
<polyline clip-path="url(#clip602)" style="stroke:#000000; stroke-linecap:round; stroke-linejoin:round; stroke-width:2; stroke-opacity:0.1; fill:none" points="1104.18,1423.18 1104.18,47.2441 "/>
<polyline clip-path="url(#clip602)" style="stroke:#000000; stroke-linecap:round; stroke-linejoin:round; stroke-width:2; stroke-opacity:0.1; fill:none" points="1500.59,1423.18 1500.59,47.2441 "/>
<polyline clip-path="url(#clip602)" style="stroke:#000000; stroke-linecap:round; stroke-linejoin:round; stroke-width:2; stroke-opacity:0.1; fill:none" points="1897,1423.18 1897,47.2441 "/>
<polyline clip-path="url(#clip602)" style="stroke:#000000; stroke-linecap:round; stroke-linejoin:round; stroke-width:2; stroke-opacity:0.1; fill:none" points="2293.41,1423.18 2293.41,47.2441 "/>
<polyline clip-path="url(#clip600)" style="stroke:#000000; stroke-linecap:round; stroke-linejoin:round; stroke-width:4; stroke-opacity:1; fill:none" points="255.977,1423.18 2352.76,1423.18 "/>
<polyline clip-path="url(#clip600)" style="stroke:#000000; stroke-linecap:round; stroke-linejoin:round; stroke-width:4; stroke-opacity:1; fill:none" points="311.356,1423.18 311.356,1404.28 "/>
<polyline clip-path="url(#clip600)" style="stroke:#000000; stroke-linecap:round; stroke-linejoin:round; stroke-width:4; stroke-opacity:1; fill:none" points="707.767,1423.18 707.767,1404.28 "/>
<polyline clip-path="url(#clip600)" style="stroke:#000000; stroke-linecap:round; stroke-linejoin:round; stroke-width:4; stroke-opacity:1; fill:none" points="1104.18,1423.18 1104.18,1404.28 "/>
<polyline clip-path="url(#clip600)" style="stroke:#000000; stroke-linecap:round; stroke-linejoin:round; stroke-width:4; stroke-opacity:1; fill:none" points="1500.59,1423.18 1500.59,1404.28 "/>
<polyline clip-path="url(#clip600)" style="stroke:#000000; stroke-linecap:round; stroke-linejoin:round; stroke-width:4; stroke-opacity:1; fill:none" points="1897,1423.18 1897,1404.28 "/>
<polyline clip-path="url(#clip600)" style="stroke:#000000; stroke-linecap:round; stroke-linejoin:round; stroke-width:4; stroke-opacity:1; fill:none" points="2293.41,1423.18 2293.41,1404.28 "/>
<path clip-path="url(#clip600)" d="M311.356 1454.1 Q307.745 1454.1 305.916 1457.66 Q304.111 1461.2 304.111 1468.33 Q304.111 1475.44 305.916 1479.01 Q307.745 1482.55 311.356 1482.55 Q314.99 1482.55 316.796 1479.01 Q318.624 1475.44 318.624 1468.33 Q318.624 1461.2 316.796 1457.66 Q314.99 1454.1 311.356 1454.1 M311.356 1450.39 Q317.166 1450.39 320.222 1455 Q323.3 1459.58 323.3 1468.33 Q323.3 1477.06 320.222 1481.67 Q317.166 1486.25 311.356 1486.25 Q305.546 1486.25 302.467 1481.67 Q299.411 1477.06 299.411 1468.33 Q299.411 1459.58 302.467 1455 Q305.546 1450.39 311.356 1450.39 Z" fill="#000000" fill-rule="nonzero" fill-opacity="1" /><path clip-path="url(#clip600)" d="M667.374 1481.64 L675.013 1481.64 L675.013 1455.28 L666.703 1456.95 L666.703 1452.69 L674.967 1451.02 L679.642 1451.02 L679.642 1481.64 L687.281 1481.64 L687.281 1485.58 L667.374 1485.58 L667.374 1481.64 Z" fill="#000000" fill-rule="nonzero" fill-opacity="1" /><path clip-path="url(#clip600)" d="M706.726 1454.1 Q703.115 1454.1 701.286 1457.66 Q699.48 1461.2 699.48 1468.33 Q699.48 1475.44 701.286 1479.01 Q703.115 1482.55 706.726 1482.55 Q710.36 1482.55 712.165 1479.01 Q713.994 1475.44 713.994 1468.33 Q713.994 1461.2 712.165 1457.66 Q710.36 1454.1 706.726 1454.1 M706.726 1450.39 Q712.536 1450.39 715.591 1455 Q718.67 1459.58 718.67 1468.33 Q718.67 1477.06 715.591 1481.67 Q712.536 1486.25 706.726 1486.25 Q700.915 1486.25 697.837 1481.67 Q694.781 1477.06 694.781 1468.33 Q694.781 1459.58 697.837 1455 Q700.915 1450.39 706.726 1450.39 Z" fill="#000000" fill-rule="nonzero" fill-opacity="1" /><path clip-path="url(#clip600)" d="M736.888 1454.1 Q733.276 1454.1 731.448 1457.66 Q729.642 1461.2 729.642 1468.33 Q729.642 1475.44 731.448 1479.01 Q733.276 1482.55 736.888 1482.55 Q740.522 1482.55 742.327 1479.01 Q744.156 1475.44 744.156 1468.33 Q744.156 1461.2 742.327 1457.66 Q740.522 1454.1 736.888 1454.1 M736.888 1450.39 Q742.698 1450.39 745.753 1455 Q748.832 1459.58 748.832 1468.33 Q748.832 1477.06 745.753 1481.67 Q742.698 1486.25 736.888 1486.25 Q731.077 1486.25 727.999 1481.67 Q724.943 1477.06 724.943 1468.33 Q724.943 1459.58 727.999 1455 Q731.077 1450.39 736.888 1450.39 Z" fill="#000000" fill-rule="nonzero" fill-opacity="1" /><path clip-path="url(#clip600)" d="M1067.87 1481.64 L1084.19 1481.64 L1084.19 1485.58 L1062.25 1485.58 L1062.25 1481.64 Q1064.91 1478.89 1069.49 1474.26 Q1074.1 1469.61 1075.28 1468.27 Q1077.52 1465.74 1078.4 1464.01 Q1079.31 1462.25 1079.31 1460.56 Q1079.31 1457.8 1077.36 1456.07 Q1075.44 1454.33 1072.34 1454.33 Q1070.14 1454.33 1067.69 1455.09 Q1065.26 1455.86 1062.48 1457.41 L1062.48 1452.69 Q1065.3 1451.55 1067.76 1450.97 Q1070.21 1450.39 1072.25 1450.39 Q1077.62 1450.39 1080.81 1453.08 Q1084.01 1455.77 1084.01 1460.26 Q1084.01 1462.39 1083.2 1464.31 Q1082.41 1466.2 1080.3 1468.8 Q1079.72 1469.47 1076.62 1472.69 Q1073.52 1475.88 1067.87 1481.64 Z" fill="#000000" fill-rule="nonzero" fill-opacity="1" /><path clip-path="url(#clip600)" d="M1104.01 1454.1 Q1100.39 1454.1 1098.57 1457.66 Q1096.76 1461.2 1096.76 1468.33 Q1096.76 1475.44 1098.57 1479.01 Q1100.39 1482.55 1104.01 1482.55 Q1107.64 1482.55 1109.44 1479.01 Q1111.27 1475.44 1111.27 1468.33 Q1111.27 1461.2 1109.44 1457.66 Q1107.64 1454.1 1104.01 1454.1 M1104.01 1450.39 Q1109.82 1450.39 1112.87 1455 Q1115.95 1459.58 1115.95 1468.33 Q1115.95 1477.06 1112.87 1481.67 Q1109.82 1486.25 1104.01 1486.25 Q1098.19 1486.25 1095.12 1481.67 Q1092.06 1477.06 1092.06 1468.33 Q1092.06 1459.58 1095.12 1455 Q1098.19 1450.39 1104.01 1450.39 Z" fill="#000000" fill-rule="nonzero" fill-opacity="1" /><path clip-path="url(#clip600)" d="M1134.17 1454.1 Q1130.56 1454.1 1128.73 1457.66 Q1126.92 1461.2 1126.92 1468.33 Q1126.92 1475.44 1128.73 1479.01 Q1130.56 1482.55 1134.17 1482.55 Q1137.8 1482.55 1139.61 1479.01 Q1141.44 1475.44 1141.44 1468.33 Q1141.44 1461.2 1139.61 1457.66 Q1137.8 1454.1 1134.17 1454.1 M1134.17 1450.39 Q1139.98 1450.39 1143.03 1455 Q1146.11 1459.58 1146.11 1468.33 Q1146.11 1477.06 1143.03 1481.67 Q1139.98 1486.25 1134.17 1486.25 Q1128.36 1486.25 1125.28 1481.67 Q1122.22 1477.06 1122.22 1468.33 Q1122.22 1459.58 1125.28 1455 Q1128.36 1450.39 1134.17 1450.39 Z" fill="#000000" fill-rule="nonzero" fill-opacity="1" /><path clip-path="url(#clip600)" d="M1474.35 1466.95 Q1477.71 1467.66 1479.58 1469.93 Q1481.48 1472.2 1481.48 1475.53 Q1481.48 1480.65 1477.96 1483.45 Q1474.44 1486.25 1467.96 1486.25 Q1465.79 1486.25 1463.47 1485.81 Q1461.18 1485.39 1458.73 1484.54 L1458.73 1480.02 Q1460.67 1481.16 1462.99 1481.74 Q1465.3 1482.32 1467.82 1482.32 Q1472.22 1482.32 1474.51 1480.58 Q1476.83 1478.84 1476.83 1475.53 Q1476.83 1472.48 1474.68 1470.77 Q1472.55 1469.03 1468.73 1469.03 L1464.7 1469.03 L1464.7 1465.19 L1468.91 1465.19 Q1472.36 1465.19 1474.19 1463.82 Q1476.02 1462.43 1476.02 1459.84 Q1476.02 1457.18 1474.12 1455.77 Q1472.25 1454.33 1468.73 1454.33 Q1466.81 1454.33 1464.61 1454.75 Q1462.41 1455.16 1459.77 1456.04 L1459.77 1451.88 Q1462.43 1451.14 1464.75 1450.77 Q1467.08 1450.39 1469.14 1450.39 Q1474.47 1450.39 1477.57 1452.83 Q1480.67 1455.23 1480.67 1459.35 Q1480.67 1462.22 1479.03 1464.21 Q1477.38 1466.18 1474.35 1466.95 Z" fill="#000000" fill-rule="nonzero" fill-opacity="1" /><path clip-path="url(#clip600)" d="M1500.35 1454.1 Q1496.74 1454.1 1494.91 1457.66 Q1493.1 1461.2 1493.1 1468.33 Q1493.1 1475.44 1494.91 1479.01 Q1496.74 1482.55 1500.35 1482.55 Q1503.98 1482.55 1505.79 1479.01 Q1507.62 1475.44 1507.62 1468.33 Q1507.62 1461.2 1505.79 1457.66 Q1503.98 1454.1 1500.35 1454.1 M1500.35 1450.39 Q1506.16 1450.39 1509.21 1455 Q1512.29 1459.58 1512.29 1468.33 Q1512.29 1477.06 1509.21 1481.67 Q1506.16 1486.25 1500.35 1486.25 Q1494.54 1486.25 1491.46 1481.67 Q1488.4 1477.06 1488.4 1468.33 Q1488.4 1459.58 1491.46 1455 Q1494.54 1450.39 1500.35 1450.39 Z" fill="#000000" fill-rule="nonzero" fill-opacity="1" /><path clip-path="url(#clip600)" d="M1530.51 1454.1 Q1526.9 1454.1 1525.07 1457.66 Q1523.26 1461.2 1523.26 1468.33 Q1523.26 1475.44 1525.07 1479.01 Q1526.9 1482.55 1530.51 1482.55 Q1534.14 1482.55 1535.95 1479.01 Q1537.78 1475.44 1537.78 1468.33 Q1537.78 1461.2 1535.95 1457.66 Q1534.14 1454.1 1530.51 1454.1 M1530.51 1450.39 Q1536.32 1450.39 1539.37 1455 Q1542.45 1459.58 1542.45 1468.33 Q1542.45 1477.06 1539.37 1481.67 Q1536.32 1486.25 1530.51 1486.25 Q1524.7 1486.25 1521.62 1481.67 Q1518.56 1477.06 1518.56 1468.33 Q1518.56 1459.58 1521.62 1455 Q1524.7 1450.39 1530.51 1450.39 Z" fill="#000000" fill-rule="nonzero" fill-opacity="1" /><path clip-path="url(#clip600)" d="M1870.09 1455.09 L1858.29 1473.54 L1870.09 1473.54 L1870.09 1455.09 M1868.87 1451.02 L1874.74 1451.02 L1874.74 1473.54 L1879.68 1473.54 L1879.68 1477.43 L1874.74 1477.43 L1874.74 1485.58 L1870.09 1485.58 L1870.09 1477.43 L1854.49 1477.43 L1854.49 1472.92 L1868.87 1451.02 Z" fill="#000000" fill-rule="nonzero" fill-opacity="1" /><path clip-path="url(#clip600)" d="M1897.41 1454.1 Q1893.8 1454.1 1891.97 1457.66 Q1890.16 1461.2 1890.16 1468.33 Q1890.16 1475.44 1891.97 1479.01 Q1893.8 1482.55 1897.41 1482.55 Q1901.04 1482.55 1902.85 1479.01 Q1904.68 1475.44 1904.68 1468.33 Q1904.68 1461.2 1902.85 1457.66 Q1901.04 1454.1 1897.41 1454.1 M1897.41 1450.39 Q1903.22 1450.39 1906.27 1455 Q1909.35 1459.58 1909.35 1468.33 Q1909.35 1477.06 1906.27 1481.67 Q1903.22 1486.25 1897.41 1486.25 Q1891.6 1486.25 1888.52 1481.67 Q1885.46 1477.06 1885.46 1468.33 Q1885.46 1459.58 1888.52 1455 Q1891.6 1450.39 1897.41 1450.39 Z" fill="#000000" fill-rule="nonzero" fill-opacity="1" /><path clip-path="url(#clip600)" d="M1927.57 1454.1 Q1923.96 1454.1 1922.13 1457.66 Q1920.32 1461.2 1920.32 1468.33 Q1920.32 1475.44 1922.13 1479.01 Q1923.96 1482.55 1927.57 1482.55 Q1931.2 1482.55 1933.01 1479.01 Q1934.84 1475.44 1934.84 1468.33 Q1934.84 1461.2 1933.01 1457.66 Q1931.2 1454.1 1927.57 1454.1 M1927.57 1450.39 Q1933.38 1450.39 1936.43 1455 Q1939.51 1459.58 1939.51 1468.33 Q1939.51 1477.06 1936.43 1481.67 Q1933.38 1486.25 1927.57 1486.25 Q1921.76 1486.25 1918.68 1481.67 Q1915.62 1477.06 1915.62 1468.33 Q1915.62 1459.58 1918.68 1455 Q1921.76 1450.39 1927.57 1450.39 Z" fill="#000000" fill-rule="nonzero" fill-opacity="1" /><path clip-path="url(#clip600)" d="M2253.03 1451.02 L2271.39 1451.02 L2271.39 1454.96 L2257.31 1454.96 L2257.31 1463.43 Q2258.33 1463.08 2259.35 1462.92 Q2260.37 1462.73 2261.39 1462.73 Q2267.17 1462.73 2270.55 1465.9 Q2273.93 1469.08 2273.93 1474.49 Q2273.93 1480.07 2270.46 1483.17 Q2266.99 1486.25 2260.67 1486.25 Q2258.49 1486.25 2256.23 1485.88 Q2253.98 1485.51 2251.57 1484.77 L2251.57 1480.07 Q2253.66 1481.2 2255.88 1481.76 Q2258.1 1482.32 2260.58 1482.32 Q2264.58 1482.32 2266.92 1480.21 Q2269.26 1478.1 2269.26 1474.49 Q2269.26 1470.88 2266.92 1468.77 Q2264.58 1466.67 2260.58 1466.67 Q2258.7 1466.67 2256.83 1467.08 Q2254.98 1467.5 2253.03 1468.38 L2253.03 1451.02 Z" fill="#000000" fill-rule="nonzero" fill-opacity="1" /><path clip-path="url(#clip600)" d="M2293.15 1454.1 Q2289.54 1454.1 2287.71 1457.66 Q2285.9 1461.2 2285.9 1468.33 Q2285.9 1475.44 2287.71 1479.01 Q2289.54 1482.55 2293.15 1482.55 Q2296.78 1482.55 2298.59 1479.01 Q2300.42 1475.44 2300.42 1468.33 Q2300.42 1461.2 2298.59 1457.66 Q2296.78 1454.1 2293.15 1454.1 M2293.15 1450.39 Q2298.96 1450.39 2302.01 1455 Q2305.09 1459.58 2305.09 1468.33 Q2305.09 1477.06 2302.01 1481.67 Q2298.96 1486.25 2293.15 1486.25 Q2287.34 1486.25 2284.26 1481.67 Q2281.2 1477.06 2281.2 1468.33 Q2281.2 1459.58 2284.26 1455 Q2287.34 1450.39 2293.15 1450.39 Z" fill="#000000" fill-rule="nonzero" fill-opacity="1" /><path clip-path="url(#clip600)" d="M2323.31 1454.1 Q2319.7 1454.1 2317.87 1457.66 Q2316.06 1461.2 2316.06 1468.33 Q2316.06 1475.44 2317.87 1479.01 Q2319.7 1482.55 2323.31 1482.55 Q2326.94 1482.55 2328.75 1479.01 Q2330.58 1475.44 2330.58 1468.33 Q2330.58 1461.2 2328.75 1457.66 Q2326.94 1454.1 2323.31 1454.1 M2323.31 1450.39 Q2329.12 1450.39 2332.17 1455 Q2335.25 1459.58 2335.25 1468.33 Q2335.25 1477.06 2332.17 1481.67 Q2329.12 1486.25 2323.31 1486.25 Q2317.5 1486.25 2314.42 1481.67 Q2311.36 1477.06 2311.36 1468.33 Q2311.36 1459.58 2314.42 1455 Q2317.5 1450.39 2323.31 1450.39 Z" fill="#000000" fill-rule="nonzero" fill-opacity="1" /><path clip-path="url(#clip600)" d="M1260.68 1518.52 L1266.54 1518.52 L1266.54 1568.04 L1260.68 1568.04 L1260.68 1518.52 Z" fill="#000000" fill-rule="nonzero" fill-opacity="1" /><path clip-path="url(#clip600)" d="M1294.99 1550.12 Q1287.9 1550.12 1285.16 1551.75 Q1282.42 1553.37 1282.42 1557.29 Q1282.42 1560.4 1284.46 1562.25 Q1286.53 1564.07 1290.06 1564.07 Q1294.93 1564.07 1297.86 1560.63 Q1300.82 1557.16 1300.82 1551.43 L1300.82 1550.12 L1294.99 1550.12 M1306.67 1547.71 L1306.67 1568.04 L1300.82 1568.04 L1300.82 1562.63 Q1298.81 1565.88 1295.82 1567.44 Q1292.83 1568.97 1288.5 1568.97 Q1283.03 1568.97 1279.78 1565.91 Q1276.56 1562.82 1276.56 1557.67 Q1276.56 1551.65 1280.57 1548.6 Q1284.62 1545.54 1292.61 1545.54 L1300.82 1545.54 L1300.82 1544.97 Q1300.82 1540.93 1298.14 1538.73 Q1295.5 1536.5 1290.7 1536.5 Q1287.64 1536.5 1284.74 1537.23 Q1281.85 1537.97 1279.17 1539.43 L1279.17 1534.02 Q1282.39 1532.78 1285.41 1532.17 Q1288.44 1531.54 1291.3 1531.54 Q1299.04 1531.54 1302.85 1535.55 Q1306.67 1539.56 1306.67 1547.71 Z" fill="#000000" fill-rule="nonzero" fill-opacity="1" /><path clip-path="url(#clip600)" d="M1342.19 1549.81 Q1342.19 1543.44 1339.55 1539.94 Q1336.94 1536.44 1332.2 1536.44 Q1327.49 1536.44 1324.85 1539.94 Q1322.24 1543.44 1322.24 1549.81 Q1322.24 1556.14 1324.85 1559.64 Q1327.49 1563.14 1332.2 1563.14 Q1336.94 1563.14 1339.55 1559.64 Q1342.19 1556.14 1342.19 1549.81 M1348.05 1563.62 Q1348.05 1572.72 1344.01 1577.15 Q1339.97 1581.6 1331.63 1581.6 Q1328.54 1581.6 1325.8 1581.13 Q1323.07 1580.68 1320.49 1579.72 L1320.49 1574.03 Q1323.07 1575.43 1325.58 1576.1 Q1328.09 1576.76 1330.7 1576.76 Q1336.47 1576.76 1339.33 1573.74 Q1342.19 1570.75 1342.19 1564.67 L1342.19 1561.77 Q1340.38 1564.92 1337.55 1566.48 Q1334.72 1568.04 1330.77 1568.04 Q1324.21 1568.04 1320.2 1563.05 Q1316.19 1558.05 1316.19 1549.81 Q1316.19 1541.53 1320.2 1536.53 Q1324.21 1531.54 1330.77 1531.54 Q1334.72 1531.54 1337.55 1533.1 Q1340.38 1534.66 1342.19 1537.81 L1342.19 1532.4 L1348.05 1532.4 L1348.05 1563.62 Z" fill="#000000" fill-rule="nonzero" fill-opacity="1" /><polyline clip-path="url(#clip602)" style="stroke:#000000; stroke-linecap:round; stroke-linejoin:round; stroke-width:2; stroke-opacity:0.1; fill:none" points="255.977,1339.01 2352.76,1339.01 "/>
<polyline clip-path="url(#clip602)" style="stroke:#000000; stroke-linecap:round; stroke-linejoin:round; stroke-width:2; stroke-opacity:0.1; fill:none" points="255.977,1143.02 2352.76,1143.02 "/>
<polyline clip-path="url(#clip602)" style="stroke:#000000; stroke-linecap:round; stroke-linejoin:round; stroke-width:2; stroke-opacity:0.1; fill:none" points="255.977,947.036 2352.76,947.036 "/>
<polyline clip-path="url(#clip602)" style="stroke:#000000; stroke-linecap:round; stroke-linejoin:round; stroke-width:2; stroke-opacity:0.1; fill:none" points="255.977,751.048 2352.76,751.048 "/>
<polyline clip-path="url(#clip602)" style="stroke:#000000; stroke-linecap:round; stroke-linejoin:round; stroke-width:2; stroke-opacity:0.1; fill:none" points="255.977,555.06 2352.76,555.06 "/>
<polyline clip-path="url(#clip602)" style="stroke:#000000; stroke-linecap:round; stroke-linejoin:round; stroke-width:2; stroke-opacity:0.1; fill:none" points="255.977,359.072 2352.76,359.072 "/>
<polyline clip-path="url(#clip602)" style="stroke:#000000; stroke-linecap:round; stroke-linejoin:round; stroke-width:2; stroke-opacity:0.1; fill:none" points="255.977,163.084 2352.76,163.084 "/>
<polyline clip-path="url(#clip600)" style="stroke:#000000; stroke-linecap:round; stroke-linejoin:round; stroke-width:4; stroke-opacity:1; fill:none" points="255.977,1423.18 255.977,47.2441 "/>
<polyline clip-path="url(#clip600)" style="stroke:#000000; stroke-linecap:round; stroke-linejoin:round; stroke-width:4; stroke-opacity:1; fill:none" points="255.977,1339.01 274.875,1339.01 "/>
<polyline clip-path="url(#clip600)" style="stroke:#000000; stroke-linecap:round; stroke-linejoin:round; stroke-width:4; stroke-opacity:1; fill:none" points="255.977,1143.02 274.875,1143.02 "/>
<polyline clip-path="url(#clip600)" style="stroke:#000000; stroke-linecap:round; stroke-linejoin:round; stroke-width:4; stroke-opacity:1; fill:none" points="255.977,947.036 274.875,947.036 "/>
<polyline clip-path="url(#clip600)" style="stroke:#000000; stroke-linecap:round; stroke-linejoin:round; stroke-width:4; stroke-opacity:1; fill:none" points="255.977,751.048 274.875,751.048 "/>
<polyline clip-path="url(#clip600)" style="stroke:#000000; stroke-linecap:round; stroke-linejoin:round; stroke-width:4; stroke-opacity:1; fill:none" points="255.977,555.06 274.875,555.06 "/>
<polyline clip-path="url(#clip600)" style="stroke:#000000; stroke-linecap:round; stroke-linejoin:round; stroke-width:4; stroke-opacity:1; fill:none" points="255.977,359.072 274.875,359.072 "/>
<polyline clip-path="url(#clip600)" style="stroke:#000000; stroke-linecap:round; stroke-linejoin:round; stroke-width:4; stroke-opacity:1; fill:none" points="255.977,163.084 274.875,163.084 "/>
<path clip-path="url(#clip600)" d="M114.26 1339.46 L143.936 1339.46 L143.936 1343.4 L114.26 1343.4 L114.26 1339.46 Z" fill="#000000" fill-rule="nonzero" fill-opacity="1" /><path clip-path="url(#clip600)" d="M164.028 1324.81 Q160.417 1324.81 158.589 1328.38 Q156.783 1331.92 156.783 1339.05 Q156.783 1346.15 158.589 1349.72 Q160.417 1353.26 164.028 1353.26 Q167.663 1353.26 169.468 1349.72 Q171.297 1346.15 171.297 1339.05 Q171.297 1331.92 169.468 1328.38 Q167.663 1324.81 164.028 1324.81 M164.028 1321.11 Q169.839 1321.11 172.894 1325.71 Q175.973 1330.3 175.973 1339.05 Q175.973 1347.77 172.894 1352.38 Q169.839 1356.96 164.028 1356.96 Q158.218 1356.96 155.14 1352.38 Q152.084 1347.77 152.084 1339.05 Q152.084 1330.3 155.14 1325.71 Q158.218 1321.11 164.028 1321.11 Z" fill="#000000" fill-rule="nonzero" fill-opacity="1" /><path clip-path="url(#clip600)" d="M184.19 1350.41 L189.075 1350.41 L189.075 1356.29 L184.19 1356.29 L184.19 1350.41 Z" fill="#000000" fill-rule="nonzero" fill-opacity="1" /><path clip-path="url(#clip600)" d="M200.07 1352.36 L207.709 1352.36 L207.709 1325.99 L199.399 1327.66 L199.399 1323.4 L207.662 1321.73 L212.338 1321.73 L212.338 1352.36 L219.977 1352.36 L219.977 1356.29 L200.07 1356.29 L200.07 1352.36 Z" fill="#000000" fill-rule="nonzero" fill-opacity="1" /><path clip-path="url(#clip600)" d="M162.802 1128.82 Q159.19 1128.82 157.362 1132.39 Q155.556 1135.93 155.556 1143.06 Q155.556 1150.17 157.362 1153.73 Q159.19 1157.27 162.802 1157.27 Q166.436 1157.27 168.241 1153.73 Q170.07 1150.17 170.07 1143.06 Q170.07 1135.93 168.241 1132.39 Q166.436 1128.82 162.802 1128.82 M162.802 1125.12 Q168.612 1125.12 171.667 1129.73 Q174.746 1134.31 174.746 1143.06 Q174.746 1151.79 171.667 1156.39 Q168.612 1160.98 162.802 1160.98 Q156.991 1160.98 153.913 1156.39 Q150.857 1151.79 150.857 1143.06 Q150.857 1134.31 153.913 1129.73 Q156.991 1125.12 162.802 1125.12 Z" fill="#000000" fill-rule="nonzero" fill-opacity="1" /><path clip-path="url(#clip600)" d="M182.963 1154.42 L187.848 1154.42 L187.848 1160.3 L182.963 1160.3 L182.963 1154.42 Z" fill="#000000" fill-rule="nonzero" fill-opacity="1" /><path clip-path="url(#clip600)" d="M208.033 1128.82 Q204.422 1128.82 202.593 1132.39 Q200.787 1135.93 200.787 1143.06 Q200.787 1150.17 202.593 1153.73 Q204.422 1157.27 208.033 1157.27 Q211.667 1157.27 213.473 1153.73 Q215.301 1150.17 215.301 1143.06 Q215.301 1135.93 213.473 1132.39 Q211.667 1128.82 208.033 1128.82 M208.033 1125.12 Q213.843 1125.12 216.898 1129.73 Q219.977 1134.31 219.977 1143.06 Q219.977 1151.79 216.898 1156.39 Q213.843 1160.98 208.033 1160.98 Q202.223 1160.98 199.144 1156.39 Q196.088 1151.79 196.088 1143.06 Q196.088 1134.31 199.144 1129.73 Q202.223 1125.12 208.033 1125.12 Z" fill="#000000" fill-rule="nonzero" fill-opacity="1" /><path clip-path="url(#clip600)" d="M164.028 932.835 Q160.417 932.835 158.589 936.4 Q156.783 939.941 156.783 947.071 Q156.783 954.177 158.589 957.742 Q160.417 961.284 164.028 961.284 Q167.663 961.284 169.468 957.742 Q171.297 954.177 171.297 947.071 Q171.297 939.941 169.468 936.4 Q167.663 932.835 164.028 932.835 M164.028 929.131 Q169.839 929.131 172.894 933.738 Q175.973 938.321 175.973 947.071 Q175.973 955.798 172.894 960.404 Q169.839 964.987 164.028 964.987 Q158.218 964.987 155.14 960.404 Q152.084 955.798 152.084 947.071 Q152.084 938.321 155.14 933.738 Q158.218 929.131 164.028 929.131 Z" fill="#000000" fill-rule="nonzero" fill-opacity="1" /><path clip-path="url(#clip600)" d="M184.19 958.437 L189.075 958.437 L189.075 964.316 L184.19 964.316 L184.19 958.437 Z" fill="#000000" fill-rule="nonzero" fill-opacity="1" /><path clip-path="url(#clip600)" d="M200.07 960.381 L207.709 960.381 L207.709 934.015 L199.399 935.682 L199.399 931.423 L207.662 929.756 L212.338 929.756 L212.338 960.381 L219.977 960.381 L219.977 964.316 L200.07 964.316 L200.07 960.381 Z" fill="#000000" fill-rule="nonzero" fill-opacity="1" /><path clip-path="url(#clip600)" d="M164.399 736.847 Q160.788 736.847 158.959 740.412 Q157.153 743.953 157.153 751.083 Q157.153 758.189 158.959 761.754 Q160.788 765.296 164.399 765.296 Q168.033 765.296 169.839 761.754 Q171.667 758.189 171.667 751.083 Q171.667 743.953 169.839 740.412 Q168.033 736.847 164.399 736.847 M164.399 733.143 Q170.209 733.143 173.264 737.75 Q176.343 742.333 176.343 751.083 Q176.343 759.81 173.264 764.416 Q170.209 768.999 164.399 768.999 Q158.589 768.999 155.51 764.416 Q152.454 759.81 152.454 751.083 Q152.454 742.333 155.51 737.75 Q158.589 733.143 164.399 733.143 Z" fill="#000000" fill-rule="nonzero" fill-opacity="1" /><path clip-path="url(#clip600)" d="M184.561 762.449 L189.445 762.449 L189.445 768.328 L184.561 768.328 L184.561 762.449 Z" fill="#000000" fill-rule="nonzero" fill-opacity="1" /><path clip-path="url(#clip600)" d="M203.658 764.393 L219.977 764.393 L219.977 768.328 L198.033 768.328 L198.033 764.393 Q200.695 761.638 205.278 757.009 Q209.885 752.356 211.065 751.013 Q213.311 748.49 214.19 746.754 Q215.093 744.995 215.093 743.305 Q215.093 740.551 213.149 738.814 Q211.227 737.078 208.125 737.078 Q205.926 737.078 203.473 737.842 Q201.042 738.606 198.264 740.157 L198.264 735.435 Q201.088 734.301 203.542 733.722 Q205.996 733.143 208.033 733.143 Q213.403 733.143 216.598 735.828 Q219.792 738.514 219.792 743.004 Q219.792 745.134 218.982 747.055 Q218.195 748.953 216.088 751.546 Q215.51 752.217 212.408 755.435 Q209.306 758.629 203.658 764.393 Z" fill="#000000" fill-rule="nonzero" fill-opacity="1" /><path clip-path="url(#clip600)" d="M163.45 540.859 Q159.839 540.859 158.01 544.424 Q156.204 547.965 156.204 555.095 Q156.204 562.201 158.01 565.766 Q159.839 569.308 163.45 569.308 Q167.084 569.308 168.889 565.766 Q170.718 562.201 170.718 555.095 Q170.718 547.965 168.889 544.424 Q167.084 540.859 163.45 540.859 M163.45 537.155 Q169.26 537.155 172.315 541.762 Q175.394 546.345 175.394 555.095 Q175.394 563.822 172.315 568.428 Q169.26 573.012 163.45 573.012 Q157.64 573.012 154.561 568.428 Q151.505 563.822 151.505 555.095 Q151.505 546.345 154.561 541.762 Q157.64 537.155 163.45 537.155 Z" fill="#000000" fill-rule="nonzero" fill-opacity="1" /><path clip-path="url(#clip600)" d="M183.612 566.461 L188.496 566.461 L188.496 572.34 L183.612 572.34 L183.612 566.461 Z" fill="#000000" fill-rule="nonzero" fill-opacity="1" /><path clip-path="url(#clip600)" d="M212.848 553.706 Q216.204 554.424 218.079 556.692 Q219.977 558.961 219.977 562.294 Q219.977 567.41 216.459 570.211 Q212.94 573.012 206.459 573.012 Q204.283 573.012 201.968 572.572 Q199.676 572.155 197.223 571.299 L197.223 566.785 Q199.167 567.919 201.482 568.498 Q203.797 569.076 206.32 569.076 Q210.718 569.076 213.01 567.34 Q215.324 565.604 215.324 562.294 Q215.324 559.239 213.172 557.526 Q211.042 555.789 207.223 555.789 L203.195 555.789 L203.195 551.947 L207.408 551.947 Q210.857 551.947 212.686 550.581 Q214.514 549.192 214.514 546.6 Q214.514 543.938 212.616 542.526 Q210.741 541.09 207.223 541.09 Q205.301 541.09 203.102 541.507 Q200.903 541.924 198.264 542.803 L198.264 538.637 Q200.926 537.896 203.241 537.526 Q205.579 537.155 207.639 537.155 Q212.963 537.155 216.065 539.586 Q219.167 541.993 219.167 546.114 Q219.167 548.984 217.523 550.975 Q215.88 552.942 212.848 553.706 Z" fill="#000000" fill-rule="nonzero" fill-opacity="1" /><path clip-path="url(#clip600)" d="M162.315 344.871 Q158.704 344.871 156.876 348.436 Q155.07 351.978 155.07 359.107 Q155.07 366.214 156.876 369.778 Q158.704 373.32 162.315 373.32 Q165.95 373.32 167.755 369.778 Q169.584 366.214 169.584 359.107 Q169.584 351.978 167.755 348.436 Q165.95 344.871 162.315 344.871 M162.315 341.167 Q168.126 341.167 171.181 345.774 Q174.26 350.357 174.26 359.107 Q174.26 367.834 171.181 372.44 Q168.126 377.024 162.315 377.024 Q156.505 377.024 153.427 372.44 Q150.371 367.834 150.371 359.107 Q150.371 350.357 153.427 345.774 Q156.505 341.167 162.315 341.167 Z" fill="#000000" fill-rule="nonzero" fill-opacity="1" /><path clip-path="url(#clip600)" d="M182.477 370.473 L187.362 370.473 L187.362 376.352 L182.477 376.352 L182.477 370.473 Z" fill="#000000" fill-rule="nonzero" fill-opacity="1" /><path clip-path="url(#clip600)" d="M210.394 345.866 L198.588 364.315 L210.394 364.315 L210.394 345.866 M209.167 341.792 L215.047 341.792 L215.047 364.315 L219.977 364.315 L219.977 368.204 L215.047 368.204 L215.047 376.352 L210.394 376.352 L210.394 368.204 L194.792 368.204 L194.792 363.69 L209.167 341.792 Z" fill="#000000" fill-rule="nonzero" fill-opacity="1" /><path clip-path="url(#clip600)" d="M163.797 148.883 Q160.186 148.883 158.357 152.448 Q156.552 155.99 156.552 163.119 Q156.552 170.226 158.357 173.79 Q160.186 177.332 163.797 177.332 Q167.431 177.332 169.237 173.79 Q171.065 170.226 171.065 163.119 Q171.065 155.99 169.237 152.448 Q167.431 148.883 163.797 148.883 M163.797 145.179 Q169.607 145.179 172.663 149.786 Q175.741 154.369 175.741 163.119 Q175.741 171.846 172.663 176.452 Q169.607 181.036 163.797 181.036 Q157.987 181.036 154.908 176.452 Q151.853 171.846 151.853 163.119 Q151.853 154.369 154.908 149.786 Q157.987 145.179 163.797 145.179 Z" fill="#000000" fill-rule="nonzero" fill-opacity="1" /><path clip-path="url(#clip600)" d="M183.959 174.485 L188.843 174.485 L188.843 180.364 L183.959 180.364 L183.959 174.485 Z" fill="#000000" fill-rule="nonzero" fill-opacity="1" /><path clip-path="url(#clip600)" d="M199.075 145.804 L217.431 145.804 L217.431 149.74 L203.357 149.74 L203.357 158.212 Q204.375 157.865 205.394 157.703 Q206.412 157.517 207.431 157.517 Q213.218 157.517 216.598 160.689 Q219.977 163.86 219.977 169.277 Q219.977 174.855 216.505 177.957 Q213.033 181.036 206.713 181.036 Q204.537 181.036 202.269 180.665 Q200.024 180.295 197.616 179.554 L197.616 174.855 Q199.7 175.989 201.922 176.545 Q204.144 177.101 206.621 177.101 Q210.625 177.101 212.963 174.994 Q215.301 172.888 215.301 169.277 Q215.301 165.665 212.963 163.559 Q210.625 161.453 206.621 161.453 Q204.746 161.453 202.871 161.869 Q201.019 162.286 199.075 163.165 L199.075 145.804 Z" fill="#000000" fill-rule="nonzero" fill-opacity="1" /><path clip-path="url(#clip600)" d="M46.0847 960.287 Q46.0847 967.385 47.7079 970.122 Q49.3312 972.86 53.2461 972.86 Q56.3653 972.86 58.2114 970.823 Q60.0256 968.754 60.0256 965.221 Q60.0256 960.351 56.5881 957.423 Q53.1188 954.463 47.3897 954.463 L46.0847 954.463 L46.0847 960.287 M43.6657 948.606 L64.0042 948.606 L64.0042 954.463 L58.5933 954.463 Q61.8398 956.468 63.3994 959.46 Q64.9272 962.452 64.9272 966.78 Q64.9272 972.255 61.8716 975.501 Q58.7843 978.716 53.6281 978.716 Q47.6125 978.716 44.5569 974.706 Q41.5014 970.664 41.5014 962.675 L41.5014 954.463 L40.9285 954.463 Q36.8862 954.463 34.6901 957.136 Q32.4621 959.778 32.4621 964.584 Q32.4621 967.64 33.1941 970.536 Q33.9262 973.433 35.3903 976.106 L29.9795 976.106 Q28.7381 972.892 28.1334 969.868 Q27.4968 966.844 27.4968 963.98 Q27.4968 956.245 31.5072 952.426 Q35.5176 948.606 43.6657 948.606 Z" fill="#000000" fill-rule="nonzero" fill-opacity="1" /><path clip-path="url(#clip600)" d="M49.9359 937.148 L28.3562 937.148 L28.3562 931.292 L49.7131 931.292 Q54.7739 931.292 57.3202 929.318 Q59.8346 927.345 59.8346 923.398 Q59.8346 918.656 56.8109 915.918 Q53.7872 913.149 48.5673 913.149 L28.3562 913.149 L28.3562 907.293 L64.0042 907.293 L64.0042 913.149 L58.5296 913.149 Q61.7762 915.282 63.3676 918.115 Q64.9272 920.916 64.9272 924.639 Q64.9272 930.782 61.1078 933.965 Q57.2883 937.148 49.9359 937.148 M27.4968 922.411 L27.4968 922.411 Z" fill="#000000" fill-rule="nonzero" fill-opacity="1" /><path clip-path="url(#clip600)" d="M18.2347 889.437 L28.3562 889.437 L28.3562 877.374 L32.9077 877.374 L32.9077 889.437 L52.2594 889.437 Q56.6199 889.437 57.8613 888.259 Q59.1026 887.05 59.1026 883.39 L59.1026 877.374 L64.0042 877.374 L64.0042 883.39 Q64.0042 890.169 61.4897 892.747 Q58.9434 895.325 52.2594 895.325 L32.9077 895.325 L32.9077 899.622 L28.3562 899.622 L28.3562 895.325 L18.2347 895.325 L18.2347 889.437 Z" fill="#000000" fill-rule="nonzero" fill-opacity="1" /><path clip-path="url(#clip600)" d="M32.4621 855.858 Q32.4621 860.569 36.1542 863.306 Q39.8145 866.043 46.212 866.043 Q52.6095 866.043 56.3017 863.338 Q59.9619 860.6 59.9619 855.858 Q59.9619 851.179 56.2698 848.442 Q52.5777 845.705 46.212 845.705 Q39.8781 845.705 36.186 848.442 Q32.4621 851.179 32.4621 855.858 M27.4968 855.858 Q27.4968 848.219 32.4621 843.859 Q37.4273 839.498 46.212 839.498 Q54.9649 839.498 59.9619 843.859 Q64.9272 848.219 64.9272 855.858 Q64.9272 863.529 59.9619 867.889 Q54.9649 872.218 46.212 872.218 Q37.4273 872.218 32.4621 867.889 Q27.4968 863.529 27.4968 855.858 Z" fill="#000000" fill-rule="nonzero" fill-opacity="1" /><path clip-path="url(#clip600)" d="M29.7248 804.137 L35.1993 804.137 Q33.8307 806.619 33.1623 809.134 Q32.4621 811.616 32.4621 814.163 Q32.4621 819.86 36.0905 823.011 Q39.6872 826.162 46.212 826.162 Q52.7369 826.162 56.3653 823.011 Q59.9619 819.86 59.9619 814.163 Q59.9619 811.616 59.2935 809.134 Q58.5933 806.619 57.2247 804.137 L62.6355 804.137 Q63.7814 806.587 64.3543 809.229 Q64.9272 811.839 64.9272 814.799 Q64.9272 822.852 59.8664 827.594 Q54.8057 832.337 46.212 832.337 Q37.491 832.337 32.4939 827.562 Q27.4968 822.756 27.4968 814.417 Q27.4968 811.712 28.0697 809.134 Q28.6108 806.556 29.7248 804.137 Z" fill="#000000" fill-rule="nonzero" fill-opacity="1" /><path clip-path="url(#clip600)" d="M32.4621 780.138 Q32.4621 784.849 36.1542 787.586 Q39.8145 790.323 46.212 790.323 Q52.6095 790.323 56.3017 787.618 Q59.9619 784.88 59.9619 780.138 Q59.9619 775.459 56.2698 772.722 Q52.5777 769.985 46.212 769.985 Q39.8781 769.985 36.186 772.722 Q32.4621 775.459 32.4621 780.138 M27.4968 780.138 Q27.4968 772.499 32.4621 768.139 Q37.4273 763.778 46.212 763.778 Q54.9649 763.778 59.9619 768.139 Q64.9272 772.499 64.9272 780.138 Q64.9272 787.809 59.9619 792.169 Q54.9649 796.498 46.212 796.498 Q37.4273 796.498 32.4621 792.169 Q27.4968 787.809 27.4968 780.138 Z" fill="#000000" fill-rule="nonzero" fill-opacity="1" /><path clip-path="url(#clip600)" d="M33.8307 733.414 Q33.2578 734.4 33.0032 735.578 Q32.7167 736.724 32.7167 738.124 Q32.7167 743.09 35.9632 745.763 Q39.1779 748.405 45.2253 748.405 L64.0042 748.405 L64.0042 754.293 L28.3562 754.293 L28.3562 748.405 L33.8944 748.405 Q30.6479 746.559 29.0883 743.599 Q27.4968 740.639 27.4968 736.406 Q27.4968 735.801 27.5923 735.069 Q27.656 734.337 27.8151 733.445 L33.8307 733.414 Z" fill="#000000" fill-rule="nonzero" fill-opacity="1" /><path clip-path="url(#clip600)" d="M33.8307 707.76 Q33.2578 708.747 33.0032 709.924 Q32.7167 711.07 32.7167 712.47 Q32.7167 717.436 35.9632 720.109 Q39.1779 722.751 45.2253 722.751 L64.0042 722.751 L64.0042 728.639 L28.3562 728.639 L28.3562 722.751 L33.8944 722.751 Q30.6479 720.905 29.0883 717.945 Q27.4968 714.985 27.4968 710.752 Q27.4968 710.147 27.5923 709.415 Q27.656 708.683 27.8151 707.792 L33.8307 707.76 Z" fill="#000000" fill-rule="nonzero" fill-opacity="1" /><path clip-path="url(#clip600)" d="M44.7161 672.558 L47.5806 672.558 L47.5806 699.484 Q53.6281 699.102 56.8109 695.856 Q59.9619 692.578 59.9619 686.753 Q59.9619 683.379 59.1344 680.228 Q58.3069 677.045 56.6518 673.926 L62.1899 673.926 Q63.5267 677.077 64.227 680.387 Q64.9272 683.697 64.9272 687.103 Q64.9272 695.633 59.9619 700.63 Q54.9967 705.596 46.5303 705.596 Q37.7774 705.596 32.6531 700.885 Q27.4968 696.142 27.4968 688.122 Q27.4968 680.928 32.1438 676.759 Q36.7589 672.558 44.7161 672.558 M42.9973 678.414 Q38.1912 678.478 35.3266 681.119 Q32.4621 683.729 32.4621 688.058 Q32.4621 692.96 35.2312 695.92 Q38.0002 698.848 43.0292 699.293 L42.9973 678.414 Z" fill="#000000" fill-rule="nonzero" fill-opacity="1" /><path clip-path="url(#clip600)" d="M14.479 662.945 L14.479 657.089 L64.0042 657.089 L64.0042 662.945 L14.479 662.945 Z" fill="#000000" fill-rule="nonzero" fill-opacity="1" /><path clip-path="url(#clip600)" d="M46.0847 628.634 Q46.0847 635.732 47.7079 638.469 Q49.3312 641.206 53.2461 641.206 Q56.3653 641.206 58.2114 639.169 Q60.0256 637.101 60.0256 633.568 Q60.0256 628.698 56.5881 625.77 Q53.1188 622.81 47.3897 622.81 L46.0847 622.81 L46.0847 628.634 M43.6657 616.953 L64.0042 616.953 L64.0042 622.81 L58.5933 622.81 Q61.8398 624.815 63.3994 627.807 Q64.9272 630.798 64.9272 635.127 Q64.9272 640.602 61.8716 643.848 Q58.7843 647.063 53.6281 647.063 Q47.6125 647.063 44.5569 643.052 Q41.5014 639.01 41.5014 631.021 L41.5014 622.81 L40.9285 622.81 Q36.8862 622.81 34.6901 625.483 Q32.4621 628.125 32.4621 632.931 Q32.4621 635.987 33.1941 638.883 Q33.9262 641.779 35.3903 644.453 L29.9795 644.453 Q28.7381 641.238 28.1334 638.215 Q27.4968 635.191 27.4968 632.326 Q27.4968 624.592 31.5072 620.772 Q35.5176 616.953 43.6657 616.953 Z" fill="#000000" fill-rule="nonzero" fill-opacity="1" /><path clip-path="url(#clip600)" d="M18.2347 599.097 L28.3562 599.097 L28.3562 587.034 L32.9077 587.034 L32.9077 599.097 L52.2594 599.097 Q56.6199 599.097 57.8613 597.92 Q59.1026 596.71 59.1026 593.05 L59.1026 587.034 L64.0042 587.034 L64.0042 593.05 Q64.0042 599.829 61.4897 602.407 Q58.9434 604.986 52.2594 604.986 L32.9077 604.986 L32.9077 609.282 L28.3562 609.282 L28.3562 604.986 L18.2347 604.986 L18.2347 599.097 Z" fill="#000000" fill-rule="nonzero" fill-opacity="1" /><path clip-path="url(#clip600)" d="M28.3562 579.332 L28.3562 573.475 L64.0042 573.475 L64.0042 579.332 L28.3562 579.332 M14.479 579.332 L14.479 573.475 L21.895 573.475 L21.895 579.332 L14.479 579.332 Z" fill="#000000" fill-rule="nonzero" fill-opacity="1" /><path clip-path="url(#clip600)" d="M32.4621 547.408 Q32.4621 552.118 36.1542 554.856 Q39.8145 557.593 46.212 557.593 Q52.6095 557.593 56.3017 554.887 Q59.9619 552.15 59.9619 547.408 Q59.9619 542.729 56.2698 539.992 Q52.5777 537.254 46.212 537.254 Q39.8781 537.254 36.186 539.992 Q32.4621 542.729 32.4621 547.408 M27.4968 547.408 Q27.4968 539.769 32.4621 535.408 Q37.4273 531.048 46.212 531.048 Q54.9649 531.048 59.9619 535.408 Q64.9272 539.769 64.9272 547.408 Q64.9272 555.078 59.9619 559.439 Q54.9649 563.768 46.212 563.768 Q37.4273 563.768 32.4621 559.439 Q27.4968 555.078 27.4968 547.408 Z" fill="#000000" fill-rule="nonzero" fill-opacity="1" /><path clip-path="url(#clip600)" d="M42.4881 491.708 L64.0042 491.708 L64.0042 497.564 L42.679 497.564 Q37.6183 497.564 35.1038 499.538 Q32.5894 501.511 32.5894 505.458 Q32.5894 510.2 35.6131 512.937 Q38.6368 515.675 43.8567 515.675 L64.0042 515.675 L64.0042 521.563 L28.3562 521.563 L28.3562 515.675 L33.8944 515.675 Q30.6797 513.574 29.0883 510.741 Q27.4968 507.877 27.4968 504.153 Q27.4968 498.01 31.3163 494.859 Q35.1038 491.708 42.4881 491.708 Z" fill="#000000" fill-rule="nonzero" fill-opacity="1" /><polyline clip-path="url(#clip602)" style="stroke:#009af9; stroke-linecap:round; stroke-linejoin:round; stroke-width:4; stroke-opacity:1; fill:none" points="315.32,86.1857 319.284,433.126 323.248,613.232 327.212,712.654 331.176,761.27 335.141,767.604 339.105,832.077 343.069,829.501 347.033,847.852 350.997,847.264 354.961,831.869 358.925,829.654 362.889,879.475 366.853,936.608 370.818,963.869 374.782,966.598 378.746,981.984 382.71,998.194 386.674,1046.92 390.638,1062.14 394.602,1084.54 398.566,1076.87 402.53,1121.79 406.495,1082.82 410.459,1048.24 414.423,1020.91 418.387,999.432 422.351,985.661 426.315,979.841 430.279,1024.98 434.243,1029.17 438.208,1056.67 442.172,1018.95 446.136,1078.94 450.1,1068.57 454.064,1074.99 458.028,1113.3 461.992,1091.41 465.956,1056.72 469.92,1024.98 473.885,1056.2 477.849,1094.48 481.813,1090.04 485.777,1042.06 489.741,1020.68 493.705,1025.69 497.669,1075.6 501.633,1029.6 505.597,1039.83 509.562,1111.67 513.526,1153.1 517.49,1178.41 521.454,1151.17 525.418,1138.92 529.382,1108.52 533.346,1062.06 537.31,1072 541.275,1033.48 545.239,1041.86 549.203,1062 553.167,1038.39 557.131,1052.39 561.095,1058.29 565.059,1118.8 569.023,1130.91 572.987,1123.09 576.952,1144.28 580.916,1183.6 584.88,1166.06 588.844,1177.72 592.808,1157.26 596.772,1170.65 600.736,1153.95 604.7,1131.75 608.664,1137.03 612.629,1165.86 616.593,1137.84 620.557,1160.53 624.521,1160.41 628.485,1153.17 632.449,1190.85 636.413,1183.39 640.377,1194.87 644.341,1199.14 648.306,1195 652.27,1150.3 656.234,1151.88 660.198,1105.31 664.162,1092.12 668.126,1052.75 672.09,1039.59 676.054,1060.9 680.019,1058.5 683.983,1016.03 687.947,1004.69 691.911,1008.93 695.875,1051.7 699.839,1029.13 703.803,1023.9 707.767,1048.8 711.731,1064.71 715.696,1042.23 719.66,1091.51 723.624,1128.25 727.588,1162.02 731.552,1128.99 735.516,1071.94 739.48,1051.38 743.444,1064.09 747.408,1142.94 751.373,1147.52 755.337,1221.49 759.301,1234.24 763.265,1227.52 767.229,1211.42 771.193,1203.34 775.157,1185.05 779.121,1176.34 783.085,1123.98 787.05,1059.18 791.014,1049.4 794.978,1059.09 798.942,1050.73 802.906,1088.02 806.87,1090.8 810.834,1103 814.798,1063.46 818.763,1095.91 822.727,1158.7 826.691,1183.9 830.655,1146.47 834.619,1128.18 838.583,1078.24 842.547,1050.95 846.511,1049.36 850.475,1064.55 854.44,1023.68 858.404,997.455 862.368,944.969 866.332,949.072 870.296,1025.04 874.26,1073.84 878.224,1137.58 882.188,1146.56 886.152,1099.42 890.117,1090.26 894.081,1057.17 898.045,1109.37 902.009,1094.23 905.973,1107.36 909.937,1112.57 913.901,1074.26 917.865,1123.9 921.829,1107.37 925.794,1145.24 929.758,1182.78 933.722,1200.93 937.686,1168.68 941.65,1225.36 945.614,1248.09 949.578,1219.03 953.542,1244.22 957.507,1226 961.471,1197.43 965.435,1212.46 969.399,1200.78 973.363,1186.41 977.327,1161.71 981.291,1150.32 985.255,1183.88 989.219,1229.48 993.184,1219.32 997.148,1238.12 1001.11,1259.56 1005.08,1287.55 1009.04,1268.7 1013,1289.51 1016.97,1260.41 1020.93,1224.5 1024.9,1188.43 1028.86,1155.85 1032.82,1164.99 1036.79,1156.38 1040.75,1149.41 1044.72,1159.48 1048.68,1188.34 1052.65,1193.87 1056.61,1214.06 1060.57,1273.08 1064.54,1286.97 1068.5,1289.37 1072.47,1306.7 1076.43,1225.21 1080.39,1160.61 1084.36,1171.49 1088.32,1133.5 1092.29,1115.25 1096.25,1143.19 1100.21,1122.9 1104.18,1134.88 1108.14,1179.76 1112.11,1207.07 1116.07,1191.28 1120.04,1188.17 1124,1226.52 1127.96,1200.13 1131.93,1180.04 1135.89,1212.88 1139.86,1220.57 1143.82,1211.28 1147.78,1252.68 1151.75,1240.19 1155.71,1254.64 1159.68,1264.09 1163.64,1270.57 1167.6,1231.38 1171.57,1226.46 1175.53,1249.64 1179.5,1296.54 1183.46,1328.66 1187.43,1316.77 1191.39,1285.22 1195.35,1277.52 1199.32,1293.26 1203.28,1226.49 1207.25,1210.25 1211.21,1196.78 1215.17,1180.85 1219.14,1141.47 1223.1,1180.28 1227.07,1228.87 1231.03,1261.57 1234.99,1264.57 1238.96,1232.24 1242.92,1222.23 1246.89,1249.16 1250.85,1315.28 1254.82,1288.23 1258.78,1291.39 1262.74,1267.9 1266.71,1269.98 1270.67,1235.92 1274.64,1208.43 1278.6,1180.38 1282.56,1219.33 1286.53,1265.14 1290.49,1313.02 1294.46,1305.29 1298.42,1319.58 1302.38,1331.63 1306.35,1312.19 1310.31,1325.04 1314.28,1344.83 1318.24,1279.23 1322.21,1295.31 1326.17,1256.79 1330.13,1242.39 1334.1,1209.86 1338.06,1244.93 1342.03,1222.33 1345.99,1225.11 1349.95,1205.69 1353.92,1218.88 1357.88,1242.66 1361.85,1255.07 1365.81,1195.92 1369.77,1214.39 1373.74,1232.25 1377.7,1226.16 1381.67,1279.22 1385.63,1227.58 1389.6,1171.83 1393.56,1210.6 1397.52,1165.12 1401.49,1197.93 1405.45,1188.39 1409.42,1229.24 1413.38,1219.89 1417.34,1216.5 1421.31,1259.09 1425.27,1239.4 1429.24,1306.48 1433.2,1284.65 1437.16,1245.39 1441.13,1251.37 1445.09,1234.42 1449.06,1219.59 1453.02,1214.34 1456.98,1240.49 1460.95,1253.12 1464.91,1256.99 1468.88,1225.38 1472.84,1200.87 1476.81,1180.64 1480.77,1226.27 1484.73,1213.86 1488.7,1202.59 1492.66,1215.68 1496.63,1206.05 1500.59,1174.82 1504.55,1246.38 1508.52,1243.92 1512.48,1195.25 1516.45,1169.34 1520.41,1150.31 1524.37,1170.31 1528.34,1140.87 1532.3,1144.64 1536.27,1173.49 1540.23,1247.24 1544.2,1357.7 1548.16,1380.84 1552.12,1384.24 1556.09,1352.28 1560.05,1327.85 1564.02,1303.42 1567.98,1291.79 1571.94,1286.05 1575.91,1265.01 1579.87,1250.48 1583.84,1209.66 1587.8,1255.26 1591.76,1292.55 1595.73,1280.98 1599.69,1275.88 1603.66,1294.36 1607.62,1267.21 1611.59,1303.53 1615.55,1270.27 1619.51,1248.18 1623.48,1289.08 1627.44,1254.09 1631.41,1208.68 1635.37,1201.58 1639.33,1228.2 1643.3,1179.64 1647.26,1178.88 1651.23,1168.95 1655.19,1207.26 1659.15,1278.66 1663.12,1320.92 1667.08,1313.57 1671.05,1321.31 1675.01,1299.48 1678.98,1280.66 1682.94,1287.25 1686.9,1312.67 1690.87,1218.61 1694.83,1173.99 1698.8,1190.49 1702.76,1206.65 1706.72,1235.1 1710.69,1242.38 1714.65,1232.86 1718.62,1228.64 1722.58,1250.72 1726.54,1270.48 1730.51,1265.89 1734.47,1302.21 1738.44,1293.64 1742.4,1265.45 1746.37,1265.65 1750.33,1230.83 1754.29,1244.67 1758.26,1245.1 1762.22,1180.6 1766.19,1242.58 1770.15,1285.78 1774.11,1277.54 1778.08,1273.72 1782.04,1276.84 1786.01,1311.97 1789.97,1317.27 1793.93,1305.77 1797.9,1255.79 1801.86,1257.41 1805.83,1254.21 1809.79,1245.76 1813.76,1258.41 1817.72,1277.54 1821.68,1266.03 1825.65,1296.07 1829.61,1246.46 1833.58,1189.62 1837.54,1186.68 1841.5,1216.77 1845.47,1186.86 1849.43,1188.13 1853.4,1172.3 1857.36,1156.38 1861.32,1183.39 1865.29,1189.12 1869.25,1139 1873.22,1086.95 1877.18,1054.83 1881.15,1058.03 1885.11,1049.4 1889.07,1075.51 1893.04,1073.88 1897,1119.96 1900.97,1132.37 1904.93,1144.92 1908.89,1132.91 1912.86,1145.25 1916.82,1146.65 1920.79,1148.72 1924.75,1158.68 1928.71,1196.52 1932.68,1203.78 1936.64,1209.07 1940.61,1189.47 1944.57,1165.1 1948.54,1149.35 1952.5,1145.15 1956.46,1165.2 1960.43,1200.01 1964.39,1276.89 1968.36,1289.27 1972.32,1302.61 1976.28,1291.36 1980.25,1218.37 1984.21,1190.66 1988.18,1134.52 1992.14,1114.44 1996.1,1100.84 2000.07,1147.89 2004.03,1161.27 2008,1126.36 2011.96,1097.1 2015.93,1092.67 2019.89,1125.29 2023.85,1106.49 2027.82,1106.04 2031.78,1121.56 2035.75,1112.51 2039.71,1121.52 2043.67,1116.11 2047.64,1100.18 2051.6,1107.84 2055.57,1091.35 2059.53,1094.48 2063.49,1128.83 2067.46,1108.22 2071.42,1120.59 2075.39,1091.95 2079.35,1103.99 2083.32,1068.42 2087.28,1127.32 2091.24,1138.48 2095.21,1131.67 2099.17,1110.94 2103.14,1085.44 2107.1,1095.78 2111.06,1098.28 2115.03,1098.67 2118.99,1073.41 2122.96,1062.8 2126.92,1076.59 2130.88,1125.51 2134.85,1141.26 2138.81,1131.96 2142.78,1172.52 2146.74,1217.06 2150.7,1217.32 2154.67,1201.8 2158.63,1180.97 2162.6,1152.71 2166.56,1141.33 2170.53,1075.51 2174.49,1075.11 2178.45,1104.58 2182.42,1077.29 2186.38,1048.35 2190.35,1070.38 2194.31,1096.15 2198.27,1099.89 2202.24,1110.45 2206.2,1078.26 2210.17,1082.43 2214.13,1105.81 2218.09,1095.6 2222.06,1126.9 2226.02,1116.71 2229.99,1102.88 2233.95,1098.91 2237.92,1107.72 2241.88,1068.04 2245.84,1026.88 2249.81,1012.59 2253.77,1035.09 2257.74,1022.89 2261.7,1033.05 2265.66,1024.42 2269.63,1064.52 2273.59,1070.44 2277.56,1045.61 2281.52,1046.65 2285.48,1069.69 2289.45,1108 2293.41,1081.79 "/>
<path clip-path="url(#clip600)" d="M2020.76 196.789 L2282.86 196.789 L2282.86 93.1086 L2020.76 93.1086  Z" fill="#ffffff" fill-rule="evenodd" fill-opacity="1"/>
<polyline clip-path="url(#clip600)" style="stroke:#000000; stroke-linecap:round; stroke-linejoin:round; stroke-width:4; stroke-opacity:1; fill:none" points="2020.76,196.789 2282.86,196.789 2282.86,93.1086 2020.76,93.1086 2020.76,196.789 "/>
<polyline clip-path="url(#clip600)" style="stroke:#009af9; stroke-linecap:round; stroke-linejoin:round; stroke-width:4; stroke-opacity:1; fill:none" points="2044.05,144.949 2183.84,144.949 "/>
<path clip-path="url(#clip600)" d="M2220.98 164.636 Q2219.17 169.266 2217.46 170.678 Q2215.75 172.09 2212.88 172.09 L2209.47 172.09 L2209.47 168.525 L2211.97 168.525 Q2213.73 168.525 2214.7 167.692 Q2215.68 166.858 2216.86 163.756 L2217.62 161.812 L2207.14 136.303 L2211.65 136.303 L2219.75 156.581 L2227.85 136.303 L2232.37 136.303 L2220.98 164.636 Z" fill="#000000" fill-rule="nonzero" fill-opacity="1" /><path clip-path="url(#clip600)" d="M2239.66 158.293 L2247.3 158.293 L2247.3 131.928 L2238.99 133.595 L2238.99 129.335 L2247.25 127.669 L2251.93 127.669 L2251.93 158.293 L2259.57 158.293 L2259.57 162.229 L2239.66 162.229 L2239.66 158.293 Z" fill="#000000" fill-rule="nonzero" fill-opacity="1" /></svg>
