<?xml version="1.0" encoding="utf-8"?>
<svg xmlns="http://www.w3.org/2000/svg" xmlns:xlink="http://www.w3.org/1999/xlink" width="600" height="400" viewBox="0 0 2400 1600">
<defs>
  <clipPath id="clip520">
    <rect x="0" y="0" width="2400" height="1600"/>
  </clipPath>
</defs>
<path clip-path="url(#clip520)" d="
M0 1600 L2400 1600 L2400 0 L0 0  Z
  " fill="#ffffff" fill-rule="evenodd" fill-opacity="1"/>
<defs>
  <clipPath id="clip521">
    <rect x="480" y="0" width="1681" height="1600"/>
  </clipPath>
</defs>
<path clip-path="url(#clip520)" d="
M199.283 1423.18 L2352.76 1423.18 L2352.76 47.2441 L199.283 47.2441  Z
  " fill="#ffffff" fill-rule="evenodd" fill-opacity="1"/>
<defs>
  <clipPath id="clip522">
    <rect x="199" y="47" width="2154" height="1377"/>
  </clipPath>
</defs>
<polyline clip-path="url(#clip522)" style="stroke:#000000; stroke-linecap:butt; stroke-linejoin:round; stroke-width:2; stroke-opacity:0.1; fill:none" points="
  490.393,1423.18 490.393,47.2441 
  "/>
<polyline clip-path="url(#clip522)" style="stroke:#000000; stroke-linecap:butt; stroke-linejoin:round; stroke-width:2; stroke-opacity:0.1; fill:none" points="
  922.056,1423.18 922.056,47.2441 
  "/>
<polyline clip-path="url(#clip522)" style="stroke:#000000; stroke-linecap:butt; stroke-linejoin:round; stroke-width:2; stroke-opacity:0.1; fill:none" points="
  1353.72,1423.18 1353.72,47.2441 
  "/>
<polyline clip-path="url(#clip522)" style="stroke:#000000; stroke-linecap:butt; stroke-linejoin:round; stroke-width:2; stroke-opacity:0.1; fill:none" points="
  1785.38,1423.18 1785.38,47.2441 
  "/>
<polyline clip-path="url(#clip522)" style="stroke:#000000; stroke-linecap:butt; stroke-linejoin:round; stroke-width:2; stroke-opacity:0.1; fill:none" points="
  2217.04,1423.18 2217.04,47.2441 
  "/>
<polyline clip-path="url(#clip520)" style="stroke:#000000; stroke-linecap:butt; stroke-linejoin:round; stroke-width:4; stroke-opacity:1; fill:none" points="
  199.283,1423.18 2352.76,1423.18 
  "/>
<polyline clip-path="url(#clip520)" style="stroke:#000000; stroke-linecap:butt; stroke-linejoin:round; stroke-width:4; stroke-opacity:1; fill:none" points="
  490.393,1423.18 490.393,1404.28 
  "/>
<polyline clip-path="url(#clip520)" style="stroke:#000000; stroke-linecap:butt; stroke-linejoin:round; stroke-width:4; stroke-opacity:1; fill:none" points="
  922.056,1423.18 922.056,1404.28 
  "/>
<polyline clip-path="url(#clip520)" style="stroke:#000000; stroke-linecap:butt; stroke-linejoin:round; stroke-width:4; stroke-opacity:1; fill:none" points="
  1353.72,1423.18 1353.72,1404.28 
  "/>
<polyline clip-path="url(#clip520)" style="stroke:#000000; stroke-linecap:butt; stroke-linejoin:round; stroke-width:4; stroke-opacity:1; fill:none" points="
  1785.38,1423.18 1785.38,1404.28 
  "/>
<polyline clip-path="url(#clip520)" style="stroke:#000000; stroke-linecap:butt; stroke-linejoin:round; stroke-width:4; stroke-opacity:1; fill:none" points="
  2217.04,1423.18 2217.04,1404.28 
  "/>
<path clip-path="url(#clip520)" d="M452.697 1452.37 Q449.086 1452.37 447.257 1455.94 Q445.451 1459.48 445.451 1466.61 Q445.451 1473.71 447.257 1477.28 Q449.086 1480.82 452.697 1480.82 Q456.331 1480.82 458.136 1477.28 Q459.965 1473.71 459.965 1466.61 Q459.965 1459.48 458.136 1455.94 Q456.331 1452.37 452.697 1452.37 M452.697 1448.67 Q458.507 1448.67 461.562 1453.27 Q464.641 1457.86 464.641 1466.61 Q464.641 1475.33 461.562 1479.94 Q458.507 1484.52 452.697 1484.52 Q446.886 1484.52 443.808 1479.94 Q440.752 1475.33 440.752 1466.61 Q440.752 1457.86 443.808 1453.27 Q446.886 1448.67 452.697 1448.67 Z" fill="#000000" fill-rule="evenodd" fill-opacity="1" /><path clip-path="url(#clip520)" d="M472.859 1477.97 L477.743 1477.97 L477.743 1483.85 L472.859 1483.85 L472.859 1477.97 Z" fill="#000000" fill-rule="evenodd" fill-opacity="1" /><path clip-path="url(#clip520)" d="M488.738 1479.92 L496.377 1479.92 L496.377 1453.55 L488.067 1455.22 L488.067 1450.96 L496.331 1449.29 L501.007 1449.29 L501.007 1479.92 L508.645 1479.92 L508.645 1483.85 L488.738 1483.85 L488.738 1479.92 Z" fill="#000000" fill-rule="evenodd" fill-opacity="1" /><path clip-path="url(#clip520)" d="M528.09 1452.37 Q524.479 1452.37 522.65 1455.94 Q520.844 1459.48 520.844 1466.61 Q520.844 1473.71 522.65 1477.28 Q524.479 1480.82 528.09 1480.82 Q531.724 1480.82 533.53 1477.28 Q535.358 1473.71 535.358 1466.61 Q535.358 1459.48 533.53 1455.94 Q531.724 1452.37 528.09 1452.37 M528.09 1448.67 Q533.9 1448.67 536.955 1453.27 Q540.034 1457.86 540.034 1466.61 Q540.034 1475.33 536.955 1479.94 Q533.9 1484.52 528.09 1484.52 Q522.28 1484.52 519.201 1479.94 Q516.145 1475.33 516.145 1466.61 Q516.145 1457.86 519.201 1453.27 Q522.28 1448.67 528.09 1448.67 Z" fill="#000000" fill-rule="evenodd" fill-opacity="1" /><path clip-path="url(#clip520)" d="M884.857 1452.37 Q881.246 1452.37 879.417 1455.94 Q877.612 1459.48 877.612 1466.61 Q877.612 1473.71 879.417 1477.28 Q881.246 1480.82 884.857 1480.82 Q888.491 1480.82 890.297 1477.28 Q892.126 1473.71 892.126 1466.61 Q892.126 1459.48 890.297 1455.94 Q888.491 1452.37 884.857 1452.37 M884.857 1448.67 Q890.667 1448.67 893.723 1453.27 Q896.802 1457.86 896.802 1466.61 Q896.802 1475.33 893.723 1479.94 Q890.667 1484.52 884.857 1484.52 Q879.047 1484.52 875.968 1479.94 Q872.913 1475.33 872.913 1466.61 Q872.913 1457.86 875.968 1453.27 Q879.047 1448.67 884.857 1448.67 Z" fill="#000000" fill-rule="evenodd" fill-opacity="1" /><path clip-path="url(#clip520)" d="M905.019 1477.97 L909.903 1477.97 L909.903 1483.85 L905.019 1483.85 L905.019 1477.97 Z" fill="#000000" fill-rule="evenodd" fill-opacity="1" /><path clip-path="url(#clip520)" d="M920.899 1479.92 L928.537 1479.92 L928.537 1453.55 L920.227 1455.22 L920.227 1450.96 L928.491 1449.29 L933.167 1449.29 L933.167 1479.92 L940.806 1479.92 L940.806 1483.85 L920.899 1483.85 L920.899 1479.92 Z" fill="#000000" fill-rule="evenodd" fill-opacity="1" /><path clip-path="url(#clip520)" d="M950.297 1449.29 L968.653 1449.29 L968.653 1453.23 L954.579 1453.23 L954.579 1461.7 Q955.597 1461.35 956.616 1461.19 Q957.635 1461 958.653 1461 Q964.44 1461 967.82 1464.18 Q971.199 1467.35 971.199 1472.76 Q971.199 1478.34 967.727 1481.44 Q964.255 1484.52 957.935 1484.52 Q955.76 1484.52 953.491 1484.15 Q951.246 1483.78 948.838 1483.04 L948.838 1478.34 Q950.922 1479.48 953.144 1480.03 Q955.366 1480.59 957.843 1480.59 Q961.847 1480.59 964.185 1478.48 Q966.523 1476.38 966.523 1472.76 Q966.523 1469.15 964.185 1467.05 Q961.847 1464.94 957.843 1464.94 Q955.968 1464.94 954.093 1465.36 Q952.241 1465.77 950.297 1466.65 L950.297 1449.29 Z" fill="#000000" fill-rule="evenodd" fill-opacity="1" /><path clip-path="url(#clip520)" d="M1316.02 1452.37 Q1312.41 1452.37 1310.58 1455.94 Q1308.78 1459.48 1308.78 1466.61 Q1308.78 1473.71 1310.58 1477.28 Q1312.41 1480.82 1316.02 1480.82 Q1319.66 1480.82 1321.46 1477.28 Q1323.29 1473.71 1323.29 1466.61 Q1323.29 1459.48 1321.46 1455.94 Q1319.66 1452.37 1316.02 1452.37 M1316.02 1448.67 Q1321.83 1448.67 1324.89 1453.27 Q1327.97 1457.86 1327.97 1466.61 Q1327.97 1475.33 1324.89 1479.94 Q1321.83 1484.52 1316.02 1484.52 Q1310.21 1484.52 1307.13 1479.94 Q1304.08 1475.33 1304.08 1466.61 Q1304.08 1457.86 1307.13 1453.27 Q1310.21 1448.67 1316.02 1448.67 Z" fill="#000000" fill-rule="evenodd" fill-opacity="1" /><path clip-path="url(#clip520)" d="M1336.18 1477.97 L1341.07 1477.97 L1341.07 1483.85 L1336.18 1483.85 L1336.18 1477.97 Z" fill="#000000" fill-rule="evenodd" fill-opacity="1" /><path clip-path="url(#clip520)" d="M1355.28 1479.92 L1371.6 1479.92 L1371.6 1483.85 L1349.66 1483.85 L1349.66 1479.92 Q1352.32 1477.16 1356.9 1472.53 Q1361.51 1467.88 1362.69 1466.54 Q1364.93 1464.01 1365.81 1462.28 Q1366.72 1460.52 1366.72 1458.83 Q1366.72 1456.07 1364.77 1454.34 Q1362.85 1452.6 1359.75 1452.6 Q1357.55 1452.6 1355.1 1453.37 Q1352.67 1454.13 1349.89 1455.68 L1349.89 1450.96 Q1352.71 1449.82 1355.17 1449.25 Q1357.62 1448.67 1359.66 1448.67 Q1365.03 1448.67 1368.22 1451.35 Q1371.42 1454.04 1371.42 1458.53 Q1371.42 1460.66 1370.61 1462.58 Q1369.82 1464.48 1367.71 1467.07 Q1367.13 1467.74 1364.03 1470.96 Q1360.93 1474.15 1355.28 1479.92 Z" fill="#000000" fill-rule="evenodd" fill-opacity="1" /><path clip-path="url(#clip520)" d="M1391.42 1452.37 Q1387.8 1452.37 1385.98 1455.94 Q1384.17 1459.48 1384.17 1466.61 Q1384.17 1473.71 1385.98 1477.28 Q1387.8 1480.82 1391.42 1480.82 Q1395.05 1480.82 1396.86 1477.28 Q1398.68 1473.71 1398.68 1466.61 Q1398.68 1459.48 1396.86 1455.94 Q1395.05 1452.37 1391.42 1452.37 M1391.42 1448.67 Q1397.23 1448.67 1400.28 1453.27 Q1403.36 1457.86 1403.36 1466.61 Q1403.36 1475.33 1400.28 1479.94 Q1397.23 1484.52 1391.42 1484.52 Q1385.61 1484.52 1382.53 1479.94 Q1379.47 1475.33 1379.47 1466.61 Q1379.47 1457.86 1382.53 1453.27 Q1385.61 1448.67 1391.42 1448.67 Z" fill="#000000" fill-rule="evenodd" fill-opacity="1" /><path clip-path="url(#clip520)" d="M1748.18 1452.37 Q1744.57 1452.37 1742.74 1455.94 Q1740.94 1459.48 1740.94 1466.61 Q1740.94 1473.71 1742.74 1477.28 Q1744.57 1480.82 1748.18 1480.82 Q1751.82 1480.82 1753.62 1477.28 Q1755.45 1473.71 1755.45 1466.61 Q1755.45 1459.48 1753.62 1455.94 Q1751.82 1452.37 1748.18 1452.37 M1748.18 1448.67 Q1753.99 1448.67 1757.05 1453.27 Q1760.13 1457.86 1760.13 1466.61 Q1760.13 1475.33 1757.05 1479.94 Q1753.99 1484.52 1748.18 1484.52 Q1742.37 1484.52 1739.29 1479.94 Q1736.24 1475.33 1736.24 1466.61 Q1736.24 1457.86 1739.29 1453.27 Q1742.37 1448.67 1748.18 1448.67 Z" fill="#000000" fill-rule="evenodd" fill-opacity="1" /><path clip-path="url(#clip520)" d="M1768.34 1477.97 L1773.23 1477.97 L1773.23 1483.85 L1768.34 1483.85 L1768.34 1477.97 Z" fill="#000000" fill-rule="evenodd" fill-opacity="1" /><path clip-path="url(#clip520)" d="M1787.44 1479.92 L1803.76 1479.92 L1803.76 1483.85 L1781.82 1483.85 L1781.82 1479.92 Q1784.48 1477.16 1789.06 1472.53 Q1793.67 1467.88 1794.85 1466.54 Q1797.09 1464.01 1797.97 1462.28 Q1798.88 1460.52 1798.88 1458.83 Q1798.88 1456.07 1796.93 1454.34 Q1795.01 1452.6 1791.91 1452.6 Q1789.71 1452.6 1787.26 1453.37 Q1784.83 1454.13 1782.05 1455.68 L1782.05 1450.96 Q1784.87 1449.82 1787.33 1449.25 Q1789.78 1448.67 1791.82 1448.67 Q1797.19 1448.67 1800.38 1451.35 Q1803.58 1454.04 1803.58 1458.53 Q1803.58 1460.66 1802.77 1462.58 Q1801.98 1464.48 1799.87 1467.07 Q1799.29 1467.74 1796.19 1470.96 Q1793.09 1474.15 1787.44 1479.92 Z" fill="#000000" fill-rule="evenodd" fill-opacity="1" /><path clip-path="url(#clip520)" d="M1813.62 1449.29 L1831.98 1449.29 L1831.98 1453.23 L1817.9 1453.23 L1817.9 1461.7 Q1818.92 1461.35 1819.94 1461.19 Q1820.96 1461 1821.98 1461 Q1827.77 1461 1831.15 1464.18 Q1834.52 1467.35 1834.52 1472.76 Q1834.52 1478.34 1831.05 1481.44 Q1827.58 1484.52 1821.26 1484.52 Q1819.09 1484.52 1816.82 1484.15 Q1814.57 1483.78 1812.16 1483.04 L1812.16 1478.34 Q1814.25 1479.48 1816.47 1480.03 Q1818.69 1480.59 1821.17 1480.59 Q1825.17 1480.59 1827.51 1478.48 Q1829.85 1476.38 1829.85 1472.76 Q1829.85 1469.15 1827.51 1467.05 Q1825.17 1464.94 1821.17 1464.94 Q1819.29 1464.94 1817.42 1465.36 Q1815.57 1465.77 1813.62 1466.65 L1813.62 1449.29 Z" fill="#000000" fill-rule="evenodd" fill-opacity="1" /><path clip-path="url(#clip520)" d="M2179.35 1452.37 Q2175.74 1452.37 2173.91 1455.94 Q2172.1 1459.48 2172.1 1466.61 Q2172.1 1473.71 2173.91 1477.28 Q2175.74 1480.82 2179.35 1480.82 Q2182.98 1480.82 2184.79 1477.28 Q2186.62 1473.71 2186.62 1466.61 Q2186.62 1459.48 2184.79 1455.94 Q2182.98 1452.37 2179.35 1452.37 M2179.35 1448.67 Q2185.16 1448.67 2188.21 1453.27 Q2191.29 1457.86 2191.29 1466.61 Q2191.29 1475.33 2188.21 1479.94 Q2185.16 1484.52 2179.35 1484.52 Q2173.54 1484.52 2170.46 1479.94 Q2167.4 1475.33 2167.4 1466.61 Q2167.4 1457.86 2170.46 1453.27 Q2173.54 1448.67 2179.35 1448.67 Z" fill="#000000" fill-rule="evenodd" fill-opacity="1" /><path clip-path="url(#clip520)" d="M2199.51 1477.97 L2204.39 1477.97 L2204.39 1483.85 L2199.51 1483.85 L2199.51 1477.97 Z" fill="#000000" fill-rule="evenodd" fill-opacity="1" /><path clip-path="url(#clip520)" d="M2228.75 1465.22 Q2232.1 1465.94 2233.98 1468.2 Q2235.88 1470.47 2235.88 1473.81 Q2235.88 1478.92 2232.36 1481.72 Q2228.84 1484.52 2222.36 1484.52 Q2220.18 1484.52 2217.87 1484.08 Q2215.57 1483.67 2213.12 1482.81 L2213.12 1478.3 Q2215.07 1479.43 2217.38 1480.01 Q2219.7 1480.59 2222.22 1480.59 Q2226.62 1480.59 2228.91 1478.85 Q2231.22 1477.12 2231.22 1473.81 Q2231.22 1470.75 2229.07 1469.04 Q2226.94 1467.3 2223.12 1467.3 L2219.09 1467.3 L2219.09 1463.46 L2223.31 1463.46 Q2226.76 1463.46 2228.58 1462.09 Q2230.41 1460.7 2230.41 1458.11 Q2230.41 1455.45 2228.51 1454.04 Q2226.64 1452.6 2223.12 1452.6 Q2221.2 1452.6 2219 1453.02 Q2216.8 1453.44 2214.16 1454.31 L2214.16 1450.15 Q2216.82 1449.41 2219.14 1449.04 Q2221.48 1448.67 2223.54 1448.67 Q2228.86 1448.67 2231.96 1451.1 Q2235.07 1453.5 2235.07 1457.63 Q2235.07 1460.5 2233.42 1462.49 Q2231.78 1464.45 2228.75 1465.22 Z" fill="#000000" fill-rule="evenodd" fill-opacity="1" /><path clip-path="url(#clip520)" d="M2254.74 1452.37 Q2251.13 1452.37 2249.3 1455.94 Q2247.5 1459.48 2247.5 1466.61 Q2247.5 1473.71 2249.3 1477.28 Q2251.13 1480.82 2254.74 1480.82 Q2258.38 1480.82 2260.18 1477.28 Q2262.01 1473.71 2262.01 1466.61 Q2262.01 1459.48 2260.18 1455.94 Q2258.38 1452.37 2254.74 1452.37 M2254.74 1448.67 Q2260.55 1448.67 2263.61 1453.27 Q2266.69 1457.86 2266.69 1466.61 Q2266.69 1475.33 2263.61 1479.94 Q2260.55 1484.52 2254.74 1484.52 Q2248.93 1484.52 2245.85 1479.94 Q2242.8 1475.33 2242.8 1466.61 Q2242.8 1457.86 2245.85 1453.27 Q2248.93 1448.67 2254.74 1448.67 Z" fill="#000000" fill-rule="evenodd" fill-opacity="1" /><path clip-path="url(#clip520)" d="M1132.85 1539.24 Q1135.05 1535.29 1138.11 1533.41 Q1141.16 1531.54 1145.3 1531.54 Q1150.87 1531.54 1153.89 1535.45 Q1156.92 1539.33 1156.92 1546.53 L1156.92 1568.04 L1151.03 1568.04 L1151.03 1546.72 Q1151.03 1541.59 1149.21 1539.11 Q1147.4 1536.63 1143.68 1536.63 Q1139.13 1536.63 1136.48 1539.65 Q1133.84 1542.68 1133.84 1547.9 L1133.84 1568.04 L1127.95 1568.04 L1127.95 1546.72 Q1127.95 1541.56 1126.14 1539.11 Q1124.32 1536.63 1120.54 1536.63 Q1116.05 1536.63 1113.41 1539.68 Q1110.77 1542.71 1110.77 1547.9 L1110.77 1568.04 L1104.88 1568.04 L1104.88 1532.4 L1110.77 1532.4 L1110.77 1537.93 Q1112.77 1534.66 1115.57 1533.1 Q1118.37 1531.54 1122.22 1531.54 Q1126.11 1531.54 1128.81 1533.51 Q1131.55 1535.48 1132.85 1539.24 Z" fill="#000000" fill-rule="evenodd" fill-opacity="1" /><path clip-path="url(#clip520)" d="M1184.8 1550.12 Q1177.7 1550.12 1174.96 1551.75 Q1172.23 1553.37 1172.23 1557.29 Q1172.23 1560.4 1174.26 1562.25 Q1176.33 1564.07 1179.87 1564.07 Q1184.74 1564.07 1187.66 1560.63 Q1190.62 1557.16 1190.62 1551.43 L1190.62 1550.12 L1184.8 1550.12 M1196.48 1547.71 L1196.48 1568.04 L1190.62 1568.04 L1190.62 1562.63 Q1188.62 1565.88 1185.63 1567.44 Q1182.63 1568.97 1178.31 1568.97 Q1172.83 1568.97 1169.58 1565.91 Q1166.37 1562.82 1166.37 1557.67 Q1166.37 1551.65 1170.38 1548.6 Q1174.42 1545.54 1182.41 1545.54 L1190.62 1545.54 L1190.62 1544.97 Q1190.62 1540.93 1187.95 1538.73 Q1185.31 1536.5 1180.5 1536.5 Q1177.45 1536.5 1174.55 1537.23 Q1171.65 1537.97 1168.98 1539.43 L1168.98 1534.02 Q1172.19 1532.78 1175.22 1532.17 Q1178.24 1531.54 1181.11 1531.54 Q1188.84 1531.54 1192.66 1535.55 Q1196.48 1539.56 1196.48 1547.71 Z" fill="#000000" fill-rule="evenodd" fill-opacity="1" /><path clip-path="url(#clip520)" d="M1231.27 1533.45 L1231.27 1538.98 Q1228.79 1537.71 1226.11 1537.07 Q1223.44 1536.44 1220.57 1536.44 Q1216.21 1536.44 1214.02 1537.77 Q1211.85 1539.11 1211.85 1541.79 Q1211.85 1543.82 1213.41 1545 Q1214.97 1546.15 1219.68 1547.2 L1221.69 1547.64 Q1227.93 1548.98 1230.54 1551.43 Q1233.18 1553.85 1233.18 1558.21 Q1233.18 1563.17 1229.23 1566.07 Q1225.32 1568.97 1218.44 1568.97 Q1215.58 1568.97 1212.46 1568.39 Q1209.37 1567.85 1205.93 1566.74 L1205.93 1560.69 Q1209.18 1562.38 1212.33 1563.24 Q1215.48 1564.07 1218.57 1564.07 Q1222.71 1564.07 1224.93 1562.66 Q1227.16 1561.23 1227.16 1558.65 Q1227.16 1556.27 1225.54 1554.99 Q1223.95 1553.72 1218.51 1552.54 L1216.47 1552.07 Q1211.03 1550.92 1208.61 1548.56 Q1206.19 1546.18 1206.19 1542.04 Q1206.19 1537.01 1209.75 1534.27 Q1213.32 1531.54 1219.87 1531.54 Q1223.12 1531.54 1225.99 1532.01 Q1228.85 1532.49 1231.27 1533.45 Z" fill="#000000" fill-rule="evenodd" fill-opacity="1" /><path clip-path="url(#clip520)" d="M1265.23 1533.45 L1265.23 1538.98 Q1262.75 1537.71 1260.07 1537.07 Q1257.4 1536.44 1254.54 1536.44 Q1250.17 1536.44 1247.98 1537.77 Q1245.81 1539.11 1245.81 1541.79 Q1245.81 1543.82 1247.37 1545 Q1248.93 1546.15 1253.64 1547.2 L1255.65 1547.64 Q1261.89 1548.98 1264.5 1551.43 Q1267.14 1553.85 1267.14 1558.21 Q1267.14 1563.17 1263.19 1566.07 Q1259.28 1568.97 1252.4 1568.97 Q1249.54 1568.97 1246.42 1568.39 Q1243.33 1567.85 1239.89 1566.74 L1239.89 1560.69 Q1243.14 1562.38 1246.29 1563.24 Q1249.44 1564.07 1252.53 1564.07 Q1256.67 1564.07 1258.9 1562.66 Q1261.12 1561.23 1261.12 1558.65 Q1261.12 1556.27 1259.5 1554.99 Q1257.91 1553.72 1252.47 1552.54 L1250.43 1552.07 Q1244.99 1550.92 1242.57 1548.56 Q1240.15 1546.18 1240.15 1542.04 Q1240.15 1537.01 1243.71 1534.27 Q1247.28 1531.54 1253.84 1531.54 Q1257.08 1531.54 1259.95 1532.01 Q1262.81 1532.49 1265.23 1533.45 Z" fill="#000000" fill-rule="evenodd" fill-opacity="1" /><path clip-path="url(#clip520)" d="M1311.25 1518.58 Q1306.99 1525.9 1304.92 1533.06 Q1302.85 1540.23 1302.85 1547.58 Q1302.85 1554.93 1304.92 1562.16 Q1307.02 1569.35 1311.25 1576.64 L1306.16 1576.64 Q1301.39 1569.16 1299 1561.93 Q1296.64 1554.71 1296.64 1547.58 Q1296.64 1540.48 1299 1533.29 Q1301.36 1526.09 1306.16 1518.58 L1311.25 1518.58 Z" fill="#000000" fill-rule="evenodd" fill-opacity="1" /><path clip-path="url(#clip520)" d="M1322.87 1520.52 L1332.45 1520.52 L1344.58 1552.86 L1356.77 1520.52 L1366.35 1520.52 L1366.35 1568.04 L1360.08 1568.04 L1360.08 1526.32 L1347.82 1558.91 L1341.36 1558.91 L1329.11 1526.32 L1329.11 1568.04 L1322.87 1568.04 L1322.87 1520.52 Z" fill="#000000" fill-rule="evenodd" fill-opacity="1" /><path clip-path="url(#clip520)" d="M1396.65 1543.57 L1403.4 1543.57 L1403.4 1551.65 L1396.65 1551.65 L1396.65 1543.57 M1406.39 1532.17 Q1403.43 1530.93 1400.02 1530.93 Q1396.62 1530.93 1393.66 1532.17 Q1390.73 1533.41 1388.31 1535.83 Q1385.86 1538.28 1384.65 1541.21 Q1383.44 1544.14 1383.44 1547.61 Q1383.44 1550.98 1384.65 1553.91 Q1385.86 1556.84 1388.31 1559.29 Q1390.73 1561.71 1393.66 1562.95 Q1396.62 1564.19 1400.02 1564.19 Q1403.43 1564.19 1406.39 1562.95 Q1409.32 1561.71 1411.74 1559.29 Q1414.19 1556.84 1415.4 1553.91 Q1416.61 1550.98 1416.61 1547.61 Q1416.61 1544.14 1415.4 1541.21 Q1414.19 1538.28 1411.74 1535.83 Q1409.32 1533.41 1406.39 1532.17 M1391.84 1527.75 Q1395.63 1526.16 1400.02 1526.16 Q1404.42 1526.16 1408.2 1527.75 Q1411.99 1529.34 1415.11 1532.46 Q1418.26 1535.61 1419.82 1539.4 Q1421.38 1543.15 1421.38 1547.61 Q1421.38 1551.97 1419.82 1555.76 Q1418.26 1559.51 1415.11 1562.66 Q1411.99 1565.78 1408.2 1567.38 Q1404.42 1568.97 1400.02 1568.97 Q1395.63 1568.97 1391.84 1567.38 Q1388.06 1565.78 1384.94 1562.66 Q1381.79 1559.51 1380.23 1555.76 Q1378.67 1551.97 1378.67 1547.61 Q1378.67 1543.15 1380.23 1539.4 Q1381.79 1535.61 1384.94 1532.46 Q1388.06 1529.34 1391.84 1527.75 Z" fill="#000000" fill-rule="evenodd" fill-opacity="1" /><path clip-path="url(#clip520)" d="M1432.55 1518.58 L1437.64 1518.58 Q1442.42 1526.09 1444.77 1533.29 Q1447.16 1540.48 1447.16 1547.58 Q1447.16 1554.71 1444.77 1561.93 Q1442.42 1569.16 1437.64 1576.64 L1432.55 1576.64 Q1436.79 1569.35 1438.85 1562.16 Q1440.96 1554.93 1440.96 1547.58 Q1440.96 1540.23 1438.85 1533.06 Q1436.79 1525.9 1432.55 1518.58 Z" fill="#000000" fill-rule="evenodd" fill-opacity="1" /><polyline clip-path="url(#clip522)" style="stroke:#000000; stroke-linecap:butt; stroke-linejoin:round; stroke-width:2; stroke-opacity:0.1; fill:none" points="
  199.283,1384.24 2352.76,1384.24 
  "/>
<polyline clip-path="url(#clip522)" style="stroke:#000000; stroke-linecap:butt; stroke-linejoin:round; stroke-width:2; stroke-opacity:0.1; fill:none" points="
  199.283,990.889 2352.76,990.889 
  "/>
<polyline clip-path="url(#clip522)" style="stroke:#000000; stroke-linecap:butt; stroke-linejoin:round; stroke-width:2; stroke-opacity:0.1; fill:none" points="
  199.283,597.54 2352.76,597.54 
  "/>
<polyline clip-path="url(#clip522)" style="stroke:#000000; stroke-linecap:butt; stroke-linejoin:round; stroke-width:2; stroke-opacity:0.1; fill:none" points="
  199.283,204.19 2352.76,204.19 
  "/>
<polyline clip-path="url(#clip520)" style="stroke:#000000; stroke-linecap:butt; stroke-linejoin:round; stroke-width:4; stroke-opacity:1; fill:none" points="
  199.283,1423.18 199.283,47.2441 
  "/>
<polyline clip-path="url(#clip520)" style="stroke:#000000; stroke-linecap:butt; stroke-linejoin:round; stroke-width:4; stroke-opacity:1; fill:none" points="
  199.283,1384.24 218.181,1384.24 
  "/>
<polyline clip-path="url(#clip520)" style="stroke:#000000; stroke-linecap:butt; stroke-linejoin:round; stroke-width:4; stroke-opacity:1; fill:none" points="
  199.283,990.889 218.181,990.889 
  "/>
<polyline clip-path="url(#clip520)" style="stroke:#000000; stroke-linecap:butt; stroke-linejoin:round; stroke-width:4; stroke-opacity:1; fill:none" points="
  199.283,597.54 218.181,597.54 
  "/>
<polyline clip-path="url(#clip520)" style="stroke:#000000; stroke-linecap:butt; stroke-linejoin:round; stroke-width:4; stroke-opacity:1; fill:none" points="
  199.283,204.19 218.181,204.19 
  "/>
<path clip-path="url(#clip520)" d="M151.339 1370.04 Q147.728 1370.04 145.899 1373.6 Q144.093 1377.14 144.093 1384.27 Q144.093 1391.38 145.899 1394.94 Q147.728 1398.49 151.339 1398.49 Q154.973 1398.49 156.779 1394.94 Q158.607 1391.38 158.607 1384.27 Q158.607 1377.14 156.779 1373.6 Q154.973 1370.04 151.339 1370.04 M151.339 1366.33 Q157.149 1366.33 160.205 1370.94 Q163.283 1375.52 163.283 1384.27 Q163.283 1393 160.205 1397.61 Q157.149 1402.19 151.339 1402.19 Q145.529 1402.19 142.45 1397.61 Q139.394 1393 139.394 1384.27 Q139.394 1375.52 142.45 1370.94 Q145.529 1366.33 151.339 1366.33 Z" fill="#000000" fill-rule="evenodd" fill-opacity="1" /><path clip-path="url(#clip520)" d="M81.0614 973.609 L99.4178 973.609 L99.4178 977.544 L85.3438 977.544 L85.3438 986.016 Q86.3623 985.669 87.3808 985.507 Q88.3993 985.322 89.4178 985.322 Q95.2049 985.322 98.5845 988.493 Q101.964 991.664 101.964 997.081 Q101.964 1002.66 98.4919 1005.76 Q95.0197 1008.84 88.7003 1008.84 Q86.5243 1008.84 84.2558 1008.47 Q82.0105 1008.1 79.6031 1007.36 L79.6031 1002.66 Q81.6864 1003.79 83.9086 1004.35 Q86.1308 1004.91 88.6077 1004.91 Q92.6123 1004.91 94.9502 1002.8 Q97.2882 1000.69 97.2882 997.081 Q97.2882 993.47 94.9502 991.364 Q92.6123 989.257 88.6077 989.257 Q86.7327 989.257 84.8577 989.674 Q83.0058 990.09 81.0614 990.97 L81.0614 973.609 Z" fill="#000000" fill-rule="evenodd" fill-opacity="1" /><path clip-path="url(#clip520)" d="M121.177 976.688 Q117.566 976.688 115.737 980.252 Q113.932 983.794 113.932 990.924 Q113.932 998.03 115.737 1001.59 Q117.566 1005.14 121.177 1005.14 Q124.811 1005.14 126.617 1001.59 Q128.445 998.03 128.445 990.924 Q128.445 983.794 126.617 980.252 Q124.811 976.688 121.177 976.688 M121.177 972.984 Q126.987 972.984 130.043 977.59 Q133.121 982.174 133.121 990.924 Q133.121 999.651 130.043 1004.26 Q126.987 1008.84 121.177 1008.84 Q115.367 1008.84 112.288 1004.26 Q109.233 999.651 109.233 990.924 Q109.233 982.174 112.288 977.59 Q115.367 972.984 121.177 972.984 Z" fill="#000000" fill-rule="evenodd" fill-opacity="1" /><path clip-path="url(#clip520)" d="M151.339 976.688 Q147.728 976.688 145.899 980.252 Q144.093 983.794 144.093 990.924 Q144.093 998.03 145.899 1001.59 Q147.728 1005.14 151.339 1005.14 Q154.973 1005.14 156.779 1001.59 Q158.607 998.03 158.607 990.924 Q158.607 983.794 156.779 980.252 Q154.973 976.688 151.339 976.688 M151.339 972.984 Q157.149 972.984 160.205 977.59 Q163.283 982.174 163.283 990.924 Q163.283 999.651 160.205 1004.26 Q157.149 1008.84 151.339 1008.84 Q145.529 1008.84 142.45 1004.26 Q139.394 999.651 139.394 990.924 Q139.394 982.174 142.45 977.59 Q145.529 972.984 151.339 972.984 Z" fill="#000000" fill-rule="evenodd" fill-opacity="1" /><path clip-path="url(#clip520)" d="M51.6634 610.885 L59.3023 610.885 L59.3023 584.519 L50.9921 586.186 L50.9921 581.926 L59.256 580.26 L63.9319 580.26 L63.9319 610.885 L71.5707 610.885 L71.5707 614.82 L51.6634 614.82 L51.6634 610.885 Z" fill="#000000" fill-rule="evenodd" fill-opacity="1" /><path clip-path="url(#clip520)" d="M91.0151 583.338 Q87.404 583.338 85.5753 586.903 Q83.7697 590.445 83.7697 597.574 Q83.7697 604.681 85.5753 608.246 Q87.404 611.787 91.0151 611.787 Q94.6493 611.787 96.4548 608.246 Q98.2835 604.681 98.2835 597.574 Q98.2835 590.445 96.4548 586.903 Q94.6493 583.338 91.0151 583.338 M91.0151 579.635 Q96.8252 579.635 99.8808 584.241 Q102.959 588.824 102.959 597.574 Q102.959 606.301 99.8808 610.908 Q96.8252 615.491 91.0151 615.491 Q85.2049 615.491 82.1262 610.908 Q79.0707 606.301 79.0707 597.574 Q79.0707 588.824 82.1262 584.241 Q85.2049 579.635 91.0151 579.635 Z" fill="#000000" fill-rule="evenodd" fill-opacity="1" /><path clip-path="url(#clip520)" d="M121.177 583.338 Q117.566 583.338 115.737 586.903 Q113.932 590.445 113.932 597.574 Q113.932 604.681 115.737 608.246 Q117.566 611.787 121.177 611.787 Q124.811 611.787 126.617 608.246 Q128.445 604.681 128.445 597.574 Q128.445 590.445 126.617 586.903 Q124.811 583.338 121.177 583.338 M121.177 579.635 Q126.987 579.635 130.043 584.241 Q133.121 588.824 133.121 597.574 Q133.121 606.301 130.043 610.908 Q126.987 615.491 121.177 615.491 Q115.367 615.491 112.288 610.908 Q109.233 606.301 109.233 597.574 Q109.233 588.824 112.288 584.241 Q115.367 579.635 121.177 579.635 Z" fill="#000000" fill-rule="evenodd" fill-opacity="1" /><path clip-path="url(#clip520)" d="M151.339 583.338 Q147.728 583.338 145.899 586.903 Q144.093 590.445 144.093 597.574 Q144.093 604.681 145.899 608.246 Q147.728 611.787 151.339 611.787 Q154.973 611.787 156.779 608.246 Q158.607 604.681 158.607 597.574 Q158.607 590.445 156.779 586.903 Q154.973 583.338 151.339 583.338 M151.339 579.635 Q157.149 579.635 160.205 584.241 Q163.283 588.824 163.283 597.574 Q163.283 606.301 160.205 610.908 Q157.149 615.491 151.339 615.491 Q145.529 615.491 142.45 610.908 Q139.394 606.301 139.394 597.574 Q139.394 588.824 142.45 584.241 Q145.529 579.635 151.339 579.635 Z" fill="#000000" fill-rule="evenodd" fill-opacity="1" /><path clip-path="url(#clip520)" d="M51.6634 217.535 L59.3023 217.535 L59.3023 191.17 L50.9921 192.836 L50.9921 188.577 L59.256 186.91 L63.9319 186.91 L63.9319 217.535 L71.5707 217.535 L71.5707 221.47 L51.6634 221.47 L51.6634 217.535 Z" fill="#000000" fill-rule="evenodd" fill-opacity="1" /><path clip-path="url(#clip520)" d="M81.0614 186.91 L99.4178 186.91 L99.4178 190.846 L85.3438 190.846 L85.3438 199.318 Q86.3623 198.971 87.3808 198.809 Q88.3993 198.623 89.4178 198.623 Q95.2049 198.623 98.5845 201.795 Q101.964 204.966 101.964 210.383 Q101.964 215.961 98.4919 219.063 Q95.0197 222.142 88.7003 222.142 Q86.5243 222.142 84.2558 221.771 Q82.0105 221.401 79.6031 220.66 L79.6031 215.961 Q81.6864 217.095 83.9086 217.651 Q86.1308 218.207 88.6077 218.207 Q92.6123 218.207 94.9502 216.1 Q97.2882 213.994 97.2882 210.383 Q97.2882 206.771 94.9502 204.665 Q92.6123 202.559 88.6077 202.559 Q86.7327 202.559 84.8577 202.975 Q83.0058 203.392 81.0614 204.271 L81.0614 186.91 Z" fill="#000000" fill-rule="evenodd" fill-opacity="1" /><path clip-path="url(#clip520)" d="M121.177 189.989 Q117.566 189.989 115.737 193.554 Q113.932 197.096 113.932 204.225 Q113.932 211.332 115.737 214.896 Q117.566 218.438 121.177 218.438 Q124.811 218.438 126.617 214.896 Q128.445 211.332 128.445 204.225 Q128.445 197.096 126.617 193.554 Q124.811 189.989 121.177 189.989 M121.177 186.285 Q126.987 186.285 130.043 190.892 Q133.121 195.475 133.121 204.225 Q133.121 212.952 130.043 217.558 Q126.987 222.142 121.177 222.142 Q115.367 222.142 112.288 217.558 Q109.233 212.952 109.233 204.225 Q109.233 195.475 112.288 190.892 Q115.367 186.285 121.177 186.285 Z" fill="#000000" fill-rule="evenodd" fill-opacity="1" /><path clip-path="url(#clip520)" d="M151.339 189.989 Q147.728 189.989 145.899 193.554 Q144.093 197.096 144.093 204.225 Q144.093 211.332 145.899 214.896 Q147.728 218.438 151.339 218.438 Q154.973 218.438 156.779 214.896 Q158.607 211.332 158.607 204.225 Q158.607 197.096 156.779 193.554 Q154.973 189.989 151.339 189.989 M151.339 186.285 Q157.149 186.285 160.205 190.892 Q163.283 195.475 163.283 204.225 Q163.283 212.952 160.205 217.558 Q157.149 222.142 151.339 222.142 Q145.529 222.142 142.45 217.558 Q139.394 212.952 139.394 204.225 Q139.394 195.475 142.45 190.892 Q145.529 186.285 151.339 186.285 Z" fill="#000000" fill-rule="evenodd" fill-opacity="1" /><path clip-path="url(#clip522)" d="
M317.728 1383.45 L317.728 1384.24 L334.995 1384.24 L334.995 1383.45 L317.728 1383.45 L317.728 1383.45  Z
  " fill="#009af9" fill-rule="evenodd" fill-opacity="1"/>
<polyline clip-path="url(#clip522)" style="stroke:#000000; stroke-linecap:butt; stroke-linejoin:round; stroke-width:4; stroke-opacity:1; fill:none" points="
  317.728,1383.45 317.728,1384.24 334.995,1384.24 334.995,1383.45 317.728,1383.45 
  "/>
<path clip-path="url(#clip522)" d="
M334.995 1382.66 L334.995 1384.24 L352.261 1384.24 L352.261 1382.66 L334.995 1382.66 L334.995 1382.66  Z
  " fill="#009af9" fill-rule="evenodd" fill-opacity="1"/>
<polyline clip-path="url(#clip522)" style="stroke:#000000; stroke-linecap:butt; stroke-linejoin:round; stroke-width:4; stroke-opacity:1; fill:none" points="
  334.995,1382.66 334.995,1384.24 352.261,1384.24 352.261,1382.66 334.995,1382.66 
  "/>
<path clip-path="url(#clip522)" d="
M352.261 1380.3 L352.261 1384.24 L369.528 1384.24 L369.528 1380.3 L352.261 1380.3 L352.261 1380.3  Z
  " fill="#009af9" fill-rule="evenodd" fill-opacity="1"/>
<polyline clip-path="url(#clip522)" style="stroke:#000000; stroke-linecap:butt; stroke-linejoin:round; stroke-width:4; stroke-opacity:1; fill:none" points="
  352.261,1380.3 352.261,1384.24 369.528,1384.24 369.528,1380.3 352.261,1380.3 
  "/>
<path clip-path="url(#clip522)" d="
M369.528 1374.8 L369.528 1384.24 L386.794 1384.24 L386.794 1374.8 L369.528 1374.8 L369.528 1374.8  Z
  " fill="#009af9" fill-rule="evenodd" fill-opacity="1"/>
<polyline clip-path="url(#clip522)" style="stroke:#000000; stroke-linecap:butt; stroke-linejoin:round; stroke-width:4; stroke-opacity:1; fill:none" points="
  369.528,1374.8 369.528,1384.24 386.794,1384.24 386.794,1374.8 369.528,1374.8 
  "/>
<path clip-path="url(#clip522)" d="
M386.794 1364.57 L386.794 1384.24 L404.061 1384.24 L404.061 1364.57 L386.794 1364.57 L386.794 1364.57  Z
  " fill="#009af9" fill-rule="evenodd" fill-opacity="1"/>
<polyline clip-path="url(#clip522)" style="stroke:#000000; stroke-linecap:butt; stroke-linejoin:round; stroke-width:4; stroke-opacity:1; fill:none" points="
  386.794,1364.57 386.794,1384.24 404.061,1384.24 404.061,1364.57 386.794,1364.57 
  "/>
<path clip-path="url(#clip522)" d="
M404.061 1337.04 L404.061 1384.24 L421.327 1384.24 L421.327 1337.04 L404.061 1337.04 L404.061 1337.04  Z
  " fill="#009af9" fill-rule="evenodd" fill-opacity="1"/>
<polyline clip-path="url(#clip522)" style="stroke:#000000; stroke-linecap:butt; stroke-linejoin:round; stroke-width:4; stroke-opacity:1; fill:none" points="
  404.061,1337.04 404.061,1384.24 421.327,1384.24 421.327,1337.04 404.061,1337.04 
  "/>
<path clip-path="url(#clip522)" d="
M421.327 1294.55 L421.327 1384.24 L438.594 1384.24 L438.594 1294.55 L421.327 1294.55 L421.327 1294.55  Z
  " fill="#009af9" fill-rule="evenodd" fill-opacity="1"/>
<polyline clip-path="url(#clip522)" style="stroke:#000000; stroke-linecap:butt; stroke-linejoin:round; stroke-width:4; stroke-opacity:1; fill:none" points="
  421.327,1294.55 421.327,1384.24 438.594,1384.24 438.594,1294.55 421.327,1294.55 
  "/>
<path clip-path="url(#clip522)" d="
M438.594 1236.34 L438.594 1384.24 L455.86 1384.24 L455.86 1236.34 L438.594 1236.34 L438.594 1236.34  Z
  " fill="#009af9" fill-rule="evenodd" fill-opacity="1"/>
<polyline clip-path="url(#clip522)" style="stroke:#000000; stroke-linecap:butt; stroke-linejoin:round; stroke-width:4; stroke-opacity:1; fill:none" points="
  438.594,1236.34 438.594,1384.24 455.86,1384.24 455.86,1236.34 438.594,1236.34 
  "/>
<path clip-path="url(#clip522)" d="
M455.86 1167.9 L455.86 1384.24 L473.127 1384.24 L473.127 1167.9 L455.86 1167.9 L455.86 1167.9  Z
  " fill="#009af9" fill-rule="evenodd" fill-opacity="1"/>
<polyline clip-path="url(#clip522)" style="stroke:#000000; stroke-linecap:butt; stroke-linejoin:round; stroke-width:4; stroke-opacity:1; fill:none" points="
  455.86,1167.9 455.86,1384.24 473.127,1384.24 473.127,1167.9 455.86,1167.9 
  "/>
<path clip-path="url(#clip522)" d="
M473.127 1009.77 L473.127 1384.24 L490.393 1384.24 L490.393 1009.77 L473.127 1009.77 L473.127 1009.77  Z
  " fill="#009af9" fill-rule="evenodd" fill-opacity="1"/>
<polyline clip-path="url(#clip522)" style="stroke:#000000; stroke-linecap:butt; stroke-linejoin:round; stroke-width:4; stroke-opacity:1; fill:none" points="
  473.127,1009.77 473.127,1384.24 490.393,1384.24 490.393,1009.77 473.127,1009.77 
  "/>
<path clip-path="url(#clip522)" d="
M490.393 888.618 L490.393 1384.24 L507.66 1384.24 L507.66 888.618 L490.393 888.618 L490.393 888.618  Z
  " fill="#009af9" fill-rule="evenodd" fill-opacity="1"/>
<polyline clip-path="url(#clip522)" style="stroke:#000000; stroke-linecap:butt; stroke-linejoin:round; stroke-width:4; stroke-opacity:1; fill:none" points="
  490.393,888.618 490.393,1384.24 507.66,1384.24 507.66,888.618 490.393,888.618 
  "/>
<path clip-path="url(#clip522)" d="
M507.66 777.694 L507.66 1384.24 L524.926 1384.24 L524.926 777.694 L507.66 777.694 L507.66 777.694  Z
  " fill="#009af9" fill-rule="evenodd" fill-opacity="1"/>
<polyline clip-path="url(#clip522)" style="stroke:#000000; stroke-linecap:butt; stroke-linejoin:round; stroke-width:4; stroke-opacity:1; fill:none" points="
  507.66,777.694 507.66,1384.24 524.926,1384.24 524.926,777.694 507.66,777.694 
  "/>
<path clip-path="url(#clip522)" d="
M524.926 613.274 L524.926 1384.24 L542.193 1384.24 L542.193 613.274 L524.926 613.274 L524.926 613.274  Z
  " fill="#009af9" fill-rule="evenodd" fill-opacity="1"/>
<polyline clip-path="url(#clip522)" style="stroke:#000000; stroke-linecap:butt; stroke-linejoin:round; stroke-width:4; stroke-opacity:1; fill:none" points="
  524.926,613.274 524.926,1384.24 542.193,1384.24 542.193,613.274 524.926,613.274 
  "/>
<path clip-path="url(#clip522)" d="
M542.193 474.028 L542.193 1384.24 L559.459 1384.24 L559.459 474.028 L542.193 474.028 L542.193 474.028  Z
  " fill="#009af9" fill-rule="evenodd" fill-opacity="1"/>
<polyline clip-path="url(#clip522)" style="stroke:#000000; stroke-linecap:butt; stroke-linejoin:round; stroke-width:4; stroke-opacity:1; fill:none" points="
  542.193,474.028 542.193,1384.24 559.459,1384.24 559.459,474.028 542.193,474.028 
  "/>
<path clip-path="url(#clip522)" d="
M559.459 292.301 L559.459 1384.24 L576.726 1384.24 L576.726 292.301 L559.459 292.301 L559.459 292.301  Z
  " fill="#009af9" fill-rule="evenodd" fill-opacity="1"/>
<polyline clip-path="url(#clip522)" style="stroke:#000000; stroke-linecap:butt; stroke-linejoin:round; stroke-width:4; stroke-opacity:1; fill:none" points="
  559.459,292.301 559.459,1384.24 576.726,1384.24 576.726,292.301 559.459,292.301 
  "/>
<path clip-path="url(#clip522)" d="
M576.726 168.002 L576.726 1384.24 L593.992 1384.24 L593.992 168.002 L576.726 168.002 L576.726 168.002  Z
  " fill="#009af9" fill-rule="evenodd" fill-opacity="1"/>
<polyline clip-path="url(#clip522)" style="stroke:#000000; stroke-linecap:butt; stroke-linejoin:round; stroke-width:4; stroke-opacity:1; fill:none" points="
  576.726,168.002 576.726,1384.24 593.992,1384.24 593.992,168.002 576.726,168.002 
  "/>
<path clip-path="url(#clip522)" d="
M593.992 135.748 L593.992 1384.24 L611.259 1384.24 L611.259 135.748 L593.992 135.748 L593.992 135.748  Z
  " fill="#009af9" fill-rule="evenodd" fill-opacity="1"/>
<polyline clip-path="url(#clip522)" style="stroke:#000000; stroke-linecap:butt; stroke-linejoin:round; stroke-width:4; stroke-opacity:1; fill:none" points="
  593.992,135.748 593.992,1384.24 611.259,1384.24 611.259,135.748 593.992,135.748 
  "/>
<path clip-path="url(#clip522)" d="
M611.259 86.1857 L611.259 1384.24 L628.525 1384.24 L628.525 86.1857 L611.259 86.1857 L611.259 86.1857  Z
  " fill="#009af9" fill-rule="evenodd" fill-opacity="1"/>
<polyline clip-path="url(#clip522)" style="stroke:#000000; stroke-linecap:butt; stroke-linejoin:round; stroke-width:4; stroke-opacity:1; fill:none" points="
  611.259,86.1857 611.259,1384.24 628.525,1384.24 628.525,86.1857 611.259,86.1857 
  "/>
<path clip-path="url(#clip522)" d="
M628.525 107.427 L628.525 1384.24 L645.792 1384.24 L645.792 107.427 L628.525 107.427 L628.525 107.427  Z
  " fill="#009af9" fill-rule="evenodd" fill-opacity="1"/>
<polyline clip-path="url(#clip522)" style="stroke:#000000; stroke-linecap:butt; stroke-linejoin:round; stroke-width:4; stroke-opacity:1; fill:none" points="
  628.525,107.427 628.525,1384.24 645.792,1384.24 645.792,107.427 628.525,107.427 
  "/>
<path clip-path="url(#clip522)" d="
M645.792 105.066 L645.792 1384.24 L663.058 1384.24 L663.058 105.066 L645.792 105.066 L645.792 105.066  Z
  " fill="#009af9" fill-rule="evenodd" fill-opacity="1"/>
<polyline clip-path="url(#clip522)" style="stroke:#000000; stroke-linecap:butt; stroke-linejoin:round; stroke-width:4; stroke-opacity:1; fill:none" points="
  645.792,105.066 645.792,1384.24 663.058,1384.24 663.058,105.066 645.792,105.066 
  "/>
<path clip-path="url(#clip522)" d="
M663.058 177.443 L663.058 1384.24 L680.325 1384.24 L680.325 177.443 L663.058 177.443 L663.058 177.443  Z
  " fill="#009af9" fill-rule="evenodd" fill-opacity="1"/>
<polyline clip-path="url(#clip522)" style="stroke:#000000; stroke-linecap:butt; stroke-linejoin:round; stroke-width:4; stroke-opacity:1; fill:none" points="
  663.058,177.443 663.058,1384.24 680.325,1384.24 680.325,177.443 663.058,177.443 
  "/>
<path clip-path="url(#clip522)" d="
M680.325 203.404 L680.325 1384.24 L697.591 1384.24 L697.591 203.404 L680.325 203.404 L680.325 203.404  Z
  " fill="#009af9" fill-rule="evenodd" fill-opacity="1"/>
<polyline clip-path="url(#clip522)" style="stroke:#000000; stroke-linecap:butt; stroke-linejoin:round; stroke-width:4; stroke-opacity:1; fill:none" points="
  680.325,203.404 680.325,1384.24 697.591,1384.24 697.591,203.404 680.325,203.404 
  "/>
<path clip-path="url(#clip522)" d="
M697.591 302.528 L697.591 1384.24 L714.858 1384.24 L714.858 302.528 L697.591 302.528 L697.591 302.528  Z
  " fill="#009af9" fill-rule="evenodd" fill-opacity="1"/>
<polyline clip-path="url(#clip522)" style="stroke:#000000; stroke-linecap:butt; stroke-linejoin:round; stroke-width:4; stroke-opacity:1; fill:none" points="
  697.591,302.528 697.591,1384.24 714.858,1384.24 714.858,302.528 697.591,302.528 
  "/>
<path clip-path="url(#clip522)" d="
M714.858 374.904 L714.858 1384.24 L732.124 1384.24 L732.124 374.904 L714.858 374.904 L714.858 374.904  Z
  " fill="#009af9" fill-rule="evenodd" fill-opacity="1"/>
<polyline clip-path="url(#clip522)" style="stroke:#000000; stroke-linecap:butt; stroke-linejoin:round; stroke-width:4; stroke-opacity:1; fill:none" points="
  714.858,374.904 714.858,1384.24 732.124,1384.24 732.124,374.904 714.858,374.904 
  "/>
<path clip-path="url(#clip522)" d="
M732.124 356.023 L732.124 1384.24 L749.391 1384.24 L749.391 356.023 L732.124 356.023 L732.124 356.023  Z
  " fill="#009af9" fill-rule="evenodd" fill-opacity="1"/>
<polyline clip-path="url(#clip522)" style="stroke:#000000; stroke-linecap:butt; stroke-linejoin:round; stroke-width:4; stroke-opacity:1; fill:none" points="
  732.124,356.023 732.124,1384.24 749.391,1384.24 749.391,356.023 732.124,356.023 
  "/>
<path clip-path="url(#clip522)" d="
M749.391 433.12 L749.391 1384.24 L766.657 1384.24 L766.657 433.12 L749.391 433.12 L749.391 433.12  Z
  " fill="#009af9" fill-rule="evenodd" fill-opacity="1"/>
<polyline clip-path="url(#clip522)" style="stroke:#000000; stroke-linecap:butt; stroke-linejoin:round; stroke-width:4; stroke-opacity:1; fill:none" points="
  749.391,433.12 749.391,1384.24 766.657,1384.24 766.657,433.12 749.391,433.12 
  "/>
<path clip-path="url(#clip522)" d="
M766.657 484.255 L766.657 1384.24 L783.924 1384.24 L783.924 484.255 L766.657 484.255 L766.657 484.255  Z
  " fill="#009af9" fill-rule="evenodd" fill-opacity="1"/>
<polyline clip-path="url(#clip522)" style="stroke:#000000; stroke-linecap:butt; stroke-linejoin:round; stroke-width:4; stroke-opacity:1; fill:none" points="
  766.657,484.255 766.657,1384.24 783.924,1384.24 783.924,484.255 766.657,484.255 
  "/>
<path clip-path="url(#clip522)" d="
M783.924 485.042 L783.924 1384.24 L801.19 1384.24 L801.19 485.042 L783.924 485.042 L783.924 485.042  Z
  " fill="#009af9" fill-rule="evenodd" fill-opacity="1"/>
<polyline clip-path="url(#clip522)" style="stroke:#000000; stroke-linecap:butt; stroke-linejoin:round; stroke-width:4; stroke-opacity:1; fill:none" points="
  783.924,485.042 783.924,1384.24 801.19,1384.24 801.19,485.042 783.924,485.042 
  "/>
<path clip-path="url(#clip522)" d="
M801.19 540.897 L801.19 1384.24 L818.457 1384.24 L818.457 540.897 L801.19 540.897 L801.19 540.897  Z
  " fill="#009af9" fill-rule="evenodd" fill-opacity="1"/>
<polyline clip-path="url(#clip522)" style="stroke:#000000; stroke-linecap:butt; stroke-linejoin:round; stroke-width:4; stroke-opacity:1; fill:none" points="
  801.19,540.897 801.19,1384.24 818.457,1384.24 818.457,540.897 801.19,540.897 
  "/>
<path clip-path="url(#clip522)" d="
M818.457 589.673 L818.457 1384.24 L835.723 1384.24 L835.723 589.673 L818.457 589.673 L818.457 589.673  Z
  " fill="#009af9" fill-rule="evenodd" fill-opacity="1"/>
<polyline clip-path="url(#clip522)" style="stroke:#000000; stroke-linecap:butt; stroke-linejoin:round; stroke-width:4; stroke-opacity:1; fill:none" points="
  818.457,589.673 818.457,1384.24 835.723,1384.24 835.723,589.673 818.457,589.673 
  "/>
<path clip-path="url(#clip522)" d="
M835.723 610.914 L835.723 1384.24 L852.99 1384.24 L852.99 610.914 L835.723 610.914 L835.723 610.914  Z
  " fill="#009af9" fill-rule="evenodd" fill-opacity="1"/>
<polyline clip-path="url(#clip522)" style="stroke:#000000; stroke-linecap:butt; stroke-linejoin:round; stroke-width:4; stroke-opacity:1; fill:none" points="
  835.723,610.914 835.723,1384.24 852.99,1384.24 852.99,610.914 835.723,610.914 
  "/>
<path clip-path="url(#clip522)" d="
M852.99 628.221 L852.99 1384.24 L870.256 1384.24 L870.256 628.221 L852.99 628.221 L852.99 628.221  Z
  " fill="#009af9" fill-rule="evenodd" fill-opacity="1"/>
<polyline clip-path="url(#clip522)" style="stroke:#000000; stroke-linecap:butt; stroke-linejoin:round; stroke-width:4; stroke-opacity:1; fill:none" points="
  852.99,628.221 852.99,1384.24 870.256,1384.24 870.256,628.221 852.99,628.221 
  "/>
<path clip-path="url(#clip522)" d="
M870.256 623.501 L870.256 1384.24 L887.523 1384.24 L887.523 623.501 L870.256 623.501 L870.256 623.501  Z
  " fill="#009af9" fill-rule="evenodd" fill-opacity="1"/>
<polyline clip-path="url(#clip522)" style="stroke:#000000; stroke-linecap:butt; stroke-linejoin:round; stroke-width:4; stroke-opacity:1; fill:none" points="
  870.256,623.501 870.256,1384.24 887.523,1384.24 887.523,623.501 870.256,623.501 
  "/>
<path clip-path="url(#clip522)" d="
M887.523 614.06 L887.523 1384.24 L904.789 1384.24 L904.789 614.06 L887.523 614.06 L887.523 614.06  Z
  " fill="#009af9" fill-rule="evenodd" fill-opacity="1"/>
<polyline clip-path="url(#clip522)" style="stroke:#000000; stroke-linecap:butt; stroke-linejoin:round; stroke-width:4; stroke-opacity:1; fill:none" points="
  887.523,614.06 887.523,1384.24 904.789,1384.24 904.789,614.06 887.523,614.06 
  "/>
<path clip-path="url(#clip522)" d="
M904.789 644.742 L904.789 1384.24 L922.056 1384.24 L922.056 644.742 L904.789 644.742 L904.789 644.742  Z
  " fill="#009af9" fill-rule="evenodd" fill-opacity="1"/>
<polyline clip-path="url(#clip522)" style="stroke:#000000; stroke-linecap:butt; stroke-linejoin:round; stroke-width:4; stroke-opacity:1; fill:none" points="
  904.789,644.742 904.789,1384.24 922.056,1384.24 922.056,644.742 904.789,644.742 
  "/>
<path clip-path="url(#clip522)" d="
M922.056 692.73 L922.056 1384.24 L939.323 1384.24 L939.323 692.73 L922.056 692.73 L922.056 692.73  Z
  " fill="#009af9" fill-rule="evenodd" fill-opacity="1"/>
<polyline clip-path="url(#clip522)" style="stroke:#000000; stroke-linecap:butt; stroke-linejoin:round; stroke-width:4; stroke-opacity:1; fill:none" points="
  922.056,692.73 922.056,1384.24 939.323,1384.24 939.323,692.73 922.056,692.73 
  "/>
<path clip-path="url(#clip522)" d="
M939.323 712.398 L939.323 1384.24 L956.589 1384.24 L956.589 712.398 L939.323 712.398 L939.323 712.398  Z
  " fill="#009af9" fill-rule="evenodd" fill-opacity="1"/>
<polyline clip-path="url(#clip522)" style="stroke:#000000; stroke-linecap:butt; stroke-linejoin:round; stroke-width:4; stroke-opacity:1; fill:none" points="
  939.323,712.398 939.323,1384.24 956.589,1384.24 956.589,712.398 939.323,712.398 
  "/>
<path clip-path="url(#clip522)" d="
M956.589 718.691 L956.589 1384.24 L973.856 1384.24 L973.856 718.691 L956.589 718.691 L956.589 718.691  Z
  " fill="#009af9" fill-rule="evenodd" fill-opacity="1"/>
<polyline clip-path="url(#clip522)" style="stroke:#000000; stroke-linecap:butt; stroke-linejoin:round; stroke-width:4; stroke-opacity:1; fill:none" points="
  956.589,718.691 956.589,1384.24 973.856,1384.24 973.856,718.691 956.589,718.691 
  "/>
<path clip-path="url(#clip522)" d="
M973.856 732.852 L973.856 1384.24 L991.122 1384.24 L991.122 732.852 L973.856 732.852 L973.856 732.852  Z
  " fill="#009af9" fill-rule="evenodd" fill-opacity="1"/>
<polyline clip-path="url(#clip522)" style="stroke:#000000; stroke-linecap:butt; stroke-linejoin:round; stroke-width:4; stroke-opacity:1; fill:none" points="
  973.856,732.852 973.856,1384.24 991.122,1384.24 991.122,732.852 973.856,732.852 
  "/>
<path clip-path="url(#clip522)" d="
M991.122 791.068 L991.122 1384.24 L1008.39 1384.24 L1008.39 791.068 L991.122 791.068 L991.122 791.068  Z
  " fill="#009af9" fill-rule="evenodd" fill-opacity="1"/>
<polyline clip-path="url(#clip522)" style="stroke:#000000; stroke-linecap:butt; stroke-linejoin:round; stroke-width:4; stroke-opacity:1; fill:none" points="
  991.122,791.068 991.122,1384.24 1008.39,1384.24 1008.39,791.068 991.122,791.068 
  "/>
<path clip-path="url(#clip522)" d="
M1008.39 802.081 L1008.39 1384.24 L1025.66 1384.24 L1025.66 802.081 L1008.39 802.081 L1008.39 802.081  Z
  " fill="#009af9" fill-rule="evenodd" fill-opacity="1"/>
<polyline clip-path="url(#clip522)" style="stroke:#000000; stroke-linecap:butt; stroke-linejoin:round; stroke-width:4; stroke-opacity:1; fill:none" points="
  1008.39,802.081 1008.39,1384.24 1025.66,1384.24 1025.66,802.081 1008.39,802.081 
  "/>
<path clip-path="url(#clip522)" d="
M1025.66 827.256 L1025.66 1384.24 L1042.92 1384.24 L1042.92 827.256 L1025.66 827.256 L1025.66 827.256  Z
  " fill="#009af9" fill-rule="evenodd" fill-opacity="1"/>
<polyline clip-path="url(#clip522)" style="stroke:#000000; stroke-linecap:butt; stroke-linejoin:round; stroke-width:4; stroke-opacity:1; fill:none" points="
  1025.66,827.256 1025.66,1384.24 1042.92,1384.24 1042.92,827.256 1025.66,827.256 
  "/>
<path clip-path="url(#clip522)" d="
M1042.92 894.912 L1042.92 1384.24 L1060.19 1384.24 L1060.19 894.912 L1042.92 894.912 L1042.92 894.912  Z
  " fill="#009af9" fill-rule="evenodd" fill-opacity="1"/>
<polyline clip-path="url(#clip522)" style="stroke:#000000; stroke-linecap:butt; stroke-linejoin:round; stroke-width:4; stroke-opacity:1; fill:none" points="
  1042.92,894.912 1042.92,1384.24 1060.19,1384.24 1060.19,894.912 1042.92,894.912 
  "/>
<path clip-path="url(#clip522)" d="
M1060.19 871.311 L1060.19 1384.24 L1077.45 1384.24 L1077.45 871.311 L1060.19 871.311 L1060.19 871.311  Z
  " fill="#009af9" fill-rule="evenodd" fill-opacity="1"/>
<polyline clip-path="url(#clip522)" style="stroke:#000000; stroke-linecap:butt; stroke-linejoin:round; stroke-width:4; stroke-opacity:1; fill:none" points="
  1060.19,871.311 1060.19,1384.24 1077.45,1384.24 1077.45,871.311 1060.19,871.311 
  "/>
<path clip-path="url(#clip522)" d="
M1077.45 901.992 L1077.45 1384.24 L1094.72 1384.24 L1094.72 901.992 L1077.45 901.992 L1077.45 901.992  Z
  " fill="#009af9" fill-rule="evenodd" fill-opacity="1"/>
<polyline clip-path="url(#clip522)" style="stroke:#000000; stroke-linecap:butt; stroke-linejoin:round; stroke-width:4; stroke-opacity:1; fill:none" points="
  1077.45,901.992 1077.45,1384.24 1094.72,1384.24 1094.72,901.992 1077.45,901.992 
  "/>
<path clip-path="url(#clip522)" d="
M1094.72 957.848 L1094.72 1384.24 L1111.99 1384.24 L1111.99 957.848 L1094.72 957.848 L1094.72 957.848  Z
  " fill="#009af9" fill-rule="evenodd" fill-opacity="1"/>
<polyline clip-path="url(#clip522)" style="stroke:#000000; stroke-linecap:butt; stroke-linejoin:round; stroke-width:4; stroke-opacity:1; fill:none" points="
  1094.72,957.848 1094.72,1384.24 1111.99,1384.24 1111.99,957.848 1094.72,957.848 
  "/>
<path clip-path="url(#clip522)" d="
M1111.99 926.38 L1111.99 1384.24 L1129.25 1384.24 L1129.25 926.38 L1111.99 926.38 L1111.99 926.38  Z
  " fill="#009af9" fill-rule="evenodd" fill-opacity="1"/>
<polyline clip-path="url(#clip522)" style="stroke:#000000; stroke-linecap:butt; stroke-linejoin:round; stroke-width:4; stroke-opacity:1; fill:none" points="
  1111.99,926.38 1111.99,1384.24 1129.25,1384.24 1129.25,926.38 1111.99,926.38 
  "/>
<path clip-path="url(#clip522)" d="
M1129.25 953.914 L1129.25 1384.24 L1146.52 1384.24 L1146.52 953.914 L1129.25 953.914 L1129.25 953.914  Z
  " fill="#009af9" fill-rule="evenodd" fill-opacity="1"/>
<polyline clip-path="url(#clip522)" style="stroke:#000000; stroke-linecap:butt; stroke-linejoin:round; stroke-width:4; stroke-opacity:1; fill:none" points="
  1129.25,953.914 1129.25,1384.24 1146.52,1384.24 1146.52,953.914 1129.25,953.914 
  "/>
<path clip-path="url(#clip522)" d="
M1146.52 1001.12 L1146.52 1384.24 L1163.79 1384.24 L1163.79 1001.12 L1146.52 1001.12 L1146.52 1001.12  Z
  " fill="#009af9" fill-rule="evenodd" fill-opacity="1"/>
<polyline clip-path="url(#clip522)" style="stroke:#000000; stroke-linecap:butt; stroke-linejoin:round; stroke-width:4; stroke-opacity:1; fill:none" points="
  1146.52,1001.12 1146.52,1384.24 1163.79,1384.24 1163.79,1001.12 1146.52,1001.12 
  "/>
<path clip-path="url(#clip522)" d="
M1163.79 1070.35 L1163.79 1384.24 L1181.05 1384.24 L1181.05 1070.35 L1163.79 1070.35 L1163.79 1070.35  Z
  " fill="#009af9" fill-rule="evenodd" fill-opacity="1"/>
<polyline clip-path="url(#clip522)" style="stroke:#000000; stroke-linecap:butt; stroke-linejoin:round; stroke-width:4; stroke-opacity:1; fill:none" points="
  1163.79,1070.35 1163.79,1384.24 1181.05,1384.24 1181.05,1070.35 1163.79,1070.35 
  "/>
<path clip-path="url(#clip522)" d="
M1181.05 1089.23 L1181.05 1384.24 L1198.32 1384.24 L1198.32 1089.23 L1181.05 1089.23 L1181.05 1089.23  Z
  " fill="#009af9" fill-rule="evenodd" fill-opacity="1"/>
<polyline clip-path="url(#clip522)" style="stroke:#000000; stroke-linecap:butt; stroke-linejoin:round; stroke-width:4; stroke-opacity:1; fill:none" points="
  1181.05,1089.23 1181.05,1384.24 1198.32,1384.24 1198.32,1089.23 1181.05,1089.23 
  "/>
<path clip-path="url(#clip522)" d="
M1198.32 1113.61 L1198.32 1384.24 L1215.59 1384.24 L1215.59 1113.61 L1198.32 1113.61 L1198.32 1113.61  Z
  " fill="#009af9" fill-rule="evenodd" fill-opacity="1"/>
<polyline clip-path="url(#clip522)" style="stroke:#000000; stroke-linecap:butt; stroke-linejoin:round; stroke-width:4; stroke-opacity:1; fill:none" points="
  1198.32,1113.61 1198.32,1384.24 1215.59,1384.24 1215.59,1113.61 1198.32,1113.61 
  "/>
<path clip-path="url(#clip522)" d="
M1215.59 1137.21 L1215.59 1384.24 L1232.85 1384.24 L1232.85 1137.21 L1215.59 1137.21 L1215.59 1137.21  Z
  " fill="#009af9" fill-rule="evenodd" fill-opacity="1"/>
<polyline clip-path="url(#clip522)" style="stroke:#000000; stroke-linecap:butt; stroke-linejoin:round; stroke-width:4; stroke-opacity:1; fill:none" points="
  1215.59,1137.21 1215.59,1384.24 1232.85,1384.24 1232.85,1137.21 1215.59,1137.21 
  "/>
<path clip-path="url(#clip522)" d="
M1232.85 1170.26 L1232.85 1384.24 L1250.12 1384.24 L1250.12 1170.26 L1232.85 1170.26 L1232.85 1170.26  Z
  " fill="#009af9" fill-rule="evenodd" fill-opacity="1"/>
<polyline clip-path="url(#clip522)" style="stroke:#000000; stroke-linecap:butt; stroke-linejoin:round; stroke-width:4; stroke-opacity:1; fill:none" points="
  1232.85,1170.26 1232.85,1384.24 1250.12,1384.24 1250.12,1170.26 1232.85,1170.26 
  "/>
<path clip-path="url(#clip522)" d="
M1250.12 1246.57 L1250.12 1384.24 L1267.39 1384.24 L1267.39 1246.57 L1250.12 1246.57 L1250.12 1246.57  Z
  " fill="#009af9" fill-rule="evenodd" fill-opacity="1"/>
<polyline clip-path="url(#clip522)" style="stroke:#000000; stroke-linecap:butt; stroke-linejoin:round; stroke-width:4; stroke-opacity:1; fill:none" points="
  1250.12,1246.57 1250.12,1384.24 1267.39,1384.24 1267.39,1246.57 1250.12,1246.57 
  "/>
<path clip-path="url(#clip522)" d="
M1267.39 1252.07 L1267.39 1384.24 L1284.65 1384.24 L1284.65 1252.07 L1267.39 1252.07 L1267.39 1252.07  Z
  " fill="#009af9" fill-rule="evenodd" fill-opacity="1"/>
<polyline clip-path="url(#clip522)" style="stroke:#000000; stroke-linecap:butt; stroke-linejoin:round; stroke-width:4; stroke-opacity:1; fill:none" points="
  1267.39,1252.07 1267.39,1384.24 1284.65,1384.24 1284.65,1252.07 1267.39,1252.07 
  "/>
<path clip-path="url(#clip522)" d="
M1284.65 1279.61 L1284.65 1384.24 L1301.92 1384.24 L1301.92 1279.61 L1284.65 1279.61 L1284.65 1279.61  Z
  " fill="#009af9" fill-rule="evenodd" fill-opacity="1"/>
<polyline clip-path="url(#clip522)" style="stroke:#000000; stroke-linecap:butt; stroke-linejoin:round; stroke-width:4; stroke-opacity:1; fill:none" points="
  1284.65,1279.61 1284.65,1384.24 1301.92,1384.24 1301.92,1279.61 1284.65,1279.61 
  "/>
<path clip-path="url(#clip522)" d="
M1301.92 1301.63 L1301.92 1384.24 L1319.19 1384.24 L1319.19 1301.63 L1301.92 1301.63 L1301.92 1301.63  Z
  " fill="#009af9" fill-rule="evenodd" fill-opacity="1"/>
<polyline clip-path="url(#clip522)" style="stroke:#000000; stroke-linecap:butt; stroke-linejoin:round; stroke-width:4; stroke-opacity:1; fill:none" points="
  1301.92,1301.63 1301.92,1384.24 1319.19,1384.24 1319.19,1301.63 1301.92,1301.63 
  "/>
<path clip-path="url(#clip522)" d="
M1319.19 1311.08 L1319.19 1384.24 L1336.45 1384.24 L1336.45 1311.08 L1319.19 1311.08 L1319.19 1311.08  Z
  " fill="#009af9" fill-rule="evenodd" fill-opacity="1"/>
<polyline clip-path="url(#clip522)" style="stroke:#000000; stroke-linecap:butt; stroke-linejoin:round; stroke-width:4; stroke-opacity:1; fill:none" points="
  1319.19,1311.08 1319.19,1384.24 1336.45,1384.24 1336.45,1311.08 1319.19,1311.08 
  "/>
<path clip-path="url(#clip522)" d="
M1336.45 1333.1 L1336.45 1384.24 L1353.72 1384.24 L1353.72 1333.1 L1336.45 1333.1 L1336.45 1333.1  Z
  " fill="#009af9" fill-rule="evenodd" fill-opacity="1"/>
<polyline clip-path="url(#clip522)" style="stroke:#000000; stroke-linecap:butt; stroke-linejoin:round; stroke-width:4; stroke-opacity:1; fill:none" points="
  1336.45,1333.1 1336.45,1384.24 1353.72,1384.24 1353.72,1333.1 1336.45,1333.1 
  "/>
<path clip-path="url(#clip522)" d="
M1353.72 1340.18 L1353.72 1384.24 L1370.99 1384.24 L1370.99 1340.18 L1353.72 1340.18 L1353.72 1340.18  Z
  " fill="#009af9" fill-rule="evenodd" fill-opacity="1"/>
<polyline clip-path="url(#clip522)" style="stroke:#000000; stroke-linecap:butt; stroke-linejoin:round; stroke-width:4; stroke-opacity:1; fill:none" points="
  1353.72,1340.18 1353.72,1384.24 1370.99,1384.24 1370.99,1340.18 1353.72,1340.18 
  "/>
<path clip-path="url(#clip522)" d="
M1370.99 1333.89 L1370.99 1384.24 L1388.25 1384.24 L1388.25 1333.89 L1370.99 1333.89 L1370.99 1333.89  Z
  " fill="#009af9" fill-rule="evenodd" fill-opacity="1"/>
<polyline clip-path="url(#clip522)" style="stroke:#000000; stroke-linecap:butt; stroke-linejoin:round; stroke-width:4; stroke-opacity:1; fill:none" points="
  1370.99,1333.89 1370.99,1384.24 1388.25,1384.24 1388.25,1333.89 1370.99,1333.89 
  "/>
<path clip-path="url(#clip522)" d="
M1388.25 1343.33 L1388.25 1384.24 L1405.52 1384.24 L1405.52 1343.33 L1388.25 1343.33 L1388.25 1343.33  Z
  " fill="#009af9" fill-rule="evenodd" fill-opacity="1"/>
<polyline clip-path="url(#clip522)" style="stroke:#000000; stroke-linecap:butt; stroke-linejoin:round; stroke-width:4; stroke-opacity:1; fill:none" points="
  1388.25,1343.33 1388.25,1384.24 1405.52,1384.24 1405.52,1343.33 1388.25,1343.33 
  "/>
<path clip-path="url(#clip522)" d="
M1405.52 1341.76 L1405.52 1384.24 L1422.78 1384.24 L1422.78 1341.76 L1405.52 1341.76 L1405.52 1341.76  Z
  " fill="#009af9" fill-rule="evenodd" fill-opacity="1"/>
<polyline clip-path="url(#clip522)" style="stroke:#000000; stroke-linecap:butt; stroke-linejoin:round; stroke-width:4; stroke-opacity:1; fill:none" points="
  1405.52,1341.76 1405.52,1384.24 1422.78,1384.24 1422.78,1341.76 1405.52,1341.76 
  "/>
<path clip-path="url(#clip522)" d="
M1422.78 1355.13 L1422.78 1384.24 L1440.05 1384.24 L1440.05 1355.13 L1422.78 1355.13 L1422.78 1355.13  Z
  " fill="#009af9" fill-rule="evenodd" fill-opacity="1"/>
<polyline clip-path="url(#clip522)" style="stroke:#000000; stroke-linecap:butt; stroke-linejoin:round; stroke-width:4; stroke-opacity:1; fill:none" points="
  1422.78,1355.13 1422.78,1384.24 1440.05,1384.24 1440.05,1355.13 1422.78,1355.13 
  "/>
<path clip-path="url(#clip522)" d="
M1440.05 1373.22 L1440.05 1384.24 L1457.32 1384.24 L1457.32 1373.22 L1440.05 1373.22 L1440.05 1373.22  Z
  " fill="#009af9" fill-rule="evenodd" fill-opacity="1"/>
<polyline clip-path="url(#clip522)" style="stroke:#000000; stroke-linecap:butt; stroke-linejoin:round; stroke-width:4; stroke-opacity:1; fill:none" points="
  1440.05,1373.22 1440.05,1384.24 1457.32,1384.24 1457.32,1373.22 1440.05,1373.22 
  "/>
<path clip-path="url(#clip522)" d="
M1457.32 1370.08 L1457.32 1384.24 L1474.58 1384.24 L1474.58 1370.08 L1457.32 1370.08 L1457.32 1370.08  Z
  " fill="#009af9" fill-rule="evenodd" fill-opacity="1"/>
<polyline clip-path="url(#clip522)" style="stroke:#000000; stroke-linecap:butt; stroke-linejoin:round; stroke-width:4; stroke-opacity:1; fill:none" points="
  1457.32,1370.08 1457.32,1384.24 1474.58,1384.24 1474.58,1370.08 1457.32,1370.08 
  "/>
<path clip-path="url(#clip522)" d="
M1474.58 1364.57 L1474.58 1384.24 L1491.85 1384.24 L1491.85 1364.57 L1474.58 1364.57 L1474.58 1364.57  Z
  " fill="#009af9" fill-rule="evenodd" fill-opacity="1"/>
<polyline clip-path="url(#clip522)" style="stroke:#000000; stroke-linecap:butt; stroke-linejoin:round; stroke-width:4; stroke-opacity:1; fill:none" points="
  1474.58,1364.57 1474.58,1384.24 1491.85,1384.24 1491.85,1364.57 1474.58,1364.57 
  "/>
<path clip-path="url(#clip522)" d="
M1491.85 1374.01 L1491.85 1384.24 L1509.12 1384.24 L1509.12 1374.01 L1491.85 1374.01 L1491.85 1374.01  Z
  " fill="#009af9" fill-rule="evenodd" fill-opacity="1"/>
<polyline clip-path="url(#clip522)" style="stroke:#000000; stroke-linecap:butt; stroke-linejoin:round; stroke-width:4; stroke-opacity:1; fill:none" points="
  1491.85,1374.01 1491.85,1384.24 1509.12,1384.24 1509.12,1374.01 1491.85,1374.01 
  "/>
<path clip-path="url(#clip522)" d="
M1509.12 1374.01 L1509.12 1384.24 L1526.38 1384.24 L1526.38 1374.01 L1509.12 1374.01 L1509.12 1374.01  Z
  " fill="#009af9" fill-rule="evenodd" fill-opacity="1"/>
<polyline clip-path="url(#clip522)" style="stroke:#000000; stroke-linecap:butt; stroke-linejoin:round; stroke-width:4; stroke-opacity:1; fill:none" points="
  1509.12,1374.01 1509.12,1384.24 1526.38,1384.24 1526.38,1374.01 1509.12,1374.01 
  "/>
<path clip-path="url(#clip522)" d="
M1526.38 1381.09 L1526.38 1384.24 L1543.65 1384.24 L1543.65 1381.09 L1526.38 1381.09 L1526.38 1381.09  Z
  " fill="#009af9" fill-rule="evenodd" fill-opacity="1"/>
<polyline clip-path="url(#clip522)" style="stroke:#000000; stroke-linecap:butt; stroke-linejoin:round; stroke-width:4; stroke-opacity:1; fill:none" points="
  1526.38,1381.09 1526.38,1384.24 1543.65,1384.24 1543.65,1381.09 1526.38,1381.09 
  "/>
<path clip-path="url(#clip522)" d="
M1543.65 1384.24 L1543.65 1384.24 L1560.92 1384.24 L1560.92 1384.24 L1543.65 1384.24 L1543.65 1384.24  Z
  " fill="#009af9" fill-rule="evenodd" fill-opacity="1"/>
<polyline clip-path="url(#clip522)" style="stroke:#000000; stroke-linecap:butt; stroke-linejoin:round; stroke-width:4; stroke-opacity:1; fill:none" points="
  1543.65,1384.24 1543.65,1384.24 1560.92,1384.24 1543.65,1384.24 
  "/>
<path clip-path="url(#clip522)" d="
M1560.92 1383.45 L1560.92 1384.24 L1578.18 1384.24 L1578.18 1383.45 L1560.92 1383.45 L1560.92 1383.45  Z
  " fill="#009af9" fill-rule="evenodd" fill-opacity="1"/>
<polyline clip-path="url(#clip522)" style="stroke:#000000; stroke-linecap:butt; stroke-linejoin:round; stroke-width:4; stroke-opacity:1; fill:none" points="
  1560.92,1383.45 1560.92,1384.24 1578.18,1384.24 1578.18,1383.45 1560.92,1383.45 
  "/>
<path clip-path="url(#clip522)" d="
M1578.18 1383.45 L1578.18 1384.24 L1595.45 1384.24 L1595.45 1383.45 L1578.18 1383.45 L1578.18 1383.45  Z
  " fill="#009af9" fill-rule="evenodd" fill-opacity="1"/>
<polyline clip-path="url(#clip522)" style="stroke:#000000; stroke-linecap:butt; stroke-linejoin:round; stroke-width:4; stroke-opacity:1; fill:none" points="
  1578.18,1383.45 1578.18,1384.24 1595.45,1384.24 1595.45,1383.45 1578.18,1383.45 
  "/>
<path clip-path="url(#clip522)" d="
M1595.45 1381.88 L1595.45 1384.24 L1612.72 1384.24 L1612.72 1381.88 L1595.45 1381.88 L1595.45 1381.88  Z
  " fill="#009af9" fill-rule="evenodd" fill-opacity="1"/>
<polyline clip-path="url(#clip522)" style="stroke:#000000; stroke-linecap:butt; stroke-linejoin:round; stroke-width:4; stroke-opacity:1; fill:none" points="
  1595.45,1381.88 1595.45,1384.24 1612.72,1384.24 1612.72,1381.88 1595.45,1381.88 
  "/>
<path clip-path="url(#clip522)" d="
M1612.72 1382.66 L1612.72 1384.24 L1629.98 1384.24 L1629.98 1382.66 L1612.72 1382.66 L1612.72 1382.66  Z
  " fill="#009af9" fill-rule="evenodd" fill-opacity="1"/>
<polyline clip-path="url(#clip522)" style="stroke:#000000; stroke-linecap:butt; stroke-linejoin:round; stroke-width:4; stroke-opacity:1; fill:none" points="
  1612.72,1382.66 1612.72,1384.24 1629.98,1384.24 1629.98,1382.66 1612.72,1382.66 
  "/>
<path clip-path="url(#clip522)" d="
M1629.98 1383.45 L1629.98 1384.24 L1647.25 1384.24 L1647.25 1383.45 L1629.98 1383.45 L1629.98 1383.45  Z
  " fill="#009af9" fill-rule="evenodd" fill-opacity="1"/>
<polyline clip-path="url(#clip522)" style="stroke:#000000; stroke-linecap:butt; stroke-linejoin:round; stroke-width:4; stroke-opacity:1; fill:none" points="
  1629.98,1383.45 1629.98,1384.24 1647.25,1384.24 1647.25,1383.45 1629.98,1383.45 
  "/>
<path clip-path="url(#clip522)" d="
M1647.25 1384.24 L1647.25 1384.24 L1664.52 1384.24 L1664.52 1384.24 L1647.25 1384.24 L1647.25 1384.24  Z
  " fill="#009af9" fill-rule="evenodd" fill-opacity="1"/>
<polyline clip-path="url(#clip522)" style="stroke:#000000; stroke-linecap:butt; stroke-linejoin:round; stroke-width:4; stroke-opacity:1; fill:none" points="
  1647.25,1384.24 1647.25,1384.24 1664.52,1384.24 1647.25,1384.24 
  "/>
<path clip-path="url(#clip522)" d="
M1664.52 1384.24 L1664.52 1384.24 L1681.78 1384.24 L1681.78 1384.24 L1664.52 1384.24 L1664.52 1384.24  Z
  " fill="#009af9" fill-rule="evenodd" fill-opacity="1"/>
<polyline clip-path="url(#clip522)" style="stroke:#000000; stroke-linecap:butt; stroke-linejoin:round; stroke-width:4; stroke-opacity:1; fill:none" points="
  1664.52,1384.24 1664.52,1384.24 1681.78,1384.24 1664.52,1384.24 
  "/>
<path clip-path="url(#clip522)" d="
M1681.78 1382.66 L1681.78 1384.24 L1699.05 1384.24 L1699.05 1382.66 L1681.78 1382.66 L1681.78 1382.66  Z
  " fill="#009af9" fill-rule="evenodd" fill-opacity="1"/>
<polyline clip-path="url(#clip522)" style="stroke:#000000; stroke-linecap:butt; stroke-linejoin:round; stroke-width:4; stroke-opacity:1; fill:none" points="
  1681.78,1382.66 1681.78,1384.24 1699.05,1384.24 1699.05,1382.66 1681.78,1382.66 
  "/>
<path clip-path="url(#clip522)" d="
M1699.05 1384.24 L1699.05 1384.24 L1716.32 1384.24 L1716.32 1384.24 L1699.05 1384.24 L1699.05 1384.24  Z
  " fill="#009af9" fill-rule="evenodd" fill-opacity="1"/>
<polyline clip-path="url(#clip522)" style="stroke:#000000; stroke-linecap:butt; stroke-linejoin:round; stroke-width:4; stroke-opacity:1; fill:none" points="
  1699.05,1384.24 1699.05,1384.24 1716.32,1384.24 1699.05,1384.24 
  "/>
<path clip-path="url(#clip522)" d="
M1716.32 1383.45 L1716.32 1384.24 L1733.58 1384.24 L1733.58 1383.45 L1716.32 1383.45 L1716.32 1383.45  Z
  " fill="#009af9" fill-rule="evenodd" fill-opacity="1"/>
<polyline clip-path="url(#clip522)" style="stroke:#000000; stroke-linecap:butt; stroke-linejoin:round; stroke-width:4; stroke-opacity:1; fill:none" points="
  1716.32,1383.45 1716.32,1384.24 1733.58,1384.24 1733.58,1383.45 1716.32,1383.45 
  "/>
<path clip-path="url(#clip522)" d="
M1733.58 1382.66 L1733.58 1384.24 L1750.85 1384.24 L1750.85 1382.66 L1733.58 1382.66 L1733.58 1382.66  Z
  " fill="#009af9" fill-rule="evenodd" fill-opacity="1"/>
<polyline clip-path="url(#clip522)" style="stroke:#000000; stroke-linecap:butt; stroke-linejoin:round; stroke-width:4; stroke-opacity:1; fill:none" points="
  1733.58,1382.66 1733.58,1384.24 1750.85,1384.24 1750.85,1382.66 1733.58,1382.66 
  "/>
<path clip-path="url(#clip522)" d="
M1750.85 1382.66 L1750.85 1384.24 L1768.12 1384.24 L1768.12 1382.66 L1750.85 1382.66 L1750.85 1382.66  Z
  " fill="#009af9" fill-rule="evenodd" fill-opacity="1"/>
<polyline clip-path="url(#clip522)" style="stroke:#000000; stroke-linecap:butt; stroke-linejoin:round; stroke-width:4; stroke-opacity:1; fill:none" points="
  1750.85,1382.66 1750.85,1384.24 1768.12,1384.24 1768.12,1382.66 1750.85,1382.66 
  "/>
<path clip-path="url(#clip522)" d="
M1768.12 1383.45 L1768.12 1384.24 L1785.38 1384.24 L1785.38 1383.45 L1768.12 1383.45 L1768.12 1383.45  Z
  " fill="#009af9" fill-rule="evenodd" fill-opacity="1"/>
<polyline clip-path="url(#clip522)" style="stroke:#000000; stroke-linecap:butt; stroke-linejoin:round; stroke-width:4; stroke-opacity:1; fill:none" points="
  1768.12,1383.45 1768.12,1384.24 1785.38,1384.24 1785.38,1383.45 1768.12,1383.45 
  "/>
<path clip-path="url(#clip522)" d="
M1785.38 1383.45 L1785.38 1384.24 L1802.65 1384.24 L1802.65 1383.45 L1785.38 1383.45 L1785.38 1383.45  Z
  " fill="#009af9" fill-rule="evenodd" fill-opacity="1"/>
<polyline clip-path="url(#clip522)" style="stroke:#000000; stroke-linecap:butt; stroke-linejoin:round; stroke-width:4; stroke-opacity:1; fill:none" points="
  1785.38,1383.45 1785.38,1384.24 1802.65,1384.24 1802.65,1383.45 1785.38,1383.45 
  "/>
<path clip-path="url(#clip522)" d="
M1802.65 1384.24 L1802.65 1384.24 L1819.91 1384.24 L1819.91 1384.24 L1802.65 1384.24 L1802.65 1384.24  Z
  " fill="#009af9" fill-rule="evenodd" fill-opacity="1"/>
<polyline clip-path="url(#clip522)" style="stroke:#000000; stroke-linecap:butt; stroke-linejoin:round; stroke-width:4; stroke-opacity:1; fill:none" points="
  1802.65,1384.24 1802.65,1384.24 1819.91,1384.24 1802.65,1384.24 
  "/>
<path clip-path="url(#clip522)" d="
M1819.91 1384.24 L1819.91 1384.24 L1837.18 1384.24 L1837.18 1384.24 L1819.91 1384.24 L1819.91 1384.24  Z
  " fill="#009af9" fill-rule="evenodd" fill-opacity="1"/>
<polyline clip-path="url(#clip522)" style="stroke:#000000; stroke-linecap:butt; stroke-linejoin:round; stroke-width:4; stroke-opacity:1; fill:none" points="
  1819.91,1384.24 1819.91,1384.24 1837.18,1384.24 1819.91,1384.24 
  "/>
<path clip-path="url(#clip522)" d="
M1837.18 1384.24 L1837.18 1384.24 L1854.45 1384.24 L1854.45 1384.24 L1837.18 1384.24 L1837.18 1384.24  Z
  " fill="#009af9" fill-rule="evenodd" fill-opacity="1"/>
<polyline clip-path="url(#clip522)" style="stroke:#000000; stroke-linecap:butt; stroke-linejoin:round; stroke-width:4; stroke-opacity:1; fill:none" points="
  1837.18,1384.24 1837.18,1384.24 1854.45,1384.24 1837.18,1384.24 
  "/>
<path clip-path="url(#clip522)" d="
M1854.45 1384.24 L1854.45 1384.24 L1871.71 1384.24 L1871.71 1384.24 L1854.45 1384.24 L1854.45 1384.24  Z
  " fill="#009af9" fill-rule="evenodd" fill-opacity="1"/>
<polyline clip-path="url(#clip522)" style="stroke:#000000; stroke-linecap:butt; stroke-linejoin:round; stroke-width:4; stroke-opacity:1; fill:none" points="
  1854.45,1384.24 1854.45,1384.24 1871.71,1384.24 1854.45,1384.24 
  "/>
<path clip-path="url(#clip522)" d="
M1871.71 1384.24 L1871.71 1384.24 L1888.98 1384.24 L1888.98 1384.24 L1871.71 1384.24 L1871.71 1384.24  Z
  " fill="#009af9" fill-rule="evenodd" fill-opacity="1"/>
<polyline clip-path="url(#clip522)" style="stroke:#000000; stroke-linecap:butt; stroke-linejoin:round; stroke-width:4; stroke-opacity:1; fill:none" points="
  1871.71,1384.24 1871.71,1384.24 1888.98,1384.24 1871.71,1384.24 
  "/>
<path clip-path="url(#clip522)" d="
M1888.98 1383.45 L1888.98 1384.24 L1906.25 1384.24 L1906.25 1383.45 L1888.98 1383.45 L1888.98 1383.45  Z
  " fill="#009af9" fill-rule="evenodd" fill-opacity="1"/>
<polyline clip-path="url(#clip522)" style="stroke:#000000; stroke-linecap:butt; stroke-linejoin:round; stroke-width:4; stroke-opacity:1; fill:none" points="
  1888.98,1383.45 1888.98,1384.24 1906.25,1384.24 1906.25,1383.45 1888.98,1383.45 
  "/>
<path clip-path="url(#clip522)" d="
M1906.25 1384.24 L1906.25 1384.24 L1923.51 1384.24 L1923.51 1384.24 L1906.25 1384.24 L1906.25 1384.24  Z
  " fill="#009af9" fill-rule="evenodd" fill-opacity="1"/>
<polyline clip-path="url(#clip522)" style="stroke:#000000; stroke-linecap:butt; stroke-linejoin:round; stroke-width:4; stroke-opacity:1; fill:none" points="
  1906.25,1384.24 1906.25,1384.24 1923.51,1384.24 1906.25,1384.24 
  "/>
<path clip-path="url(#clip522)" d="
M1923.51 1384.24 L1923.51 1384.24 L1940.78 1384.24 L1940.78 1384.24 L1923.51 1384.24 L1923.51 1384.24  Z
  " fill="#009af9" fill-rule="evenodd" fill-opacity="1"/>
<polyline clip-path="url(#clip522)" style="stroke:#000000; stroke-linecap:butt; stroke-linejoin:round; stroke-width:4; stroke-opacity:1; fill:none" points="
  1923.51,1384.24 1923.51,1384.24 1940.78,1384.24 1923.51,1384.24 
  "/>
<path clip-path="url(#clip522)" d="
M1940.78 1383.45 L1940.78 1384.24 L1958.05 1384.24 L1958.05 1383.45 L1940.78 1383.45 L1940.78 1383.45  Z
  " fill="#009af9" fill-rule="evenodd" fill-opacity="1"/>
<polyline clip-path="url(#clip522)" style="stroke:#000000; stroke-linecap:butt; stroke-linejoin:round; stroke-width:4; stroke-opacity:1; fill:none" points="
  1940.78,1383.45 1940.78,1384.24 1958.05,1384.24 1958.05,1383.45 1940.78,1383.45 
  "/>
<path clip-path="url(#clip522)" d="
M1958.05 1383.45 L1958.05 1384.24 L1975.31 1384.24 L1975.31 1383.45 L1958.05 1383.45 L1958.05 1383.45  Z
  " fill="#009af9" fill-rule="evenodd" fill-opacity="1"/>
<polyline clip-path="url(#clip522)" style="stroke:#000000; stroke-linecap:butt; stroke-linejoin:round; stroke-width:4; stroke-opacity:1; fill:none" points="
  1958.05,1383.45 1958.05,1384.24 1975.31,1384.24 1975.31,1383.45 1958.05,1383.45 
  "/>
<path clip-path="url(#clip522)" d="
M1975.31 1384.24 L1975.31 1384.24 L1992.58 1384.24 L1992.58 1384.24 L1975.31 1384.24 L1975.31 1384.24  Z
  " fill="#009af9" fill-rule="evenodd" fill-opacity="1"/>
<polyline clip-path="url(#clip522)" style="stroke:#000000; stroke-linecap:butt; stroke-linejoin:round; stroke-width:4; stroke-opacity:1; fill:none" points="
  1975.31,1384.24 1975.31,1384.24 1992.58,1384.24 1975.31,1384.24 
  "/>
<path clip-path="url(#clip522)" d="
M1992.58 1383.45 L1992.58 1384.24 L2009.85 1384.24 L2009.85 1383.45 L1992.58 1383.45 L1992.58 1383.45  Z
  " fill="#009af9" fill-rule="evenodd" fill-opacity="1"/>
<polyline clip-path="url(#clip522)" style="stroke:#000000; stroke-linecap:butt; stroke-linejoin:round; stroke-width:4; stroke-opacity:1; fill:none" points="
  1992.58,1383.45 1992.58,1384.24 2009.85,1384.24 2009.85,1383.45 1992.58,1383.45 
  "/>
<path clip-path="url(#clip522)" d="
M2009.85 1384.24 L2009.85 1384.24 L2027.11 1384.24 L2027.11 1384.24 L2009.85 1384.24 L2009.85 1384.24  Z
  " fill="#009af9" fill-rule="evenodd" fill-opacity="1"/>
<polyline clip-path="url(#clip522)" style="stroke:#000000; stroke-linecap:butt; stroke-linejoin:round; stroke-width:4; stroke-opacity:1; fill:none" points="
  2009.85,1384.24 2009.85,1384.24 2027.11,1384.24 2009.85,1384.24 
  "/>
<path clip-path="url(#clip522)" d="
M2027.11 1384.24 L2027.11 1384.24 L2044.38 1384.24 L2044.38 1384.24 L2027.11 1384.24 L2027.11 1384.24  Z
  " fill="#009af9" fill-rule="evenodd" fill-opacity="1"/>
<polyline clip-path="url(#clip522)" style="stroke:#000000; stroke-linecap:butt; stroke-linejoin:round; stroke-width:4; stroke-opacity:1; fill:none" points="
  2027.11,1384.24 2027.11,1384.24 2044.38,1384.24 2027.11,1384.24 
  "/>
<path clip-path="url(#clip522)" d="
M2044.38 1384.24 L2044.38 1384.24 L2061.65 1384.24 L2061.65 1384.24 L2044.38 1384.24 L2044.38 1384.24  Z
  " fill="#009af9" fill-rule="evenodd" fill-opacity="1"/>
<polyline clip-path="url(#clip522)" style="stroke:#000000; stroke-linecap:butt; stroke-linejoin:round; stroke-width:4; stroke-opacity:1; fill:none" points="
  2044.38,1384.24 2044.38,1384.24 2061.65,1384.24 2044.38,1384.24 
  "/>
<path clip-path="url(#clip522)" d="
M2061.65 1383.45 L2061.65 1384.24 L2078.91 1384.24 L2078.91 1383.45 L2061.65 1383.45 L2061.65 1383.45  Z
  " fill="#009af9" fill-rule="evenodd" fill-opacity="1"/>
<polyline clip-path="url(#clip522)" style="stroke:#000000; stroke-linecap:butt; stroke-linejoin:round; stroke-width:4; stroke-opacity:1; fill:none" points="
  2061.65,1383.45 2061.65,1384.24 2078.91,1384.24 2078.91,1383.45 2061.65,1383.45 
  "/>
<path clip-path="url(#clip522)" d="
M2078.91 1383.45 L2078.91 1384.24 L2096.18 1384.24 L2096.18 1383.45 L2078.91 1383.45 L2078.91 1383.45  Z
  " fill="#009af9" fill-rule="evenodd" fill-opacity="1"/>
<polyline clip-path="url(#clip522)" style="stroke:#000000; stroke-linecap:butt; stroke-linejoin:round; stroke-width:4; stroke-opacity:1; fill:none" points="
  2078.91,1383.45 2078.91,1384.24 2096.18,1384.24 2096.18,1383.45 2078.91,1383.45 
  "/>
<path clip-path="url(#clip522)" d="
M2096.18 1384.24 L2096.18 1384.24 L2113.45 1384.24 L2113.45 1384.24 L2096.18 1384.24 L2096.18 1384.24  Z
  " fill="#009af9" fill-rule="evenodd" fill-opacity="1"/>
<polyline clip-path="url(#clip522)" style="stroke:#000000; stroke-linecap:butt; stroke-linejoin:round; stroke-width:4; stroke-opacity:1; fill:none" points="
  2096.18,1384.24 2096.18,1384.24 2113.45,1384.24 2096.18,1384.24 
  "/>
<path clip-path="url(#clip522)" d="
M2113.45 1384.24 L2113.45 1384.24 L2130.71 1384.24 L2130.71 1384.24 L2113.45 1384.24 L2113.45 1384.24  Z
  " fill="#009af9" fill-rule="evenodd" fill-opacity="1"/>
<polyline clip-path="url(#clip522)" style="stroke:#000000; stroke-linecap:butt; stroke-linejoin:round; stroke-width:4; stroke-opacity:1; fill:none" points="
  2113.45,1384.24 2113.45,1384.24 2130.71,1384.24 2113.45,1384.24 
  "/>
<path clip-path="url(#clip522)" d="
M2130.71 1381.88 L2130.71 1384.24 L2147.98 1384.24 L2147.98 1381.88 L2130.71 1381.88 L2130.71 1381.88  Z
  " fill="#009af9" fill-rule="evenodd" fill-opacity="1"/>
<polyline clip-path="url(#clip522)" style="stroke:#000000; stroke-linecap:butt; stroke-linejoin:round; stroke-width:4; stroke-opacity:1; fill:none" points="
  2130.71,1381.88 2130.71,1384.24 2147.98,1384.24 2147.98,1381.88 2130.71,1381.88 
  "/>
<path clip-path="url(#clip522)" d="
M2147.98 1384.24 L2147.98 1384.24 L2165.25 1384.24 L2165.25 1384.24 L2147.98 1384.24 L2147.98 1384.24  Z
  " fill="#009af9" fill-rule="evenodd" fill-opacity="1"/>
<polyline clip-path="url(#clip522)" style="stroke:#000000; stroke-linecap:butt; stroke-linejoin:round; stroke-width:4; stroke-opacity:1; fill:none" points="
  2147.98,1384.24 2147.98,1384.24 2165.25,1384.24 2147.98,1384.24 
  "/>
<path clip-path="url(#clip522)" d="
M2165.25 1383.45 L2165.25 1384.24 L2182.51 1384.24 L2182.51 1383.45 L2165.25 1383.45 L2165.25 1383.45  Z
  " fill="#009af9" fill-rule="evenodd" fill-opacity="1"/>
<polyline clip-path="url(#clip522)" style="stroke:#000000; stroke-linecap:butt; stroke-linejoin:round; stroke-width:4; stroke-opacity:1; fill:none" points="
  2165.25,1383.45 2165.25,1384.24 2182.51,1384.24 2182.51,1383.45 2165.25,1383.45 
  "/>
<path clip-path="url(#clip522)" d="
M2182.51 1384.24 L2182.51 1384.24 L2199.78 1384.24 L2199.78 1384.24 L2182.51 1384.24 L2182.51 1384.24  Z
  " fill="#009af9" fill-rule="evenodd" fill-opacity="1"/>
<polyline clip-path="url(#clip522)" style="stroke:#000000; stroke-linecap:butt; stroke-linejoin:round; stroke-width:4; stroke-opacity:1; fill:none" points="
  2182.51,1384.24 2182.51,1384.24 2199.78,1384.24 2182.51,1384.24 
  "/>
<path clip-path="url(#clip522)" d="
M2199.78 1384.24 L2199.78 1384.24 L2217.04 1384.24 L2217.04 1384.24 L2199.78 1384.24 L2199.78 1384.24  Z
  " fill="#009af9" fill-rule="evenodd" fill-opacity="1"/>
<polyline clip-path="url(#clip522)" style="stroke:#000000; stroke-linecap:butt; stroke-linejoin:round; stroke-width:4; stroke-opacity:1; fill:none" points="
  2199.78,1384.24 2199.78,1384.24 2217.04,1384.24 2199.78,1384.24 
  "/>
<path clip-path="url(#clip522)" d="
M2217.04 1382.66 L2217.04 1384.24 L2234.31 1384.24 L2234.31 1382.66 L2217.04 1382.66 L2217.04 1382.66  Z
  " fill="#009af9" fill-rule="evenodd" fill-opacity="1"/>
<polyline clip-path="url(#clip522)" style="stroke:#000000; stroke-linecap:butt; stroke-linejoin:round; stroke-width:4; stroke-opacity:1; fill:none" points="
  2217.04,1382.66 2217.04,1384.24 2234.31,1384.24 2234.31,1382.66 2217.04,1382.66 
  "/>
<circle clip-path="url(#clip522)" style="fill:#009af9; stroke:none; fill-opacity:0" cx="326.361" cy="1383.45" r="2"/>
<circle clip-path="url(#clip522)" style="fill:#009af9; stroke:none; fill-opacity:0" cx="343.628" cy="1382.66" r="2"/>
<circle clip-path="url(#clip522)" style="fill:#009af9; stroke:none; fill-opacity:0" cx="360.894" cy="1380.3" r="2"/>
<circle clip-path="url(#clip522)" style="fill:#009af9; stroke:none; fill-opacity:0" cx="378.161" cy="1374.8" r="2"/>
<circle clip-path="url(#clip522)" style="fill:#009af9; stroke:none; fill-opacity:0" cx="395.427" cy="1364.57" r="2"/>
<circle clip-path="url(#clip522)" style="fill:#009af9; stroke:none; fill-opacity:0" cx="412.694" cy="1337.04" r="2"/>
<circle clip-path="url(#clip522)" style="fill:#009af9; stroke:none; fill-opacity:0" cx="429.96" cy="1294.55" r="2"/>
<circle clip-path="url(#clip522)" style="fill:#009af9; stroke:none; fill-opacity:0" cx="447.227" cy="1236.34" r="2"/>
<circle clip-path="url(#clip522)" style="fill:#009af9; stroke:none; fill-opacity:0" cx="464.493" cy="1167.9" r="2"/>
<circle clip-path="url(#clip522)" style="fill:#009af9; stroke:none; fill-opacity:0" cx="481.76" cy="1009.77" r="2"/>
<circle clip-path="url(#clip522)" style="fill:#009af9; stroke:none; fill-opacity:0" cx="499.026" cy="888.618" r="2"/>
<circle clip-path="url(#clip522)" style="fill:#009af9; stroke:none; fill-opacity:0" cx="516.293" cy="777.694" r="2"/>
<circle clip-path="url(#clip522)" style="fill:#009af9; stroke:none; fill-opacity:0" cx="533.559" cy="613.274" r="2"/>
<circle clip-path="url(#clip522)" style="fill:#009af9; stroke:none; fill-opacity:0" cx="550.826" cy="474.028" r="2"/>
<circle clip-path="url(#clip522)" style="fill:#009af9; stroke:none; fill-opacity:0" cx="568.092" cy="292.301" r="2"/>
<circle clip-path="url(#clip522)" style="fill:#009af9; stroke:none; fill-opacity:0" cx="585.359" cy="168.002" r="2"/>
<circle clip-path="url(#clip522)" style="fill:#009af9; stroke:none; fill-opacity:0" cx="602.626" cy="135.748" r="2"/>
<circle clip-path="url(#clip522)" style="fill:#009af9; stroke:none; fill-opacity:0" cx="619.892" cy="86.1857" r="2"/>
<circle clip-path="url(#clip522)" style="fill:#009af9; stroke:none; fill-opacity:0" cx="637.159" cy="107.427" r="2"/>
<circle clip-path="url(#clip522)" style="fill:#009af9; stroke:none; fill-opacity:0" cx="654.425" cy="105.066" r="2"/>
<circle clip-path="url(#clip522)" style="fill:#009af9; stroke:none; fill-opacity:0" cx="671.692" cy="177.443" r="2"/>
<circle clip-path="url(#clip522)" style="fill:#009af9; stroke:none; fill-opacity:0" cx="688.958" cy="203.404" r="2"/>
<circle clip-path="url(#clip522)" style="fill:#009af9; stroke:none; fill-opacity:0" cx="706.225" cy="302.528" r="2"/>
<circle clip-path="url(#clip522)" style="fill:#009af9; stroke:none; fill-opacity:0" cx="723.491" cy="374.904" r="2"/>
<circle clip-path="url(#clip522)" style="fill:#009af9; stroke:none; fill-opacity:0" cx="740.758" cy="356.023" r="2"/>
<circle clip-path="url(#clip522)" style="fill:#009af9; stroke:none; fill-opacity:0" cx="758.024" cy="433.12" r="2"/>
<circle clip-path="url(#clip522)" style="fill:#009af9; stroke:none; fill-opacity:0" cx="775.291" cy="484.255" r="2"/>
<circle clip-path="url(#clip522)" style="fill:#009af9; stroke:none; fill-opacity:0" cx="792.557" cy="485.042" r="2"/>
<circle clip-path="url(#clip522)" style="fill:#009af9; stroke:none; fill-opacity:0" cx="809.824" cy="540.897" r="2"/>
<circle clip-path="url(#clip522)" style="fill:#009af9; stroke:none; fill-opacity:0" cx="827.09" cy="589.673" r="2"/>
<circle clip-path="url(#clip522)" style="fill:#009af9; stroke:none; fill-opacity:0" cx="844.357" cy="610.914" r="2"/>
<circle clip-path="url(#clip522)" style="fill:#009af9; stroke:none; fill-opacity:0" cx="861.623" cy="628.221" r="2"/>
<circle clip-path="url(#clip522)" style="fill:#009af9; stroke:none; fill-opacity:0" cx="878.89" cy="623.501" r="2"/>
<circle clip-path="url(#clip522)" style="fill:#009af9; stroke:none; fill-opacity:0" cx="896.156" cy="614.06" r="2"/>
<circle clip-path="url(#clip522)" style="fill:#009af9; stroke:none; fill-opacity:0" cx="913.423" cy="644.742" r="2"/>
<circle clip-path="url(#clip522)" style="fill:#009af9; stroke:none; fill-opacity:0" cx="930.689" cy="692.73" r="2"/>
<circle clip-path="url(#clip522)" style="fill:#009af9; stroke:none; fill-opacity:0" cx="947.956" cy="712.398" r="2"/>
<circle clip-path="url(#clip522)" style="fill:#009af9; stroke:none; fill-opacity:0" cx="965.222" cy="718.691" r="2"/>
<circle clip-path="url(#clip522)" style="fill:#009af9; stroke:none; fill-opacity:0" cx="982.489" cy="732.852" r="2"/>
<circle clip-path="url(#clip522)" style="fill:#009af9; stroke:none; fill-opacity:0" cx="999.755" cy="791.068" r="2"/>
<circle clip-path="url(#clip522)" style="fill:#009af9; stroke:none; fill-opacity:0" cx="1017.02" cy="802.081" r="2"/>
<circle clip-path="url(#clip522)" style="fill:#009af9; stroke:none; fill-opacity:0" cx="1034.29" cy="827.256" r="2"/>
<circle clip-path="url(#clip522)" style="fill:#009af9; stroke:none; fill-opacity:0" cx="1051.55" cy="894.912" r="2"/>
<circle clip-path="url(#clip522)" style="fill:#009af9; stroke:none; fill-opacity:0" cx="1068.82" cy="871.311" r="2"/>
<circle clip-path="url(#clip522)" style="fill:#009af9; stroke:none; fill-opacity:0" cx="1086.09" cy="901.992" r="2"/>
<circle clip-path="url(#clip522)" style="fill:#009af9; stroke:none; fill-opacity:0" cx="1103.35" cy="957.848" r="2"/>
<circle clip-path="url(#clip522)" style="fill:#009af9; stroke:none; fill-opacity:0" cx="1120.62" cy="926.38" r="2"/>
<circle clip-path="url(#clip522)" style="fill:#009af9; stroke:none; fill-opacity:0" cx="1137.89" cy="953.914" r="2"/>
<circle clip-path="url(#clip522)" style="fill:#009af9; stroke:none; fill-opacity:0" cx="1155.15" cy="1001.12" r="2"/>
<circle clip-path="url(#clip522)" style="fill:#009af9; stroke:none; fill-opacity:0" cx="1172.42" cy="1070.35" r="2"/>
<circle clip-path="url(#clip522)" style="fill:#009af9; stroke:none; fill-opacity:0" cx="1189.69" cy="1089.23" r="2"/>
<circle clip-path="url(#clip522)" style="fill:#009af9; stroke:none; fill-opacity:0" cx="1206.95" cy="1113.61" r="2"/>
<circle clip-path="url(#clip522)" style="fill:#009af9; stroke:none; fill-opacity:0" cx="1224.22" cy="1137.21" r="2"/>
<circle clip-path="url(#clip522)" style="fill:#009af9; stroke:none; fill-opacity:0" cx="1241.49" cy="1170.26" r="2"/>
<circle clip-path="url(#clip522)" style="fill:#009af9; stroke:none; fill-opacity:0" cx="1258.75" cy="1246.57" r="2"/>
<circle clip-path="url(#clip522)" style="fill:#009af9; stroke:none; fill-opacity:0" cx="1276.02" cy="1252.07" r="2"/>
<circle clip-path="url(#clip522)" style="fill:#009af9; stroke:none; fill-opacity:0" cx="1293.29" cy="1279.61" r="2"/>
<circle clip-path="url(#clip522)" style="fill:#009af9; stroke:none; fill-opacity:0" cx="1310.55" cy="1301.63" r="2"/>
<circle clip-path="url(#clip522)" style="fill:#009af9; stroke:none; fill-opacity:0" cx="1327.82" cy="1311.08" r="2"/>
<circle clip-path="url(#clip522)" style="fill:#009af9; stroke:none; fill-opacity:0" cx="1345.09" cy="1333.1" r="2"/>
<circle clip-path="url(#clip522)" style="fill:#009af9; stroke:none; fill-opacity:0" cx="1362.35" cy="1340.18" r="2"/>
<circle clip-path="url(#clip522)" style="fill:#009af9; stroke:none; fill-opacity:0" cx="1379.62" cy="1333.89" r="2"/>
<circle clip-path="url(#clip522)" style="fill:#009af9; stroke:none; fill-opacity:0" cx="1396.89" cy="1343.33" r="2"/>
<circle clip-path="url(#clip522)" style="fill:#009af9; stroke:none; fill-opacity:0" cx="1414.15" cy="1341.76" r="2"/>
<circle clip-path="url(#clip522)" style="fill:#009af9; stroke:none; fill-opacity:0" cx="1431.42" cy="1355.13" r="2"/>
<circle clip-path="url(#clip522)" style="fill:#009af9; stroke:none; fill-opacity:0" cx="1448.68" cy="1373.22" r="2"/>
<circle clip-path="url(#clip522)" style="fill:#009af9; stroke:none; fill-opacity:0" cx="1465.95" cy="1370.08" r="2"/>
<circle clip-path="url(#clip522)" style="fill:#009af9; stroke:none; fill-opacity:0" cx="1483.22" cy="1364.57" r="2"/>
<circle clip-path="url(#clip522)" style="fill:#009af9; stroke:none; fill-opacity:0" cx="1500.48" cy="1374.01" r="2"/>
<circle clip-path="url(#clip522)" style="fill:#009af9; stroke:none; fill-opacity:0" cx="1517.75" cy="1374.01" r="2"/>
<circle clip-path="url(#clip522)" style="fill:#009af9; stroke:none; fill-opacity:0" cx="1535.02" cy="1381.09" r="2"/>
<circle clip-path="url(#clip522)" style="fill:#009af9; stroke:none; fill-opacity:0" cx="1552.28" cy="1384.24" r="2"/>
<circle clip-path="url(#clip522)" style="fill:#009af9; stroke:none; fill-opacity:0" cx="1569.55" cy="1383.45" r="2"/>
<circle clip-path="url(#clip522)" style="fill:#009af9; stroke:none; fill-opacity:0" cx="1586.82" cy="1383.45" r="2"/>
<circle clip-path="url(#clip522)" style="fill:#009af9; stroke:none; fill-opacity:0" cx="1604.08" cy="1381.88" r="2"/>
<circle clip-path="url(#clip522)" style="fill:#009af9; stroke:none; fill-opacity:0" cx="1621.35" cy="1382.66" r="2"/>
<circle clip-path="url(#clip522)" style="fill:#009af9; stroke:none; fill-opacity:0" cx="1638.62" cy="1383.45" r="2"/>
<circle clip-path="url(#clip522)" style="fill:#009af9; stroke:none; fill-opacity:0" cx="1655.88" cy="1384.24" r="2"/>
<circle clip-path="url(#clip522)" style="fill:#009af9; stroke:none; fill-opacity:0" cx="1673.15" cy="1384.24" r="2"/>
<circle clip-path="url(#clip522)" style="fill:#009af9; stroke:none; fill-opacity:0" cx="1690.42" cy="1382.66" r="2"/>
<circle clip-path="url(#clip522)" style="fill:#009af9; stroke:none; fill-opacity:0" cx="1707.68" cy="1384.24" r="2"/>
<circle clip-path="url(#clip522)" style="fill:#009af9; stroke:none; fill-opacity:0" cx="1724.95" cy="1383.45" r="2"/>
<circle clip-path="url(#clip522)" style="fill:#009af9; stroke:none; fill-opacity:0" cx="1742.22" cy="1382.66" r="2"/>
<circle clip-path="url(#clip522)" style="fill:#009af9; stroke:none; fill-opacity:0" cx="1759.48" cy="1382.66" r="2"/>
<circle clip-path="url(#clip522)" style="fill:#009af9; stroke:none; fill-opacity:0" cx="1776.75" cy="1383.45" r="2"/>
<circle clip-path="url(#clip522)" style="fill:#009af9; stroke:none; fill-opacity:0" cx="1794.01" cy="1383.45" r="2"/>
<circle clip-path="url(#clip522)" style="fill:#009af9; stroke:none; fill-opacity:0" cx="1811.28" cy="1384.24" r="2"/>
<circle clip-path="url(#clip522)" style="fill:#009af9; stroke:none; fill-opacity:0" cx="1828.55" cy="1384.24" r="2"/>
<circle clip-path="url(#clip522)" style="fill:#009af9; stroke:none; fill-opacity:0" cx="1845.81" cy="1384.24" r="2"/>
<circle clip-path="url(#clip522)" style="fill:#009af9; stroke:none; fill-opacity:0" cx="1863.08" cy="1384.24" r="2"/>
<circle clip-path="url(#clip522)" style="fill:#009af9; stroke:none; fill-opacity:0" cx="1880.35" cy="1384.24" r="2"/>
<circle clip-path="url(#clip522)" style="fill:#009af9; stroke:none; fill-opacity:0" cx="1897.61" cy="1383.45" r="2"/>
<circle clip-path="url(#clip522)" style="fill:#009af9; stroke:none; fill-opacity:0" cx="1914.88" cy="1384.24" r="2"/>
<circle clip-path="url(#clip522)" style="fill:#009af9; stroke:none; fill-opacity:0" cx="1932.15" cy="1384.24" r="2"/>
<circle clip-path="url(#clip522)" style="fill:#009af9; stroke:none; fill-opacity:0" cx="1949.41" cy="1383.45" r="2"/>
<circle clip-path="url(#clip522)" style="fill:#009af9; stroke:none; fill-opacity:0" cx="1966.68" cy="1383.45" r="2"/>
<circle clip-path="url(#clip522)" style="fill:#009af9; stroke:none; fill-opacity:0" cx="1983.95" cy="1384.24" r="2"/>
<circle clip-path="url(#clip522)" style="fill:#009af9; stroke:none; fill-opacity:0" cx="2001.21" cy="1383.45" r="2"/>
<circle clip-path="url(#clip522)" style="fill:#009af9; stroke:none; fill-opacity:0" cx="2018.48" cy="1384.24" r="2"/>
<circle clip-path="url(#clip522)" style="fill:#009af9; stroke:none; fill-opacity:0" cx="2035.75" cy="1384.24" r="2"/>
<circle clip-path="url(#clip522)" style="fill:#009af9; stroke:none; fill-opacity:0" cx="2053.01" cy="1384.24" r="2"/>
<circle clip-path="url(#clip522)" style="fill:#009af9; stroke:none; fill-opacity:0" cx="2070.28" cy="1383.45" r="2"/>
<circle clip-path="url(#clip522)" style="fill:#009af9; stroke:none; fill-opacity:0" cx="2087.55" cy="1383.45" r="2"/>
<circle clip-path="url(#clip522)" style="fill:#009af9; stroke:none; fill-opacity:0" cx="2104.81" cy="1384.24" r="2"/>
<circle clip-path="url(#clip522)" style="fill:#009af9; stroke:none; fill-opacity:0" cx="2122.08" cy="1384.24" r="2"/>
<circle clip-path="url(#clip522)" style="fill:#009af9; stroke:none; fill-opacity:0" cx="2139.35" cy="1381.88" r="2"/>
<circle clip-path="url(#clip522)" style="fill:#009af9; stroke:none; fill-opacity:0" cx="2156.61" cy="1384.24" r="2"/>
<circle clip-path="url(#clip522)" style="fill:#009af9; stroke:none; fill-opacity:0" cx="2173.88" cy="1383.45" r="2"/>
<circle clip-path="url(#clip522)" style="fill:#009af9; stroke:none; fill-opacity:0" cx="2191.14" cy="1384.24" r="2"/>
<circle clip-path="url(#clip522)" style="fill:#009af9; stroke:none; fill-opacity:0" cx="2208.41" cy="1384.24" r="2"/>
<circle clip-path="url(#clip522)" style="fill:#009af9; stroke:none; fill-opacity:0" cx="2225.68" cy="1382.66" r="2"/>
</svg>
