<?xml version="1.0" encoding="utf-8"?>
<svg xmlns="http://www.w3.org/2000/svg" xmlns:xlink="http://www.w3.org/1999/xlink" width="600" height="400" viewBox="0 0 2400 1600">
<defs>
  <clipPath id="clip630">
    <rect x="0" y="0" width="2400" height="1600"/>
  </clipPath>
</defs>
<path clip-path="url(#clip630)" d="
M0 1600 L2400 1600 L2400 0 L0 0  Z
  " fill="#ffffff" fill-rule="evenodd" fill-opacity="1"/>
<defs>
  <clipPath id="clip631">
    <rect x="480" y="0" width="1681" height="1600"/>
  </clipPath>
</defs>
<path clip-path="url(#clip630)" d="
M202.177 1423.18 L2352.76 1423.18 L2352.76 47.2441 L202.177 47.2441  Z
  " fill="#ffffff" fill-rule="evenodd" fill-opacity="1"/>
<defs>
  <clipPath id="clip632">
    <rect x="202" y="47" width="2152" height="1377"/>
  </clipPath>
</defs>
<polyline clip-path="url(#clip632)" style="stroke:#000000; stroke-linecap:butt; stroke-linejoin:round; stroke-width:2; stroke-opacity:0.1; fill:none" points="
  607.564,1423.18 607.564,47.2441 
  "/>
<polyline clip-path="url(#clip632)" style="stroke:#000000; stroke-linecap:butt; stroke-linejoin:round; stroke-width:2; stroke-opacity:0.1; fill:none" points="
  1086.07,1423.18 1086.07,47.2441 
  "/>
<polyline clip-path="url(#clip632)" style="stroke:#000000; stroke-linecap:butt; stroke-linejoin:round; stroke-width:2; stroke-opacity:0.1; fill:none" points="
  1564.57,1423.18 1564.57,47.2441 
  "/>
<polyline clip-path="url(#clip632)" style="stroke:#000000; stroke-linecap:butt; stroke-linejoin:round; stroke-width:2; stroke-opacity:0.1; fill:none" points="
  2043.07,1423.18 2043.07,47.2441 
  "/>
<polyline clip-path="url(#clip630)" style="stroke:#000000; stroke-linecap:butt; stroke-linejoin:round; stroke-width:4; stroke-opacity:1; fill:none" points="
  202.177,1423.18 2352.76,1423.18 
  "/>
<polyline clip-path="url(#clip630)" style="stroke:#000000; stroke-linecap:butt; stroke-linejoin:round; stroke-width:4; stroke-opacity:1; fill:none" points="
  607.564,1423.18 607.564,1404.28 
  "/>
<polyline clip-path="url(#clip630)" style="stroke:#000000; stroke-linecap:butt; stroke-linejoin:round; stroke-width:4; stroke-opacity:1; fill:none" points="
  1086.07,1423.18 1086.07,1404.28 
  "/>
<polyline clip-path="url(#clip630)" style="stroke:#000000; stroke-linecap:butt; stroke-linejoin:round; stroke-width:4; stroke-opacity:1; fill:none" points="
  1564.57,1423.18 1564.57,1404.28 
  "/>
<polyline clip-path="url(#clip630)" style="stroke:#000000; stroke-linecap:butt; stroke-linejoin:round; stroke-width:4; stroke-opacity:1; fill:none" points="
  2043.07,1423.18 2043.07,1404.28 
  "/>
<path clip-path="url(#clip630)" d="M585.747 1452.37 Q582.135 1452.37 580.307 1455.94 Q578.501 1459.48 578.501 1466.61 Q578.501 1473.71 580.307 1477.28 Q582.135 1480.82 585.747 1480.82 Q589.381 1480.82 591.186 1477.28 Q593.015 1473.71 593.015 1466.61 Q593.015 1459.48 591.186 1455.94 Q589.381 1452.37 585.747 1452.37 M585.747 1448.67 Q591.557 1448.67 594.612 1453.27 Q597.691 1457.86 597.691 1466.61 Q597.691 1475.33 594.612 1479.94 Q591.557 1484.52 585.747 1484.52 Q579.936 1484.52 576.858 1479.94 Q573.802 1475.33 573.802 1466.61 Q573.802 1457.86 576.858 1453.27 Q579.936 1448.67 585.747 1448.67 Z" fill="#000000" fill-rule="evenodd" fill-opacity="1" /><path clip-path="url(#clip630)" d="M605.908 1477.97 L610.793 1477.97 L610.793 1483.85 L605.908 1483.85 L605.908 1477.97 Z" fill="#000000" fill-rule="evenodd" fill-opacity="1" /><path clip-path="url(#clip630)" d="M625.006 1479.92 L641.325 1479.92 L641.325 1483.85 L619.381 1483.85 L619.381 1479.92 Q622.043 1477.16 626.626 1472.53 Q631.232 1467.88 632.413 1466.54 Q634.658 1464.01 635.538 1462.28 Q636.441 1460.52 636.441 1458.83 Q636.441 1456.07 634.496 1454.34 Q632.575 1452.6 629.473 1452.6 Q627.274 1452.6 624.82 1453.37 Q622.39 1454.13 619.612 1455.68 L619.612 1450.96 Q622.436 1449.82 624.89 1449.25 Q627.344 1448.67 629.381 1448.67 Q634.751 1448.67 637.945 1451.35 Q641.14 1454.04 641.14 1458.53 Q641.14 1460.66 640.33 1462.58 Q639.543 1464.48 637.436 1467.07 Q636.857 1467.74 633.756 1470.96 Q630.654 1474.15 625.006 1479.92 Z" fill="#000000" fill-rule="evenodd" fill-opacity="1" /><path clip-path="url(#clip630)" d="M1063.21 1452.37 Q1059.6 1452.37 1057.77 1455.94 Q1055.96 1459.48 1055.96 1466.61 Q1055.96 1473.71 1057.77 1477.28 Q1059.6 1480.82 1063.21 1480.82 Q1066.84 1480.82 1068.65 1477.28 Q1070.48 1473.71 1070.48 1466.61 Q1070.48 1459.48 1068.65 1455.94 Q1066.84 1452.37 1063.21 1452.37 M1063.21 1448.67 Q1069.02 1448.67 1072.07 1453.27 Q1075.15 1457.86 1075.15 1466.61 Q1075.15 1475.33 1072.07 1479.94 Q1069.02 1484.52 1063.21 1484.52 Q1057.4 1484.52 1054.32 1479.94 Q1051.26 1475.33 1051.26 1466.61 Q1051.26 1457.86 1054.32 1453.27 Q1057.4 1448.67 1063.21 1448.67 Z" fill="#000000" fill-rule="evenodd" fill-opacity="1" /><path clip-path="url(#clip630)" d="M1083.37 1477.97 L1088.25 1477.97 L1088.25 1483.85 L1083.37 1483.85 L1083.37 1477.97 Z" fill="#000000" fill-rule="evenodd" fill-opacity="1" /><path clip-path="url(#clip630)" d="M1111.29 1453.37 L1099.48 1471.81 L1111.29 1471.81 L1111.29 1453.37 M1110.06 1449.29 L1115.94 1449.29 L1115.94 1471.81 L1120.87 1471.81 L1120.87 1475.7 L1115.94 1475.7 L1115.94 1483.85 L1111.29 1483.85 L1111.29 1475.7 L1095.68 1475.7 L1095.68 1471.19 L1110.06 1449.29 Z" fill="#000000" fill-rule="evenodd" fill-opacity="1" /><path clip-path="url(#clip630)" d="M1541.87 1452.37 Q1538.26 1452.37 1536.43 1455.94 Q1534.63 1459.48 1534.63 1466.61 Q1534.63 1473.71 1536.43 1477.28 Q1538.26 1480.82 1541.87 1480.82 Q1545.51 1480.82 1547.31 1477.28 Q1549.14 1473.71 1549.14 1466.61 Q1549.14 1459.48 1547.31 1455.94 Q1545.51 1452.37 1541.87 1452.37 M1541.87 1448.67 Q1547.68 1448.67 1550.74 1453.27 Q1553.82 1457.86 1553.82 1466.61 Q1553.82 1475.33 1550.74 1479.94 Q1547.68 1484.52 1541.87 1484.52 Q1536.06 1484.52 1532.98 1479.94 Q1529.93 1475.33 1529.93 1466.61 Q1529.93 1457.86 1532.98 1453.27 Q1536.06 1448.67 1541.87 1448.67 Z" fill="#000000" fill-rule="evenodd" fill-opacity="1" /><path clip-path="url(#clip630)" d="M1562.03 1477.97 L1566.92 1477.97 L1566.92 1483.85 L1562.03 1483.85 L1562.03 1477.97 Z" fill="#000000" fill-rule="evenodd" fill-opacity="1" /><path clip-path="url(#clip630)" d="M1587.68 1464.71 Q1584.53 1464.71 1582.68 1466.86 Q1580.85 1469.01 1580.85 1472.76 Q1580.85 1476.49 1582.68 1478.67 Q1584.53 1480.82 1587.68 1480.82 Q1590.83 1480.82 1592.66 1478.67 Q1594.51 1476.49 1594.51 1472.76 Q1594.51 1469.01 1592.66 1466.86 Q1590.83 1464.71 1587.68 1464.71 M1596.96 1450.06 L1596.96 1454.31 Q1595.2 1453.48 1593.4 1453.04 Q1591.62 1452.6 1589.86 1452.6 Q1585.23 1452.6 1582.77 1455.73 Q1580.34 1458.85 1580 1465.17 Q1581.36 1463.16 1583.42 1462.09 Q1585.48 1461 1587.96 1461 Q1593.17 1461 1596.18 1464.18 Q1599.21 1467.32 1599.21 1472.76 Q1599.21 1478.09 1596.06 1481.31 Q1592.91 1484.52 1587.68 1484.52 Q1581.69 1484.52 1578.51 1479.94 Q1575.34 1475.33 1575.34 1466.61 Q1575.34 1458.41 1579.23 1453.55 Q1583.12 1448.67 1589.67 1448.67 Q1591.43 1448.67 1593.21 1449.01 Q1595.02 1449.36 1596.96 1450.06 Z" fill="#000000" fill-rule="evenodd" fill-opacity="1" /><path clip-path="url(#clip630)" d="M2020.5 1452.37 Q2016.89 1452.37 2015.06 1455.94 Q2013.25 1459.48 2013.25 1466.61 Q2013.25 1473.71 2015.06 1477.28 Q2016.89 1480.82 2020.5 1480.82 Q2024.13 1480.82 2025.94 1477.28 Q2027.77 1473.71 2027.77 1466.61 Q2027.77 1459.48 2025.94 1455.94 Q2024.13 1452.37 2020.5 1452.37 M2020.5 1448.67 Q2026.31 1448.67 2029.37 1453.27 Q2032.44 1457.86 2032.44 1466.61 Q2032.44 1475.33 2029.37 1479.94 Q2026.31 1484.52 2020.5 1484.52 Q2014.69 1484.52 2011.61 1479.94 Q2008.56 1475.33 2008.56 1466.61 Q2008.56 1457.86 2011.61 1453.27 Q2014.69 1448.67 2020.5 1448.67 Z" fill="#000000" fill-rule="evenodd" fill-opacity="1" /><path clip-path="url(#clip630)" d="M2040.66 1477.97 L2045.55 1477.97 L2045.55 1483.85 L2040.66 1483.85 L2040.66 1477.97 Z" fill="#000000" fill-rule="evenodd" fill-opacity="1" /><path clip-path="url(#clip630)" d="M2065.73 1467.44 Q2062.4 1467.44 2060.48 1469.22 Q2058.58 1471 2058.58 1474.13 Q2058.58 1477.25 2060.48 1479.04 Q2062.4 1480.82 2065.73 1480.82 Q2069.06 1480.82 2070.99 1479.04 Q2072.91 1477.23 2072.91 1474.13 Q2072.91 1471 2070.99 1469.22 Q2069.09 1467.44 2065.73 1467.44 M2061.06 1465.45 Q2058.05 1464.71 2056.36 1462.65 Q2054.69 1460.59 2054.69 1457.63 Q2054.69 1453.48 2057.63 1451.07 Q2060.59 1448.67 2065.73 1448.67 Q2070.89 1448.67 2073.83 1451.07 Q2076.77 1453.48 2076.77 1457.63 Q2076.77 1460.59 2075.08 1462.65 Q2073.42 1464.71 2070.43 1465.45 Q2073.81 1466.24 2075.69 1468.53 Q2077.58 1470.82 2077.58 1474.13 Q2077.58 1479.15 2074.5 1481.84 Q2071.45 1484.52 2065.73 1484.52 Q2060.01 1484.52 2056.94 1481.84 Q2053.88 1479.15 2053.88 1474.13 Q2053.88 1470.82 2055.78 1468.53 Q2057.68 1466.24 2061.06 1465.45 M2059.34 1458.06 Q2059.34 1460.75 2061.01 1462.25 Q2062.7 1463.76 2065.73 1463.76 Q2068.74 1463.76 2070.43 1462.25 Q2072.14 1460.75 2072.14 1458.06 Q2072.14 1455.38 2070.43 1453.88 Q2068.74 1452.37 2065.73 1452.37 Q2062.7 1452.37 2061.01 1453.88 Q2059.34 1455.38 2059.34 1458.06 Z" fill="#000000" fill-rule="evenodd" fill-opacity="1" /><path clip-path="url(#clip630)" d="M1134.3 1539.24 Q1136.5 1535.29 1139.55 1533.41 Q1142.61 1531.54 1146.75 1531.54 Q1152.32 1531.54 1155.34 1535.45 Q1158.36 1539.33 1158.36 1546.53 L1158.36 1568.04 L1152.48 1568.04 L1152.48 1546.72 Q1152.48 1541.59 1150.66 1539.11 Q1148.85 1536.63 1145.12 1536.63 Q1140.57 1536.63 1137.93 1539.65 Q1135.29 1542.68 1135.29 1547.9 L1135.29 1568.04 L1129.4 1568.04 L1129.4 1546.72 Q1129.4 1541.56 1127.59 1539.11 Q1125.77 1536.63 1121.98 1536.63 Q1117.5 1536.63 1114.85 1539.68 Q1112.21 1542.71 1112.21 1547.9 L1112.21 1568.04 L1106.32 1568.04 L1106.32 1532.4 L1112.21 1532.4 L1112.21 1537.93 Q1114.22 1534.66 1117.02 1533.1 Q1119.82 1531.54 1123.67 1531.54 Q1127.55 1531.54 1130.26 1533.51 Q1133 1535.48 1134.3 1539.24 Z" fill="#000000" fill-rule="evenodd" fill-opacity="1" /><path clip-path="url(#clip630)" d="M1186.25 1550.12 Q1179.15 1550.12 1176.41 1551.75 Q1173.67 1553.37 1173.67 1557.29 Q1173.67 1560.4 1175.71 1562.25 Q1177.78 1564.07 1181.31 1564.07 Q1186.18 1564.07 1189.11 1560.63 Q1192.07 1557.16 1192.07 1551.43 L1192.07 1550.12 L1186.25 1550.12 M1197.93 1547.71 L1197.93 1568.04 L1192.07 1568.04 L1192.07 1562.63 Q1190.07 1565.88 1187.07 1567.44 Q1184.08 1568.97 1179.75 1568.97 Q1174.28 1568.97 1171.03 1565.91 Q1167.82 1562.82 1167.82 1557.67 Q1167.82 1551.65 1171.83 1548.6 Q1175.87 1545.54 1183.86 1545.54 L1192.07 1545.54 L1192.07 1544.97 Q1192.07 1540.93 1189.4 1538.73 Q1186.75 1536.5 1181.95 1536.5 Q1178.89 1536.5 1176 1537.23 Q1173.1 1537.97 1170.43 1539.43 L1170.43 1534.02 Q1173.64 1532.78 1176.67 1532.17 Q1179.69 1531.54 1182.55 1531.54 Q1190.29 1531.54 1194.11 1535.55 Q1197.93 1539.56 1197.93 1547.71 Z" fill="#000000" fill-rule="evenodd" fill-opacity="1" /><path clip-path="url(#clip630)" d="M1232.72 1533.45 L1232.72 1538.98 Q1230.23 1537.71 1227.56 1537.07 Q1224.89 1536.44 1222.02 1536.44 Q1217.66 1536.44 1215.46 1537.77 Q1213.3 1539.11 1213.3 1541.79 Q1213.3 1543.82 1214.86 1545 Q1216.42 1546.15 1221.13 1547.2 L1223.13 1547.64 Q1229.37 1548.98 1231.98 1551.43 Q1234.63 1553.85 1234.63 1558.21 Q1234.63 1563.17 1230.68 1566.07 Q1226.76 1568.97 1219.89 1568.97 Q1217.02 1568.97 1213.9 1568.39 Q1210.82 1567.85 1207.38 1566.74 L1207.38 1560.69 Q1210.63 1562.38 1213.78 1563.24 Q1216.93 1564.07 1220.02 1564.07 Q1224.15 1564.07 1226.38 1562.66 Q1228.61 1561.23 1228.61 1558.65 Q1228.61 1556.27 1226.99 1554.99 Q1225.39 1553.72 1219.95 1552.54 L1217.92 1552.07 Q1212.47 1550.92 1210.05 1548.56 Q1207.63 1546.18 1207.63 1542.04 Q1207.63 1537.01 1211.2 1534.27 Q1214.76 1531.54 1221.32 1531.54 Q1224.57 1531.54 1227.43 1532.01 Q1230.3 1532.49 1232.72 1533.45 Z" fill="#000000" fill-rule="evenodd" fill-opacity="1" /><path clip-path="url(#clip630)" d="M1266.68 1533.45 L1266.68 1538.98 Q1264.19 1537.71 1261.52 1537.07 Q1258.85 1536.44 1255.98 1536.44 Q1251.62 1536.44 1249.43 1537.77 Q1247.26 1539.11 1247.26 1541.79 Q1247.26 1543.82 1248.82 1545 Q1250.38 1546.15 1255.09 1547.2 L1257.1 1547.64 Q1263.33 1548.98 1265.94 1551.43 Q1268.59 1553.85 1268.59 1558.21 Q1268.59 1563.17 1264.64 1566.07 Q1260.72 1568.97 1253.85 1568.97 Q1250.98 1568.97 1247.87 1568.39 Q1244.78 1567.85 1241.34 1566.74 L1241.34 1560.69 Q1244.59 1562.38 1247.74 1563.24 Q1250.89 1564.07 1253.98 1564.07 Q1258.11 1564.07 1260.34 1562.66 Q1262.57 1561.23 1262.57 1558.65 Q1262.57 1556.27 1260.95 1554.99 Q1259.36 1553.72 1253.91 1552.54 L1251.88 1552.07 Q1246.43 1550.92 1244.01 1548.56 Q1241.6 1546.18 1241.6 1542.04 Q1241.6 1537.01 1245.16 1534.27 Q1248.73 1531.54 1255.28 1531.54 Q1258.53 1531.54 1261.39 1532.01 Q1264.26 1532.49 1266.68 1533.45 Z" fill="#000000" fill-rule="evenodd" fill-opacity="1" /><path clip-path="url(#clip630)" d="M1312.7 1518.58 Q1308.44 1525.9 1306.37 1533.06 Q1304.3 1540.23 1304.3 1547.58 Q1304.3 1554.93 1306.37 1562.16 Q1308.47 1569.35 1312.7 1576.64 L1307.61 1576.64 Q1302.83 1569.16 1300.45 1561.93 Q1298.09 1554.71 1298.09 1547.58 Q1298.09 1540.48 1300.45 1533.29 Q1302.8 1526.09 1307.61 1518.58 L1312.7 1518.58 Z" fill="#000000" fill-rule="evenodd" fill-opacity="1" /><path clip-path="url(#clip630)" d="M1324.32 1520.52 L1333.9 1520.52 L1346.02 1552.86 L1358.22 1520.52 L1367.8 1520.52 L1367.8 1568.04 L1361.53 1568.04 L1361.53 1526.32 L1349.27 1558.91 L1342.81 1558.91 L1330.56 1526.32 L1330.56 1568.04 L1324.32 1568.04 L1324.32 1520.52 Z" fill="#000000" fill-rule="evenodd" fill-opacity="1" /><path clip-path="url(#clip630)" d="M1398.1 1543.57 L1404.84 1543.57 L1404.84 1551.65 L1398.1 1551.65 L1398.1 1543.57 M1407.84 1532.17 Q1404.88 1530.93 1401.47 1530.93 Q1398.06 1530.93 1395.1 1532.17 Q1392.18 1533.41 1389.76 1535.83 Q1387.31 1538.28 1386.1 1541.21 Q1384.89 1544.14 1384.89 1547.61 Q1384.89 1550.98 1386.1 1553.91 Q1387.31 1556.84 1389.76 1559.29 Q1392.18 1561.71 1395.1 1562.95 Q1398.06 1564.19 1401.47 1564.19 Q1404.88 1564.19 1407.84 1562.95 Q1410.76 1561.71 1413.18 1559.29 Q1415.63 1556.84 1416.84 1553.91 Q1418.05 1550.98 1418.05 1547.61 Q1418.05 1544.14 1416.84 1541.21 Q1415.63 1538.28 1413.18 1535.83 Q1410.76 1533.41 1407.84 1532.17 M1393.29 1527.75 Q1397.08 1526.16 1401.47 1526.16 Q1405.86 1526.16 1409.65 1527.75 Q1413.44 1529.34 1416.56 1532.46 Q1419.71 1535.61 1421.27 1539.4 Q1422.83 1543.15 1422.83 1547.61 Q1422.83 1551.97 1421.27 1555.76 Q1419.71 1559.51 1416.56 1562.66 Q1413.44 1565.78 1409.65 1567.38 Q1405.86 1568.97 1401.47 1568.97 Q1397.08 1568.97 1393.29 1567.38 Q1389.5 1565.78 1386.38 1562.66 Q1383.23 1559.51 1381.67 1555.76 Q1380.11 1551.97 1380.11 1547.61 Q1380.11 1543.15 1381.67 1539.4 Q1383.23 1535.61 1386.38 1532.46 Q1389.5 1529.34 1393.29 1527.75 Z" fill="#000000" fill-rule="evenodd" fill-opacity="1" /><path clip-path="url(#clip630)" d="M1434 1518.58 L1439.09 1518.58 Q1443.87 1526.09 1446.22 1533.29 Q1448.61 1540.48 1448.61 1547.58 Q1448.61 1554.71 1446.22 1561.93 Q1443.87 1569.16 1439.09 1576.64 L1434 1576.64 Q1438.23 1569.35 1440.3 1562.16 Q1442.4 1554.93 1442.4 1547.58 Q1442.4 1540.23 1440.3 1533.06 Q1438.23 1525.9 1434 1518.58 Z" fill="#000000" fill-rule="evenodd" fill-opacity="1" /><polyline clip-path="url(#clip632)" style="stroke:#000000; stroke-linecap:butt; stroke-linejoin:round; stroke-width:2; stroke-opacity:0.1; fill:none" points="
  202.177,1384.24 2352.76,1384.24 
  "/>
<polyline clip-path="url(#clip632)" style="stroke:#000000; stroke-linecap:butt; stroke-linejoin:round; stroke-width:2; stroke-opacity:0.1; fill:none" points="
  202.177,1158.61 2352.76,1158.61 
  "/>
<polyline clip-path="url(#clip632)" style="stroke:#000000; stroke-linecap:butt; stroke-linejoin:round; stroke-width:2; stroke-opacity:0.1; fill:none" points="
  202.177,932.977 2352.76,932.977 
  "/>
<polyline clip-path="url(#clip632)" style="stroke:#000000; stroke-linecap:butt; stroke-linejoin:round; stroke-width:2; stroke-opacity:0.1; fill:none" points="
  202.177,707.347 2352.76,707.347 
  "/>
<polyline clip-path="url(#clip632)" style="stroke:#000000; stroke-linecap:butt; stroke-linejoin:round; stroke-width:2; stroke-opacity:0.1; fill:none" points="
  202.177,481.716 2352.76,481.716 
  "/>
<polyline clip-path="url(#clip632)" style="stroke:#000000; stroke-linecap:butt; stroke-linejoin:round; stroke-width:2; stroke-opacity:0.1; fill:none" points="
  202.177,256.085 2352.76,256.085 
  "/>
<polyline clip-path="url(#clip630)" style="stroke:#000000; stroke-linecap:butt; stroke-linejoin:round; stroke-width:4; stroke-opacity:1; fill:none" points="
  202.177,1423.18 202.177,47.2441 
  "/>
<polyline clip-path="url(#clip630)" style="stroke:#000000; stroke-linecap:butt; stroke-linejoin:round; stroke-width:4; stroke-opacity:1; fill:none" points="
  202.177,1384.24 221.074,1384.24 
  "/>
<polyline clip-path="url(#clip630)" style="stroke:#000000; stroke-linecap:butt; stroke-linejoin:round; stroke-width:4; stroke-opacity:1; fill:none" points="
  202.177,1158.61 221.074,1158.61 
  "/>
<polyline clip-path="url(#clip630)" style="stroke:#000000; stroke-linecap:butt; stroke-linejoin:round; stroke-width:4; stroke-opacity:1; fill:none" points="
  202.177,932.977 221.074,932.977 
  "/>
<polyline clip-path="url(#clip630)" style="stroke:#000000; stroke-linecap:butt; stroke-linejoin:round; stroke-width:4; stroke-opacity:1; fill:none" points="
  202.177,707.347 221.074,707.347 
  "/>
<polyline clip-path="url(#clip630)" style="stroke:#000000; stroke-linecap:butt; stroke-linejoin:round; stroke-width:4; stroke-opacity:1; fill:none" points="
  202.177,481.716 221.074,481.716 
  "/>
<polyline clip-path="url(#clip630)" style="stroke:#000000; stroke-linecap:butt; stroke-linejoin:round; stroke-width:4; stroke-opacity:1; fill:none" points="
  202.177,256.085 221.074,256.085 
  "/>
<path clip-path="url(#clip630)" d="M154.232 1370.04 Q150.621 1370.04 148.793 1373.6 Q146.987 1377.14 146.987 1384.27 Q146.987 1391.38 148.793 1394.94 Q150.621 1398.49 154.232 1398.49 Q157.867 1398.49 159.672 1394.94 Q161.501 1391.38 161.501 1384.27 Q161.501 1377.14 159.672 1373.6 Q157.867 1370.04 154.232 1370.04 M154.232 1366.33 Q160.042 1366.33 163.098 1370.94 Q166.177 1375.52 166.177 1384.27 Q166.177 1393 163.098 1397.61 Q160.042 1402.19 154.232 1402.19 Q148.422 1402.19 145.343 1397.61 Q142.288 1393 142.288 1384.27 Q142.288 1375.52 145.343 1370.94 Q148.422 1366.33 154.232 1366.33 Z" fill="#000000" fill-rule="evenodd" fill-opacity="1" /><path clip-path="url(#clip630)" d="M54.5569 1171.95 L62.1958 1171.95 L62.1958 1145.59 L53.8856 1147.25 L53.8856 1142.99 L62.1495 1141.33 L66.8254 1141.33 L66.8254 1171.95 L74.4642 1171.95 L74.4642 1175.89 L54.5569 1175.89 L54.5569 1171.95 Z" fill="#000000" fill-rule="evenodd" fill-opacity="1" /><path clip-path="url(#clip630)" d="M93.9086 1144.41 Q90.2975 1144.41 88.4688 1147.97 Q86.6632 1151.51 86.6632 1158.64 Q86.6632 1165.75 88.4688 1169.31 Q90.2975 1172.86 93.9086 1172.86 Q97.5428 1172.86 99.3483 1169.31 Q101.177 1165.75 101.177 1158.64 Q101.177 1151.51 99.3483 1147.97 Q97.5428 1144.41 93.9086 1144.41 M93.9086 1140.7 Q99.7187 1140.7 102.774 1145.31 Q105.853 1149.89 105.853 1158.64 Q105.853 1167.37 102.774 1171.98 Q99.7187 1176.56 93.9086 1176.56 Q88.0984 1176.56 85.0197 1171.98 Q81.9642 1167.37 81.9642 1158.64 Q81.9642 1149.89 85.0197 1145.31 Q88.0984 1140.7 93.9086 1140.7 Z" fill="#000000" fill-rule="evenodd" fill-opacity="1" /><path clip-path="url(#clip630)" d="M124.07 1144.41 Q120.459 1144.41 118.631 1147.97 Q116.825 1151.51 116.825 1158.64 Q116.825 1165.75 118.631 1169.31 Q120.459 1172.86 124.07 1172.86 Q127.705 1172.86 129.51 1169.31 Q131.339 1165.75 131.339 1158.64 Q131.339 1151.51 129.51 1147.97 Q127.705 1144.41 124.07 1144.41 M124.07 1140.7 Q129.881 1140.7 132.936 1145.31 Q136.015 1149.89 136.015 1158.64 Q136.015 1167.37 132.936 1171.98 Q129.881 1176.56 124.07 1176.56 Q118.26 1176.56 115.182 1171.98 Q112.126 1167.37 112.126 1158.64 Q112.126 1149.89 115.182 1145.31 Q118.26 1140.7 124.07 1140.7 Z" fill="#000000" fill-rule="evenodd" fill-opacity="1" /><path clip-path="url(#clip630)" d="M154.232 1144.41 Q150.621 1144.41 148.793 1147.97 Q146.987 1151.51 146.987 1158.64 Q146.987 1165.75 148.793 1169.31 Q150.621 1172.86 154.232 1172.86 Q157.867 1172.86 159.672 1169.31 Q161.501 1165.75 161.501 1158.64 Q161.501 1151.51 159.672 1147.97 Q157.867 1144.41 154.232 1144.41 M154.232 1140.7 Q160.042 1140.7 163.098 1145.31 Q166.177 1149.89 166.177 1158.64 Q166.177 1167.37 163.098 1171.98 Q160.042 1176.56 154.232 1176.56 Q148.422 1176.56 145.343 1171.98 Q142.288 1167.37 142.288 1158.64 Q142.288 1149.89 145.343 1145.31 Q148.422 1140.7 154.232 1140.7 Z" fill="#000000" fill-rule="evenodd" fill-opacity="1" /><path clip-path="url(#clip630)" d="M57.7745 946.322 L74.0939 946.322 L74.0939 950.257 L52.1495 950.257 L52.1495 946.322 Q54.8115 943.567 59.3949 938.938 Q64.0013 934.285 65.1819 932.942 Q67.4272 930.419 68.3068 928.683 Q69.2096 926.924 69.2096 925.234 Q69.2096 922.48 67.2652 920.743 Q65.3439 919.007 62.2421 919.007 Q60.043 919.007 57.5893 919.771 Q55.1588 920.535 52.381 922.086 L52.381 917.364 Q55.2051 916.23 57.6588 915.651 Q60.1124 915.072 62.1495 915.072 Q67.5198 915.072 70.7142 917.757 Q73.9087 920.442 73.9087 924.933 Q73.9087 927.063 73.0985 928.984 Q72.3115 930.882 70.205 933.475 Q69.6263 934.146 66.5245 937.364 Q63.4226 940.558 57.7745 946.322 Z" fill="#000000" fill-rule="evenodd" fill-opacity="1" /><path clip-path="url(#clip630)" d="M93.9086 918.776 Q90.2975 918.776 88.4688 922.341 Q86.6632 925.882 86.6632 933.012 Q86.6632 940.118 88.4688 943.683 Q90.2975 947.225 93.9086 947.225 Q97.5428 947.225 99.3483 943.683 Q101.177 940.118 101.177 933.012 Q101.177 925.882 99.3483 922.341 Q97.5428 918.776 93.9086 918.776 M93.9086 915.072 Q99.7187 915.072 102.774 919.679 Q105.853 924.262 105.853 933.012 Q105.853 941.739 102.774 946.345 Q99.7187 950.928 93.9086 950.928 Q88.0984 950.928 85.0197 946.345 Q81.9642 941.739 81.9642 933.012 Q81.9642 924.262 85.0197 919.679 Q88.0984 915.072 93.9086 915.072 Z" fill="#000000" fill-rule="evenodd" fill-opacity="1" /><path clip-path="url(#clip630)" d="M124.07 918.776 Q120.459 918.776 118.631 922.341 Q116.825 925.882 116.825 933.012 Q116.825 940.118 118.631 943.683 Q120.459 947.225 124.07 947.225 Q127.705 947.225 129.51 943.683 Q131.339 940.118 131.339 933.012 Q131.339 925.882 129.51 922.341 Q127.705 918.776 124.07 918.776 M124.07 915.072 Q129.881 915.072 132.936 919.679 Q136.015 924.262 136.015 933.012 Q136.015 941.739 132.936 946.345 Q129.881 950.928 124.07 950.928 Q118.26 950.928 115.182 946.345 Q112.126 941.739 112.126 933.012 Q112.126 924.262 115.182 919.679 Q118.26 915.072 124.07 915.072 Z" fill="#000000" fill-rule="evenodd" fill-opacity="1" /><path clip-path="url(#clip630)" d="M154.232 918.776 Q150.621 918.776 148.793 922.341 Q146.987 925.882 146.987 933.012 Q146.987 940.118 148.793 943.683 Q150.621 947.225 154.232 947.225 Q157.867 947.225 159.672 943.683 Q161.501 940.118 161.501 933.012 Q161.501 925.882 159.672 922.341 Q157.867 918.776 154.232 918.776 M154.232 915.072 Q160.042 915.072 163.098 919.679 Q166.177 924.262 166.177 933.012 Q166.177 941.739 163.098 946.345 Q160.042 950.928 154.232 950.928 Q148.422 950.928 145.343 946.345 Q142.288 941.739 142.288 933.012 Q142.288 924.262 145.343 919.679 Q148.422 915.072 154.232 915.072 Z" fill="#000000" fill-rule="evenodd" fill-opacity="1" /><path clip-path="url(#clip630)" d="M67.9133 705.992 Q71.2698 706.71 73.1448 708.979 Q75.0429 711.247 75.0429 714.58 Q75.0429 719.696 71.5244 722.497 Q68.0059 725.298 61.5245 725.298 Q59.3486 725.298 57.0338 724.858 Q54.7421 724.441 52.2884 723.585 L52.2884 719.071 Q54.2328 720.205 56.5477 720.784 Q58.8625 721.363 61.3856 721.363 Q65.7837 721.363 68.0754 719.627 Q70.3902 717.891 70.3902 714.58 Q70.3902 711.525 68.2374 709.812 Q66.1078 708.076 62.2884 708.076 L58.2606 708.076 L58.2606 704.233 L62.4735 704.233 Q65.9226 704.233 67.7513 702.867 Q69.58 701.479 69.58 698.886 Q69.58 696.224 67.6819 694.812 Q65.8069 693.377 62.2884 693.377 Q60.3671 693.377 58.168 693.793 Q55.969 694.21 53.3301 695.09 L53.3301 690.923 Q55.9921 690.182 58.3069 689.812 Q60.6449 689.442 62.705 689.442 Q68.0291 689.442 71.1309 691.872 Q74.2327 694.28 74.2327 698.4 Q74.2327 701.27 72.5892 703.261 Q70.9457 705.229 67.9133 705.992 Z" fill="#000000" fill-rule="evenodd" fill-opacity="1" /><path clip-path="url(#clip630)" d="M93.9086 693.145 Q90.2975 693.145 88.4688 696.71 Q86.6632 700.252 86.6632 707.381 Q86.6632 714.488 88.4688 718.053 Q90.2975 721.594 93.9086 721.594 Q97.5428 721.594 99.3483 718.053 Q101.177 714.488 101.177 707.381 Q101.177 700.252 99.3483 696.71 Q97.5428 693.145 93.9086 693.145 M93.9086 689.442 Q99.7187 689.442 102.774 694.048 Q105.853 698.631 105.853 707.381 Q105.853 716.108 102.774 720.715 Q99.7187 725.298 93.9086 725.298 Q88.0984 725.298 85.0197 720.715 Q81.9642 716.108 81.9642 707.381 Q81.9642 698.631 85.0197 694.048 Q88.0984 689.442 93.9086 689.442 Z" fill="#000000" fill-rule="evenodd" fill-opacity="1" /><path clip-path="url(#clip630)" d="M124.07 693.145 Q120.459 693.145 118.631 696.71 Q116.825 700.252 116.825 707.381 Q116.825 714.488 118.631 718.053 Q120.459 721.594 124.07 721.594 Q127.705 721.594 129.51 718.053 Q131.339 714.488 131.339 707.381 Q131.339 700.252 129.51 696.71 Q127.705 693.145 124.07 693.145 M124.07 689.442 Q129.881 689.442 132.936 694.048 Q136.015 698.631 136.015 707.381 Q136.015 716.108 132.936 720.715 Q129.881 725.298 124.07 725.298 Q118.26 725.298 115.182 720.715 Q112.126 716.108 112.126 707.381 Q112.126 698.631 115.182 694.048 Q118.26 689.442 124.07 689.442 Z" fill="#000000" fill-rule="evenodd" fill-opacity="1" /><path clip-path="url(#clip630)" d="M154.232 693.145 Q150.621 693.145 148.793 696.71 Q146.987 700.252 146.987 707.381 Q146.987 714.488 148.793 718.053 Q150.621 721.594 154.232 721.594 Q157.867 721.594 159.672 718.053 Q161.501 714.488 161.501 707.381 Q161.501 700.252 159.672 696.71 Q157.867 693.145 154.232 693.145 M154.232 689.442 Q160.042 689.442 163.098 694.048 Q166.177 698.631 166.177 707.381 Q166.177 716.108 163.098 720.715 Q160.042 725.298 154.232 725.298 Q148.422 725.298 145.343 720.715 Q142.288 716.108 142.288 707.381 Q142.288 698.631 145.343 694.048 Q148.422 689.442 154.232 689.442 Z" fill="#000000" fill-rule="evenodd" fill-opacity="1" /><path clip-path="url(#clip630)" d="M66.5939 468.51 L54.7884 486.959 L66.5939 486.959 L66.5939 468.51 M65.367 464.436 L71.2466 464.436 L71.2466 486.959 L76.1772 486.959 L76.1772 490.848 L71.2466 490.848 L71.2466 498.996 L66.5939 498.996 L66.5939 490.848 L50.9921 490.848 L50.9921 486.334 L65.367 464.436 Z" fill="#000000" fill-rule="evenodd" fill-opacity="1" /><path clip-path="url(#clip630)" d="M93.9086 467.515 Q90.2975 467.515 88.4688 471.08 Q86.6632 474.621 86.6632 481.751 Q86.6632 488.857 88.4688 492.422 Q90.2975 495.964 93.9086 495.964 Q97.5428 495.964 99.3483 492.422 Q101.177 488.857 101.177 481.751 Q101.177 474.621 99.3483 471.08 Q97.5428 467.515 93.9086 467.515 M93.9086 463.811 Q99.7187 463.811 102.774 468.417 Q105.853 473.001 105.853 481.751 Q105.853 490.478 102.774 495.084 Q99.7187 499.667 93.9086 499.667 Q88.0984 499.667 85.0197 495.084 Q81.9642 490.478 81.9642 481.751 Q81.9642 473.001 85.0197 468.417 Q88.0984 463.811 93.9086 463.811 Z" fill="#000000" fill-rule="evenodd" fill-opacity="1" /><path clip-path="url(#clip630)" d="M124.07 467.515 Q120.459 467.515 118.631 471.08 Q116.825 474.621 116.825 481.751 Q116.825 488.857 118.631 492.422 Q120.459 495.964 124.07 495.964 Q127.705 495.964 129.51 492.422 Q131.339 488.857 131.339 481.751 Q131.339 474.621 129.51 471.08 Q127.705 467.515 124.07 467.515 M124.07 463.811 Q129.881 463.811 132.936 468.417 Q136.015 473.001 136.015 481.751 Q136.015 490.478 132.936 495.084 Q129.881 499.667 124.07 499.667 Q118.26 499.667 115.182 495.084 Q112.126 490.478 112.126 481.751 Q112.126 473.001 115.182 468.417 Q118.26 463.811 124.07 463.811 Z" fill="#000000" fill-rule="evenodd" fill-opacity="1" /><path clip-path="url(#clip630)" d="M154.232 467.515 Q150.621 467.515 148.793 471.08 Q146.987 474.621 146.987 481.751 Q146.987 488.857 148.793 492.422 Q150.621 495.964 154.232 495.964 Q157.867 495.964 159.672 492.422 Q161.501 488.857 161.501 481.751 Q161.501 474.621 159.672 471.08 Q157.867 467.515 154.232 467.515 M154.232 463.811 Q160.042 463.811 163.098 468.417 Q166.177 473.001 166.177 481.751 Q166.177 490.478 163.098 495.084 Q160.042 499.667 154.232 499.667 Q148.422 499.667 145.343 495.084 Q142.288 490.478 142.288 481.751 Q142.288 473.001 145.343 468.417 Q148.422 463.811 154.232 463.811 Z" fill="#000000" fill-rule="evenodd" fill-opacity="1" /><path clip-path="url(#clip630)" d="M53.793 238.805 L72.1494 238.805 L72.1494 242.741 L58.0754 242.741 L58.0754 251.213 Q59.0939 250.866 60.1124 250.704 Q61.131 250.518 62.1495 250.518 Q67.9365 250.518 71.3161 253.69 Q74.6957 256.861 74.6957 262.278 Q74.6957 267.856 71.2235 270.958 Q67.7513 274.037 61.4319 274.037 Q59.256 274.037 56.9875 273.666 Q54.7421 273.296 52.3347 272.555 L52.3347 267.856 Q54.418 268.991 56.6402 269.546 Q58.8625 270.102 61.3393 270.102 Q65.3439 270.102 67.6819 267.995 Q70.0198 265.889 70.0198 262.278 Q70.0198 258.666 67.6819 256.56 Q65.3439 254.454 61.3393 254.454 Q59.4643 254.454 57.5893 254.87 Q55.7375 255.287 53.793 256.166 L53.793 238.805 Z" fill="#000000" fill-rule="evenodd" fill-opacity="1" /><path clip-path="url(#clip630)" d="M93.9086 241.884 Q90.2975 241.884 88.4688 245.449 Q86.6632 248.991 86.6632 256.12 Q86.6632 263.227 88.4688 266.791 Q90.2975 270.333 93.9086 270.333 Q97.5428 270.333 99.3483 266.791 Q101.177 263.227 101.177 256.12 Q101.177 248.991 99.3483 245.449 Q97.5428 241.884 93.9086 241.884 M93.9086 238.18 Q99.7187 238.18 102.774 242.787 Q105.853 247.37 105.853 256.12 Q105.853 264.847 102.774 269.453 Q99.7187 274.037 93.9086 274.037 Q88.0984 274.037 85.0197 269.453 Q81.9642 264.847 81.9642 256.12 Q81.9642 247.37 85.0197 242.787 Q88.0984 238.18 93.9086 238.18 Z" fill="#000000" fill-rule="evenodd" fill-opacity="1" /><path clip-path="url(#clip630)" d="M124.07 241.884 Q120.459 241.884 118.631 245.449 Q116.825 248.991 116.825 256.12 Q116.825 263.227 118.631 266.791 Q120.459 270.333 124.07 270.333 Q127.705 270.333 129.51 266.791 Q131.339 263.227 131.339 256.12 Q131.339 248.991 129.51 245.449 Q127.705 241.884 124.07 241.884 M124.07 238.18 Q129.881 238.18 132.936 242.787 Q136.015 247.37 136.015 256.12 Q136.015 264.847 132.936 269.453 Q129.881 274.037 124.07 274.037 Q118.26 274.037 115.182 269.453 Q112.126 264.847 112.126 256.12 Q112.126 247.37 115.182 242.787 Q118.26 238.18 124.07 238.18 Z" fill="#000000" fill-rule="evenodd" fill-opacity="1" /><path clip-path="url(#clip630)" d="M154.232 241.884 Q150.621 241.884 148.793 245.449 Q146.987 248.991 146.987 256.12 Q146.987 263.227 148.793 266.791 Q150.621 270.333 154.232 270.333 Q157.867 270.333 159.672 266.791 Q161.501 263.227 161.501 256.12 Q161.501 248.991 159.672 245.449 Q157.867 241.884 154.232 241.884 M154.232 238.18 Q160.042 238.18 163.098 242.787 Q166.177 247.37 166.177 256.12 Q166.177 264.847 163.098 269.453 Q160.042 274.037 154.232 274.037 Q148.422 274.037 145.343 269.453 Q142.288 264.847 142.288 256.12 Q142.288 247.37 145.343 242.787 Q148.422 238.18 154.232 238.18 Z" fill="#000000" fill-rule="evenodd" fill-opacity="1" /><path clip-path="url(#clip632)" d="
M320.462 1229.68 L320.462 1384.24 L368.313 1384.24 L368.313 1229.68 L320.462 1229.68 L320.462 1229.68  Z
  " fill="#009af9" fill-rule="evenodd" fill-opacity="1"/>
<polyline clip-path="url(#clip632)" style="stroke:#000000; stroke-linecap:butt; stroke-linejoin:round; stroke-width:4; stroke-opacity:1; fill:none" points="
  320.462,1229.68 320.462,1384.24 368.313,1384.24 368.313,1229.68 320.462,1229.68 
  "/>
<path clip-path="url(#clip632)" d="
M368.313 86.1857 L368.313 1384.24 L416.163 1384.24 L416.163 86.1857 L368.313 86.1857 L368.313 86.1857  Z
  " fill="#009af9" fill-rule="evenodd" fill-opacity="1"/>
<polyline clip-path="url(#clip632)" style="stroke:#000000; stroke-linecap:butt; stroke-linejoin:round; stroke-width:4; stroke-opacity:1; fill:none" points="
  368.313,86.1857 368.313,1384.24 416.163,1384.24 416.163,86.1857 368.313,86.1857 
  "/>
<path clip-path="url(#clip632)" d="
M416.163 810.46 L416.163 1384.24 L464.013 1384.24 L464.013 810.46 L416.163 810.46 L416.163 810.46  Z
  " fill="#009af9" fill-rule="evenodd" fill-opacity="1"/>
<polyline clip-path="url(#clip632)" style="stroke:#000000; stroke-linecap:butt; stroke-linejoin:round; stroke-width:4; stroke-opacity:1; fill:none" points="
  416.163,810.46 416.163,1384.24 464.013,1384.24 464.013,810.46 416.163,810.46 
  "/>
<path clip-path="url(#clip632)" d="
M464.013 1169.44 L464.013 1384.24 L511.863 1384.24 L511.863 1169.44 L464.013 1169.44 L464.013 1169.44  Z
  " fill="#009af9" fill-rule="evenodd" fill-opacity="1"/>
<polyline clip-path="url(#clip632)" style="stroke:#000000; stroke-linecap:butt; stroke-linejoin:round; stroke-width:4; stroke-opacity:1; fill:none" points="
  464.013,1169.44 464.013,1384.24 511.863,1384.24 511.863,1169.44 464.013,1169.44 
  "/>
<path clip-path="url(#clip632)" d="
M511.863 1224.49 L511.863 1384.24 L559.713 1384.24 L559.713 1224.49 L511.863 1224.49 L511.863 1224.49  Z
  " fill="#009af9" fill-rule="evenodd" fill-opacity="1"/>
<polyline clip-path="url(#clip632)" style="stroke:#000000; stroke-linecap:butt; stroke-linejoin:round; stroke-width:4; stroke-opacity:1; fill:none" points="
  511.863,1224.49 511.863,1384.24 559.713,1384.24 559.713,1224.49 511.863,1224.49 
  "/>
<path clip-path="url(#clip632)" d="
M559.713 1228.33 L559.713 1384.24 L607.564 1384.24 L607.564 1228.33 L559.713 1228.33 L559.713 1228.33  Z
  " fill="#009af9" fill-rule="evenodd" fill-opacity="1"/>
<polyline clip-path="url(#clip632)" style="stroke:#000000; stroke-linecap:butt; stroke-linejoin:round; stroke-width:4; stroke-opacity:1; fill:none" points="
  559.713,1228.33 559.713,1384.24 607.564,1384.24 607.564,1228.33 559.713,1228.33 
  "/>
<path clip-path="url(#clip632)" d="
M607.564 1199 L607.564 1384.24 L655.414 1384.24 L655.414 1199 L607.564 1199 L607.564 1199  Z
  " fill="#009af9" fill-rule="evenodd" fill-opacity="1"/>
<polyline clip-path="url(#clip632)" style="stroke:#000000; stroke-linecap:butt; stroke-linejoin:round; stroke-width:4; stroke-opacity:1; fill:none" points="
  607.564,1199 607.564,1384.24 655.414,1384.24 655.414,1199 607.564,1199 
  "/>
<path clip-path="url(#clip632)" d="
M655.414 1152.06 L655.414 1384.24 L703.264 1384.24 L703.264 1152.06 L655.414 1152.06 L655.414 1152.06  Z
  " fill="#009af9" fill-rule="evenodd" fill-opacity="1"/>
<polyline clip-path="url(#clip632)" style="stroke:#000000; stroke-linecap:butt; stroke-linejoin:round; stroke-width:4; stroke-opacity:1; fill:none" points="
  655.414,1152.06 655.414,1384.24 703.264,1384.24 703.264,1152.06 655.414,1152.06 
  "/>
<path clip-path="url(#clip632)" d="
M703.264 1112.35 L703.264 1384.24 L751.114 1384.24 L751.114 1112.35 L703.264 1112.35 L703.264 1112.35  Z
  " fill="#009af9" fill-rule="evenodd" fill-opacity="1"/>
<polyline clip-path="url(#clip632)" style="stroke:#000000; stroke-linecap:butt; stroke-linejoin:round; stroke-width:4; stroke-opacity:1; fill:none" points="
  703.264,1112.35 703.264,1384.24 751.114,1384.24 751.114,1112.35 703.264,1112.35 
  "/>
<path clip-path="url(#clip632)" d="
M751.114 1058.2 L751.114 1384.24 L798.964 1384.24 L798.964 1058.2 L751.114 1058.2 L751.114 1058.2  Z
  " fill="#009af9" fill-rule="evenodd" fill-opacity="1"/>
<polyline clip-path="url(#clip632)" style="stroke:#000000; stroke-linecap:butt; stroke-linejoin:round; stroke-width:4; stroke-opacity:1; fill:none" points="
  751.114,1058.2 751.114,1384.24 798.964,1384.24 798.964,1058.2 751.114,1058.2 
  "/>
<path clip-path="url(#clip632)" d="
M798.964 1025.49 L798.964 1384.24 L846.815 1384.24 L846.815 1025.49 L798.964 1025.49 L798.964 1025.49  Z
  " fill="#009af9" fill-rule="evenodd" fill-opacity="1"/>
<polyline clip-path="url(#clip632)" style="stroke:#000000; stroke-linecap:butt; stroke-linejoin:round; stroke-width:4; stroke-opacity:1; fill:none" points="
  798.964,1025.49 798.964,1384.24 846.815,1384.24 846.815,1025.49 798.964,1025.49 
  "/>
<path clip-path="url(#clip632)" d="
M846.815 995.026 L846.815 1384.24 L894.665 1384.24 L894.665 995.026 L846.815 995.026 L846.815 995.026  Z
  " fill="#009af9" fill-rule="evenodd" fill-opacity="1"/>
<polyline clip-path="url(#clip632)" style="stroke:#000000; stroke-linecap:butt; stroke-linejoin:round; stroke-width:4; stroke-opacity:1; fill:none" points="
  846.815,995.026 846.815,1384.24 894.665,1384.24 894.665,995.026 846.815,995.026 
  "/>
<path clip-path="url(#clip632)" d="
M894.665 956.894 L894.665 1384.24 L942.515 1384.24 L942.515 956.894 L894.665 956.894 L894.665 956.894  Z
  " fill="#009af9" fill-rule="evenodd" fill-opacity="1"/>
<polyline clip-path="url(#clip632)" style="stroke:#000000; stroke-linecap:butt; stroke-linejoin:round; stroke-width:4; stroke-opacity:1; fill:none" points="
  894.665,956.894 894.665,1384.24 942.515,1384.24 942.515,956.894 894.665,956.894 
  "/>
<path clip-path="url(#clip632)" d="
M942.515 957.345 L942.515 1384.24 L990.365 1384.24 L990.365 957.345 L942.515 957.345 L942.515 957.345  Z
  " fill="#009af9" fill-rule="evenodd" fill-opacity="1"/>
<polyline clip-path="url(#clip632)" style="stroke:#000000; stroke-linecap:butt; stroke-linejoin:round; stroke-width:4; stroke-opacity:1; fill:none" points="
  942.515,957.345 942.515,1384.24 990.365,1384.24 990.365,957.345 942.515,957.345 
  "/>
<path clip-path="url(#clip632)" d="
M990.365 941.777 L990.365 1384.24 L1038.22 1384.24 L1038.22 941.777 L990.365 941.777 L990.365 941.777  Z
  " fill="#009af9" fill-rule="evenodd" fill-opacity="1"/>
<polyline clip-path="url(#clip632)" style="stroke:#000000; stroke-linecap:butt; stroke-linejoin:round; stroke-width:4; stroke-opacity:1; fill:none" points="
  990.365,941.777 990.365,1384.24 1038.22,1384.24 1038.22,941.777 990.365,941.777 
  "/>
<path clip-path="url(#clip632)" d="
M1038.22 950.351 L1038.22 1384.24 L1086.07 1384.24 L1086.07 950.351 L1038.22 950.351 L1038.22 950.351  Z
  " fill="#009af9" fill-rule="evenodd" fill-opacity="1"/>
<polyline clip-path="url(#clip632)" style="stroke:#000000; stroke-linecap:butt; stroke-linejoin:round; stroke-width:4; stroke-opacity:1; fill:none" points="
  1038.22,950.351 1038.22,1384.24 1086.07,1384.24 1086.07,950.351 1038.22,950.351 
  "/>
<path clip-path="url(#clip632)" d="
M1086.07 967.047 L1086.07 1384.24 L1133.92 1384.24 L1133.92 967.047 L1086.07 967.047 L1086.07 967.047  Z
  " fill="#009af9" fill-rule="evenodd" fill-opacity="1"/>
<polyline clip-path="url(#clip632)" style="stroke:#000000; stroke-linecap:butt; stroke-linejoin:round; stroke-width:4; stroke-opacity:1; fill:none" points="
  1086.07,967.047 1086.07,1384.24 1133.92,1384.24 1133.92,967.047 1086.07,967.047 
  "/>
<path clip-path="url(#clip632)" d="
M1133.92 950.576 L1133.92 1384.24 L1181.77 1384.24 L1181.77 950.576 L1133.92 950.576 L1133.92 950.576  Z
  " fill="#009af9" fill-rule="evenodd" fill-opacity="1"/>
<polyline clip-path="url(#clip632)" style="stroke:#000000; stroke-linecap:butt; stroke-linejoin:round; stroke-width:4; stroke-opacity:1; fill:none" points="
  1133.92,950.576 1133.92,1384.24 1181.77,1384.24 1181.77,950.576 1133.92,950.576 
  "/>
<path clip-path="url(#clip632)" d="
M1181.77 984.421 L1181.77 1384.24 L1229.62 1384.24 L1229.62 984.421 L1181.77 984.421 L1181.77 984.421  Z
  " fill="#009af9" fill-rule="evenodd" fill-opacity="1"/>
<polyline clip-path="url(#clip632)" style="stroke:#000000; stroke-linecap:butt; stroke-linejoin:round; stroke-width:4; stroke-opacity:1; fill:none" points="
  1181.77,984.421 1181.77,1384.24 1229.62,1384.24 1229.62,984.421 1181.77,984.421 
  "/>
<path clip-path="url(#clip632)" d="
M1229.62 989.61 L1229.62 1384.24 L1277.47 1384.24 L1277.47 989.61 L1229.62 989.61 L1229.62 989.61  Z
  " fill="#009af9" fill-rule="evenodd" fill-opacity="1"/>
<polyline clip-path="url(#clip632)" style="stroke:#000000; stroke-linecap:butt; stroke-linejoin:round; stroke-width:4; stroke-opacity:1; fill:none" points="
  1229.62,989.61 1229.62,1384.24 1277.47,1384.24 1277.47,989.61 1229.62,989.61 
  "/>
<path clip-path="url(#clip632)" d="
M1277.47 1011.05 L1277.47 1384.24 L1325.32 1384.24 L1325.32 1011.05 L1277.47 1011.05 L1277.47 1011.05  Z
  " fill="#009af9" fill-rule="evenodd" fill-opacity="1"/>
<polyline clip-path="url(#clip632)" style="stroke:#000000; stroke-linecap:butt; stroke-linejoin:round; stroke-width:4; stroke-opacity:1; fill:none" points="
  1277.47,1011.05 1277.47,1384.24 1325.32,1384.24 1325.32,1011.05 1277.47,1011.05 
  "/>
<path clip-path="url(#clip632)" d="
M1325.32 1051.43 L1325.32 1384.24 L1373.17 1384.24 L1373.17 1051.43 L1325.32 1051.43 L1325.32 1051.43  Z
  " fill="#009af9" fill-rule="evenodd" fill-opacity="1"/>
<polyline clip-path="url(#clip632)" style="stroke:#000000; stroke-linecap:butt; stroke-linejoin:round; stroke-width:4; stroke-opacity:1; fill:none" points="
  1325.32,1051.43 1325.32,1384.24 1373.17,1384.24 1373.17,1051.43 1325.32,1051.43 
  "/>
<path clip-path="url(#clip632)" d="
M1373.17 1066.1 L1373.17 1384.24 L1421.02 1384.24 L1421.02 1066.1 L1373.17 1066.1 L1373.17 1066.1  Z
  " fill="#009af9" fill-rule="evenodd" fill-opacity="1"/>
<polyline clip-path="url(#clip632)" style="stroke:#000000; stroke-linecap:butt; stroke-linejoin:round; stroke-width:4; stroke-opacity:1; fill:none" points="
  1373.17,1066.1 1373.17,1384.24 1421.02,1384.24 1421.02,1066.1 1373.17,1066.1 
  "/>
<path clip-path="url(#clip632)" d="
M1421.02 1103.33 L1421.02 1384.24 L1468.87 1384.24 L1468.87 1103.33 L1421.02 1103.33 L1421.02 1103.33  Z
  " fill="#009af9" fill-rule="evenodd" fill-opacity="1"/>
<polyline clip-path="url(#clip632)" style="stroke:#000000; stroke-linecap:butt; stroke-linejoin:round; stroke-width:4; stroke-opacity:1; fill:none" points="
  1421.02,1103.33 1421.02,1384.24 1468.87,1384.24 1468.87,1103.33 1421.02,1103.33 
  "/>
<path clip-path="url(#clip632)" d="
M1468.87 1127.7 L1468.87 1384.24 L1516.72 1384.24 L1516.72 1127.7 L1468.87 1127.7 L1468.87 1127.7  Z
  " fill="#009af9" fill-rule="evenodd" fill-opacity="1"/>
<polyline clip-path="url(#clip632)" style="stroke:#000000; stroke-linecap:butt; stroke-linejoin:round; stroke-width:4; stroke-opacity:1; fill:none" points="
  1468.87,1127.7 1468.87,1384.24 1516.72,1384.24 1516.72,1127.7 1468.87,1127.7 
  "/>
<path clip-path="url(#clip632)" d="
M1516.72 1147.55 L1516.72 1384.24 L1564.57 1384.24 L1564.57 1147.55 L1516.72 1147.55 L1516.72 1147.55  Z
  " fill="#009af9" fill-rule="evenodd" fill-opacity="1"/>
<polyline clip-path="url(#clip632)" style="stroke:#000000; stroke-linecap:butt; stroke-linejoin:round; stroke-width:4; stroke-opacity:1; fill:none" points="
  1516.72,1147.55 1516.72,1384.24 1564.57,1384.24 1564.57,1147.55 1516.72,1147.55 
  "/>
<path clip-path="url(#clip632)" d="
M1564.57 1181.4 L1564.57 1384.24 L1612.42 1384.24 L1612.42 1181.4 L1564.57 1181.4 L1564.57 1181.4  Z
  " fill="#009af9" fill-rule="evenodd" fill-opacity="1"/>
<polyline clip-path="url(#clip632)" style="stroke:#000000; stroke-linecap:butt; stroke-linejoin:round; stroke-width:4; stroke-opacity:1; fill:none" points="
  1564.57,1181.4 1564.57,1384.24 1612.42,1384.24 1612.42,1181.4 1564.57,1181.4 
  "/>
<path clip-path="url(#clip632)" d="
M1612.42 1160.64 L1612.42 1384.24 L1660.27 1384.24 L1660.27 1160.64 L1612.42 1160.64 L1612.42 1160.64  Z
  " fill="#009af9" fill-rule="evenodd" fill-opacity="1"/>
<polyline clip-path="url(#clip632)" style="stroke:#000000; stroke-linecap:butt; stroke-linejoin:round; stroke-width:4; stroke-opacity:1; fill:none" points="
  1612.42,1160.64 1612.42,1384.24 1660.27,1384.24 1660.27,1160.64 1612.42,1160.64 
  "/>
<path clip-path="url(#clip632)" d="
M1660.27 1182.07 L1660.27 1384.24 L1708.12 1384.24 L1708.12 1182.07 L1660.27 1182.07 L1660.27 1182.07  Z
  " fill="#009af9" fill-rule="evenodd" fill-opacity="1"/>
<polyline clip-path="url(#clip632)" style="stroke:#000000; stroke-linecap:butt; stroke-linejoin:round; stroke-width:4; stroke-opacity:1; fill:none" points="
  1660.27,1182.07 1660.27,1384.24 1708.12,1384.24 1708.12,1182.07 1660.27,1182.07 
  "/>
<path clip-path="url(#clip632)" d="
M1708.12 1201.03 L1708.12 1384.24 L1755.97 1384.24 L1755.97 1201.03 L1708.12 1201.03 L1708.12 1201.03  Z
  " fill="#009af9" fill-rule="evenodd" fill-opacity="1"/>
<polyline clip-path="url(#clip632)" style="stroke:#000000; stroke-linecap:butt; stroke-linejoin:round; stroke-width:4; stroke-opacity:1; fill:none" points="
  1708.12,1201.03 1708.12,1384.24 1755.97,1384.24 1755.97,1201.03 1708.12,1201.03 
  "/>
<path clip-path="url(#clip632)" d="
M1755.97 1242.54 L1755.97 1384.24 L1803.82 1384.24 L1803.82 1242.54 L1755.97 1242.54 L1755.97 1242.54  Z
  " fill="#009af9" fill-rule="evenodd" fill-opacity="1"/>
<polyline clip-path="url(#clip632)" style="stroke:#000000; stroke-linecap:butt; stroke-linejoin:round; stroke-width:4; stroke-opacity:1; fill:none" points="
  1755.97,1242.54 1755.97,1384.24 1803.82,1384.24 1803.82,1242.54 1755.97,1242.54 
  "/>
<path clip-path="url(#clip632)" d="
M1803.82 1280.9 L1803.82 1384.24 L1851.67 1384.24 L1851.67 1280.9 L1803.82 1280.9 L1803.82 1280.9  Z
  " fill="#009af9" fill-rule="evenodd" fill-opacity="1"/>
<polyline clip-path="url(#clip632)" style="stroke:#000000; stroke-linecap:butt; stroke-linejoin:round; stroke-width:4; stroke-opacity:1; fill:none" points="
  1803.82,1280.9 1803.82,1384.24 1851.67,1384.24 1851.67,1280.9 1803.82,1280.9 
  "/>
<path clip-path="url(#clip632)" d="
M1851.67 1273.23 L1851.67 1384.24 L1899.52 1384.24 L1899.52 1273.23 L1851.67 1273.23 L1851.67 1273.23  Z
  " fill="#009af9" fill-rule="evenodd" fill-opacity="1"/>
<polyline clip-path="url(#clip632)" style="stroke:#000000; stroke-linecap:butt; stroke-linejoin:round; stroke-width:4; stroke-opacity:1; fill:none" points="
  1851.67,1273.23 1851.67,1384.24 1899.52,1384.24 1899.52,1273.23 1851.67,1273.23 
  "/>
<path clip-path="url(#clip632)" d="
M1899.52 1273.68 L1899.52 1384.24 L1947.37 1384.24 L1947.37 1273.68 L1899.52 1273.68 L1899.52 1273.68  Z
  " fill="#009af9" fill-rule="evenodd" fill-opacity="1"/>
<polyline clip-path="url(#clip632)" style="stroke:#000000; stroke-linecap:butt; stroke-linejoin:round; stroke-width:4; stroke-opacity:1; fill:none" points="
  1899.52,1273.68 1899.52,1384.24 1947.37,1384.24 1947.37,1273.68 1899.52,1273.68 
  "/>
<path clip-path="url(#clip632)" d="
M1947.37 1283.83 L1947.37 1384.24 L1995.22 1384.24 L1995.22 1283.83 L1947.37 1283.83 L1947.37 1283.83  Z
  " fill="#009af9" fill-rule="evenodd" fill-opacity="1"/>
<polyline clip-path="url(#clip632)" style="stroke:#000000; stroke-linecap:butt; stroke-linejoin:round; stroke-width:4; stroke-opacity:1; fill:none" points="
  1947.37,1283.83 1947.37,1384.24 1995.22,1384.24 1995.22,1283.83 1947.37,1283.83 
  "/>
<path clip-path="url(#clip632)" d="
M1995.22 1298.27 L1995.22 1384.24 L2043.07 1384.24 L2043.07 1298.27 L1995.22 1298.27 L1995.22 1298.27  Z
  " fill="#009af9" fill-rule="evenodd" fill-opacity="1"/>
<polyline clip-path="url(#clip632)" style="stroke:#000000; stroke-linecap:butt; stroke-linejoin:round; stroke-width:4; stroke-opacity:1; fill:none" points="
  1995.22,1298.27 1995.22,1384.24 2043.07,1384.24 2043.07,1298.27 1995.22,1298.27 
  "/>
<path clip-path="url(#clip632)" d="
M2043.07 1330.31 L2043.07 1384.24 L2090.92 1384.24 L2090.92 1330.31 L2043.07 1330.31 L2043.07 1330.31  Z
  " fill="#009af9" fill-rule="evenodd" fill-opacity="1"/>
<polyline clip-path="url(#clip632)" style="stroke:#000000; stroke-linecap:butt; stroke-linejoin:round; stroke-width:4; stroke-opacity:1; fill:none" points="
  2043.07,1330.31 2043.07,1384.24 2090.92,1384.24 2090.92,1330.31 2043.07,1330.31 
  "/>
<path clip-path="url(#clip632)" d="
M2090.92 1362.58 L2090.92 1384.24 L2138.77 1384.24 L2138.77 1362.58 L2090.92 1362.58 L2090.92 1362.58  Z
  " fill="#009af9" fill-rule="evenodd" fill-opacity="1"/>
<polyline clip-path="url(#clip632)" style="stroke:#000000; stroke-linecap:butt; stroke-linejoin:round; stroke-width:4; stroke-opacity:1; fill:none" points="
  2090.92,1362.58 2090.92,1384.24 2138.77,1384.24 2138.77,1362.58 2090.92,1362.58 
  "/>
<path clip-path="url(#clip632)" d="
M2138.77 1368.44 L2138.77 1384.24 L2186.62 1384.24 L2186.62 1368.44 L2138.77 1368.44 L2138.77 1368.44  Z
  " fill="#009af9" fill-rule="evenodd" fill-opacity="1"/>
<polyline clip-path="url(#clip632)" style="stroke:#000000; stroke-linecap:butt; stroke-linejoin:round; stroke-width:4; stroke-opacity:1; fill:none" points="
  2138.77,1368.44 2138.77,1384.24 2186.62,1384.24 2186.62,1368.44 2138.77,1368.44 
  "/>
<path clip-path="url(#clip632)" d="
M2186.62 1378.82 L2186.62 1384.24 L2234.47 1384.24 L2234.47 1378.82 L2186.62 1378.82 L2186.62 1378.82  Z
  " fill="#009af9" fill-rule="evenodd" fill-opacity="1"/>
<polyline clip-path="url(#clip632)" style="stroke:#000000; stroke-linecap:butt; stroke-linejoin:round; stroke-width:4; stroke-opacity:1; fill:none" points="
  2186.62,1378.82 2186.62,1384.24 2234.47,1384.24 2234.47,1378.82 2186.62,1378.82 
  "/>
<circle clip-path="url(#clip632)" style="fill:#009af9; stroke:none; fill-opacity:0" cx="344.387" cy="1229.68" r="2"/>
<circle clip-path="url(#clip632)" style="fill:#009af9; stroke:none; fill-opacity:0" cx="392.238" cy="86.1857" r="2"/>
<circle clip-path="url(#clip632)" style="fill:#009af9; stroke:none; fill-opacity:0" cx="440.088" cy="810.46" r="2"/>
<circle clip-path="url(#clip632)" style="fill:#009af9; stroke:none; fill-opacity:0" cx="487.938" cy="1169.44" r="2"/>
<circle clip-path="url(#clip632)" style="fill:#009af9; stroke:none; fill-opacity:0" cx="535.788" cy="1224.49" r="2"/>
<circle clip-path="url(#clip632)" style="fill:#009af9; stroke:none; fill-opacity:0" cx="583.638" cy="1228.33" r="2"/>
<circle clip-path="url(#clip632)" style="fill:#009af9; stroke:none; fill-opacity:0" cx="631.489" cy="1199" r="2"/>
<circle clip-path="url(#clip632)" style="fill:#009af9; stroke:none; fill-opacity:0" cx="679.339" cy="1152.06" r="2"/>
<circle clip-path="url(#clip632)" style="fill:#009af9; stroke:none; fill-opacity:0" cx="727.189" cy="1112.35" r="2"/>
<circle clip-path="url(#clip632)" style="fill:#009af9; stroke:none; fill-opacity:0" cx="775.039" cy="1058.2" r="2"/>
<circle clip-path="url(#clip632)" style="fill:#009af9; stroke:none; fill-opacity:0" cx="822.889" cy="1025.49" r="2"/>
<circle clip-path="url(#clip632)" style="fill:#009af9; stroke:none; fill-opacity:0" cx="870.74" cy="995.026" r="2"/>
<circle clip-path="url(#clip632)" style="fill:#009af9; stroke:none; fill-opacity:0" cx="918.59" cy="956.894" r="2"/>
<circle clip-path="url(#clip632)" style="fill:#009af9; stroke:none; fill-opacity:0" cx="966.44" cy="957.345" r="2"/>
<circle clip-path="url(#clip632)" style="fill:#009af9; stroke:none; fill-opacity:0" cx="1014.29" cy="941.777" r="2"/>
<circle clip-path="url(#clip632)" style="fill:#009af9; stroke:none; fill-opacity:0" cx="1062.14" cy="950.351" r="2"/>
<circle clip-path="url(#clip632)" style="fill:#009af9; stroke:none; fill-opacity:0" cx="1109.99" cy="967.047" r="2"/>
<circle clip-path="url(#clip632)" style="fill:#009af9; stroke:none; fill-opacity:0" cx="1157.84" cy="950.576" r="2"/>
<circle clip-path="url(#clip632)" style="fill:#009af9; stroke:none; fill-opacity:0" cx="1205.69" cy="984.421" r="2"/>
<circle clip-path="url(#clip632)" style="fill:#009af9; stroke:none; fill-opacity:0" cx="1253.54" cy="989.61" r="2"/>
<circle clip-path="url(#clip632)" style="fill:#009af9; stroke:none; fill-opacity:0" cx="1301.39" cy="1011.05" r="2"/>
<circle clip-path="url(#clip632)" style="fill:#009af9; stroke:none; fill-opacity:0" cx="1349.24" cy="1051.43" r="2"/>
<circle clip-path="url(#clip632)" style="fill:#009af9; stroke:none; fill-opacity:0" cx="1397.09" cy="1066.1" r="2"/>
<circle clip-path="url(#clip632)" style="fill:#009af9; stroke:none; fill-opacity:0" cx="1444.94" cy="1103.33" r="2"/>
<circle clip-path="url(#clip632)" style="fill:#009af9; stroke:none; fill-opacity:0" cx="1492.79" cy="1127.7" r="2"/>
<circle clip-path="url(#clip632)" style="fill:#009af9; stroke:none; fill-opacity:0" cx="1540.64" cy="1147.55" r="2"/>
<circle clip-path="url(#clip632)" style="fill:#009af9; stroke:none; fill-opacity:0" cx="1588.49" cy="1181.4" r="2"/>
<circle clip-path="url(#clip632)" style="fill:#009af9; stroke:none; fill-opacity:0" cx="1636.34" cy="1160.64" r="2"/>
<circle clip-path="url(#clip632)" style="fill:#009af9; stroke:none; fill-opacity:0" cx="1684.19" cy="1182.07" r="2"/>
<circle clip-path="url(#clip632)" style="fill:#009af9; stroke:none; fill-opacity:0" cx="1732.04" cy="1201.03" r="2"/>
<circle clip-path="url(#clip632)" style="fill:#009af9; stroke:none; fill-opacity:0" cx="1779.89" cy="1242.54" r="2"/>
<circle clip-path="url(#clip632)" style="fill:#009af9; stroke:none; fill-opacity:0" cx="1827.74" cy="1280.9" r="2"/>
<circle clip-path="url(#clip632)" style="fill:#009af9; stroke:none; fill-opacity:0" cx="1875.59" cy="1273.23" r="2"/>
<circle clip-path="url(#clip632)" style="fill:#009af9; stroke:none; fill-opacity:0" cx="1923.44" cy="1273.68" r="2"/>
<circle clip-path="url(#clip632)" style="fill:#009af9; stroke:none; fill-opacity:0" cx="1971.29" cy="1283.83" r="2"/>
<circle clip-path="url(#clip632)" style="fill:#009af9; stroke:none; fill-opacity:0" cx="2019.14" cy="1298.27" r="2"/>
<circle clip-path="url(#clip632)" style="fill:#009af9; stroke:none; fill-opacity:0" cx="2066.99" cy="1330.31" r="2"/>
<circle clip-path="url(#clip632)" style="fill:#009af9; stroke:none; fill-opacity:0" cx="2114.84" cy="1362.58" r="2"/>
<circle clip-path="url(#clip632)" style="fill:#009af9; stroke:none; fill-opacity:0" cx="2162.69" cy="1368.44" r="2"/>
<circle clip-path="url(#clip632)" style="fill:#009af9; stroke:none; fill-opacity:0" cx="2210.55" cy="1378.82" r="2"/>
</svg>
