<?xml version="1.0" encoding="utf-8"?>
<svg xmlns="http://www.w3.org/2000/svg" xmlns:xlink="http://www.w3.org/1999/xlink" width="600" height="400" viewBox="0 0 2400 1600">
<defs>
  <clipPath id="clip520">
    <rect x="0" y="0" width="2400" height="1600"/>
  </clipPath>
</defs>
<path clip-path="url(#clip520)" d="M0 1600 L2400 1600 L2400 0 L0 0  Z" fill="#ffffff" fill-rule="evenodd" fill-opacity="1"/>
<defs>
  <clipPath id="clip521">
    <rect x="480" y="0" width="1681" height="1600"/>
  </clipPath>
</defs>
<path clip-path="url(#clip520)" d="M219.866 1423.18 L2352.76 1423.18 L2352.76 47.2441 L219.866 47.2441  Z" fill="#ffffff" fill-rule="evenodd" fill-opacity="1"/>
<defs>
  <clipPath id="clip522">
    <rect x="219" y="47" width="2134" height="1377"/>
  </clipPath>
</defs>
<polyline clip-path="url(#clip522)" style="stroke:#000000; stroke-linecap:round; stroke-linejoin:round; stroke-width:2; stroke-opacity:0.1; fill:none" points="276.199,1423.18 276.199,47.2441 "/>
<polyline clip-path="url(#clip522)" style="stroke:#000000; stroke-linecap:round; stroke-linejoin:round; stroke-width:2; stroke-opacity:0.1; fill:none" points="679.437,1423.18 679.437,47.2441 "/>
<polyline clip-path="url(#clip522)" style="stroke:#000000; stroke-linecap:round; stroke-linejoin:round; stroke-width:2; stroke-opacity:0.1; fill:none" points="1082.68,1423.18 1082.68,47.2441 "/>
<polyline clip-path="url(#clip522)" style="stroke:#000000; stroke-linecap:round; stroke-linejoin:round; stroke-width:2; stroke-opacity:0.1; fill:none" points="1485.91,1423.18 1485.91,47.2441 "/>
<polyline clip-path="url(#clip522)" style="stroke:#000000; stroke-linecap:round; stroke-linejoin:round; stroke-width:2; stroke-opacity:0.1; fill:none" points="1889.15,1423.18 1889.15,47.2441 "/>
<polyline clip-path="url(#clip522)" style="stroke:#000000; stroke-linecap:round; stroke-linejoin:round; stroke-width:2; stroke-opacity:0.1; fill:none" points="2292.39,1423.18 2292.39,47.2441 "/>
<polyline clip-path="url(#clip520)" style="stroke:#000000; stroke-linecap:round; stroke-linejoin:round; stroke-width:4; stroke-opacity:1; fill:none" points="219.866,1423.18 2352.76,1423.18 "/>
<polyline clip-path="url(#clip520)" style="stroke:#000000; stroke-linecap:round; stroke-linejoin:round; stroke-width:4; stroke-opacity:1; fill:none" points="276.199,1423.18 276.199,1404.28 "/>
<polyline clip-path="url(#clip520)" style="stroke:#000000; stroke-linecap:round; stroke-linejoin:round; stroke-width:4; stroke-opacity:1; fill:none" points="679.437,1423.18 679.437,1404.28 "/>
<polyline clip-path="url(#clip520)" style="stroke:#000000; stroke-linecap:round; stroke-linejoin:round; stroke-width:4; stroke-opacity:1; fill:none" points="1082.68,1423.18 1082.68,1404.28 "/>
<polyline clip-path="url(#clip520)" style="stroke:#000000; stroke-linecap:round; stroke-linejoin:round; stroke-width:4; stroke-opacity:1; fill:none" points="1485.91,1423.18 1485.91,1404.28 "/>
<polyline clip-path="url(#clip520)" style="stroke:#000000; stroke-linecap:round; stroke-linejoin:round; stroke-width:4; stroke-opacity:1; fill:none" points="1889.15,1423.18 1889.15,1404.28 "/>
<polyline clip-path="url(#clip520)" style="stroke:#000000; stroke-linecap:round; stroke-linejoin:round; stroke-width:4; stroke-opacity:1; fill:none" points="2292.39,1423.18 2292.39,1404.28 "/>
<path clip-path="url(#clip520)" d="M276.199 1454.1 Q272.588 1454.1 270.759 1457.66 Q268.953 1461.2 268.953 1468.33 Q268.953 1475.44 270.759 1479.01 Q272.588 1482.55 276.199 1482.55 Q279.833 1482.55 281.638 1479.01 Q283.467 1475.44 283.467 1468.33 Q283.467 1461.2 281.638 1457.66 Q279.833 1454.1 276.199 1454.1 M276.199 1450.39 Q282.009 1450.39 285.064 1455 Q288.143 1459.58 288.143 1468.33 Q288.143 1477.06 285.064 1481.67 Q282.009 1486.25 276.199 1486.25 Q270.389 1486.25 267.31 1481.67 Q264.254 1477.06 264.254 1468.33 Q264.254 1459.58 267.31 1455 Q270.389 1450.39 276.199 1450.39 Z" fill="#000000" fill-rule="nonzero" fill-opacity="1" /><path clip-path="url(#clip520)" d="M639.044 1481.64 L646.683 1481.64 L646.683 1455.28 L638.373 1456.95 L638.373 1452.69 L646.636 1451.02 L651.312 1451.02 L651.312 1481.64 L658.951 1481.64 L658.951 1485.58 L639.044 1485.58 L639.044 1481.64 Z" fill="#000000" fill-rule="nonzero" fill-opacity="1" /><path clip-path="url(#clip520)" d="M678.396 1454.1 Q674.784 1454.1 672.956 1457.66 Q671.15 1461.2 671.15 1468.33 Q671.15 1475.44 672.956 1479.01 Q674.784 1482.55 678.396 1482.55 Q682.03 1482.55 683.835 1479.01 Q685.664 1475.44 685.664 1468.33 Q685.664 1461.2 683.835 1457.66 Q682.03 1454.1 678.396 1454.1 M678.396 1450.39 Q684.206 1450.39 687.261 1455 Q690.34 1459.58 690.34 1468.33 Q690.34 1477.06 687.261 1481.67 Q684.206 1486.25 678.396 1486.25 Q672.585 1486.25 669.507 1481.67 Q666.451 1477.06 666.451 1468.33 Q666.451 1459.58 669.507 1455 Q672.585 1450.39 678.396 1450.39 Z" fill="#000000" fill-rule="nonzero" fill-opacity="1" /><path clip-path="url(#clip520)" d="M708.557 1454.1 Q704.946 1454.1 703.118 1457.66 Q701.312 1461.2 701.312 1468.33 Q701.312 1475.44 703.118 1479.01 Q704.946 1482.55 708.557 1482.55 Q712.192 1482.55 713.997 1479.01 Q715.826 1475.44 715.826 1468.33 Q715.826 1461.2 713.997 1457.66 Q712.192 1454.1 708.557 1454.1 M708.557 1450.39 Q714.368 1450.39 717.423 1455 Q720.502 1459.58 720.502 1468.33 Q720.502 1477.06 717.423 1481.67 Q714.368 1486.25 708.557 1486.25 Q702.747 1486.25 699.669 1481.67 Q696.613 1477.06 696.613 1468.33 Q696.613 1459.58 699.669 1455 Q702.747 1450.39 708.557 1450.39 Z" fill="#000000" fill-rule="nonzero" fill-opacity="1" /><path clip-path="url(#clip520)" d="M1046.37 1481.64 L1062.69 1481.64 L1062.69 1485.58 L1040.74 1485.58 L1040.74 1481.64 Q1043.41 1478.89 1047.99 1474.26 Q1052.59 1469.61 1053.78 1468.27 Q1056.02 1465.74 1056.9 1464.01 Q1057.8 1462.25 1057.8 1460.56 Q1057.8 1457.8 1055.86 1456.07 Q1053.94 1454.33 1050.84 1454.33 Q1048.64 1454.33 1046.18 1455.09 Q1043.75 1455.86 1040.97 1457.41 L1040.97 1452.69 Q1043.8 1451.55 1046.25 1450.97 Q1048.71 1450.39 1050.74 1450.39 Q1056.11 1450.39 1059.31 1453.08 Q1062.5 1455.77 1062.5 1460.26 Q1062.5 1462.39 1061.69 1464.31 Q1060.9 1466.2 1058.8 1468.8 Q1058.22 1469.47 1055.12 1472.69 Q1052.02 1475.88 1046.37 1481.64 Z" fill="#000000" fill-rule="nonzero" fill-opacity="1" /><path clip-path="url(#clip520)" d="M1082.5 1454.1 Q1078.89 1454.1 1077.06 1457.66 Q1075.26 1461.2 1075.26 1468.33 Q1075.26 1475.44 1077.06 1479.01 Q1078.89 1482.55 1082.5 1482.55 Q1086.14 1482.55 1087.94 1479.01 Q1089.77 1475.44 1089.77 1468.33 Q1089.77 1461.2 1087.94 1457.66 Q1086.14 1454.1 1082.5 1454.1 M1082.5 1450.39 Q1088.31 1450.39 1091.37 1455 Q1094.45 1459.58 1094.45 1468.33 Q1094.45 1477.06 1091.37 1481.67 Q1088.31 1486.25 1082.5 1486.25 Q1076.69 1486.25 1073.61 1481.67 Q1070.56 1477.06 1070.56 1468.33 Q1070.56 1459.58 1073.61 1455 Q1076.69 1450.39 1082.5 1450.39 Z" fill="#000000" fill-rule="nonzero" fill-opacity="1" /><path clip-path="url(#clip520)" d="M1112.66 1454.1 Q1109.05 1454.1 1107.22 1457.66 Q1105.42 1461.2 1105.42 1468.33 Q1105.42 1475.44 1107.22 1479.01 Q1109.05 1482.55 1112.66 1482.55 Q1116.3 1482.55 1118.1 1479.01 Q1119.93 1475.44 1119.93 1468.33 Q1119.93 1461.2 1118.1 1457.66 Q1116.3 1454.1 1112.66 1454.1 M1112.66 1450.39 Q1118.47 1450.39 1121.53 1455 Q1124.61 1459.58 1124.61 1468.33 Q1124.61 1477.06 1121.53 1481.67 Q1118.47 1486.25 1112.66 1486.25 Q1106.85 1486.25 1103.78 1481.67 Q1100.72 1477.06 1100.72 1468.33 Q1100.72 1459.58 1103.78 1455 Q1106.85 1450.39 1112.66 1450.39 Z" fill="#000000" fill-rule="nonzero" fill-opacity="1" /><path clip-path="url(#clip520)" d="M1459.68 1466.95 Q1463.03 1467.66 1464.91 1469.93 Q1466.81 1472.2 1466.81 1475.53 Q1466.81 1480.65 1463.29 1483.45 Q1459.77 1486.25 1453.29 1486.25 Q1451.11 1486.25 1448.8 1485.81 Q1446.5 1485.39 1444.05 1484.54 L1444.05 1480.02 Q1446 1481.16 1448.31 1481.74 Q1450.62 1482.32 1453.15 1482.32 Q1457.55 1482.32 1459.84 1480.58 Q1462.15 1478.84 1462.15 1475.53 Q1462.15 1472.48 1460 1470.77 Q1457.87 1469.03 1454.05 1469.03 L1450.02 1469.03 L1450.02 1465.19 L1454.24 1465.19 Q1457.69 1465.19 1459.51 1463.82 Q1461.34 1462.43 1461.34 1459.84 Q1461.34 1457.18 1459.44 1455.77 Q1457.57 1454.33 1454.05 1454.33 Q1452.13 1454.33 1449.93 1454.75 Q1447.73 1455.16 1445.09 1456.04 L1445.09 1451.88 Q1447.75 1451.14 1450.07 1450.77 Q1452.41 1450.39 1454.47 1450.39 Q1459.79 1450.39 1462.89 1452.83 Q1466 1455.23 1466 1459.35 Q1466 1462.22 1464.35 1464.21 Q1462.71 1466.18 1459.68 1466.95 Z" fill="#000000" fill-rule="nonzero" fill-opacity="1" /><path clip-path="url(#clip520)" d="M1485.67 1454.1 Q1482.06 1454.1 1480.23 1457.66 Q1478.43 1461.2 1478.43 1468.33 Q1478.43 1475.44 1480.23 1479.01 Q1482.06 1482.55 1485.67 1482.55 Q1489.31 1482.55 1491.11 1479.01 Q1492.94 1475.44 1492.94 1468.33 Q1492.94 1461.2 1491.11 1457.66 Q1489.31 1454.1 1485.67 1454.1 M1485.67 1450.39 Q1491.48 1450.39 1494.54 1455 Q1497.62 1459.58 1497.62 1468.33 Q1497.62 1477.06 1494.54 1481.67 Q1491.48 1486.25 1485.67 1486.25 Q1479.86 1486.25 1476.78 1481.67 Q1473.73 1477.06 1473.73 1468.33 Q1473.73 1459.58 1476.78 1455 Q1479.86 1450.39 1485.67 1450.39 Z" fill="#000000" fill-rule="nonzero" fill-opacity="1" /><path clip-path="url(#clip520)" d="M1515.83 1454.1 Q1512.22 1454.1 1510.39 1457.66 Q1508.59 1461.2 1508.59 1468.33 Q1508.59 1475.44 1510.39 1479.01 Q1512.22 1482.55 1515.83 1482.55 Q1519.47 1482.55 1521.27 1479.01 Q1523.1 1475.44 1523.1 1468.33 Q1523.1 1461.2 1521.27 1457.66 Q1519.47 1454.1 1515.83 1454.1 M1515.83 1450.39 Q1521.64 1450.39 1524.7 1455 Q1527.78 1459.58 1527.78 1468.33 Q1527.78 1477.06 1524.7 1481.67 Q1521.64 1486.25 1515.83 1486.25 Q1510.02 1486.25 1506.94 1481.67 Q1503.89 1477.06 1503.89 1468.33 Q1503.89 1459.58 1506.94 1455 Q1510.02 1450.39 1515.83 1450.39 Z" fill="#000000" fill-rule="nonzero" fill-opacity="1" /><path clip-path="url(#clip520)" d="M1862.24 1455.09 L1850.44 1473.54 L1862.24 1473.54 L1862.24 1455.09 M1861.02 1451.02 L1866.9 1451.02 L1866.9 1473.54 L1871.83 1473.54 L1871.83 1477.43 L1866.9 1477.43 L1866.9 1485.58 L1862.24 1485.58 L1862.24 1477.43 L1846.64 1477.43 L1846.64 1472.92 L1861.02 1451.02 Z" fill="#000000" fill-rule="nonzero" fill-opacity="1" /><path clip-path="url(#clip520)" d="M1889.56 1454.1 Q1885.95 1454.1 1884.12 1457.66 Q1882.31 1461.2 1882.31 1468.33 Q1882.31 1475.44 1884.12 1479.01 Q1885.95 1482.55 1889.56 1482.55 Q1893.19 1482.55 1895 1479.01 Q1896.83 1475.44 1896.83 1468.33 Q1896.83 1461.2 1895 1457.66 Q1893.19 1454.1 1889.56 1454.1 M1889.56 1450.39 Q1895.37 1450.39 1898.42 1455 Q1901.5 1459.58 1901.5 1468.33 Q1901.5 1477.06 1898.42 1481.67 Q1895.37 1486.25 1889.56 1486.25 Q1883.75 1486.25 1880.67 1481.67 Q1877.61 1477.06 1877.61 1468.33 Q1877.61 1459.58 1880.67 1455 Q1883.75 1450.39 1889.56 1450.39 Z" fill="#000000" fill-rule="nonzero" fill-opacity="1" /><path clip-path="url(#clip520)" d="M1919.72 1454.1 Q1916.11 1454.1 1914.28 1457.66 Q1912.47 1461.2 1912.47 1468.33 Q1912.47 1475.44 1914.28 1479.01 Q1916.11 1482.55 1919.72 1482.55 Q1923.35 1482.55 1925.16 1479.01 Q1926.99 1475.44 1926.99 1468.33 Q1926.99 1461.2 1925.16 1457.66 Q1923.35 1454.1 1919.72 1454.1 M1919.72 1450.39 Q1925.53 1450.39 1928.59 1455 Q1931.66 1459.58 1931.66 1468.33 Q1931.66 1477.06 1928.59 1481.67 Q1925.53 1486.25 1919.72 1486.25 Q1913.91 1486.25 1910.83 1481.67 Q1907.78 1477.06 1907.78 1468.33 Q1907.78 1459.58 1910.83 1455 Q1913.91 1450.39 1919.72 1450.39 Z" fill="#000000" fill-rule="nonzero" fill-opacity="1" /><path clip-path="url(#clip520)" d="M2252.01 1451.02 L2270.37 1451.02 L2270.37 1454.96 L2256.29 1454.96 L2256.29 1463.43 Q2257.31 1463.08 2258.33 1462.92 Q2259.35 1462.73 2260.37 1462.73 Q2266.15 1462.73 2269.53 1465.9 Q2272.91 1469.08 2272.91 1474.49 Q2272.91 1480.07 2269.44 1483.17 Q2265.97 1486.25 2259.65 1486.25 Q2257.47 1486.25 2255.2 1485.88 Q2252.96 1485.51 2250.55 1484.77 L2250.55 1480.07 Q2252.63 1481.2 2254.86 1481.76 Q2257.08 1482.32 2259.56 1482.32 Q2263.56 1482.32 2265.9 1480.21 Q2268.24 1478.1 2268.24 1474.49 Q2268.24 1470.88 2265.9 1468.77 Q2263.56 1466.67 2259.56 1466.67 Q2257.68 1466.67 2255.81 1467.08 Q2253.95 1467.5 2252.01 1468.38 L2252.01 1451.02 Z" fill="#000000" fill-rule="nonzero" fill-opacity="1" /><path clip-path="url(#clip520)" d="M2292.12 1454.1 Q2288.51 1454.1 2286.69 1457.66 Q2284.88 1461.2 2284.88 1468.33 Q2284.88 1475.44 2286.69 1479.01 Q2288.51 1482.55 2292.12 1482.55 Q2295.76 1482.55 2297.56 1479.01 Q2299.39 1475.44 2299.39 1468.33 Q2299.39 1461.2 2297.56 1457.66 Q2295.76 1454.1 2292.12 1454.1 M2292.12 1450.39 Q2297.94 1450.39 2300.99 1455 Q2304.07 1459.58 2304.07 1468.33 Q2304.07 1477.06 2300.99 1481.67 Q2297.94 1486.25 2292.12 1486.25 Q2286.31 1486.25 2283.24 1481.67 Q2280.18 1477.06 2280.18 1468.33 Q2280.18 1459.58 2283.24 1455 Q2286.31 1450.39 2292.12 1450.39 Z" fill="#000000" fill-rule="nonzero" fill-opacity="1" /><path clip-path="url(#clip520)" d="M2322.29 1454.1 Q2318.68 1454.1 2316.85 1457.66 Q2315.04 1461.2 2315.04 1468.33 Q2315.04 1475.44 2316.85 1479.01 Q2318.68 1482.55 2322.29 1482.55 Q2325.92 1482.55 2327.73 1479.01 Q2329.56 1475.44 2329.56 1468.33 Q2329.56 1461.2 2327.73 1457.66 Q2325.92 1454.1 2322.29 1454.1 M2322.29 1450.39 Q2328.1 1450.39 2331.15 1455 Q2334.23 1459.58 2334.23 1468.33 Q2334.23 1477.06 2331.15 1481.67 Q2328.1 1486.25 2322.29 1486.25 Q2316.48 1486.25 2313.4 1481.67 Q2310.34 1477.06 2310.34 1468.33 Q2310.34 1459.58 2313.4 1455 Q2316.48 1450.39 2322.29 1450.39 Z" fill="#000000" fill-rule="nonzero" fill-opacity="1" /><path clip-path="url(#clip520)" d="M1242.63 1518.52 L1248.48 1518.52 L1248.48 1568.04 L1242.63 1568.04 L1242.63 1518.52 Z" fill="#000000" fill-rule="nonzero" fill-opacity="1" /><path clip-path="url(#clip520)" d="M1276.94 1550.12 Q1269.84 1550.12 1267.1 1551.75 Q1264.37 1553.37 1264.37 1557.29 Q1264.37 1560.4 1266.4 1562.25 Q1268.47 1564.07 1272 1564.07 Q1276.87 1564.07 1279.8 1560.63 Q1282.76 1557.16 1282.76 1551.43 L1282.76 1550.12 L1276.94 1550.12 M1288.62 1547.71 L1288.62 1568.04 L1282.76 1568.04 L1282.76 1562.63 Q1280.76 1565.88 1277.77 1567.44 Q1274.77 1568.97 1270.44 1568.97 Q1264.97 1568.97 1261.72 1565.91 Q1258.51 1562.82 1258.51 1557.67 Q1258.51 1551.65 1262.52 1548.6 Q1266.56 1545.54 1274.55 1545.54 L1282.76 1545.54 L1282.76 1544.97 Q1282.76 1540.93 1280.09 1538.73 Q1277.45 1536.5 1272.64 1536.5 Q1269.59 1536.5 1266.69 1537.23 Q1263.79 1537.97 1261.12 1539.43 L1261.12 1534.02 Q1264.33 1532.78 1267.36 1532.17 Q1270.38 1531.54 1273.25 1531.54 Q1280.98 1531.54 1284.8 1535.55 Q1288.62 1539.56 1288.62 1547.71 Z" fill="#000000" fill-rule="nonzero" fill-opacity="1" /><path clip-path="url(#clip520)" d="M1324.14 1549.81 Q1324.14 1543.44 1321.5 1539.94 Q1318.89 1536.44 1314.15 1536.44 Q1309.43 1536.44 1306.79 1539.94 Q1304.18 1543.44 1304.18 1549.81 Q1304.18 1556.14 1306.79 1559.64 Q1309.43 1563.14 1314.15 1563.14 Q1318.89 1563.14 1321.5 1559.64 Q1324.14 1556.14 1324.14 1549.81 M1330 1563.62 Q1330 1572.72 1325.95 1577.15 Q1321.91 1581.6 1313.57 1581.6 Q1310.48 1581.6 1307.75 1581.13 Q1305.01 1580.68 1302.43 1579.72 L1302.43 1574.03 Q1305.01 1575.43 1307.52 1576.1 Q1310.04 1576.76 1312.65 1576.76 Q1318.41 1576.76 1321.27 1573.74 Q1324.14 1570.75 1324.14 1564.67 L1324.14 1561.77 Q1322.33 1564.92 1319.49 1566.48 Q1316.66 1568.04 1312.71 1568.04 Q1306.16 1568.04 1302.15 1563.05 Q1298.14 1558.05 1298.14 1549.81 Q1298.14 1541.53 1302.15 1536.53 Q1306.16 1531.54 1312.71 1531.54 Q1316.66 1531.54 1319.49 1533.1 Q1322.33 1534.66 1324.14 1537.81 L1324.14 1532.4 L1330 1532.4 L1330 1563.62 Z" fill="#000000" fill-rule="nonzero" fill-opacity="1" /><polyline clip-path="url(#clip522)" style="stroke:#000000; stroke-linecap:round; stroke-linejoin:round; stroke-width:2; stroke-opacity:0.1; fill:none" points="219.866,1267.71 2352.76,1267.71 "/>
<polyline clip-path="url(#clip522)" style="stroke:#000000; stroke-linecap:round; stroke-linejoin:round; stroke-width:2; stroke-opacity:0.1; fill:none" points="219.866,928.005 2352.76,928.005 "/>
<polyline clip-path="url(#clip522)" style="stroke:#000000; stroke-linecap:round; stroke-linejoin:round; stroke-width:2; stroke-opacity:0.1; fill:none" points="219.866,588.296 2352.76,588.296 "/>
<polyline clip-path="url(#clip522)" style="stroke:#000000; stroke-linecap:round; stroke-linejoin:round; stroke-width:2; stroke-opacity:0.1; fill:none" points="219.866,248.587 2352.76,248.587 "/>
<polyline clip-path="url(#clip520)" style="stroke:#000000; stroke-linecap:round; stroke-linejoin:round; stroke-width:4; stroke-opacity:1; fill:none" points="219.866,1423.18 219.866,47.2441 "/>
<polyline clip-path="url(#clip520)" style="stroke:#000000; stroke-linecap:round; stroke-linejoin:round; stroke-width:4; stroke-opacity:1; fill:none" points="219.866,1267.71 238.764,1267.71 "/>
<polyline clip-path="url(#clip520)" style="stroke:#000000; stroke-linecap:round; stroke-linejoin:round; stroke-width:4; stroke-opacity:1; fill:none" points="219.866,928.005 238.764,928.005 "/>
<polyline clip-path="url(#clip520)" style="stroke:#000000; stroke-linecap:round; stroke-linejoin:round; stroke-width:4; stroke-opacity:1; fill:none" points="219.866,588.296 238.764,588.296 "/>
<polyline clip-path="url(#clip520)" style="stroke:#000000; stroke-linecap:round; stroke-linejoin:round; stroke-width:4; stroke-opacity:1; fill:none" points="219.866,248.587 238.764,248.587 "/>
<path clip-path="url(#clip520)" d="M126.691 1253.51 Q123.08 1253.51 121.251 1257.08 Q119.445 1260.62 119.445 1267.75 Q119.445 1274.86 121.251 1278.42 Q123.08 1281.96 126.691 1281.96 Q130.325 1281.96 132.13 1278.42 Q133.959 1274.86 133.959 1267.75 Q133.959 1260.62 132.13 1257.08 Q130.325 1253.51 126.691 1253.51 M126.691 1249.81 Q132.501 1249.81 135.556 1254.42 Q138.635 1259 138.635 1267.75 Q138.635 1276.48 135.556 1281.08 Q132.501 1285.67 126.691 1285.67 Q120.88 1285.67 117.802 1281.08 Q114.746 1276.48 114.746 1267.75 Q114.746 1259 117.802 1254.42 Q120.88 1249.81 126.691 1249.81 Z" fill="#000000" fill-rule="nonzero" fill-opacity="1" /><path clip-path="url(#clip520)" d="M146.853 1279.11 L151.737 1279.11 L151.737 1284.99 L146.853 1284.99 L146.853 1279.11 Z" fill="#000000" fill-rule="nonzero" fill-opacity="1" /><path clip-path="url(#clip520)" d="M171.922 1253.51 Q168.311 1253.51 166.482 1257.08 Q164.677 1260.62 164.677 1267.75 Q164.677 1274.86 166.482 1278.42 Q168.311 1281.96 171.922 1281.96 Q175.556 1281.96 177.362 1278.42 Q179.19 1274.86 179.19 1267.75 Q179.19 1260.62 177.362 1257.08 Q175.556 1253.51 171.922 1253.51 M171.922 1249.81 Q177.732 1249.81 180.788 1254.42 Q183.866 1259 183.866 1267.75 Q183.866 1276.48 180.788 1281.08 Q177.732 1285.67 171.922 1285.67 Q166.112 1285.67 163.033 1281.08 Q159.978 1276.48 159.978 1267.75 Q159.978 1259 163.033 1254.42 Q166.112 1249.81 171.922 1249.81 Z" fill="#000000" fill-rule="nonzero" fill-opacity="1" /><path clip-path="url(#clip520)" d="M128.288 913.804 Q124.677 913.804 122.848 917.369 Q121.043 920.91 121.043 928.04 Q121.043 935.146 122.848 938.711 Q124.677 942.253 128.288 942.253 Q131.922 942.253 133.728 938.711 Q135.556 935.146 135.556 928.04 Q135.556 920.91 133.728 917.369 Q131.922 913.804 128.288 913.804 M128.288 910.1 Q134.098 910.1 137.154 914.707 Q140.232 919.29 140.232 928.04 Q140.232 936.767 137.154 941.373 Q134.098 945.956 128.288 945.956 Q122.478 945.956 119.399 941.373 Q116.343 936.767 116.343 928.04 Q116.343 919.29 119.399 914.707 Q122.478 910.1 128.288 910.1 Z" fill="#000000" fill-rule="nonzero" fill-opacity="1" /><path clip-path="url(#clip520)" d="M148.45 939.406 L153.334 939.406 L153.334 945.285 L148.45 945.285 L148.45 939.406 Z" fill="#000000" fill-rule="nonzero" fill-opacity="1" /><path clip-path="url(#clip520)" d="M167.547 941.35 L183.866 941.35 L183.866 945.285 L161.922 945.285 L161.922 941.35 Q164.584 938.595 169.167 933.966 Q173.774 929.313 174.954 927.97 Q177.2 925.447 178.079 923.711 Q178.982 921.952 178.982 920.262 Q178.982 917.508 177.038 915.771 Q175.116 914.035 172.014 914.035 Q169.815 914.035 167.362 914.799 Q164.931 915.563 162.153 917.114 L162.153 912.392 Q164.977 911.258 167.431 910.679 Q169.885 910.1 171.922 910.1 Q177.292 910.1 180.487 912.785 Q183.681 915.471 183.681 919.961 Q183.681 922.091 182.871 924.012 Q182.084 925.91 179.977 928.503 Q179.399 929.174 176.297 932.392 Q173.195 935.586 167.547 941.35 Z" fill="#000000" fill-rule="nonzero" fill-opacity="1" /><path clip-path="url(#clip520)" d="M126.205 574.095 Q122.593 574.095 120.765 577.66 Q118.959 581.201 118.959 588.331 Q118.959 595.437 120.765 599.002 Q122.593 602.544 126.205 602.544 Q129.839 602.544 131.644 599.002 Q133.473 595.437 133.473 588.331 Q133.473 581.201 131.644 577.66 Q129.839 574.095 126.205 574.095 M126.205 570.391 Q132.015 570.391 135.07 574.998 Q138.149 579.581 138.149 588.331 Q138.149 597.058 135.07 601.664 Q132.015 606.247 126.205 606.247 Q120.394 606.247 117.316 601.664 Q114.26 597.058 114.26 588.331 Q114.26 579.581 117.316 574.998 Q120.394 570.391 126.205 570.391 Z" fill="#000000" fill-rule="nonzero" fill-opacity="1" /><path clip-path="url(#clip520)" d="M146.366 599.696 L151.251 599.696 L151.251 605.576 L146.366 605.576 L146.366 599.696 Z" fill="#000000" fill-rule="nonzero" fill-opacity="1" /><path clip-path="url(#clip520)" d="M174.283 575.09 L162.477 593.539 L174.283 593.539 L174.283 575.09 M173.056 571.016 L178.936 571.016 L178.936 593.539 L183.866 593.539 L183.866 597.428 L178.936 597.428 L178.936 605.576 L174.283 605.576 L174.283 597.428 L158.681 597.428 L158.681 592.914 L173.056 571.016 Z" fill="#000000" fill-rule="nonzero" fill-opacity="1" /><path clip-path="url(#clip520)" d="M126.529 234.386 Q122.918 234.386 121.089 237.95 Q119.283 241.492 119.283 248.622 Q119.283 255.728 121.089 259.293 Q122.918 262.835 126.529 262.835 Q130.163 262.835 131.968 259.293 Q133.797 255.728 133.797 248.622 Q133.797 241.492 131.968 237.95 Q130.163 234.386 126.529 234.386 M126.529 230.682 Q132.339 230.682 135.394 235.288 Q138.473 239.872 138.473 248.622 Q138.473 257.348 135.394 261.955 Q132.339 266.538 126.529 266.538 Q120.718 266.538 117.64 261.955 Q114.584 257.348 114.584 248.622 Q114.584 239.872 117.64 235.288 Q120.718 230.682 126.529 230.682 Z" fill="#000000" fill-rule="nonzero" fill-opacity="1" /><path clip-path="url(#clip520)" d="M146.691 259.987 L151.575 259.987 L151.575 265.867 L146.691 265.867 L146.691 259.987 Z" fill="#000000" fill-rule="nonzero" fill-opacity="1" /><path clip-path="url(#clip520)" d="M172.339 246.724 Q169.19 246.724 167.339 248.876 Q165.51 251.029 165.51 254.779 Q165.51 258.506 167.339 260.682 Q169.19 262.835 172.339 262.835 Q175.487 262.835 177.315 260.682 Q179.167 258.506 179.167 254.779 Q179.167 251.029 177.315 248.876 Q175.487 246.724 172.339 246.724 M181.621 232.071 L181.621 236.33 Q179.862 235.497 178.056 235.057 Q176.274 234.617 174.514 234.617 Q169.885 234.617 167.431 237.742 Q165.001 240.867 164.653 247.187 Q166.019 245.173 168.079 244.108 Q170.139 243.02 172.616 243.02 Q177.825 243.02 180.834 246.191 Q183.866 249.339 183.866 254.779 Q183.866 260.103 180.718 263.321 Q177.57 266.538 172.339 266.538 Q166.343 266.538 163.172 261.955 Q160.001 257.348 160.001 248.622 Q160.001 240.427 163.89 235.566 Q167.778 230.682 174.329 230.682 Q176.089 230.682 177.871 231.029 Q179.676 231.376 181.621 232.071 Z" fill="#000000" fill-rule="nonzero" fill-opacity="1" /><path clip-path="url(#clip520)" d="M46.0847 960.287 Q46.0847 967.385 47.7079 970.122 Q49.3312 972.86 53.2461 972.86 Q56.3653 972.86 58.2114 970.823 Q60.0256 968.754 60.0256 965.221 Q60.0256 960.351 56.5881 957.423 Q53.1188 954.463 47.3897 954.463 L46.0847 954.463 L46.0847 960.287 M43.6657 948.606 L64.0042 948.606 L64.0042 954.463 L58.5933 954.463 Q61.8398 956.468 63.3994 959.46 Q64.9272 962.452 64.9272 966.78 Q64.9272 972.255 61.8716 975.501 Q58.7843 978.716 53.6281 978.716 Q47.6125 978.716 44.5569 974.706 Q41.5014 970.664 41.5014 962.675 L41.5014 954.463 L40.9285 954.463 Q36.8862 954.463 34.6901 957.136 Q32.4621 959.778 32.4621 964.584 Q32.4621 967.64 33.1941 970.536 Q33.9262 973.433 35.3903 976.106 L29.9795 976.106 Q28.7381 972.892 28.1334 969.868 Q27.4968 966.844 27.4968 963.98 Q27.4968 956.245 31.5072 952.426 Q35.5176 948.606 43.6657 948.606 Z" fill="#000000" fill-rule="nonzero" fill-opacity="1" /><path clip-path="url(#clip520)" d="M49.9359 937.148 L28.3562 937.148 L28.3562 931.292 L49.7131 931.292 Q54.7739 931.292 57.3202 929.318 Q59.8346 927.345 59.8346 923.398 Q59.8346 918.656 56.8109 915.918 Q53.7872 913.149 48.5673 913.149 L28.3562 913.149 L28.3562 907.293 L64.0042 907.293 L64.0042 913.149 L58.5296 913.149 Q61.7762 915.282 63.3676 918.115 Q64.9272 920.916 64.9272 924.639 Q64.9272 930.782 61.1078 933.965 Q57.2883 937.148 49.9359 937.148 M27.4968 922.411 L27.4968 922.411 Z" fill="#000000" fill-rule="nonzero" fill-opacity="1" /><path clip-path="url(#clip520)" d="M18.2347 889.437 L28.3562 889.437 L28.3562 877.374 L32.9077 877.374 L32.9077 889.437 L52.2594 889.437 Q56.6199 889.437 57.8613 888.259 Q59.1026 887.05 59.1026 883.39 L59.1026 877.374 L64.0042 877.374 L64.0042 883.39 Q64.0042 890.169 61.4897 892.747 Q58.9434 895.325 52.2594 895.325 L32.9077 895.325 L32.9077 899.622 L28.3562 899.622 L28.3562 895.325 L18.2347 895.325 L18.2347 889.437 Z" fill="#000000" fill-rule="nonzero" fill-opacity="1" /><path clip-path="url(#clip520)" d="M32.4621 855.858 Q32.4621 860.569 36.1542 863.306 Q39.8145 866.043 46.212 866.043 Q52.6095 866.043 56.3017 863.338 Q59.9619 860.6 59.9619 855.858 Q59.9619 851.179 56.2698 848.442 Q52.5777 845.705 46.212 845.705 Q39.8781 845.705 36.186 848.442 Q32.4621 851.179 32.4621 855.858 M27.4968 855.858 Q27.4968 848.219 32.4621 843.859 Q37.4273 839.498 46.212 839.498 Q54.9649 839.498 59.9619 843.859 Q64.9272 848.219 64.9272 855.858 Q64.9272 863.529 59.9619 867.889 Q54.9649 872.218 46.212 872.218 Q37.4273 872.218 32.4621 867.889 Q27.4968 863.529 27.4968 855.858 Z" fill="#000000" fill-rule="nonzero" fill-opacity="1" /><path clip-path="url(#clip520)" d="M29.7248 804.137 L35.1993 804.137 Q33.8307 806.619 33.1623 809.134 Q32.4621 811.616 32.4621 814.163 Q32.4621 819.86 36.0905 823.011 Q39.6872 826.162 46.212 826.162 Q52.7369 826.162 56.3653 823.011 Q59.9619 819.86 59.9619 814.163 Q59.9619 811.616 59.2935 809.134 Q58.5933 806.619 57.2247 804.137 L62.6355 804.137 Q63.7814 806.587 64.3543 809.229 Q64.9272 811.839 64.9272 814.799 Q64.9272 822.852 59.8664 827.594 Q54.8057 832.337 46.212 832.337 Q37.491 832.337 32.4939 827.562 Q27.4968 822.756 27.4968 814.417 Q27.4968 811.712 28.0697 809.134 Q28.6108 806.556 29.7248 804.137 Z" fill="#000000" fill-rule="nonzero" fill-opacity="1" /><path clip-path="url(#clip520)" d="M32.4621 780.138 Q32.4621 784.849 36.1542 787.586 Q39.8145 790.323 46.212 790.323 Q52.6095 790.323 56.3017 787.618 Q59.9619 784.88 59.9619 780.138 Q59.9619 775.459 56.2698 772.722 Q52.5777 769.985 46.212 769.985 Q39.8781 769.985 36.186 772.722 Q32.4621 775.459 32.4621 780.138 M27.4968 780.138 Q27.4968 772.499 32.4621 768.139 Q37.4273 763.778 46.212 763.778 Q54.9649 763.778 59.9619 768.139 Q64.9272 772.499 64.9272 780.138 Q64.9272 787.809 59.9619 792.169 Q54.9649 796.498 46.212 796.498 Q37.4273 796.498 32.4621 792.169 Q27.4968 787.809 27.4968 780.138 Z" fill="#000000" fill-rule="nonzero" fill-opacity="1" /><path clip-path="url(#clip520)" d="M33.8307 733.414 Q33.2578 734.4 33.0032 735.578 Q32.7167 736.724 32.7167 738.124 Q32.7167 743.09 35.9632 745.763 Q39.1779 748.405 45.2253 748.405 L64.0042 748.405 L64.0042 754.293 L28.3562 754.293 L28.3562 748.405 L33.8944 748.405 Q30.6479 746.559 29.0883 743.599 Q27.4968 740.639 27.4968 736.406 Q27.4968 735.801 27.5923 735.069 Q27.656 734.337 27.8151 733.445 L33.8307 733.414 Z" fill="#000000" fill-rule="nonzero" fill-opacity="1" /><path clip-path="url(#clip520)" d="M33.8307 707.76 Q33.2578 708.747 33.0032 709.924 Q32.7167 711.07 32.7167 712.47 Q32.7167 717.436 35.9632 720.109 Q39.1779 722.751 45.2253 722.751 L64.0042 722.751 L64.0042 728.639 L28.3562 728.639 L28.3562 722.751 L33.8944 722.751 Q30.6479 720.905 29.0883 717.945 Q27.4968 714.985 27.4968 710.752 Q27.4968 710.147 27.5923 709.415 Q27.656 708.683 27.8151 707.792 L33.8307 707.76 Z" fill="#000000" fill-rule="nonzero" fill-opacity="1" /><path clip-path="url(#clip520)" d="M44.7161 672.558 L47.5806 672.558 L47.5806 699.484 Q53.6281 699.102 56.8109 695.856 Q59.9619 692.578 59.9619 686.753 Q59.9619 683.379 59.1344 680.228 Q58.3069 677.045 56.6518 673.926 L62.1899 673.926 Q63.5267 677.077 64.227 680.387 Q64.9272 683.697 64.9272 687.103 Q64.9272 695.633 59.9619 700.63 Q54.9967 705.596 46.5303 705.596 Q37.7774 705.596 32.6531 700.885 Q27.4968 696.142 27.4968 688.122 Q27.4968 680.928 32.1438 676.759 Q36.7589 672.558 44.7161 672.558 M42.9973 678.414 Q38.1912 678.478 35.3266 681.119 Q32.4621 683.729 32.4621 688.058 Q32.4621 692.96 35.2312 695.92 Q38.0002 698.848 43.0292 699.293 L42.9973 678.414 Z" fill="#000000" fill-rule="nonzero" fill-opacity="1" /><path clip-path="url(#clip520)" d="M14.479 662.945 L14.479 657.089 L64.0042 657.089 L64.0042 662.945 L14.479 662.945 Z" fill="#000000" fill-rule="nonzero" fill-opacity="1" /><path clip-path="url(#clip520)" d="M46.0847 628.634 Q46.0847 635.732 47.7079 638.469 Q49.3312 641.206 53.2461 641.206 Q56.3653 641.206 58.2114 639.169 Q60.0256 637.101 60.0256 633.568 Q60.0256 628.698 56.5881 625.77 Q53.1188 622.81 47.3897 622.81 L46.0847 622.81 L46.0847 628.634 M43.6657 616.953 L64.0042 616.953 L64.0042 622.81 L58.5933 622.81 Q61.8398 624.815 63.3994 627.807 Q64.9272 630.798 64.9272 635.127 Q64.9272 640.602 61.8716 643.848 Q58.7843 647.063 53.6281 647.063 Q47.6125 647.063 44.5569 643.052 Q41.5014 639.01 41.5014 631.021 L41.5014 622.81 L40.9285 622.81 Q36.8862 622.81 34.6901 625.483 Q32.4621 628.125 32.4621 632.931 Q32.4621 635.987 33.1941 638.883 Q33.9262 641.779 35.3903 644.453 L29.9795 644.453 Q28.7381 641.238 28.1334 638.215 Q27.4968 635.191 27.4968 632.326 Q27.4968 624.592 31.5072 620.772 Q35.5176 616.953 43.6657 616.953 Z" fill="#000000" fill-rule="nonzero" fill-opacity="1" /><path clip-path="url(#clip520)" d="M18.2347 599.097 L28.3562 599.097 L28.3562 587.034 L32.9077 587.034 L32.9077 599.097 L52.2594 599.097 Q56.6199 599.097 57.8613 597.92 Q59.1026 596.71 59.1026 593.05 L59.1026 587.034 L64.0042 587.034 L64.0042 593.05 Q64.0042 599.829 61.4897 602.407 Q58.9434 604.986 52.2594 604.986 L32.9077 604.986 L32.9077 609.282 L28.3562 609.282 L28.3562 604.986 L18.2347 604.986 L18.2347 599.097 Z" fill="#000000" fill-rule="nonzero" fill-opacity="1" /><path clip-path="url(#clip520)" d="M28.3562 579.332 L28.3562 573.475 L64.0042 573.475 L64.0042 579.332 L28.3562 579.332 M14.479 579.332 L14.479 573.475 L21.895 573.475 L21.895 579.332 L14.479 579.332 Z" fill="#000000" fill-rule="nonzero" fill-opacity="1" /><path clip-path="url(#clip520)" d="M32.4621 547.408 Q32.4621 552.118 36.1542 554.856 Q39.8145 557.593 46.212 557.593 Q52.6095 557.593 56.3017 554.887 Q59.9619 552.15 59.9619 547.408 Q59.9619 542.729 56.2698 539.992 Q52.5777 537.254 46.212 537.254 Q39.8781 537.254 36.186 539.992 Q32.4621 542.729 32.4621 547.408 M27.4968 547.408 Q27.4968 539.769 32.4621 535.408 Q37.4273 531.048 46.212 531.048 Q54.9649 531.048 59.9619 535.408 Q64.9272 539.769 64.9272 547.408 Q64.9272 555.078 59.9619 559.439 Q54.9649 563.768 46.212 563.768 Q37.4273 563.768 32.4621 559.439 Q27.4968 555.078 27.4968 547.408 Z" fill="#000000" fill-rule="nonzero" fill-opacity="1" /><path clip-path="url(#clip520)" d="M42.4881 491.708 L64.0042 491.708 L64.0042 497.564 L42.679 497.564 Q37.6183 497.564 35.1038 499.538 Q32.5894 501.511 32.5894 505.458 Q32.5894 510.2 35.6131 512.937 Q38.6368 515.675 43.8567 515.675 L64.0042 515.675 L64.0042 521.563 L28.3562 521.563 L28.3562 515.675 L33.8944 515.675 Q30.6797 513.574 29.0883 510.741 Q27.4968 507.877 27.4968 504.153 Q27.4968 498.01 31.3163 494.859 Q35.1038 491.708 42.4881 491.708 Z" fill="#000000" fill-rule="nonzero" fill-opacity="1" /><polyline clip-path="url(#clip522)" style="stroke:#009af9; stroke-linecap:round; stroke-linejoin:round; stroke-width:4; stroke-opacity:1; fill:none" points="280.231,86.1857 284.263,308.574 288.296,415.104 292.328,511.971 296.361,577.36 300.393,649.559 304.425,689.401 308.458,719.979 312.49,747.564 316.523,776.003 320.555,787.961 324.587,813.375 328.62,838.016 332.652,851.859 336.684,866.528 340.717,895.292 344.749,909.52 348.782,927.951 352.814,928.436 356.846,946.329 360.879,962.207 364.911,971.184 368.944,987.287 372.976,983.682 377.008,993.991 381.041,1012.61 385.073,1028.67 389.105,1027.32 393.138,1023.63 397.17,1022.77 401.203,1018.48 405.235,1017.63 409.267,1003.7 413.3,1006.84 417.332,997.48 421.365,1001.91 425.397,1011.78 429.429,1024.01 433.462,1025.45 437.494,1028.17 441.526,1032.9 445.559,1022.82 449.591,1048.32 453.624,1055.6 457.656,1044.48 461.688,1044.08 465.721,1041.45 469.753,1039.95 473.786,1038.01 477.818,1048.03 481.85,1061.17 485.883,1078.53 489.915,1081.12 493.947,1081.33 497.98,1087.31 502.012,1081.69 506.045,1099.5 510.077,1118.56 514.109,1108.33 518.142,1108.74 522.174,1114.17 526.207,1123.34 530.239,1127.61 534.271,1118.11 538.304,1132.2 542.336,1128.85 546.368,1114.9 550.401,1108.43 554.433,1114.9 558.466,1117.5 562.498,1118.17 566.53,1140.94 570.563,1138.82 574.595,1133.47 578.628,1133.4 582.66,1134.62 586.692,1140.66 590.725,1156.74 594.757,1144.05 598.789,1156.2 602.822,1160.74 606.854,1155.92 610.887,1154.29 614.919,1157.77 618.951,1160.08 622.984,1158.65 627.016,1160.26 631.049,1153.63 635.081,1165.11 639.113,1170.31 643.146,1177.55 647.178,1173.69 651.21,1173.66 655.243,1171.01 659.275,1175.49 663.308,1161.35 667.34,1155.99 671.372,1147.06 675.405,1163.69 679.437,1168.26 683.47,1171.17 687.502,1183.14 691.534,1189.19 695.567,1205.58 699.599,1200.8 703.631,1184.16 707.664,1178.25 711.696,1185.73 715.729,1190.71 719.761,1186.98 723.793,1193.54 727.826,1214.51 731.858,1215.07 735.891,1222.75 739.923,1228.07 743.955,1239.96 747.988,1235.75 752.02,1226.76 756.052,1226.27 760.085,1230.09 764.117,1234.56 768.15,1239.64 772.182,1240.48 776.214,1228.01 780.247,1235.78 784.279,1228.99 788.312,1245.64 792.344,1257.59 796.376,1253.66 800.409,1249.77 804.441,1255.96 808.473,1260.73 812.506,1245.05 816.538,1269.49 820.571,1256.89 824.603,1251.83 828.635,1265.81 832.668,1266.16 836.7,1257.59 840.733,1267.17 844.765,1277.75 848.797,1270.22 852.83,1276.16 856.862,1286.52 860.894,1293.11 864.927,1298.2 868.959,1287.83 872.992,1289.08 877.024,1305.64 881.056,1306.6 885.089,1316.71 889.121,1323.78 893.154,1319.19 897.186,1318.51 901.218,1314.95 905.251,1303.03 909.283,1292.47 913.315,1287.12 917.348,1291.68 921.38,1301.29 925.413,1303.11 929.445,1298.16 933.477,1292.42 937.51,1299.15 941.542,1316.25 945.575,1305.99 949.607,1301.87 953.639,1304.92 957.672,1300.46 961.704,1286.82 965.736,1298.59 969.769,1301.36 973.801,1300 977.834,1289.36 981.866,1288.77 985.898,1299.5 989.931,1286.17 993.963,1286.24 997.996,1281.49 1002.03,1271.24 1006.06,1277.15 1010.09,1272.95 1014.13,1274.76 1018.16,1277.95 1022.19,1280.12 1026.22,1285.27 1030.25,1283.54 1034.29,1267.79 1038.32,1262.32 1042.35,1261.22 1046.38,1256.72 1050.42,1254.72 1054.45,1254.36 1058.48,1254.17 1062.51,1248.18 1066.55,1254.68 1070.58,1268.16 1074.61,1253.94 1078.64,1261.74 1082.68,1264.62 1086.71,1260.62 1090.74,1253.78 1094.77,1236.2 1098.81,1221.42 1102.84,1218.77 1106.87,1211.73 1110.9,1210.56 1114.93,1212.23 1118.97,1213.2 1123,1206.93 1127.03,1220.71 1131.06,1220.19 1135.1,1232.98 1139.13,1237.75 1143.16,1253.66 1147.19,1269.08 1151.23,1261.34 1155.26,1244.32 1159.29,1252.96 1163.32,1267.19 1167.36,1271.13 1171.39,1281.1 1175.42,1277.76 1179.45,1284.1 1183.49,1284.43 1187.52,1287.7 1191.55,1291.1 1195.58,1296.96 1199.61,1302.59 1203.65,1308.69 1207.68,1313.72 1211.71,1318.19 1215.74,1313.51 1219.78,1307.67 1223.81,1305.46 1227.84,1291.75 1231.87,1289.09 1235.91,1297.54 1239.94,1299.42 1243.97,1292.27 1248,1291.32 1252.04,1285.61 1256.07,1289.1 1260.1,1275.74 1264.13,1276.97 1268.17,1290.7 1272.2,1295 1276.23,1297.11 1280.26,1304.92 1284.29,1296.64 1288.33,1289.64 1292.36,1286.73 1296.39,1287.59 1300.42,1282.69 1304.46,1282.15 1308.49,1281.47 1312.52,1283.61 1316.55,1287.52 1320.59,1284.81 1324.62,1290.35 1328.65,1277.6 1332.68,1286.73 1336.72,1290.61 1340.75,1286.61 1344.78,1277.16 1348.81,1272.61 1352.85,1278.56 1356.88,1268.44 1360.91,1266.66 1364.94,1259.66 1368.97,1261.75 1373.01,1246.97 1377.04,1256.23 1381.07,1253.63 1385.1,1256.1 1389.14,1265.56 1393.17,1261.62 1397.2,1259.06 1401.23,1274.37 1405.27,1280.5 1409.3,1277.93 1413.33,1261.68 1417.36,1261.01 1421.4,1276.39 1425.43,1250.76 1429.46,1246.48 1433.49,1250.41 1437.53,1252.57 1441.56,1259.71 1445.59,1258.72 1449.62,1266.74 1453.66,1265.84 1457.69,1266.49 1461.72,1267.22 1465.75,1272.86 1469.78,1272.63 1473.82,1269.07 1477.85,1283.6 1481.88,1286.92 1485.91,1281.17 1489.95,1274.55 1493.98,1274.25 1498.01,1291.3 1502.04,1295.11 1506.08,1295.34 1510.11,1295.38 1514.14,1296.85 1518.17,1291.07 1522.21,1292.1 1526.24,1279.89 1530.27,1276.54 1534.3,1274.17 1538.34,1279.17 1542.37,1285.14 1546.4,1283.31 1550.43,1289.33 1554.46,1305.32 1558.5,1310.69 1562.53,1312.86 1566.56,1303.67 1570.59,1307.68 1574.63,1318.88 1578.66,1325.36 1582.69,1319.58 1586.72,1325.48 1590.76,1316.5 1594.79,1314.75 1598.82,1329.19 1602.85,1314.29 1606.89,1311.46 1610.92,1314.68 1614.95,1307.95 1618.98,1313.46 1623.02,1312.33 1627.05,1298.8 1631.08,1303.66 1635.11,1284.14 1639.14,1286.42 1643.18,1298.91 1647.21,1296.4 1651.24,1295.22 1655.27,1283.68 1659.31,1284.15 1663.34,1275.7 1667.37,1264.5 1671.4,1262.69 1675.44,1261.57 1679.47,1276.57 1683.5,1286.06 1687.53,1291.34 1691.57,1293.82 1695.6,1308.06 1699.63,1313.04 1703.66,1305.57 1707.7,1309.66 1711.73,1309.66 1715.76,1302.42 1719.79,1293.32 1723.82,1296.04 1727.86,1290.62 1731.89,1295.05 1735.92,1300.43 1739.95,1324.68 1743.99,1335.16 1748.02,1335 1752.05,1336.02 1756.08,1357.67 1760.12,1353.51 1764.15,1352.58 1768.18,1348.51 1772.21,1358.56 1776.25,1370.75 1780.28,1352.56 1784.31,1351.19 1788.34,1356.55 1792.38,1349.44 1796.41,1358.45 1800.44,1356.17 1804.47,1345.45 1808.5,1339.32 1812.54,1340.28 1816.57,1340.92 1820.6,1318.7 1824.63,1297.63 1828.67,1301.47 1832.7,1301.31 1836.73,1299.4 1840.76,1313.58 1844.8,1319.35 1848.83,1324.38 1852.86,1353.97 1856.89,1346.56 1860.93,1340.94 1864.96,1332.37 1868.99,1337.38 1873.02,1335.72 1877.06,1325.98 1881.09,1313.05 1885.12,1321.88 1889.15,1331.99 1893.19,1341.75 1897.22,1341.54 1901.25,1333.06 1905.28,1334.84 1909.31,1342.02 1913.35,1341.38 1917.38,1345.67 1921.41,1345.37 1925.44,1331.73 1929.48,1338.3 1933.51,1336.92 1937.54,1339.62 1941.57,1336.64 1945.61,1328.49 1949.64,1333.71 1953.67,1339.57 1957.7,1334.32 1961.74,1330.98 1965.77,1349.86 1969.8,1351.18 1973.83,1334.78 1977.87,1333.86 1981.9,1328.8 1985.93,1331.52 1989.96,1326.58 1993.99,1318.36 1998.03,1314.52 2002.06,1306.26 2006.09,1310.95 2010.12,1328.58 2014.16,1339.62 2018.19,1338.7 2022.22,1350.56 2026.25,1356.74 2030.29,1335.75 2034.32,1329.86 2038.35,1336.79 2042.38,1323.18 2046.42,1325.5 2050.45,1332.95 2054.48,1339.75 2058.51,1347.75 2062.55,1338.53 2066.58,1332.02 2070.61,1324.57 2074.64,1315.06 2078.67,1328.09 2082.71,1329.98 2086.74,1338.54 2090.77,1344.69 2094.8,1351.59 2098.84,1352.19 2102.87,1345.9 2106.9,1333.01 2110.93,1347.61 2114.97,1362.66 2119,1365.37 2123.03,1366.12 2127.06,1352.26 2131.1,1352.12 2135.13,1354.04 2139.16,1361.35 2143.19,1351.18 2147.23,1351.71 2151.26,1360.68 2155.29,1379.4 2159.32,1384.24 2163.35,1382.64 2167.39,1380.81 2171.42,1364.19 2175.45,1363.15 2179.48,1367.21 2183.52,1374.44 2187.55,1369.05 2191.58,1374.53 2195.61,1366.08 2199.65,1367.17 2203.68,1372.56 2207.71,1375.46 2211.74,1376.5 2215.78,1371.19 2219.81,1367.39 2223.84,1358.92 2227.87,1339.08 2231.91,1344.01 2235.94,1325.54 2239.97,1332.71 2244,1340.08 2248.03,1344.83 2252.07,1328.12 2256.1,1334.17 2260.13,1320.94 2264.16,1323.61 2268.2,1328.9 2272.23,1313.83 2276.26,1311.75 2280.29,1323.34 2284.33,1330.13 2288.36,1326.73 2292.39,1323.91 "/>
<path clip-path="url(#clip520)" d="M2015.94 196.789 L2281.66 196.789 L2281.66 93.1086 L2015.94 93.1086  Z" fill="#ffffff" fill-rule="evenodd" fill-opacity="1"/>
<polyline clip-path="url(#clip520)" style="stroke:#000000; stroke-linecap:round; stroke-linejoin:round; stroke-width:4; stroke-opacity:1; fill:none" points="2015.94,196.789 2281.66,196.789 2281.66,93.1086 2015.94,93.1086 2015.94,196.789 "/>
<polyline clip-path="url(#clip520)" style="stroke:#009af9; stroke-linecap:round; stroke-linejoin:round; stroke-width:4; stroke-opacity:1; fill:none" points="2039.64,144.949 2181.83,144.949 "/>
<path clip-path="url(#clip520)" d="M2219.37 164.636 Q2217.57 169.266 2215.85 170.678 Q2214.14 172.09 2211.27 172.09 L2207.87 172.09 L2207.87 168.525 L2210.37 168.525 Q2212.13 168.525 2213.1 167.692 Q2214.07 166.858 2215.25 163.756 L2216.02 161.812 L2205.53 136.303 L2210.04 136.303 L2218.15 156.581 L2226.25 136.303 L2230.76 136.303 L2219.37 164.636 Z" fill="#000000" fill-rule="nonzero" fill-opacity="1" /><path clip-path="url(#clip520)" d="M2238.05 158.293 L2245.69 158.293 L2245.69 131.928 L2237.38 133.595 L2237.38 129.335 L2245.65 127.669 L2250.32 127.669 L2250.32 158.293 L2257.96 158.293 L2257.96 162.229 L2238.05 162.229 L2238.05 158.293 Z" fill="#000000" fill-rule="nonzero" fill-opacity="1" /></svg>
